<?xml version="1.0" encoding="utf-8"?>
<!-- Generator: Adobe Illustrator 18.0.0, SVG Export Plug-In . SVG Version: 6.00 Build 0)  -->
<!DOCTYPE svg PUBLIC "-//W3C//DTD SVG 1.1//EN" "http://www.w3.org/Graphics/SVG/1.1/DTD/svg11.dtd">
<svg version="1.1" xmlns="http://www.w3.org/2000/svg" xmlns:xlink="http://www.w3.org/1999/xlink" x="0px" y="0px"
	 viewBox="0 0 3400.8 792" enable-background="new 0 0 3400.8 792" xml:space="preserve">
<g id="Réteg_2">
	<linearGradient id="SVGID_1_" gradientUnits="userSpaceOnUse" x1="1700.8162" y1="746.8433" x2="1700.8162" y2="-303.42">
		<stop  offset="0" style="stop-color:#FBF5B0"/>
		<stop  offset="0.4516" style="stop-color:#F49156"/>
		<stop  offset="0.7742" style="stop-color:#BE6952"/>
		<stop  offset="1" style="stop-color:#7B4539"/>
	</linearGradient>
	<rect x="0" fill="url(#SVGID_1_)" width="3401.6" height="792"/>
</g>
<g id="Réteg_1">
	
		<linearGradient id="SVGID_2_" gradientUnits="userSpaceOnUse" x1="648.0152" y1="474.1624" x2="648.0152" y2="772.9244" gradientTransform="matrix(-0.9993 3.694283e-02 3.694283e-02 0.9993 3130.0742 -23.2467)">
		<stop  offset="0" style="stop-color:#FBF5B0"/>
		<stop  offset="0.2688" style="stop-color:#FBAE60"/>
		<stop  offset="0.5538" style="stop-color:#F49156"/>
		<stop  offset="0.7742" style="stop-color:#BE6952"/>
		<stop  offset="1" style="stop-color:#7B4539"/>
	</linearGradient>
	<path fill="url(#SVGID_2_)" d="M3400.5,517.7c0,0-384.1-30.1-859.6,0.4c-475.5,30.5-935.2,80.9-935.2,80.9l173.4,30.9l334.4,27.6
		l511.8-18.9l778.7-28.8L3400.5,517.7z"/>
	<path fill="#FFFFFF" d="M1772.6,578c0,33.6-44,60.8-98.3,60.8c-54.3,0-98.3-27.2-98.3-60.8c0-33.6,44-60.8,98.3-60.8
		C1728.6,517.2,1772.6,544.4,1772.6,578z"/>
	<linearGradient id="SVGID_3_" gradientUnits="userSpaceOnUse" x1="1613.653" y1="584.7047" x2="1613.653" y2="520.7202">
		<stop  offset="0" style="stop-color:#FBF5B0"/>
		<stop  offset="0.4355" style="stop-color:#FBAE60"/>
		<stop  offset="0.9946" style="stop-color:#B32D38"/>
	</linearGradient>
	<path fill="url(#SVGID_3_)" d="M1621.5,555.5c-1-0.5-2.1,0.9-2.1,1.9s-0.4,4.9-0.7,6.1c-0.2,0.7-1.6,1.2-2.6,1.4
		c0.1-3.2,0.2-6.5,0.4-9c0.1-1.2,0.2-2.3,0.4-3.3c2.3-0.2,3.8-0.6,5.1-2c1.6-1.6,2.5-5.4,2-7.5c-0.5-2.1-2-1.5-2.9-1
		c-1,0.5-0.4,1.6-0.9,4.4c-0.3,1.6-1.7,2.1-2.8,2.3c0.5-3.8,1-6.4,0.5-7.4c-0.7-1.6-1-2.8-2.9-2.9c-1.9-0.1-3.3,5.7-4.2,12.2
		c-0.2,1.8-0.5,4.2-0.7,7c-0.9,0-2.2-0.4-2.6-2c-0.6-2.6-0.1-4.8-0.6-6.2c-0.5-1.4-1.6-2-2.8-1.1c-1.2,1-1.1,5.4,0,8.4
		c1,2.5,2.7,5,5.7,5.3c-0.4,6.4-0.5,13.2,0,16.2c0.8,5.2,4,1.2,4,1.2l2.4-0.8c0,0-0.1-4.4-0.1-9.8c1.9-0.4,4.6-1.2,5.5-2.1
		c1.1-1.2,0.9-5.3,0.9-7.4C1622.5,557.3,1622.5,555.9,1621.5,555.5z"/>
	<linearGradient id="SVGID_4_" gradientUnits="userSpaceOnUse" x1="1902.6382" y1="492.7769" x2="1898.2875" y2="554.7617">
		<stop  offset="0" style="stop-color:#FBF5B0"/>
		<stop  offset="0.4355" style="stop-color:#FBAE60"/>
		<stop  offset="0.9946" style="stop-color:#B32D38"/>
	</linearGradient>
	<path opacity="0.4" fill="url(#SVGID_4_)" d="M1919.3,561.7v-18.2h-4.2v-11.5h-6.1v-4.2c0,0-4-0.4-7.4,0v4.4h-1.7v-4.5
		c0,0-5.2-0.1-9.5,1.9v4.7c0,0-3.1-0.1-4.8,0.7v3.5c0,0-1.9,0.5-2.6,0.6v10.7h-2v-7.5c0,0-2.5,0.6-3.4,1.8v17.5H1919.3z"/>
	<linearGradient id="SVGID_5_" gradientUnits="userSpaceOnUse" x1="1524.7883" y1="448.2362" x2="1524.7883" y2="591.0379">
		<stop  offset="0" style="stop-color:#FBF5B0"/>
		<stop  offset="0.4355" style="stop-color:#FBAE60"/>
		<stop  offset="0.9946" style="stop-color:#B32D38"/>
	</linearGradient>
	<path fill="url(#SVGID_5_)" d="M1551.6,581.4l0.9-34.9l-3-2v-6c0,0-6.3-2.1-9.5-2.3v-2.3c0,0-10.7-5.2-21.5-4.6v9l-2.3-0.3v-4.6
		l-2.1,0.5l-0.5,4.8l-2.9,0.5v-7.6c0,0-3,2-4.6,3.1l-0.8,24l-2.1,1.2v-19.8c0,0-2.5,0.7-3.5,2.6c0,0-2.3,34.4-2.6,35.3
		c-0.3,0.9,42.5,6.1,43.1,6.1C1540.9,584.3,1551.6,581.4,1551.6,581.4z"/>
	<linearGradient id="SVGID_6_" gradientUnits="userSpaceOnUse" x1="1324.1571" y1="379.1661" x2="1324.1571" y2="561.1859">
		<stop  offset="0" style="stop-color:#FBF5B0"/>
		<stop  offset="0.4355" style="stop-color:#FBAE60"/>
		<stop  offset="0.9946" style="stop-color:#B32D38"/>
	</linearGradient>
	<path fill="url(#SVGID_6_)" d="M1390.3,558.9l-0.9-27.7l-5.4-2.6V510c0,0-4.5-4.3-6.9-4.5v-8.4c0,0-7.7-5.6-24-7.1v7.3l-5.8-1.7
		v6.4l-6-1.5v-12.7l-8.6-1.5v-5.8l-12-2.6V474c0,0-6.9-2.1-19.7,0v5.8c0,0-11.6-0.4-15,1.9v5.1l-6.4,1.9v5.8l-4.5,1.3v41.4l-6.6,0.2
		v-28.1l-4.1,1.1l-0.9,21.9l-4.3,2.6l-1.3,35.2h118.2L1390.3,558.9z"/>
	<linearGradient id="SVGID_7_" gradientUnits="userSpaceOnUse" x1="1805.6866" y1="264.9615" x2="1807.6005" y2="599.8807">
		<stop  offset="0" style="stop-color:#FBF5B0"/>
		<stop  offset="0.4355" style="stop-color:#FBAE60"/>
		<stop  offset="0.9946" style="stop-color:#B32D38"/>
	</linearGradient>
	<path fill="url(#SVGID_7_)" d="M1874.1,567.1c0,0-11-5.3-12.2-21.5c-1.2-16.3-1.7-66-1.7-66s-2.5-2.2-6.2-2.4v10.4
		c0,0-5.3-1.3-5.9-1.3l0.7-24.6c0,0-6.7-2.6-9.1-2.8v-3.8c0,0-8.5-3.7-30.4-3.6v3.6c0,0-6.5-0.1-13.8,1.1v5.1c0,0-12.2,0.6-24.4,4.3
		v8.1c0,0-5,1-8,2.9v22.7c0,0-4.7,0.6-6.8,1.6c0,0,0.5,47.1-1.7,58.9c-2.2,11.7-13.6,19.3-14,19.3c-0.4,0,119.4-8.4,119.4-8.4
		L1874.1,567.1z"/>
	<linearGradient id="SVGID_8_" gradientUnits="userSpaceOnUse" x1="855.7874" y1="501.5859" x2="855.7874" y2="800.3479">
		<stop  offset="0" style="stop-color:#FBF5B0"/>
		<stop  offset="0.2688" style="stop-color:#FBAE60"/>
		<stop  offset="0.5538" style="stop-color:#F49156"/>
		<stop  offset="0.7742" style="stop-color:#BE6952"/>
		<stop  offset="1" style="stop-color:#7B4539"/>
	</linearGradient>
	<path fill="url(#SVGID_8_)" d="M0.8,578c0,0,364.3-44.2,817.7-31.4c453.4,12.9,892.4,46.3,892.4,46.3L1547,630.3l-317.1,39.9H742.4
		H0.8V578z"/>
	<linearGradient id="SVGID_9_" gradientUnits="userSpaceOnUse" x1="1701.0708" y1="413.9039" x2="1701.0708" y2="757.591">
		<stop  offset="0" style="stop-color:#FBF5B0"/>
		<stop  offset="0.2688" style="stop-color:#FBAE60"/>
		<stop  offset="0.5538" style="stop-color:#F49156"/>
		<stop  offset="0.7742" style="stop-color:#BE6952"/>
		<stop  offset="1" style="stop-color:#7B4539"/>
	</linearGradient>
	<path fill="url(#SVGID_9_)" d="M3401.4,686.9V568.5c0,0-450.5-24.5-1303.6-2.6c-853.1,21.9-1184,66.9-2097,47.6v61.8L3401.4,686.9z
		"/>
	<path fill="#FDF9CC" d="M1717.5,462.1l-17-3.6c0,0-8.4,0.8-12.3,0c-3.8-0.8-5-5-10.5-5.2c-5.5-0.2-18.9,3.1-18.9,3.1l-5.4-0.4
		c0,0-0.6-11.1-10.3-12.4c-9.8-1.3-17,9.3-17,9.3s-3.8-0.4-6.1-0.1c-2.3,0.3-4.4,2.3-4.4,2.3s-10.3,0-13.6,2.1
		c-3.3,2.1-3.3,5-3.1,6.5C1599,465.2,1717.5,462.1,1717.5,462.1z"/>
	<path fill="#FDF9CC" d="M1539.7,209.4c0,0-24.3-4.4-29.1-6.2c-4.8-1.8-18.4-5.4-22.3-5.9c-3.9-0.5-11.4-8-20.2-7
		c-8.8,0.9-11.3,2.1-11.3,2.1s-7-10.3-17.5-10.6c-10.5-0.3-21.6,8.3-21.6,8.3s-2.3-3.6-6.6-3.6c0,0-10.3,0.4-12.4,6.9
		c0,0-9.1-1.6-13.4,2.4c-4.4,4-12.1,4.7-14.6,5c-2.6,0.3-5.6,0.8-6.8,1.5c-1.3,0.7-3.2,1.4-5.9,1.9c-2.8,0.5-13.7,2.6-15,2.9
		c-1.3,0.3,24,3.7,31.1,4.3c7.1,0.6,26.5,2.7,31.6,2.6c5.1-0.2,37.2,1.1,48.8,1.1C1499.7,215,1539.7,209.4,1539.7,209.4z"/>
	<linearGradient id="SVGID_10_" gradientUnits="userSpaceOnUse" x1="1866.943" y1="937.3486" x2="1948.1719" y2="635.2742">
		<stop  offset="0" style="stop-color:#FBF5B0"/>
		<stop  offset="0.2688" style="stop-color:#FBAE60"/>
		<stop  offset="0.5538" style="stop-color:#F49156"/>
		<stop  offset="0.7742" style="stop-color:#BE6952"/>
		<stop  offset="1" style="stop-color:#7B4539"/>
	</linearGradient>
	<path fill="url(#SVGID_10_)" d="M2011.4,582.4c-10.6-1.4-13.2,5.8-12.4,13.7c0.8,7.9-1.3,27.1-8.1,36.5c-4.6,6.4-12.2,6-16.5,5.1
		c2.9-11.6,5.5-24.8,7.5-39.3c1.8-13,2.5-25.3,2.3-36.4c23.6-1.2,30.9-17.2,29.9-39.4c-1.1-23.2-14.3-33.9-25.1-31.3
		c-10.8,2.6-4.8,18.9-0.8,24.6c3.9,5.7,6.5,12,4.4,18.7c-1.4,4.4-6.4,6.3-9.6,7.2c-2.9-24.1-10.5-40.5-20.1-44.9
		c-15.9-7.3-40.6,6.3-28.6,51.1c2.9,10.8,4.8,22.6,5.8,34.7c-2.6,0.4-7.1,0.5-10.2-2.2c-4.5-4-4.3-9.9-4.4-14
		c-0.1-4.2,1-24.3-12.6-24.4c-13.6-0.1-14.5,28.1-4.3,45.3c9.1,15.3,20.2,21.3,32.1,18.7c-0.7,30.9-7.3,61.1-19.4,80
		c-20,31.1,36.2,2.9,36.2,2.9s4.6-9.9,10.1-26.9c4,0.8,9.6,1.4,16.7,0.7c19.8-1.9,31.6-24.5,35-39.9
		C2022.6,607.4,2022,583.8,2011.4,582.4z"/>
	
		<linearGradient id="SVGID_11_" gradientUnits="userSpaceOnUse" x1="1386.6703" y1="758.808" x2="1407.6703" y2="539.8097" gradientTransform="matrix(0.9965 -8.310000e-02 8.310000e-02 0.9965 -44.9701 199.4443)">
		<stop  offset="0" style="stop-color:#FBF5B0"/>
		<stop  offset="0.2688" style="stop-color:#FBAE60"/>
		<stop  offset="0.5538" style="stop-color:#F49156"/>
		<stop  offset="0.7742" style="stop-color:#BE6952"/>
		<stop  offset="1" style="stop-color:#7B4539"/>
	</linearGradient>
	<path fill="url(#SVGID_11_)" d="M1423.9,582.6c-6.4-1-6.6,5.5-7.2,10.8c-0.7,5.4-0.6,12.5-2.1,15.8c-0.8,1.7-3.2,2.5-5.2,2.8
		c0-0.5,0.1-0.9,0.1-1.4c2.1-21.9,3.6-23.7,3.3-29.1c-0.3-5.3-3.3-9.3-8.2-8c-4.9,1.2-11.7,10.2-10.7,27.6
		c0.4,7.3,1.1,15.7,1.9,23.4c-1.4,0.2-3.4,0.1-5.3-1c-3.7-2.2-5.3-9.2-5.1-17.4c0.2-8.2,3.1-10.5,0.6-12.5c-2.4-2-7.3-0.1-8.1,11.1
		c-0.8,11.1,2.4,29,11.8,31.6c3.2,0.9,5.7,0.8,7.6,0.2c0.9,5.2,1.8,9.2,3,11.1c3.3,5.3,7.9,3.5,7.9,3.5l4.2-4.6
		c0,0-3.4-9.2-3.5-24.6c2.8-0.3,6.6-1.1,11-2.9c7.2-2.8,6-16.1,6.5-21.3C1427.1,592.5,1430.3,583.6,1423.9,582.6z"/>
	<path fill="#DDD378" d="M1358.4,206.3c0,0,13.2-2.2,14.7-2.9c1.5-0.7,6.6-1.9,7.7-1.9c1.1,0.1,8.1-6.4,18.3-4.4
		c0,0,1.3-6.7,9.2-6.8s10.7,5.4,10.7,5.4s5.7-7.9,17.6-7.5c11.8,0.5,17.1,10.7,17.1,10.7s12.9-5.9,19.9-2.3c7,3.6,11.8,5.8,12.4,5.2
		c0.6-0.7,32.4,6.2,32.4,6.2s-40.6,0-50.7,0.5c-10.1,0.6-25,0.5-32.2,0.8c-7.3,0.2-24.6-1.9-30.4-1.5
		C1399.2,208.3,1358.4,206.3,1358.4,206.3z"/>
	<path opacity="0.7" fill="#DDD378" d="M1602.6,461.4c0,0,6.8-5.5,14-3.8c0,0,3.6-3.4,11.7-1.3c0,0,6.4-8.9,14.4-7.6
		c7.9,1.3,7.7,9.4,7.7,9.4l7.7,0.8c0,0,10.5-2.1,14.1-2.8c3.5-0.6,8.3,1.2,10.1,2.3c1.8,1.1,5.1,2.3,5.5,2.3
		C1688.1,460.6,1602.6,461.4,1602.6,461.4z"/>
	<g>
		<path fill="#FDF9CC" d="M2021.3,135.1c0,0-32.5,0.6-44.1,21.6c0,0-16.1-10.9-36.7-3.5c-20.6,7.4-23.5,24.8-23.5,24.8
			s-20.6-0.6-29.6,6.1c-9,6.8-8.4,17.1-8.4,17.1s-6.1,8.7-6.4,15.4c0,0-15.1,1-21.6,5.5c-6.4,4.5-8,9.7-11.9,11.3
			c-3.9,1.6-4.2,3.9-11.3,5.5c-7.1,1.6-17.1,7.4-29,13.2c-11.9,5.8-10,5.1-18.7,7.4c-8.7,2.3-1.6,2.9-13.2,4.2
			c-11.6,1.3-23.2,2.9-23.2,2.9l49.2,6.8c0,0,10.3,13.5,20.6,13.8c10.3,0.3,17.7-5.1,17.7-5.1s9,19.6,26.4,19
			c17.4-0.6,24.8-2.9,24.8-2.9s3.5,3.5,6.4,1.3c2.9-2.3,7.7-4.8,9-4.8c1.3,0,5.8,2.3,8,2.3c2.3,0,17.1-3.9,17.1-3.9
			s6.4,4.5,16.4,3.5c10-1,17.7-8.7,17.7-8.7s9.7,20.3,38,19.3c28.3-1,35.7-13.2,35.7-13.2V135.1
			C2030.9,135.1,2023.6,135,2021.3,135.1z"/>
		<path fill="#FDF9CC" d="M2040.6,135.1c0,0,32.5,0.6,44.1,21.6c0,0,16.1-10.9,36.7-3.5c20.6,7.4,23.5,24.8,23.5,24.8
			s20.6-0.6,29.6,6.1c9,6.8,8.4,17.1,8.4,17.1s6.1,8.7,6.4,15.4c0,0,15.1,1,21.6,5.5c6.4,4.5,8,9.7,11.9,11.3
			c3.9,1.6,4.2,3.9,11.3,5.5c7.1,1.6,17.1,7.4,29,13.2c11.9,5.8,10,5.1,18.7,7.4c8.7,2.3,1.6,2.9,13.2,4.2
			c11.6,1.3,23.2,2.9,23.2,2.9l-49.2,6.8c0,0-10.3,13.5-20.6,13.8c-10.3,0.3-17.7-5.1-17.7-5.1s-9,19.6-26.4,19
			c-17.4-0.6-24.8-2.9-24.8-2.9s-3.5,3.5-6.4,1.3c-2.9-2.3-7.7-4.8-9-4.8c-1.3,0-5.8,2.3-8,2.3c-2.3,0-17.1-3.9-17.1-3.9
			s-6.4,4.5-16.4,3.5c-10-1-17.7-8.7-17.7-8.7s-9.7,20.3-38,19.3c-28.3-1-35.7-13.2-35.7-13.2V135.1
			C2030.9,135.1,2038.3,135,2040.6,135.1z"/>
	</g>
	<g>
		<path fill="#FDF9CC" d="M2968.4,312.4c0,0-17.3,0.4-23.5,14.9c0,0-8.6-7.6-19.5-2.4c-11,5.1-12.5,17.1-12.5,17.1s-11-0.4-15.8,4.2
			c-4.8,4.7-4.5,11.8-4.5,11.8s-3.3,6-3.4,10.7c0,0-8.1,0.7-11.5,3.8c-3.4,3.1-4.3,6.7-6.3,7.8c-2.1,1.1-2.2,2.7-6,3.8
			c-3.8,1.1-9.1,5.1-15.4,9.1c-6.3,4-5.3,3.6-9.9,5.1c-4.6,1.6-0.9,2-7,2.9c-6.2,0.9-12.3,2-12.3,2l26.2,4.7c0,0,5.5,9.3,11,9.6
			c5.5,0.2,9.4-3.6,9.4-3.6s4.8,13.6,14.1,13.1c9.3-0.4,13.2-2,13.2-2s1.9,2.4,3.4,0.9c1.5-1.6,4.1-3.3,4.8-3.3
			c0.7,0,3.1,1.6,4.3,1.6c1.2,0,9.1-2.7,9.1-2.7s3.4,3.1,8.7,2.4c5.3-0.7,9.4-6,9.4-6s5.1,14,20.2,13.4c15.1-0.7,19-9.1,19-9.1
			V312.4C2973.6,312.4,2969.7,312.3,2968.4,312.4z"/>
		<path fill="#FDF9CC" d="M2978.7,312.4c0,0,17.3,0.4,23.5,14.9c0,0,8.6-7.6,19.5-2.4c11,5.1,12.5,17.1,12.5,17.1s11-0.4,15.8,4.2
			c4.8,4.7,4.5,11.8,4.5,11.8s3.3,6,3.4,10.7c0,0,8.1,0.7,11.5,3.8c3.4,3.1,4.3,6.7,6.3,7.8c2.1,1.1,2.2,2.7,6,3.8
			c3.8,1.1,9.1,5.1,15.4,9.1c6.3,4,5.3,3.6,9.9,5.1c4.6,1.6,0.9,2,7,2.9c6.2,0.9,12.3,2,12.3,2l-26.2,4.7c0,0-5.5,9.3-11,9.6
			c-5.5,0.2-9.4-3.6-9.4-3.6s-4.8,13.6-14.1,13.1c-9.3-0.4-13.2-2-13.2-2s-1.9,2.4-3.4,0.9c-1.5-1.6-4.1-3.3-4.8-3.3
			c-0.7,0-3.1,1.6-4.3,1.6c-1.2,0-9.1-2.7-9.1-2.7s-3.4,3.1-8.7,2.4c-5.3-0.7-9.4-6-9.4-6s-5.1,14-20.2,13.4
			c-15.1-0.7-19-9.1-19-9.1V312.4C2973.6,312.4,2977.5,312.3,2978.7,312.4z"/>
	</g>
	<linearGradient id="SVGID_12_" gradientUnits="userSpaceOnUse" x1="163.2061" y1="981.9313" x2="272.6135" y2="575.0664">
		<stop  offset="0" style="stop-color:#FBF5B0"/>
		<stop  offset="0.2688" style="stop-color:#FBAE60"/>
		<stop  offset="0.5538" style="stop-color:#F49156"/>
		<stop  offset="0.7742" style="stop-color:#BE6952"/>
		<stop  offset="1" style="stop-color:#7B4539"/>
	</linearGradient>
	<path fill="url(#SVGID_12_)" d="M377.7,504.1c-18.4-1.9-23,7.6-21.5,17.9c1.5,10.3-2.3,35.5-14.1,47.8c-8.1,8.4-21.2,7.9-28.7,6.7
		c5-15.2,9.6-32.5,13-51.4c3.1-17.1,4.3-33.1,4.1-47.7c41.1-1.6,53.8-22.5,52-51.5c-1.9-30.3-24.9-44.4-43.7-40.9
		c-18.9,3.4-8.3,24.7-1.5,32.2c6.8,7.5,11.4,15.7,7.7,24.4c-2.4,5.7-11.1,8.3-16.8,9.4c-5.1-31.5-18.3-52.9-35-58.7
		c-27.6-9.5-70.7,8.3-49.7,66.8c5.1,14.1,8.4,29.5,10,45.4c-4.5,0.5-12.4,0.6-17.8-2.9c-7.9-5.3-7.5-12.9-7.7-18.4
		c-0.2-5.4,1.7-31.7-22-31.9c-23.6-0.2-25.3,36.7-7.5,59.3c15.8,20.1,35.1,27.9,56,24.5c-1.2,40.4-12.7,79.9-33.8,104.6
		c-34.8,40.7,63,3.7,63,3.7s8.1-12.9,17.6-35.2c7,1.1,16.8,1.8,29.1,0.9c34.5-2.4,55.1-32.1,60.9-52.1
		C397.2,536.8,396.1,506,377.7,504.1z"/>
	<g>
		<g opacity="0.2">
			<path fill="#33A2B3" d="M502.1,250.9c22.2-39.3,72-51.2,113.1-71.8c14.7-7.4,27.5-19.2,40.3-28.8c12.8-9.6,25.9-19.1,31.3-33.3
				c-10.6,39.7-43.3,51-81,72.2c-40.5,22.8-75.6,61.6-73.5,104.1c2.1,42.6,40.1,72,68.7,104c34.3,38.2,42.5,92.1,25.8,137.9
				c-4.5,12.4-6,30.2,4.3,41c-9.1-6.6-14.3-11.9-16.6-22.2c-5.4-23.3,8.9-44.9-2.5-68.2c-18-36.9-51.1-57.2-78.1-88.2
				c-12.4-14.3-23-30.3-31.6-46.4C484.6,318.2,483.5,283.9,502.1,250.9z"/>
		</g>
		<g opacity="0.2">
			<path fill="#33A2B3" d="M691.4,121.8c-4,2.7-8.1,5.2-12.3,7.2c-15.8,7.6-33.1,12.5-50.1,17.6c-43.2,13-82.4,34.2-104.6,68.8
				c-11,17.2-20,36.7-29.4,54.7c-10.1,19.4-5.2,40.3-1.3,60.5c6,31.2,35.8,72.3,79.1,74.8c-34.3-23.7-61.2-62.3-52.3-99.7
				c3-8.7,10.5-15,13.4-22.4c1.5-3.7,6-19.9,7.5-21.2c5.3-4.5,10-7,17.7-5.7c6.9,1.1,11.8,5.8,17.4,9.1c12.4,7.3,28.3,14.5,43.3,8.2
				c12.6-5.3,19.2-16.3,20.9-27.7c2.5-17.2-8.6-28.3-19.2-41.7c-7.7-9.8-11.6-21.1-6.9-32.6c4-9.7,19-13.5,29.9-15.6
				c26.9-5,34.3-6.2,55.3-22.4c19.5-15.1,54.2-29.5,79-13.6c8.9,5.7,15.2,15,23.5,21.4c10.8,8.4,17.9,15.1,22.7,26.9
				c-12.5-31.1-36.5-56-75.7-64.3c-9.4-2-18.8-1.9-27.9,0.8C710.3,108.3,701,115.5,691.4,121.8z"/>
		</g>
		<g>
			<g>
				<g opacity="0.2">
					<path fill="#33A2B3" d="M821.2,238.4c-0.1,0.1,1.1,1.7,1.2,1.8c0.7,0.7,1.6,1.2,2.5,1.7c1.8,1,3.3,1.9,5.9,2
						c2,0,3.6-0.1,5.6,0.2c1.6,0.2,2.2,0,3.6-0.3c1.7-0.3,2.7,0,4.4,0.3c4.6,1,6-0.9,7.1-3.8c0.5-1.3,0.7-2.5-0.2-3.7
						c-0.7-1.1-2.3-1.7-2.4-3c-0.3-2.1,2-4.5,2.4-6.6c0.6-2.8-0.2-5.7-1.6-8.3c-1.2-2.3-1.1-5-3-7.1c1.9,2.1,4.3,4.9,4.5,7.5
						c0.2,2.4,1.6,4.8,1.7,7.3c0,1.9-1.5,3.6-2.1,5.4c-0.6,1.8,0.6,3.5,3,1.4c-0.2,0.2,1.1,2.7,1.2,3.1c0.1,1.1-0.1,2.1-0.8,3.1
						c0,0,0,0,0,0.1c-1.3,1.9-4,3.3-6.7,4.3c-6.7,2.4-14.1,0.8-21.3,0.8c-5.9,0.1-9.7-2.6-14.4-4.6c-2.5-1-4.3-2.3-6.1-3.9
						c-5-4.3-10.2-12-7.5-17.6c-0.3,0.6,1.9,2.9,2.3,3.4c0.8,1.1,2.4,2.2,2.9,3.4c0.5,1.2,0.3,1.8,1.5,2.9c1.9,1.8,4.4,3.4,6.9,4.8
						c3.9,2.2,3.2-1,2.1-2.8c-1.1-1.7-1.3-3.1-1.4-5c-0.2-3.2-3.9-5.9-6.6-8.3c-3.2-2.9-3.4-5.3-2.5-8.7c0.9-3.4-1.5-4.8-4.7-7.1
						c-3.8-2.8-4.9-6.1-7.3-9.5c-1-1.5-2.1-3-2.6-4.7c-0.5-1.8,0.6-3.3,0.4-5c0.2,2.8,2.7,4.4,5,6.5c3.8,3.5,4.7,7.7,7.3,11.5
						c2.1,3.2,6,7.1,11.9,5.4c-0.2,4.5-3.5,8.5,0.5,12.7c3,3.2,6.1,5.4,6.8,9.3c0.4,2.1,0.6,4.3,1.3,6.4
						C822.7,235.9,825.1,238.1,821.2,238.4z"/>
				</g>
				<g opacity="0.3">
					<path fill="#33A2B3" d="M843.6,146.4c-4.7-14.2-11.8-32.1-27.7-42.8c7.7,10.3,12.8,20.3,14.3,32.1c0.6,8.1,2.6,20.1-5.3,26.8
						c-1-2-2-4-3-5.6c-3,9.9-8.9-1.4-13.7-3.9c1.5,3.7-0.4,8.2-5.6,9.9c-7.9-14.9-12.5-27-29.7-38.7c-23.9-16.1-55.8-24.4-87.1-30
						c6.1,4.2,14.4,6.7,20.5,10.9c7.3,4.7,12.2,10.1,17.7,15.8c11.8,12.3,24.2,23.4,31.4,37.7c-6.3-4.9-21.9-14.6-30.9-14.1
						c18.6,13.2,27.6,28.7,41.1,43.9c-4.2-0.5-8.3-2.8-10-5.5c2.9,13.4,17.4,20.4,31.8,27.4c9.4,5.2,10.6,9.6,12.6,17.5
						c2.1,8.1,10.3,12.9,20.9,15.6c5,1.3,10.1,2.1,15.4,2.8c2.6,0.4,4.7,0.8,7.3,0.1c1.3-0.4,10.8-5.2,10.7-5.9
						c-0.2-2.8-3.1-4.2-3.7-6.6c-0.7-2.7,1-4,0.9-6.5c0.4-8.2-5.9-15.1-7.9-22.7c-1.8-6.8,3.1-5.7,5.8-11c2.1-3.8-1.7-10.7-2.8-14.8
						C844.1,168.2,846.9,157.2,843.6,146.4z M805.2,203.7c-4.8-2.4-4.2-7.9-8.8-10.8c4.5,2.8,13.5,2.1,17,5.7
						C817,202.5,810.5,206.3,805.2,203.7z"/>
				</g>
				<g opacity="0.4">
					<path fill="#33A2B3" d="M848,236.3c1.4,0.3,1.9,0.9,0.6,1.9c-1,0.8-11,8.1-13,5.3c-0.3-0.4,0.4-1.1,0.4-1.7
						c-0.1-1.6-2.5-2.8-4.1-3.8c-0.8-0.5-1.8-1-2.4-1.7c2-0.5,4-0.5,6.1-0.6c2.1-0.1,4.1-0.5,6.1-0.3c1.8,0.1,3.6,0.4,5.4,0.7
						C847.5,236.1,847.8,236.2,848,236.3z"/>
				</g>
				<g opacity="0.4">
					<path fill="#33A2B3" d="M787.9,174c-1.6-4.5-4.6-8.8-8.6-12.4c-3-2.7-6.4-3.9-8.3-7.2c-4-7-4.6-14.5-9.5-21.3
						c1.5,2.1,3.5,4.2,6,5.6c3.5-12.9-18.9-27.5-30.4-35.4c23.9,8,41.8,26.1,50.8,42.7c-4-3.1-8.5-5.9-13.4-8c6,4.9,6,12.2,9.5,17.7
						c5,8,7.5,13.9,7.5,22.9c-1-5.9-6.5-11.8-11.9-16"/>
				</g>
				<g opacity="0.4">
					<path fill="#33A2B3" d="M828.9,141.8c-0.1-1.4-0.3-2.7-0.3-3.8c0-3.8,0-7.4-1.1-11.1c-1.8-6.5-5.7-12.9-9-19.1
						c6.9,7.6,11.8,16,14.9,24.6c2.7,7.8,4.5,17.5,4.2,25.5c-0.2,4.5-6.4,12.2-4,16.4c-1.7-2.9-0.5-5.9-1.3-8.8
						c-0.6-2.3-2.1-4.6-3.1-6.9c-1.9-4.9-5.9-10.7-2.7-15.8c0,1.1,0.5,2.2,1.6,3C828.9,144.8,829,143.3,828.9,141.8z"/>
				</g>
			</g>
			<g>
				<g opacity="0.2">
					<path fill="#33A2B3" d="M759,145.6c0.4,8.8,7.2,16.6,12.3,24.4c2.5,3.9,4.1,6.5,4.9,10.8c0.8,4.4,1.9,8.9,4.6,13
						c1.9,2.9,4.8,5.1,6.9,7.9c-13.8,0.2-29.6-8.1-31.3-18.2c3.4,1.7,4.7,5.3,7.9,7.3c3.2,2.1,6.8,2.9,10.3,4.5
						c-6.1-2.4-4.6-7.9-4.8-12.1c-0.3-5-4-8.5-9-11.9c-4.4-3.1-9.5-7.8-14.7-10.1c3.9,1.7,7.9,4.1,12.6,5.1
						c1.3-15.6-18.9-28.3-31.2-39c5.3,1.2,11.1,2.4,16,4.4c-0.2-5.9-9.3-13.5-16.1-17C743.4,121.5,758.2,132.3,759,145.6z"/>
				</g>
			</g>
		</g>
		<g opacity="0.2">
			<path fill="#33A2B3" d="M787.9,192.3C773.2,177,748,163.4,725.2,159c-44.7-8.6-88.7,5.1-125.4,25.5c-40.3,22.4-72,38.5-79.2,81
				c3.8-22.5,51.8-46.4,75.8-32.5c7,4,12,11.8,20,14.7C682.7,271.4,722.3,163.3,787.9,192.3z"/>
		</g>
		<g opacity="0.3">
			<path fill="#33A2B3" d="M730.5,271.1c-4.6,0.4-9.1,0.3-13-0.6c-13.8-3-10-11.6-4-19.4c-0.1,0.1-3.5-6.3-3.5-7.4
				c-0.2-2.6,0.8-5.5,2-7.8c2.6-5.3,4-8.7-3.5-11.8c-16-6.7-31.6-0.5-47.5,1.4c-19.6,2.4-39.1-2.4-58.7,2.3
				c-0.5-2.7,1.9-6.5,3.9-8.5c-7.5-1.9-14.9,1.1-21.6,3.7c0.5-0.2,1.3-12.8,1.9-14.4c9.3-25.2,53.3-52.3,85.5-40.9
				c12.9,4.6,7.5,15.8-2.6,21.3c-3.8,2.1-18.6,10.6-22.4,10.5c9.6,0.5,17.1,2.5,26.9,1.3c24.2-2.9,44.6,1.1,65.2,12
				C765.9,227.1,766.4,267.6,730.5,271.1z"/>
		</g>
	</g>
	<g>
		<g>
			<path fill="#250F1F" d="M598,467.6c-0.5-0.1-1,0-1.6,0.2c-2.2,1-1.3,3.2,0,4.5c-1.7,0.2-3-1.8-3.4-2.9c-0.6-2,0.5-4.7,3.1-5.3
				c-1-1.1-2.7-1.7-4.2-2c0.5-0.4,1.2-1,1.8-1.3c1.3-0.6,2.5,0.1,3.9-0.1c-0.9-0.8-2.2-1.9-2.5-3c-0.4-1.6,0.7-3.3,1.7-4.6
				c0,1.4,1.1,5.1,3.5,4.5c0-0.9-0.3-1.8,0-2.7c0.5-1.4,1.8-2.6,3.3-3.4c-2.6,2.2-2.3,7.4,1.6,8.6c-0.7-1.4,0.2-3.2,0.1-4.7
				c0.2,2.5,2.9,4.4,3.4,6.8c0.4,1.8-0.6,3.2-1.6,4.7c-0.5,0.7-0.8,1.3-1.1,2c-0.2,0.4-1.1,1.3-1.1,1.8c0,0.4,9.2,145.2,9.2,145.2
				l-2.7,0.1l-9.2-145C600.9,470.1,599.8,467.9,598,467.6z"/>
			<path fill="#250F1F" d="M595.6,483c-0.7-2.3,1.3-4.9,4-5.3c2.4-0.4,4.1,0.7,5,2.6c1.5,2.8-0.7,3.9-2.6,5.7
				c2.3,2.1,4.8,4.9,2.8,7.8c-2.7,3.8-9,1.4-9.9-2.3c-0.8-2.4,1-2.4,2.2-4.1C598.9,485.2,596.4,485.2,595.6,483z"/>
			<path fill="#250F1F" d="M602.5,503.7c0.8,3,3.9,5,6.9,4.5c3-0.6,4.7-3.5,3.9-6.5c-0.8-3-3.9-5-6.9-4.5
				C603.4,497.7,601.7,500.7,602.5,503.7z"/>
			<g>
				<path fill="#250F1F" d="M603,474.7c4.3,3.4,0.3,13.5,0.9,18.3c0.6,4.9,0.8,9.1-0.3,14c-0.6,2.7-0.4,5.1,0.2,7.8
					c0.3,1.3,1.3,2.5,2.2,3.5c3,3.3,0.5,6.4-1.6,9.3c-1.4,1.9-0.7,5.2,1,6.7c4,3.7,3.5,6.1,1.8,10.8c-0.7,2-0.8,2.5-0.6,4.5
					c0.1,1.4,1.2,2.7,2,3.8c2.8,3.8-0.5,9.5-0.7,13.7c-0.1,1.9,0.6,3.6,1.2,5.3c1.6,4.6,2.5,7.8,0.6,12.5c-1.6,3.9-1.1,7.7,1.1,11.3
					c1,1.5,1.6-1.5,1.1-2.3c-3.7-6,3.6-11.8,1.1-17.8c-2-4.8-3.8-8.5-2.4-13.8c0.6-2.4,1.5-4.7,0.9-7.2c-0.7-2.9-4.1-6-2-9.1
					c0.9-1.3,1.8-2.6,1.9-4.2c0.2-3.2-6.5-11.4-4.3-13.4c2-1.9,4.1-4,3.3-6.7c-0.4-1.4-0.6-2.5-1.7-3.7c-2.9-3.4-4.5-4.5-3.7-9.6
					c0.2-1.5,0.7-3,0.9-4.5c0.3-3.1,0.1-5.9-0.3-8.9c-0.7-4.7,0.6-8.8,1.5-13.4c0.7-3.9-0.4-6.5-3.6-9.4
					C602.6,471.4,602.2,474.1,603,474.7L603,474.7z"/>
			</g>
		</g>
		<path fill="#250F1F" d="M622.6,549.6l-5.3-3l-11.7,0.4l-13.8-2.3l-5.7-2.1l-1,0l-4.6-2.7l-1.5,0.1l-2.9-0.7l-5.8-1.7l-0.6-3.8
			l1.8,0.4l-2.4-6.5l-0.4-4.3v-10l-5-9.1l-8.4-4l-11.3-3.3l-6.9,0.6l2.8,3.2l-3.2,0.3l-12.1,7.7l6.4,0.5l-9,7.3l5.7-2.2l5.6-0.7
			l-7,3.2l-2.6,6.7l3.8-0.9l-4.4,6.4l4.7-0.6l-3.4,3.6l3.3,0.8l0.5,2.2l-6.4,1l-1.8,2.4l-2.1,0.2l-3.3,3l1.8,2l-2.2,3.2l1.4,1.5
			l-3.6,5l1,1.5c0,0-2.5,9.1-3,10.2c-0.5,1.2-0.9,4.2-0.9,4.2l-8.3,6.6l1.2,3.1l0.1,4.7l2.5-1l0.2,2.9l-2.7,1.1l2,6.8l2,3.5
			l-0.5,5.5l5.4,5.1l-0.3,4.9L505,610l-10,1l4.5,2.6l-2.9,0.2l3.4,3.7l2.2-1.5c0,0,1,3.3,1.6,3.8c0.7,0.5,10.8,3.8,10.8,3.8
			l19.7,0.2l11.1,2.1l34.7-3.2l9-5.8l6-0.6l8.9,0.5l10.5,0.1l2.1-2.7l-3.4-3.6l-6.6-2.7l0.6-13.4l4.9-13.5l2.6-13.6l4.5,0.4l4-2.9
			l3.5-4.2L622.6,549.6z M582.1,578l-3.1-1.8l0.4-4.6l0.2-2.3l0.9-3.4l10.7-5.3L582.1,578z M593.1,609.9l-2.2-2.3l0-0.7l2.5-1.3
			l0.9,0.9l-0.3,1.3l0.3,1.4L593.1,609.9z"/>
	</g>
	<linearGradient id="SVGID_13_" gradientUnits="userSpaceOnUse" x1="2519.3105" y1="7.1574" x2="2519.3105" y2="549.3464">
		<stop  offset="0" style="stop-color:#FBF5B0"/>
		<stop  offset="0.4355" style="stop-color:#FBAE60"/>
		<stop  offset="0.9946" style="stop-color:#B32D38"/>
	</linearGradient>
	<path fill="url(#SVGID_13_)" d="M2675.6,542.6l-2-82.4l-12.7-7.7v-55.6c0,0-10.6-12.8-16.2-13.4v-24.9c0,0-18.2-16.6-56.7-21.1
		v21.7l-13.7-5.1v19.2l-14.2-4.5v-37.7l-20.3-4.5v-17.2l-28.4-7.7v-12.1c0,0-16.2-6.4-46.6,0v17.2c0,0-27.4-1.3-35.5,5.7v15.3
		l-15.2,5.8v17.2l-10.6,3.8V478l-15.7,0.6V395l-9.6,3.2l-2,65.2l-10.1,7.7l-3,104.8h279.1L2675.6,542.6z"/>
	<path fill="#DDD378" d="M2465.5,386.2c0,0,26.8-4.2,29.8-5.5c3-1.3,13.3-3.7,15.5-3.6c2.2,0.1,16.5-12.3,37-8.5
		c0,0,2.6-12.8,18.7-12.9c16.1-0.1,21.6,10.3,21.6,10.3s11.6-15.2,35.5-14.3c23.9,0.8,34.6,20.4,34.6,20.4s26.1-11.4,40.2-4.5
		c14.1,6.9,23.8,11.1,25.1,9.8c1.3-1.3,65.5,11.7,65.5,11.7s-82.1,0.1-102.5,1.2c-20.4,1.1-50.5,1.1-65.2,1.6
		c-14.7,0.5-49.8-3.6-61.5-2.7C2548.1,389.9,2465.5,386.2,2465.5,386.2z"/>
	<path fill="#FDF9CC" d="M394.5,179.8c0,0-43.7-11.3-52.3-15.7c-8.6-4.4-33.2-13.4-40.1-14.7c-7-1.3-20.7-19.6-36.4-17.5
		c-15.7,2.1-20.2,4.9-20.2,4.9s-12.8-25-31.7-26c-18.9-0.9-38.6,19.5-38.6,19.5s-4.1-8.7-11.9-9c0,0-18.4,0.6-22.1,16.4
		c0,0-16.3-4.1-24.1,5.5c-7.8,9.6-21.6,11.1-26.2,11.8c-4.6,0.7-9.9,1.9-12.2,3.5c-2.3,1.6-5.7,3.3-10.6,4.5c-5,1.2-24.5,6-26.8,6.6
		c-2.3,0.6,43.1,9.4,55.8,11.1s47.6,7.2,56.8,6.9c9.2-0.3,66.7,3.5,87.5,3.8C322.9,192.5,394.5,179.8,394.5,179.8z"/>
	<path fill="#DDD378" d="M69.1,168.3c0,0,23.7-5,26.3-6.6c2.6-1.6,11.8-4.5,13.7-4.3c1.9,0.2,14.5-15.4,32.7-10.3
		c0,0,2.1-16.2,16.4-16.2c14.2,0,19.3,13.4,19.3,13.4s10.1-19.1,31.3-17.7c21.2,1.4,30.9,26.3,30.9,26.3s23-14.1,35.6-5.2
		c12.6,8.9,21.3,14.3,22.4,12.8c1.1-1.6,58.3,15.7,58.3,15.7s-72.8-1-90.9,0.2c-18,1.1-44.8,0.8-57.8,1.2
		c-13.1,0.4-44.2-5.2-54.6-4.3C142.4,174.1,69.1,168.3,69.1,168.3z"/>
	
		<linearGradient id="SVGID_14_" gradientUnits="userSpaceOnUse" x1="2768.1233" y1="1301.2188" x2="2967.75" y2="558.8449" gradientTransform="matrix(-1 0 0 1 6025.6128 0)">
		<stop  offset="0" style="stop-color:#FBF5B0"/>
		<stop  offset="0.2688" style="stop-color:#FBAE60"/>
		<stop  offset="0.5538" style="stop-color:#F49156"/>
		<stop  offset="0.7742" style="stop-color:#BE6952"/>
		<stop  offset="1" style="stop-color:#7B4539"/>
	</linearGradient>
	<path fill="url(#SVGID_14_)" d="M2880.3,429.2c30.7-3.4,38.3,14.1,35.8,33c-2.4,19,3.8,65.5,23.4,88.2
		c13.5,15.6,35.4,14.5,47.8,12.3c-8.3-28-16-59.9-21.7-95c-5.1-31.5-7.2-61-6.8-88c-68.4-2.9-89.5-41.5-86.5-95.1
		c3.1-56,41.4-81.9,72.7-75.6c31.4,6.3,13.8,45.7,2.4,59.5c-11.4,13.8-19,29-12.8,45.1c4.1,10.5,18.4,15.3,27.9,17.3
		c8.5-58.2,30.5-97.7,58.2-108.3c46-17.6,117.7,15.3,82.7,123.3c-8.4,26-13.9,54.5-16.7,83.8c7.6,0.9,20.7,1.2,29.5-5.4
		c13.1-9.8,12.4-23.8,12.8-33.9c0.3-10.1-2.8-58.6,36.5-58.9c39.3-0.3,42.1,67.8,12.4,109.5c-26.4,37-58.4,51.5-93.1,45.2
		c1.9,74.5,21.1,147.6,56.2,193c57.9,75.1-104.8,6.9-104.8,6.9s-13.4-23.8-29.3-65c-11.7,2-27.9,3.3-48.4,1.7
		c-57.5-4.5-91.6-59.2-101.2-96.2C2847.9,489.6,2849.6,432.7,2880.3,429.2z"/>
	<g>
		<g>
			<path fill="#44122B" d="M1779.3,559c0,0-9.5-10.2-16.9-5.3c0,0-2.4-3.9-4.6-1.3c0,0-9.7,5.5-20.6-0.8c0,0-1.7-0.8-2.3-2.1
				c-0.5-1.4-1.2-2-2-2.1c-0.8-0.1-0.5,0.8-0.5,0.8s1.6,0.6,1.5,2s-1,1.9-1.2,2.2c-0.2,0.3-1.7,1-1.9,2c0,0-3,0.2-3.5-0.5
				c-0.5-0.7-3-1.2-3.7-0.2c0,0-1.9-2.4-4.8-3.6c-2.9-1.2-10.7-5-11.6-5.4c-1-0.4-2.9-0.7-3-0.9c-0.1-0.1-1.8-2.9-2.6-4.2
				c-0.8-1.3-1.6-1.2-1.6,0.3c0,1.4-0.4,3.3-1.1,3.1c-0.7-0.2-3.1-3.8-3.4-4.4c-0.3-0.7-0.9,0.1-0.6,1.6s2.2,5.2,1.7,5.7
				c-0.5,0.4-2,1-2,2.2c0,1.2,0.5,2.4,0.2,2.4c-0.3,0-1.9,2.3-1.9,2.5s1.4,2,1.3,3c-0.1,1-1.3,8.7-2.1,9.7c-0.8,1-1.7,2.5-1.7,2.5
				s0,1.7,0.5,2.5c0.5,0.8,1.2,0.8,1.2,1.7c0,0.9,2.4,1.4,3.5,1.2c1-0.1,2.3-0.2,2.6-1c0.2,0.4,0.4,0.7,0.5,0.8
				c0.1,1.1,0.3,3.5,1.7,5.3c1.2,1.5,2.8,2.3,4.9,2.3c0.2,0,0.3,0,0.5,0c4.9-0.3,7.2-1.8,8.2-2.8c0.4,2.5,0.9,5.4,1.4,7
				c0.8,3.3,3.6,5.3,3.5,5.3c-0.1,0-1,2.3,0,5.5c1,3.2,1.8,9.8,1.7,11.4c-0.1,1.6-0.2,5.9,0,6.8c0.2,0.9-0.2,5.2-0.4,6.7
				c-0.2,1.5-1.4,4-1.4,4l-1.6,1h6.1l-0.1-4.1c0,0,0.5-9.2,0.8-10.2c0.3-1,0.8-7,0.8-7.8s2.4-9.2,2.4-9.2s1.3-2.4,3.2,8.6
				c2,10.9,2.2,11.6,4.5,13.3c2.3,1.7,4.2,4.8,4.7,5.4c0.5,0.6,1.2,3.2,1.2,3.2l4.3-3.2c0,0-1.2-2.2-2-2.6c-0.8-0.5-6.6-2.4-6.8-7.9
				c-0.1-5.5,0.4-15-0.5-17.5c0,0-0.2-1.3,2.2-0.8s11.2-1.6,14.3-3.4c3.1-1.8,8.3-4.5,8.3-4.5s1-1.1,1.1,1.9c0.1,3,1.5,7.9,2.1,11.5
				c0.6,3.7,0.8,8.6,0.1,9.6c-0.7,1-6.2,9.9-6.8,10.7c-0.6,0.8-1.8,4-2.2,4.2c-0.5,0.2-0.6,1.6-0.6,1.6h5.6c0,0,5-11.7,7.5-14.2
				c2.5-2.6,4.2-5.2,3.7-6.8c-0.5-1.6-1.3-7.7-1.1-9.1c0.2-1.4,0-4.2,1-2.7c1,1.5,2.8,4.9,2.9,6.1c0.2,1.2,2.2,3.3,3.1,4.5
				c0.9,1.3,1.7,3.1,1.9,3.8c0.2,0.8,1.4,2.7,2,3.7c0.6,1,1.3,3.3,1.6,5.4c0.3,2,1,5.1,0.8,5.6c-0.2,0.5-0.5,1.6-0.5,1.6h3.7
				c0,0,1-3,0.5-4.2c-0.5-1.2-2.4-8.7-2.7-11.7c-0.3-3-0.3-5-0.8-5.9c-0.5-0.9-4.4-7.9-4.6-9.1c-0.2-1.2-0.3-6.6,0.6-9.6
				c1-3,3.3-7,2.1-11.8c-1.1-4.8-1.9-7.7-1.9-7.7s1,0.1,1.5,1c0.5,0.9,2.1,6.6,1.2,12.7c-0.9,6.1,0.3,10,0.3,10s0.3-6,0.5-7.2
				c0,0-0.8,16.3,1.9,19.6c0,0-0.4-1.7-0.4-2.7c0,0,1.2,2.4,1.2,6.3c0,0,1.4-10.6,3.6-14c0,0-0.3,2.3-1.1,4.4c0,0,4.5-6.1,5.2-13.4
				C1794.4,571.8,1788.4,557.4,1779.3,559z M1705.5,562.4c0,0,0.8-1.2,1.5,0.1c0.1,0.3,0.5,0.9,1,1.7c-2.2,1.2-4.5,1.4-6.1,1.2
				C1703.6,564,1705.5,562.4,1705.5,562.4z M1705.8,580.3c-2.2,0.1-3.9-0.6-5-2.1c-1.4-1.9-1.6-4.6-1.6-5.2c0-0.3,0.1-0.8,0.2-1.5
				c0.2-1.4-0.4-2.4-0.6-2.8c0.2-0.4,0.4-0.8,0.6-1.1c0.3-0.3,0.9-0.9,1.7-1.5c0.5,0.1,1,0.1,1.6,0.1c1.6,0,3.6-0.3,5.5-1.4
				c1.9,3.3,5,8.9,5,8.9s0.2,1.6,0.6,3.7C1713.2,578.2,1711.1,580,1705.8,580.3z"/>
		</g>
		<g>
			<path fill="#44122B" d="M1741.6,511.9c0,0-0.6,1-0.3,1.2c0.4,0.2,0.4,0.3,0.4,0.3s-0.4,1.2-0.4,1.4c0,0.2,0.2,0.7,0.2,0.7
				s-0.1,0.8,0,1c0.1,0.2,0.5,0.4,0.5,1c0,0.6,0.5,1.8,1.5,1.1l-0.1,1.1c0,0-1.7,3.3-1.7,3.4c0,0.1-0.2,4.4-0.4,5
				c-0.1,0.7-0.2,5.1,0.3,7.8c0,0,0.1,0.4-0.7,0.7c-0.8,0.2-3,0.9-3,0.9l-0.5,1.1c0,0-2.2-0.5-2.7-0.7c-0.5-0.2-1.5,1.2-1.4,2
				c0,0.8,0.8,2.6,1.6,2.7c0.8,0.1,3.3-0.3,3.3-0.3s0.8,0.6,1.4,0.8c0.5,0.2,0.9,0.5,0.9,0.5l-1.3,2l2.2,0.5l-3.5,10.2l16.9,3.3
				c0,0,0.7-7,0-9.7c-0.7-2.7-1.4-4.3-1.4-4.3s3.6-2.4,3.2-5.1c-0.3-2.7-0.3-5.8-0.3-7.3c0-1.5-0.1-3.1-0.2-4.6
				c-0.2-1.7-0.3-3.5-1.1-4.9c-0.7-1.2-1.5-2.3-2.5-3.2c-1-0.9-2.1-1.5-3.2-2.2c0,0-0.8-0.5-0.8-0.5c0,0-0.3-1.4-0.3-2.3
				c0,0,1.5-1.4,1.5-2.1c0,0,2.7,1.7,2.5,0.4c-0.1-1.3-2-3.1-2-3.1l-0.1-4.1c0,0-1-2.8-5.1-3c0,0-2.4,1.3-3.4,4.8
				c0,0-4.8,0.1-1.8,1.2l2,0.5C1741.8,510.1,1741.7,510.6,1741.6,511.9z"/>
		</g>
		<g>
			<path fill="#44122B" d="M1739.3,537.3c0,0-1.1-1.3-1.8,1.1"/>
		</g>
		<g>
			<path fill="#44122B" d="M1735.4,560c-2.7-8.5-0.7-19.5-0.7-19.6l0.4,0.1c0,0.1-1.9,11,0.7,19.3L1735.4,560z"/>
		</g>
		<g>
			<path fill="#44122B" d="M1723.7,560.2l-0.1-0.5c6.5-3,16.1-18.3,16.2-18.4l0.3,0.4c0,0-2.5,3.9-5.7,8.1
				C1730.1,555.4,1726.5,558.9,1723.7,560.2z"/>
		</g>
		<g>
			<path fill="#44122B" d="M1720.7,555.9l-0.1-0.6c5.5-1.9,17.4-15,17.5-15.1l0.3,0.4C1737.9,541.3,1726.3,554,1720.7,555.9z"/>
		</g>
		<g>
			<path fill="#44122B" d="M1731.3,561.1l-0.3-0.3c4.4-7.6,5.2-20.1,5.2-20.2l0.4,0C1736.6,540.7,1735.8,553.3,1731.3,561.1z"/>
		</g>
	</g>
	<linearGradient id="SVGID_15_" gradientUnits="userSpaceOnUse" x1="1700.8162" y1="1806.3369" x2="1700.8162" y2="544.7632">
		<stop  offset="0" style="stop-color:#FBF5B0"/>
		<stop  offset="0.2688" style="stop-color:#FBAE60"/>
		<stop  offset="0.5538" style="stop-color:#F49156"/>
		<stop  offset="0.7742" style="stop-color:#BE6952"/>
		<stop  offset="1" style="stop-color:#7B4539"/>
	</linearGradient>
	<path fill="url(#SVGID_15_)" d="M3400.8,675.4c0,0-552.5,20.2-1003.2-17.3c-58.6-4.9-119.4-12.9-248.6-0.9
		c-129.2,12-301.7,29.1-897.3,0.1c-595.6-29-1106.1-7.8-1251,9.7V791h3400.1V675.4z"/>
	<polygon fill="#F7D19B" points="2921.3,341.6 2926.8,341.6 2933.1,345.9 2936.6,345.9 2939,353.4 2939,345.1 2950.4,343.9 
		2952.4,347.5 2952.4,343.5 2976.8,343.5 2981.5,350.6 2983.9,341.6 2992.2,341.6 2996.5,349.1 2996.5,341.6 3013.4,341.6 
		3017.7,347.5 3020.1,343.9 3033.9,343.9 3039,349.1 3041.4,341.6 3058.3,341.6 3061.8,347.5 3067,341.6 3072.5,341.6 3072.5,360.5 
		3067.8,365.2 3070.5,367.2 3070.5,396 3072.5,416.9 3067,418.8 3072.5,421.2 3072.5,441.3 3068.5,452.7 3072.5,452.7 3072.5,463 
		3066.2,461 3070.1,466.1 3070.1,473.6 3064.2,484.3 3072.5,484.3 3072.5,508.3 3074.1,521.3 3059.9,521.3 3055.5,515.4 
		3054.4,521.3 3043.3,521.3 3041.4,515.4 3039,518.9 3028.4,518.5 3024.8,506.7 3022.5,518.5 3019.7,515 3017,518.5 3000.4,518.5 
		2993.7,513.4 2994.9,517.4 2974.4,517.4 2966.2,519.3 2971.7,511.1 2959.1,519.3 2949.2,519.3 2945.7,514.6 2942.5,519.3 
		2934.7,519.3 2933.9,514.6 2925.6,521.3 2921.3,521.3 2921.3,503.2 2933.9,498.4 2921.3,495.3 2926.8,493.7 2921.3,489 2921.3,472 
		2927.2,470.5 2924,467.7 2924,445.6 2929.5,443.7 2921.3,441.3 2921.3,421.6 2926,419.2 2921.3,417.3 2925.2,411.3 2931.5,407.8 
		2921.3,405.4 2921.3,375.5 2927.2,371.9 2921.3,368.4 2924.8,351.8 	"/>
	<g>
		<path fill="#5B4B43" d="M3036.3,471.2h-77.2v-86.4h77.2V471.2z M2963.2,467.1h69v-78.2h-69V467.1z"/>
	</g>
	<g>
		<path fill="#231F20" d="M2949.1,379.1l-3.9-16h3.1l1.5,7.3c0.4,1.9,0.8,4,1,5.6h0c0.3-1.7,0.7-3.6,1.2-5.6l1.7-7.2h3.1l1.6,7.4
			c0.4,1.9,0.7,3.7,1,5.4h0c0.3-1.8,0.7-3.6,1.1-5.5l1.7-7.2h3l-4.3,16h-3.1l-1.7-7.5c-0.4-1.8-0.7-3.4-0.9-5.1h0
			c-0.3,1.7-0.6,3.3-1.1,5.1l-1.9,7.5H2949.1z"/>
		<path fill="#231F20" d="M2971.4,374.6l-1.4,4.5h-3l5.1-16h3.7l5.2,16h-3.1l-1.4-4.5H2971.4z M2976,372.3l-1.3-3.9
			c-0.3-1-0.6-2.1-0.8-3h0c-0.2,0.9-0.5,2-0.8,3l-1.2,3.9H2976z"/>
		<path fill="#231F20" d="M2985.7,379.1v-16h3.3l4.1,6.9c1.1,1.8,2,3.6,2.7,5.4h0c-0.2-2.1-0.3-4.2-0.3-6.7v-5.6h2.7v16h-3l-4.2-7
			c-1-1.8-2.1-3.7-2.9-5.5l-0.1,0c0.1,2.1,0.1,4.2,0.1,6.8v5.7H2985.7z"/>
		<path fill="#231F20" d="M3007.2,365.5h-4.6v-2.4h12.1v2.4h-4.6v13.6h-2.9V365.5z"/>
		<path fill="#231F20" d="M3027.9,372h-6v4.7h6.7v2.4h-9.7v-16h9.3v2.4h-6.4v4.1h6V372z"/>
		<path fill="#231F20" d="M3033.6,363.3c1.3-0.2,2.9-0.3,4.7-0.3c3,0,5.1,0.6,6.5,1.9c1.5,1.3,2.5,3.2,2.5,5.9c0,2.9-1,5-2.5,6.4
			c-1.6,1.4-4.1,2.2-7.2,2.2c-1.7,0-3-0.1-3.9-0.2V363.3z M3036.5,376.9c0.4,0.1,1,0.1,1.6,0.1c3.8,0,6.1-2.1,6.1-6.1
			c0-3.5-2-5.6-5.7-5.6c-0.9,0-1.6,0.1-2,0.2V376.9z"/>
	</g>
	<g>
		<path fill="#231F20" d="M2943.9,489.6V488c-1,0-2-0.3-2.6-0.7l0.4-1.5c0.6,0.4,1.5,0.7,2.5,0.7c1,0,1.7-0.5,1.7-1.3
			c0-0.7-0.6-1.2-1.8-1.6c-1.7-0.6-2.8-1.4-2.8-2.9c0-1.4,1-2.5,2.6-2.8v-1.6h1.3v1.5c1,0,1.7,0.3,2.2,0.5l-0.4,1.5
			c-0.4-0.2-1.1-0.6-2.2-0.6c-1.1,0-1.5,0.6-1.5,1.1c0,0.7,0.6,1,2,1.6c1.8,0.7,2.6,1.6,2.6,3c0,1.4-1,2.6-2.7,2.9v1.7H2943.9z"/>
		<path fill="#231F20" d="M2952.8,479.4L2952.8,479.4l-2,1l-0.3-1.5l2.6-1.3h1.7v10.6h-1.9V479.4z"/>
		<path fill="#231F20" d="M2965.9,482.8c0,3.4-1.3,5.5-3.9,5.5c-2.4,0-3.7-2.2-3.8-5.4c0-3.3,1.4-5.5,3.9-5.5
			C2964.7,477.4,2965.9,479.7,2965.9,482.8z M2960.3,482.9c0,2.6,0.7,3.9,1.8,3.9c1.2,0,1.8-1.4,1.8-4c0-2.5-0.6-3.9-1.8-3.9
			C2961,479,2960.3,480.3,2960.3,482.9z"/>
		<path fill="#231F20" d="M2967.3,487.1c0-0.7,0.5-1.3,1.2-1.3c0.7,0,1.2,0.5,1.2,1.3c0,0.7-0.5,1.3-1.2,1.3
			C2967.8,488.4,2967.3,487.8,2967.3,487.1z"/>
		<path fill="#231F20" d="M2978.4,482.8c0,3.4-1.3,5.5-3.9,5.5c-2.4,0-3.7-2.2-3.8-5.4c0-3.3,1.4-5.5,3.9-5.5
			C2977.2,477.4,2978.4,479.7,2978.4,482.8z M2972.8,482.9c0,2.6,0.7,3.9,1.8,3.9c1.2,0,1.8-1.4,1.8-4c0-2.5-0.6-3.9-1.8-3.9
			C2973.6,479,2972.8,480.3,2972.8,482.9z"/>
		<path fill="#231F20" d="M2987.2,482.8c0,3.4-1.3,5.5-3.9,5.5c-2.4,0-3.7-2.2-3.8-5.4c0-3.3,1.4-5.5,3.9-5.5
			C2986,477.4,2987.2,479.7,2987.2,482.8z M2981.6,482.9c0,2.6,0.7,3.9,1.8,3.9c1.2,0,1.8-1.4,1.8-4c0-2.5-0.6-3.9-1.8-3.9
			C2982.3,479,2981.5,480.3,2981.6,482.9z"/>
		<path fill="#231F20" d="M2995.9,482.8c0,3.4-1.3,5.5-3.9,5.5c-2.4,0-3.7-2.2-3.8-5.4c0-3.3,1.4-5.5,3.9-5.5
			C2994.7,477.4,2995.9,479.7,2995.9,482.8z M2990.3,482.9c0,2.6,0.7,3.9,1.8,3.9c1.2,0,1.8-1.4,1.8-4c0-2.5-0.6-3.9-1.8-3.9
			C2991,479,2990.3,480.3,2990.3,482.9z"/>
	</g>
	<g>
		<path fill="#231F20" d="M2986.3,492.8c0.8-0.1,2-0.2,3.2-0.2c1.7,0,2.8,0.3,3.6,0.9c0.6,0.5,1,1.4,1,2.4c0,1.5-1,2.5-2.1,2.9v0.1
			c0.8,0.3,1.3,1.1,1.6,2.3c0.4,1.5,0.7,2.8,0.9,3.3h-2.2c-0.2-0.3-0.5-1.3-0.8-2.8c-0.3-1.5-0.9-2-2.1-2.1h-1.1v4.8h-2.1V492.8z
			 M2988.5,497.9h1.3c1.4,0,2.3-0.8,2.3-1.9c0-1.3-0.9-1.9-2.3-1.9c-0.7,0-1.1,0.1-1.3,0.1V497.9z"/>
		<path fill="#231F20" d="M3004.5,499.1h-4.4v3.4h4.9v1.8h-7.1v-11.7h6.8v1.8h-4.7v3h4.4V499.1z"/>
		<path fill="#231F20" d="M3010.7,504.3l-2.9-11.7h2.3l1.1,5.3c0.3,1.4,0.6,2.9,0.8,4.1h0c0.2-1.2,0.5-2.6,0.9-4.1l1.3-5.3h2.2
			l1.2,5.4c0.3,1.4,0.5,2.7,0.7,4h0c0.2-1.3,0.5-2.6,0.8-4.1l1.2-5.3h2.2l-3.1,11.7h-2.3l-1.2-5.5c-0.3-1.3-0.5-2.5-0.6-3.7h0
			c-0.2,1.3-0.4,2.4-0.8,3.7l-1.4,5.5H3010.7z"/>
		<path fill="#231F20" d="M3027.1,501l-1,3.3h-2.2l3.8-11.7h2.7l3.8,11.7h-2.3l-1.1-3.3H3027.1z M3030.4,499.4l-0.9-2.9
			c-0.2-0.7-0.4-1.5-0.6-2.2h0c-0.2,0.7-0.3,1.5-0.6,2.2l-0.9,2.9H3030.4z"/>
		<path fill="#231F20" d="M3037.5,492.8c0.8-0.1,2-0.2,3.2-0.2c1.7,0,2.8,0.3,3.6,0.9c0.6,0.5,1,1.4,1,2.4c0,1.5-1,2.5-2.1,2.9v0.1
			c0.8,0.3,1.3,1.1,1.6,2.3c0.4,1.5,0.7,2.8,0.9,3.3h-2.2c-0.2-0.3-0.5-1.3-0.8-2.8c-0.3-1.5-0.9-2-2.1-2.1h-1.1v4.8h-2.1V492.8z
			 M3039.7,497.9h1.3c1.4,0,2.3-0.8,2.3-1.9c0-1.3-0.9-1.9-2.3-1.9c-0.7,0-1.1,0.1-1.3,0.1V497.9z"/>
		<path fill="#231F20" d="M3049.2,492.8c0.9-0.2,2.1-0.2,3.4-0.2c2.2,0,3.7,0.5,4.8,1.4c1.1,0.9,1.8,2.3,1.8,4.3
			c0,2.1-0.7,3.7-1.8,4.7c-1.2,1.1-3,1.6-5.3,1.6c-1.3,0-2.2-0.1-2.9-0.2V492.8z M3051.3,502.7c0.3,0.1,0.7,0.1,1.2,0.1
			c2.8,0,4.4-1.5,4.4-4.5c0-2.6-1.5-4.1-4.2-4.1c-0.7,0-1.2,0.1-1.5,0.1V502.7z"/>
	</g>
	<g>
		<path fill="#EB2227" d="M3004.1,439.2h-6.2h-6.2c0,0-0.6,0.2-1.4,0.6c-1.8-3-5.5-2.2-5.5-2.2c-3.6-3.2-8-2.9-8-2.9l1.3,2.7
			l-2.8,0.3c0,0,2.3,4.2,4.7,4.8c2.5,0.6,3.5-0.9,3.5-0.9c0.7,1.8,3.4,3,3.4,3c0.5,1.7,1.2,4.2,2.1,6.6c1.7,4.3,8.9,10.3,8.9,10.3
			s7.2-6,8.9-10.3c1.7-4.3,2.7-8.8,2.7-8.8C3007.3,440.4,3004.1,439.2,3004.1,439.2z"/>
		<path fill="#DD8F5D" d="M3004.1,442L3004.1,442c-3.7,2.7-8.6,2.7-12.3,0l0,0v-12.3h12.3V442z"/>
		<g>
			<path fill="#733918" d="M3026.2,408c-0.1-0.9-0.9-1.5-1.8-1.3c-1.1,0.3-2.7,0.8-5,2c-4.6,2.4-13,4.5-21.5,4.5
				c-8.5,0-16.9-2.2-21.5-4.5c-2.3-1.2-3.9-1.7-5-2c-0.9-0.2-1.7,0.4-1.8,1.3c-0.1,2,0.1,5.7,3.1,8.9c4.3,4.7,13,6.8,25.2,6.8
				c12.2,0,20.9-2.1,25.2-6.8C3026.1,413.7,3026.4,410,3026.2,408z"/>
			<path fill="#F6A266" d="M3002,438.2h-8c-3.7,0-6.7-3-6.7-6.8v-24.1h21.5v24.1C3008.7,435.2,3005.7,438.2,3002,438.2z"/>
			<path fill="#EB9861" d="M2986.1,427h1.1v-7.6h-1.1c-1.1,0-1.9,0.9-1.9,1.9v3.8C2984.2,426.2,2985,427,2986.1,427z"/>
			<path fill="#EB9861" d="M3009.9,427h-1.1v-7.6h1.1c1.1,0,1.9,0.9,1.9,1.9v3.8C3011.8,426.2,3010.9,427,3009.9,427z"/>
			<path fill="#8A4920" d="M3008.2,397.1c-0.6-0.6-1.2-1.2-2-1.8c-1.5-1-3.5-1.1-4.9,0c0,0,0,0,0,0c-1.4,1.1-2.3,1.4-3.3,1.4
				c-0.9,0-1.9-0.3-3.3-1.4c0,0,0,0,0,0c-1.4-1.1-3.4-1-4.9,0c-0.8,0.5-1.5,1.1-2,1.8c-1.7,1.9-2.6,4.5-2.6,7.1v7.5
				c3.9,0.9,8.4,1.5,12.8,1.5c4.5,0,8.9-0.6,12.8-1.5v-7.5C3010.8,401.6,3010,399.1,3008.2,397.1z"/>
			<path fill="#EB2227" d="M3010.8,411.7v-4.1c-3.9,0.9-8.4,1.5-12.8,1.5c-4.5,0-8.9-0.6-12.8-1.5v4.1c3.9,0.9,8.4,1.5,12.8,1.5
				C3002.4,413.3,3006.9,412.6,3010.8,411.7z"/>
			<path fill="#733918" d="M2992.4,401.4c1.7-2.1,1.8-4.6,1.3-6.5c-1.3-0.5-2.8-0.3-4,0.5c-0.8,0.5-1.5,1.1-2,1.8
				c-1.5,1.7-2.3,3.8-2.5,6C2986.7,403.5,2990.3,404,2992.4,401.4z"/>
			<path fill="#733918" d="M3003.5,401.4c-1.7-2.1-1.8-4.6-1.3-6.5c1.3-0.5,2.8-0.3,4,0.5c0.8,0.5,1.5,1.1,2,1.8
				c1.5,1.7,2.3,3.8,2.5,6C3009.2,403.5,3005.7,404,3003.5,401.4z"/>
			<path fill="#8A4920" d="M2971.4,406.7c-0.2,0-0.3,0-0.5,0c0.4,0.1,4.8,1.9,11.6,6.6c7.1,4.8,15.4,4.8,15.4,4.8s8.4,0,15.4-4.8
				c6.7-4.6,11.2-6.4,11.6-6.6c-0.2,0-0.3,0-0.5,0c-1.1,0.3-2.7,0.8-5,2c-4.6,2.4-13,4.5-21.5,4.5c-8.5,0-16.9-2.2-21.5-4.5
				C2974.2,407.6,2972.5,407,2971.4,406.7z"/>
			<path fill="#231F20" d="M2984.5,414.4l0.2,1.6c0.3,2.8,1.1,5.6,2.6,8l0,0v-8.3C2986.3,415.4,2985.4,414.9,2984.5,414.4z"/>
			<path fill="#231F20" d="M3008.7,415.8v8.3l0,0c1.4-2.5,2.3-5.2,2.6-8l0.2-1.6C3010.5,414.9,3009.6,415.4,3008.7,415.8z"/>
		</g>
	</g>
	<g>
		<path fill="#BBBDBF" d="M3074.1,683.6c1.3-4.1,10-4.6,10-4.6l-2-15.1c-5.6-0.8-12.8-1.6-17.9-2.1c-4.2-0.4-8.4-1.7-12.1-3.8
			c0,0-0.1-0.1-0.1-0.1c-3-1.7-6.4-2.8-9.9-3.2c-0.1,0-0.1,0-0.2,0c-4.2-0.5-8.4-1.8-12-3.9c-4.4-2.5-10.7-6-15.8-8.6l-10.4,11.1
			c0,0,6.8,5.5,5.4,9.6c-0.7,2.3-2.6,3.5-4.2,4.2c-1.3,0.6-1.9,1.8-1.5,3c0.6,1.8,1.2,4.3,0.8,6.5c-0.5,2.6-1.1,7.6-1.6,10.6
			c-0.2,1.4-0.1,2.9,0.2,4.4c0.4,1.8,0.8,4.6,0.3,7.8c-0.5,2.8,0.2,5.8,2.2,8.5c2.2,3.1,4.5,7.6,3.5,12.7c-0.6,3-1.1,5.3-1.6,7
			c-0.8,3,0.3,6.2,2.7,9.1c1.6,1.9,2.9,4.2,2.4,6.4l3.6,1.2l5-6.7l0.2,8.3l3.6,1.2c0.9-2.1,3.3-3.2,5.7-3.8c3.7-0.9,6.4-3,7.5-5.8
			c0.6-1.7,1.5-3.9,2.8-6.7c2.1-4.7,6.6-7.1,10.2-8.3c3.3-1.1,5.6-3.3,6.9-5.9c1.4-2.8,3.3-4.8,4.6-6c1.2-1,2.1-2.2,2.8-3.4
			c1.4-2.7,3.7-7.1,4.9-9.5c1-2,2.9-3.7,4.4-4.8c1.1-0.8,1.3-2.1,0.5-3.3C3074.2,688,3073.4,685.8,3074.1,683.6z"/>
		<path fill="#896139" d="M2966.5,609.2c-17.5-19.7-14.4-31.9-12.6-41.2c0,0-12.6,13.7-9.4,29.4s18.8,34.4,59.3,55.8l10.4-11.1
			C3014.2,642.2,2984,629,2966.5,609.2z"/>
		<path fill="#595A5C" d="M3013.4,692.6l1.7-5.4c0,0,0.4-2.7-2.5-6.6c-2.9-3.9-5-6.8-5-6.8s-0.8,5.1-0.7,8.2
			C3007,685.2,3006.4,687.6,3013.4,692.6z"/>
		<path fill="#896139" d="M3140.1,664.7c25.7-5.9,30.2-17.6,34.1-26.3c0,0,2.3,18.4-9.4,29.4c-11.7,11-35.3,17.2-80.7,11.1l-2-15.1
			C3082.1,663.9,3114.4,670.6,3140.1,664.7z"/>
		<path fill="#595A5C" d="M3053.5,705.4l1.7-5.4c0,0,1.2-2.4,5.8-3.9c4.6-1.5,8-2.6,8-2.6s-2.3,4.6-4.2,7.1
			C3062.9,703.1,3062.1,705.4,3053.5,705.4z"/>
	</g>
</g>
</svg>
