<?xml version="1.0" encoding="UTF-8" standalone="no"?>
<!-- Generator: Adobe Illustrator 18.0.0, SVG Export Plug-In . SVG Version: 6.00 Build 0)  -->

<svg
   xmlns:dc="http://purl.org/dc/elements/1.1/"
   xmlns:cc="http://creativecommons.org/ns#"
   xmlns:rdf="http://www.w3.org/1999/02/22-rdf-syntax-ns#"
   xmlns:svg="http://www.w3.org/2000/svg"
   xmlns="http://www.w3.org/2000/svg"
   xmlns:sodipodi="http://sodipodi.sourceforge.net/DTD/sodipodi-0.dtd"
   xmlns:inkscape="http://www.inkscape.org/namespaces/inkscape"
   version="1.1"
   x="0px"
   y="0px"
   viewBox="0 0 3400.8 792"
   enable-background="new 0 0 3400.8 792"
   xml:space="preserve"
   id="svg387"
   sodipodi:docname="bg_cloud.svg"
   inkscape:version="0.92.3 (2405546, 2018-03-11)"><metadata
   id="metadata393"><rdf:RDF><cc:Work
       rdf:about=""><dc:format>image/svg+xml</dc:format><dc:type
         rdf:resource="http://purl.org/dc/dcmitype/StillImage" /></cc:Work></rdf:RDF></metadata><defs
   id="defs391">
	
		<linearGradient
   gradientTransform="matrix(-0.9993,0.03694283,0.03694283,0.9993,3130.0742,-23.2467)"
   y2="772.9244"
   x2="648.0152"
   y1="474.1624"
   x1="648.0152"
   gradientUnits="userSpaceOnUse"
   id="SVGID_2_">
		<stop
   id="stop14"
   style="stop-color:#FBF5B0"
   offset="0" />
		<stop
   id="stop16"
   style="stop-color:#FBAE60"
   offset="0.2688" />
		<stop
   id="stop18"
   style="stop-color:#F49156"
   offset="0.5538" />
		<stop
   id="stop20"
   style="stop-color:#BE6952"
   offset="0.7742" />
		<stop
   id="stop22"
   style="stop-color:#7B4539"
   offset="1" />
	</linearGradient>
	
	
	<linearGradient
   y2="520.7202"
   x2="1613.653"
   y1="584.7047"
   x1="1613.653"
   gradientUnits="userSpaceOnUse"
   id="SVGID_3_">
		<stop
   id="stop29"
   style="stop-color:#FBF5B0"
   offset="0" />
		<stop
   id="stop31"
   style="stop-color:#FBAE60"
   offset="0.4355" />
		<stop
   id="stop33"
   style="stop-color:#B32D38"
   offset="0.9946" />
	</linearGradient>
	
	<linearGradient
   y2="554.7617"
   x2="1898.2875"
   y1="492.7769"
   x1="1902.6382"
   gradientUnits="userSpaceOnUse"
   id="SVGID_4_">
		<stop
   id="stop38"
   style="stop-color:#FBF5B0"
   offset="0" />
		<stop
   id="stop40"
   style="stop-color:#FBAE60"
   offset="0.4355" />
		<stop
   id="stop42"
   style="stop-color:#B32D38"
   offset="0.9946" />
	</linearGradient>
	
	<linearGradient
   y2="591.0379"
   x2="1524.7883"
   y1="448.2362"
   x1="1524.7883"
   gradientUnits="userSpaceOnUse"
   id="SVGID_5_">
		<stop
   id="stop47"
   style="stop-color:#FBF5B0"
   offset="0" />
		<stop
   id="stop49"
   style="stop-color:#FBAE60"
   offset="0.4355" />
		<stop
   id="stop51"
   style="stop-color:#B32D38"
   offset="0.9946" />
	</linearGradient>
	
	<linearGradient
   y2="561.1859"
   x2="1324.1571"
   y1="379.1661"
   x1="1324.1571"
   gradientUnits="userSpaceOnUse"
   id="SVGID_6_">
		<stop
   id="stop56"
   style="stop-color:#FBF5B0"
   offset="0" />
		<stop
   id="stop58"
   style="stop-color:#FBAE60"
   offset="0.4355" />
		<stop
   id="stop60"
   style="stop-color:#B32D38"
   offset="0.9946" />
	</linearGradient>
	
	<linearGradient
   y2="599.8807"
   x2="1807.6005"
   y1="264.9615"
   x1="1805.6866"
   gradientUnits="userSpaceOnUse"
   id="SVGID_7_">
		<stop
   id="stop65"
   style="stop-color:#FBF5B0"
   offset="0" />
		<stop
   id="stop67"
   style="stop-color:#FBAE60"
   offset="0.4355" />
		<stop
   id="stop69"
   style="stop-color:#B32D38"
   offset="0.9946" />
	</linearGradient>
	
	<linearGradient
   y2="800.3479"
   x2="855.7874"
   y1="501.5859"
   x1="855.7874"
   gradientUnits="userSpaceOnUse"
   id="SVGID_8_">
		<stop
   id="stop74"
   style="stop-color:#FBF5B0"
   offset="0" />
		<stop
   id="stop76"
   style="stop-color:#FBAE60"
   offset="0.2688" />
		<stop
   id="stop78"
   style="stop-color:#F49156"
   offset="0.5538" />
		<stop
   id="stop80"
   style="stop-color:#BE6952"
   offset="0.7742" />
		<stop
   id="stop82"
   style="stop-color:#7B4539"
   offset="1" />
	</linearGradient>
	
	<linearGradient
   y2="757.591"
   x2="1701.0708"
   y1="413.9039"
   x1="1701.0708"
   gradientUnits="userSpaceOnUse"
   id="SVGID_9_">
		<stop
   id="stop87"
   style="stop-color:#FBF5B0"
   offset="0" />
		<stop
   id="stop89"
   style="stop-color:#FBAE60"
   offset="0.2688" />
		<stop
   id="stop91"
   style="stop-color:#F49156"
   offset="0.5538" />
		<stop
   id="stop93"
   style="stop-color:#BE6952"
   offset="0.7742" />
		<stop
   id="stop95"
   style="stop-color:#7B4539"
   offset="1" />
	</linearGradient>
	
	
	
	<linearGradient
   y2="635.2742"
   x2="1948.1719"
   y1="937.3486"
   x1="1866.943"
   gradientUnits="userSpaceOnUse"
   id="SVGID_10_">
		<stop
   id="stop104"
   style="stop-color:#FBF5B0"
   offset="0" />
		<stop
   id="stop106"
   style="stop-color:#FBAE60"
   offset="0.2688" />
		<stop
   id="stop108"
   style="stop-color:#F49156"
   offset="0.5538" />
		<stop
   id="stop110"
   style="stop-color:#BE6952"
   offset="0.7742" />
		<stop
   id="stop112"
   style="stop-color:#7B4539"
   offset="1" />
	</linearGradient>
	
	
		<linearGradient
   gradientTransform="matrix(0.9965,-0.0831,0.0831,0.9965,-44.9701,199.4443)"
   y2="539.8097"
   x2="1407.6703"
   y1="758.808"
   x1="1386.6703"
   gradientUnits="userSpaceOnUse"
   id="SVGID_11_">
		<stop
   id="stop117"
   style="stop-color:#FBF5B0"
   offset="0" />
		<stop
   id="stop119"
   style="stop-color:#FBAE60"
   offset="0.2688" />
		<stop
   id="stop121"
   style="stop-color:#F49156"
   offset="0.5538" />
		<stop
   id="stop123"
   style="stop-color:#BE6952"
   offset="0.7742" />
		<stop
   id="stop125"
   style="stop-color:#7B4539"
   offset="1" />
	</linearGradient>
	
	
	
	
	
	<linearGradient
   y2="575.0664"
   x2="272.6135"
   y1="981.9313"
   x1="163.2061"
   gradientUnits="userSpaceOnUse"
   id="SVGID_12_">
		<stop
   id="stop146"
   style="stop-color:#FBF5B0"
   offset="0" />
		<stop
   id="stop148"
   style="stop-color:#FBAE60"
   offset="0.2688" />
		<stop
   id="stop150"
   style="stop-color:#F49156"
   offset="0.5538" />
		<stop
   id="stop152"
   style="stop-color:#BE6952"
   offset="0.7742" />
		<stop
   id="stop154"
   style="stop-color:#7B4539"
   offset="1" />
	</linearGradient>
	
	
	
	<linearGradient
   y2="549.3464"
   x2="2519.3105"
   y1="7.1574"
   x1="2519.3105"
   gradientUnits="userSpaceOnUse"
   id="SVGID_13_">
		<stop
   id="stop223"
   style="stop-color:#FBF5B0"
   offset="0" />
		<stop
   id="stop225"
   style="stop-color:#FBAE60"
   offset="0.4355" />
		<stop
   id="stop227"
   style="stop-color:#B32D38"
   offset="0.9946" />
	</linearGradient>
	
	
	
	
	
		<linearGradient
   gradientTransform="matrix(-1,0,0,1,6025.6128,0)"
   y2="558.8449"
   x2="2967.75"
   y1="1301.2188"
   x1="2768.1233"
   gradientUnits="userSpaceOnUse"
   id="SVGID_14_">
		<stop
   id="stop238"
   style="stop-color:#FBF5B0"
   offset="0" />
		<stop
   id="stop240"
   style="stop-color:#FBAE60"
   offset="0.2688" />
		<stop
   id="stop242"
   style="stop-color:#F49156"
   offset="0.5538" />
		<stop
   id="stop244"
   style="stop-color:#BE6952"
   offset="0.7742" />
		<stop
   id="stop246"
   style="stop-color:#7B4539"
   offset="1" />
	</linearGradient>
	
	
	<linearGradient
   y2="544.7632"
   x2="1700.8162"
   y1="1806.3369"
   x1="1700.8162"
   gradientUnits="userSpaceOnUse"
   id="SVGID_15_">
		<stop
   id="stop281"
   style="stop-color:#FBF5B0"
   offset="0" />
		<stop
   id="stop283"
   style="stop-color:#FBAE60"
   offset="0.2688" />
		<stop
   id="stop285"
   style="stop-color:#F49156"
   offset="0.5538" />
		<stop
   id="stop287"
   style="stop-color:#BE6952"
   offset="0.7742" />
		<stop
   id="stop289"
   style="stop-color:#7B4539"
   offset="1" />
	</linearGradient>
	
	
	
	
	
	
	
	

		
		
	</defs><sodipodi:namedview
   pagecolor="#ffffff"
   bordercolor="#666666"
   borderopacity="1"
   objecttolerance="10"
   gridtolerance="10"
   guidetolerance="10"
   inkscape:pageopacity="0"
   inkscape:pageshadow="2"
   inkscape:window-width="1920"
   inkscape:window-height="1080"
   id="namedview389"
   showgrid="false"
   inkscape:zoom="0.3999059"
   inkscape:cx="1584.9622"
   inkscape:cy="829.05476"
   inkscape:window-x="0"
   inkscape:window-y="0"
   inkscape:window-maximized="0"
   inkscape:current-layer="svg387" />

<path
   style="fill:#fdf9cc"
   inkscape:connector-curvature="0"
   id="path100"
   d="m 1717.5,462.1 -17,-3.6 c 0,0 -8.4,0.8 -12.3,0 -3.8,-0.8 -5,-5 -10.5,-5.2 -5.5,-0.2 -18.9,3.1 -18.9,3.1 l -5.4,-0.4 c 0,0 -0.6,-11.1 -10.3,-12.4 -9.8,-1.3 -17,9.3 -17,9.3 0,0 -3.8,-0.4 -6.1,-0.1 -2.3,0.3 -4.4,2.3 -4.4,2.3 0,0 -10.3,0 -13.6,2.1 -3.3,2.1 -3.3,5 -3.1,6.5 0.1,1.5 118.6,-1.6 118.6,-1.6 z" /><path
   style="fill:#fdf9cc"
   inkscape:connector-curvature="0"
   id="path102"
   d="m 1539.7,209.4 c 0,0 -24.3,-4.4 -29.1,-6.2 -4.8,-1.8 -18.4,-5.4 -22.3,-5.9 -3.9,-0.5 -11.4,-8 -20.2,-7 -8.8,0.9 -11.3,2.1 -11.3,2.1 0,0 -7,-10.3 -17.5,-10.6 -10.5,-0.3 -21.6,8.3 -21.6,8.3 0,0 -2.3,-3.6 -6.6,-3.6 0,0 -10.3,0.4 -12.4,6.9 0,0 -9.1,-1.6 -13.4,2.4 -4.4,4 -12.1,4.7 -14.6,5 -2.6,0.3 -5.6,0.8 -6.8,1.5 -1.3,0.7 -3.2,1.4 -5.9,1.9 -2.8,0.5 -13.7,2.6 -15,2.9 -1.3,0.3 24,3.7 31.1,4.3 7.1,0.6 26.5,2.7 31.6,2.6 5.1,-0.2 37.2,1.1 48.8,1.1 45.2,-0.1 85.2,-5.7 85.2,-5.7 z" /><path
   style="fill:#ddd378"
   inkscape:connector-curvature="0"
   id="path130"
   d="m 1358.4,206.3 c 0,0 13.2,-2.2 14.7,-2.9 1.5,-0.7 6.6,-1.9 7.7,-1.9 1.1,0.1 8.1,-6.4 18.3,-4.4 0,0 1.3,-6.7 9.2,-6.8 7.9,-0.1 10.7,5.4 10.7,5.4 0,0 5.7,-7.9 17.6,-7.5 11.8,0.5 17.1,10.7 17.1,10.7 0,0 12.9,-5.9 19.9,-2.3 7,3.6 11.8,5.8 12.4,5.2 0.6,-0.7 32.4,6.2 32.4,6.2 0,0 -40.6,0 -50.7,0.5 -10.1,0.6 -25,0.5 -32.2,0.8 -7.3,0.2 -24.6,-1.9 -30.4,-1.5 -5.9,0.5 -46.7,-1.5 -46.7,-1.5 z" /><path
   style="opacity:0.7;fill:#ddd378"
   inkscape:connector-curvature="0"
   id="path132"
   d="m 1602.6,461.4 c 0,0 6.8,-5.5 14,-3.8 0,0 3.6,-3.4 11.7,-1.3 0,0 6.4,-8.9 14.4,-7.6 7.9,1.3 7.7,9.4 7.7,9.4 l 7.7,0.8 c 0,0 10.5,-2.1 14.1,-2.8 3.5,-0.6 8.3,1.2 10.1,2.3 1.8,1.1 5.1,2.3 5.5,2.3 0.3,-0.1 -85.2,0.7 -85.2,0.7 z" /><path
   d="m 2021.3,135.1 c 0,0 -32.5,0.6 -44.1,21.6 0,0 -16.1,-10.9 -36.7,-3.5 -20.6,7.4 -23.5,24.8 -23.5,24.8 0,0 -20.6,-0.6 -29.6,6.1 -9,6.8 -8.4,17.1 -8.4,17.1 0,0 -6.1,8.7 -6.4,15.4 0,0 -15.1,1 -21.6,5.5 -6.4,4.5 -8,9.7 -11.9,11.3 -3.9,1.6 -4.2,3.9 -11.3,5.5 -7.1,1.6 -17.1,7.4 -29,13.2 -11.9,5.8 -10,5.1 -18.7,7.4 -8.7,2.3 -1.6,2.9 -13.2,4.2 -11.6,1.3 -23.2,2.9 -23.2,2.9 l 49.2,6.8 c 0,0 10.3,13.5 20.6,13.8 10.3,0.3 17.7,-5.1 17.7,-5.1 0,0 9,19.6 26.4,19 17.4,-0.6 24.8,-2.9 24.8,-2.9 0,0 3.5,3.5 6.4,1.3 2.9,-2.3 7.7,-4.8 9,-4.8 1.3,0 5.8,2.3 8,2.3 2.3,0 17.1,-3.9 17.1,-3.9 0,0 6.4,4.5 16.4,3.5 10,-1 17.7,-8.7 17.7,-8.7 0,0 9.7,20.3 38,19.3 28.3,-1 35.7,-13.2 35.7,-13.2 V 135.1 c 0.2,0 -7.1,-0.1 -9.4,0 z"
   id="path134"
   inkscape:connector-curvature="0"
   style="fill:#fdf9cc" /><path
   d="m 2038.6,135.1 c 0,0 32.5,0.6 44.1,21.6 0,0 16.1,-10.9 36.7,-3.5 20.6,7.4 23.5,24.8 23.5,24.8 0,0 20.6,-0.6 29.6,6.1 9,6.8 8.4,17.1 8.4,17.1 0,0 6.1,8.7 6.4,15.4 0,0 15.1,1 21.6,5.5 6.4,4.5 8,9.7 11.9,11.3 3.9,1.6 4.2,3.9 11.3,5.5 7.1,1.6 17.1,7.4 29,13.2 11.9,5.8 10,5.1 18.7,7.4 8.7,2.3 1.6,2.9 13.2,4.2 11.6,1.3 23.2,2.9 23.2,2.9 l -49.2,6.8 c 0,0 -10.3,13.5 -20.6,13.8 -10.3,0.3 -17.7,-5.1 -17.7,-5.1 0,0 -9,19.6 -26.4,19 -17.4,-0.6 -24.8,-2.9 -24.8,-2.9 0,0 -3.5,3.5 -6.4,1.3 -2.9,-2.3 -7.7,-4.8 -9,-4.8 -1.3,0 -5.8,2.3 -8,2.3 -2.3,0 -17.1,-3.9 -17.1,-3.9 0,0 -6.4,4.5 -16.4,3.5 -10,-1 -17.7,-8.7 -17.7,-8.7 0,0 -9.7,20.3 -38,19.3 -28.3,-1 -35.7,-13.2 -35.7,-13.2 V 135.1 c -0.3,0 7.1,-0.1 9.4,0 z"
   id="path136"
   inkscape:connector-curvature="0"
   style="fill:#fdf9cc" /><g
   id="g144">
		<path
   style="fill:#fdf9cc"
   inkscape:connector-curvature="0"
   id="path140"
   d="m 2968.4,312.4 c 0,0 -17.3,0.4 -23.5,14.9 0,0 -8.6,-7.6 -19.5,-2.4 -11,5.1 -12.5,17.1 -12.5,17.1 0,0 -11,-0.4 -15.8,4.2 -4.8,4.7 -4.5,11.8 -4.5,11.8 0,0 -3.3,6 -3.4,10.7 0,0 -8.1,0.7 -11.5,3.8 -3.4,3.1 -4.3,6.7 -6.3,7.8 -2.1,1.1 -2.2,2.7 -6,3.8 -3.8,1.1 -9.1,5.1 -15.4,9.1 -6.3,4 -5.3,3.6 -9.9,5.1 -4.6,1.6 -0.9,2 -7,2.9 -6.2,0.9 -12.3,2 -12.3,2 l 26.2,4.7 c 0,0 5.5,9.3 11,9.6 5.5,0.2 9.4,-3.6 9.4,-3.6 0,0 4.8,13.6 14.1,13.1 9.3,-0.4 13.2,-2 13.2,-2 0,0 1.9,2.4 3.4,0.9 1.5,-1.6 4.1,-3.3 4.8,-3.3 0.7,0 3.1,1.6 4.3,1.6 1.2,0 9.1,-2.7 9.1,-2.7 0,0 3.4,3.1 8.7,2.4 5.3,-0.7 9.4,-6 9.4,-6 0,0 5.1,14 20.2,13.4 15.1,-0.7 19,-9.1 19,-9.1 V 312.4 c 0,0 -3.9,-0.1 -5.2,0 z" />
		<path
   style="fill:#fdf9cc"
   inkscape:connector-curvature="0"
   id="path142"
   d="m 2978.7,312.4 c 0,0 17.3,0.4 23.5,14.9 0,0 8.6,-7.6 19.5,-2.4 11,5.1 12.5,17.1 12.5,17.1 0,0 11,-0.4 15.8,4.2 4.8,4.7 4.5,11.8 4.5,11.8 0,0 3.3,6 3.4,10.7 0,0 8.1,0.7 11.5,3.8 3.4,3.1 4.3,6.7 6.3,7.8 2.1,1.1 2.2,2.7 6,3.8 3.8,1.1 9.1,5.1 15.4,9.1 6.3,4 5.3,3.6 9.9,5.1 4.6,1.6 0.9,2 7,2.9 6.2,0.9 12.3,2 12.3,2 l -26.2,4.7 c 0,0 -5.5,9.3 -11,9.6 -5.5,0.2 -9.4,-3.6 -9.4,-3.6 0,0 -4.8,13.6 -14.1,13.1 -9.3,-0.4 -13.2,-2 -13.2,-2 0,0 -1.9,2.4 -3.4,0.9 -1.5,-1.6 -4.1,-3.3 -4.8,-3.3 -0.7,0 -3.1,1.6 -4.3,1.6 -1.2,0 -9.1,-2.7 -9.1,-2.7 0,0 -3.4,3.1 -8.7,2.4 -5.3,-0.7 -9.4,-6 -9.4,-6 0,0 -5.1,14 -20.2,13.4 -15.1,-0.7 -19,-9.1 -19,-9.1 V 312.4 c 0.1,0 4,-0.1 5.2,0 z" />
	</g><path
   style="fill:#ddd378"
   inkscape:connector-curvature="0"
   id="path232"
   d="m 2465.5,386.2 c 0,0 26.8,-4.2 29.8,-5.5 3,-1.3 13.3,-3.7 15.5,-3.6 2.2,0.1 16.5,-12.3 37,-8.5 0,0 2.6,-12.8 18.7,-12.9 16.1,-0.1 21.6,10.3 21.6,10.3 0,0 11.6,-15.2 35.5,-14.3 23.9,0.8 34.6,20.4 34.6,20.4 0,0 26.1,-11.4 40.2,-4.5 14.1,6.9 23.8,11.1 25.1,9.8 1.3,-1.3 65.5,11.7 65.5,11.7 0,0 -82.1,0.1 -102.5,1.2 -20.4,1.1 -50.5,1.1 -65.2,1.6 -14.7,0.5 -49.8,-3.6 -61.5,-2.7 -11.7,0.7 -94.3,-3 -94.3,-3 z" /><path
   style="fill:#fdf9cc"
   inkscape:connector-curvature="0"
   id="path234"
   d="m 394.5,179.8 c 0,0 -43.7,-11.3 -52.3,-15.7 -8.6,-4.4 -33.2,-13.4 -40.1,-14.7 -7,-1.3 -20.7,-19.6 -36.4,-17.5 -15.7,2.1 -20.2,4.9 -20.2,4.9 0,0 -12.8,-25 -31.7,-26 -18.9,-0.9 -38.6,19.5 -38.6,19.5 0,0 -4.1,-8.7 -11.9,-9 0,0 -18.4,0.6 -22.1,16.4 0,0 -16.3,-4.1 -24.1,5.5 -7.8,9.6 -21.6,11.1 -26.2,11.8 -4.6,0.7 -9.9,1.9 -12.2,3.5 -2.3,1.6 -5.7,3.3 -10.6,4.5 -5,1.2 -24.5,6 -26.8,6.6 -2.3,0.6 43.1,9.4 55.8,11.1 12.7,1.7 47.6,7.2 56.8,6.9 9.2,-0.3 66.7,3.5 87.5,3.8 81.5,1.1 153.1,-11.6 153.1,-11.6 z" /><path
   style="fill:#ddd378"
   inkscape:connector-curvature="0"
   id="path236"
   d="m 69.1,168.3 c 0,0 23.7,-5 26.3,-6.6 2.6,-1.6 11.8,-4.5 13.7,-4.3 1.9,0.2 14.5,-15.4 32.7,-10.3 0,0 2.1,-16.2 16.4,-16.2 14.2,0 19.3,13.4 19.3,13.4 0,0 10.1,-19.1 31.3,-17.7 21.2,1.4 30.9,26.3 30.9,26.3 0,0 23,-14.1 35.6,-5.2 12.6,8.9 21.3,14.3 22.4,12.8 1.1,-1.6 58.3,15.7 58.3,15.7 0,0 -72.8,-1 -90.9,0.2 -18,1.1 -44.8,0.8 -57.8,1.2 -13.1,0.4 -44.2,-5.2 -54.6,-4.3 -10.3,0.8 -83.6,-5 -83.6,-5 z" />
</svg>