<?xml version="1.0" encoding="UTF-8" standalone="no"?>
<!-- Generator: Adobe Illustrator 18.0.0, SVG Export Plug-In . SVG Version: 6.00 Build 0)  -->

<svg
   xmlns:dc="http://purl.org/dc/elements/1.1/"
   xmlns:cc="http://creativecommons.org/ns#"
   xmlns:rdf="http://www.w3.org/1999/02/22-rdf-syntax-ns#"
   xmlns:svg="http://www.w3.org/2000/svg"
   xmlns="http://www.w3.org/2000/svg"
   xmlns:sodipodi="http://sodipodi.sourceforge.net/DTD/sodipodi-0.dtd"
   xmlns:inkscape="http://www.inkscape.org/namespaces/inkscape"
   version="1.1"
   x="0px"
   y="0px"
   viewBox="0 0 3400.8 792"
   enable-background="new 0 0 3400.8 792"
   xml:space="preserve"
   id="svg387"
   sodipodi:docname="bg_front.svg"
   inkscape:version="0.92.3 (2405546, 2018-03-11)"><metadata
   id="metadata393"><rdf:RDF><cc:Work
       rdf:about=""><dc:format>image/svg+xml</dc:format><dc:type
         rdf:resource="http://purl.org/dc/dcmitype/StillImage" /><dc:title></dc:title></cc:Work></rdf:RDF></metadata><defs
   id="defs391">
	
		<linearGradient
   gradientTransform="matrix(-0.9993,0.03694283,0.03694283,0.9993,3130.0742,-23.2467)"
   y2="772.9244"
   x2="648.0152"
   y1="474.1624"
   x1="648.0152"
   gradientUnits="userSpaceOnUse"
   id="SVGID_2_">
		<stop
   id="stop14"
   style="stop-color:#FBF5B0"
   offset="0" />
		<stop
   id="stop16"
   style="stop-color:#FBAE60"
   offset="0.2688" />
		<stop
   id="stop18"
   style="stop-color:#F49156"
   offset="0.5538" />
		<stop
   id="stop20"
   style="stop-color:#BE6952"
   offset="0.7742" />
		<stop
   id="stop22"
   style="stop-color:#7B4539"
   offset="1" />
	</linearGradient>
	
	
	<linearGradient
   y2="520.7202"
   x2="1613.653"
   y1="584.7047"
   x1="1613.653"
   gradientUnits="userSpaceOnUse"
   id="SVGID_3_">
		<stop
   id="stop29"
   style="stop-color:#FBF5B0"
   offset="0" />
		<stop
   id="stop31"
   style="stop-color:#FBAE60"
   offset="0.4355" />
		<stop
   id="stop33"
   style="stop-color:#B32D38"
   offset="0.9946" />
	</linearGradient>
	
	<linearGradient
   y2="554.7617"
   x2="1898.2875"
   y1="492.7769"
   x1="1902.6382"
   gradientUnits="userSpaceOnUse"
   id="SVGID_4_">
		<stop
   id="stop38"
   style="stop-color:#FBF5B0"
   offset="0" />
		<stop
   id="stop40"
   style="stop-color:#FBAE60"
   offset="0.4355" />
		<stop
   id="stop42"
   style="stop-color:#B32D38"
   offset="0.9946" />
	</linearGradient>
	
	<linearGradient
   y2="591.0379"
   x2="1524.7883"
   y1="448.2362"
   x1="1524.7883"
   gradientUnits="userSpaceOnUse"
   id="SVGID_5_">
		<stop
   id="stop47"
   style="stop-color:#FBF5B0"
   offset="0" />
		<stop
   id="stop49"
   style="stop-color:#FBAE60"
   offset="0.4355" />
		<stop
   id="stop51"
   style="stop-color:#B32D38"
   offset="0.9946" />
	</linearGradient>
	
	<linearGradient
   y2="561.1859"
   x2="1324.1571"
   y1="379.1661"
   x1="1324.1571"
   gradientUnits="userSpaceOnUse"
   id="SVGID_6_">
		<stop
   id="stop56"
   style="stop-color:#FBF5B0"
   offset="0" />
		<stop
   id="stop58"
   style="stop-color:#FBAE60"
   offset="0.4355" />
		<stop
   id="stop60"
   style="stop-color:#B32D38"
   offset="0.9946" />
	</linearGradient>
	
	<linearGradient
   y2="599.8807"
   x2="1807.6005"
   y1="264.9615"
   x1="1805.6866"
   gradientUnits="userSpaceOnUse"
   id="SVGID_7_">
		<stop
   id="stop65"
   style="stop-color:#FBF5B0"
   offset="0" />
		<stop
   id="stop67"
   style="stop-color:#FBAE60"
   offset="0.4355" />
		<stop
   id="stop69"
   style="stop-color:#B32D38"
   offset="0.9946" />
	</linearGradient>
	
	<linearGradient
   y2="800.3479"
   x2="855.7874"
   y1="501.5859"
   x1="855.7874"
   gradientUnits="userSpaceOnUse"
   id="SVGID_8_">
		<stop
   id="stop74"
   style="stop-color:#FBF5B0"
   offset="0" />
		<stop
   id="stop76"
   style="stop-color:#FBAE60"
   offset="0.2688" />
		<stop
   id="stop78"
   style="stop-color:#F49156"
   offset="0.5538" />
		<stop
   id="stop80"
   style="stop-color:#BE6952"
   offset="0.7742" />
		<stop
   id="stop82"
   style="stop-color:#7B4539"
   offset="1" />
	</linearGradient>
	
	<linearGradient
   y2="757.591"
   x2="1701.0708"
   y1="413.9039"
   x1="1701.0708"
   gradientUnits="userSpaceOnUse"
   id="SVGID_9_">
		<stop
   id="stop87"
   style="stop-color:#FBF5B0"
   offset="0" />
		<stop
   id="stop89"
   style="stop-color:#FBAE60"
   offset="0.2688" />
		<stop
   id="stop91"
   style="stop-color:#F49156"
   offset="0.5538" />
		<stop
   id="stop93"
   style="stop-color:#BE6952"
   offset="0.7742" />
		<stop
   id="stop95"
   style="stop-color:#7B4539"
   offset="1" />
	</linearGradient>
	
	
	
	<linearGradient
   y2="635.2742"
   x2="1948.1719"
   y1="937.3486"
   x1="1866.943"
   gradientUnits="userSpaceOnUse"
   id="SVGID_10_">
		<stop
   id="stop104"
   style="stop-color:#FBF5B0"
   offset="0" />
		<stop
   id="stop106"
   style="stop-color:#FBAE60"
   offset="0.2688" />
		<stop
   id="stop108"
   style="stop-color:#F49156"
   offset="0.5538" />
		<stop
   id="stop110"
   style="stop-color:#BE6952"
   offset="0.7742" />
		<stop
   id="stop112"
   style="stop-color:#7B4539"
   offset="1" />
	</linearGradient>
	
	
		<linearGradient
   gradientTransform="matrix(0.9965,-0.0831,0.0831,0.9965,-44.9701,199.4443)"
   y2="539.8097"
   x2="1407.6703"
   y1="758.808"
   x1="1386.6703"
   gradientUnits="userSpaceOnUse"
   id="SVGID_11_">
		<stop
   id="stop117"
   style="stop-color:#FBF5B0"
   offset="0" />
		<stop
   id="stop119"
   style="stop-color:#FBAE60"
   offset="0.2688" />
		<stop
   id="stop121"
   style="stop-color:#F49156"
   offset="0.5538" />
		<stop
   id="stop123"
   style="stop-color:#BE6952"
   offset="0.7742" />
		<stop
   id="stop125"
   style="stop-color:#7B4539"
   offset="1" />
	</linearGradient>
	
	
	
	
	
	<linearGradient
   y2="575.0664"
   x2="272.6135"
   y1="981.9313"
   x1="163.2061"
   gradientUnits="userSpaceOnUse"
   id="SVGID_12_">
		<stop
   id="stop146"
   style="stop-color:#FBF5B0"
   offset="0" />
		<stop
   id="stop148"
   style="stop-color:#FBAE60"
   offset="0.2688" />
		<stop
   id="stop150"
   style="stop-color:#F49156"
   offset="0.5538" />
		<stop
   id="stop152"
   style="stop-color:#BE6952"
   offset="0.7742" />
		<stop
   id="stop154"
   style="stop-color:#7B4539"
   offset="1" />
	</linearGradient>
	
	
	
	<linearGradient
   y2="549.3464"
   x2="2519.3105"
   y1="7.1574"
   x1="2519.3105"
   gradientUnits="userSpaceOnUse"
   id="SVGID_13_">
		<stop
   id="stop223"
   style="stop-color:#FBF5B0"
   offset="0" />
		<stop
   id="stop225"
   style="stop-color:#FBAE60"
   offset="0.4355" />
		<stop
   id="stop227"
   style="stop-color:#B32D38"
   offset="0.9946" />
	</linearGradient>
	
	
	
	
	
		<linearGradient
   gradientTransform="matrix(-1,0,0,1,6025.6128,0)"
   y2="558.8449"
   x2="2967.75"
   y1="1301.2188"
   x1="2768.1233"
   gradientUnits="userSpaceOnUse"
   id="SVGID_14_">
		<stop
   id="stop238"
   style="stop-color:#FBF5B0"
   offset="0" />
		<stop
   id="stop240"
   style="stop-color:#FBAE60"
   offset="0.2688" />
		<stop
   id="stop242"
   style="stop-color:#F49156"
   offset="0.5538" />
		<stop
   id="stop244"
   style="stop-color:#BE6952"
   offset="0.7742" />
		<stop
   id="stop246"
   style="stop-color:#7B4539"
   offset="1" />
	</linearGradient>
	
	
	<linearGradient
   y2="544.7632"
   x2="1700.8162"
   y1="1806.3369"
   x1="1700.8162"
   gradientUnits="userSpaceOnUse"
   id="SVGID_15_">
		<stop
   id="stop281"
   style="stop-color:#FBF5B0"
   offset="0" />
		<stop
   id="stop283"
   style="stop-color:#FBAE60"
   offset="0.2688" />
		<stop
   id="stop285"
   style="stop-color:#F49156"
   offset="0.5538" />
		<stop
   id="stop287"
   style="stop-color:#BE6952"
   offset="0.7742" />
		<stop
   id="stop289"
   style="stop-color:#7B4539"
   offset="1" />
	</linearGradient>
	
	
	
	
	
	
	
	
</defs><sodipodi:namedview
   pagecolor="#ffffff"
   bordercolor="#666666"
   borderopacity="1"
   objecttolerance="10"
   gridtolerance="10"
   guidetolerance="10"
   inkscape:pageopacity="0"
   inkscape:pageshadow="2"
   inkscape:window-width="1920"
   inkscape:window-height="1080"
   id="namedview389"
   showgrid="false"
   inkscape:zoom="0.14138809"
   inkscape:cx="1280.6375"
   inkscape:cy="-687.53763"
   inkscape:window-x="0"
   inkscape:window-y="0"
   inkscape:window-maximized="0"
   inkscape:current-layer="svg387" />

<path
   inkscape:connector-curvature="0"
   style="fill:url(#SVGID_15_)"
   id="path292"
   d="m 3400.8,675.4 c 0,0 -552.5,20.2 -1003.2,-17.3 -58.6,-4.9 -119.4,-12.9 -248.6,-0.9 -129.2,12 -301.7,29.1 -897.3,0.1 -595.6,-29 -1106.1,-7.8 -1251,9.7 v 124 h 3400.1 z" /><g
   id="g384">
		<path
   style="fill:#bbbdbf"
   inkscape:connector-curvature="0"
   id="path374"
   d="m 3074.1,683.6 c 1.3,-4.1 10,-4.6 10,-4.6 l -2,-15.1 c -5.6,-0.8 -12.8,-1.6 -17.9,-2.1 -4.2,-0.4 -8.4,-1.7 -12.1,-3.8 0,0 -0.1,-0.1 -0.1,-0.1 -3,-1.7 -6.4,-2.8 -9.9,-3.2 -0.1,0 -0.1,0 -0.2,0 -4.2,-0.5 -8.4,-1.8 -12,-3.9 -4.4,-2.5 -10.7,-6 -15.8,-8.6 l -10.4,11.1 c 0,0 6.8,5.5 5.4,9.6 -0.7,2.3 -2.6,3.5 -4.2,4.2 -1.3,0.6 -1.9,1.8 -1.5,3 0.6,1.8 1.2,4.3 0.8,6.5 -0.5,2.6 -1.1,7.6 -1.6,10.6 -0.2,1.4 -0.1,2.9 0.2,4.4 0.4,1.8 0.8,4.6 0.3,7.8 -0.5,2.8 0.2,5.8 2.2,8.5 2.2,3.1 4.5,7.6 3.5,12.7 -0.6,3 -1.1,5.3 -1.6,7 -0.8,3 0.3,6.2 2.7,9.1 1.6,1.9 2.9,4.2 2.4,6.4 l 3.6,1.2 5,-6.7 0.2,8.3 3.6,1.2 c 0.9,-2.1 3.3,-3.2 5.7,-3.8 3.7,-0.9 6.4,-3 7.5,-5.8 0.6,-1.7 1.5,-3.9 2.8,-6.7 2.1,-4.7 6.6,-7.1 10.2,-8.3 3.3,-1.1 5.6,-3.3 6.9,-5.9 1.4,-2.8 3.3,-4.8 4.6,-6 1.2,-1 2.1,-2.2 2.8,-3.4 1.4,-2.7 3.7,-7.1 4.9,-9.5 1,-2 2.9,-3.7 4.4,-4.8 1.1,-0.8 1.3,-2.1 0.5,-3.3 -0.8,-1.6 -1.6,-3.8 -0.9,-6 z" />
		<path
   style="fill:#896139"
   inkscape:connector-curvature="0"
   id="path376"
   d="m 2966.5,609.2 c -17.5,-19.7 -14.4,-31.9 -12.6,-41.2 0,0 -12.6,13.7 -9.4,29.4 3.2,15.7 18.8,34.4 59.3,55.8 l 10.4,-11.1 c 0,0.1 -30.2,-13.1 -47.7,-32.9 z" />
		<path
   style="fill:#595a5c"
   inkscape:connector-curvature="0"
   id="path378"
   d="m 3013.4,692.6 1.7,-5.4 c 0,0 0.4,-2.7 -2.5,-6.6 -2.9,-3.9 -5,-6.8 -5,-6.8 0,0 -0.8,5.1 -0.7,8.2 0.1,3.2 -0.5,5.6 6.5,10.6 z" />
		<path
   style="fill:#896139"
   inkscape:connector-curvature="0"
   id="path380"
   d="m 3140.1,664.7 c 25.7,-5.9 30.2,-17.6 34.1,-26.3 0,0 2.3,18.4 -9.4,29.4 -11.7,11 -35.3,17.2 -80.7,11.1 l -2,-15.1 c 0,0.1 32.3,6.8 58,0.9 z" />
		<path
   style="fill:#595a5c"
   inkscape:connector-curvature="0"
   id="path382"
   d="m 3053.5,705.4 1.7,-5.4 c 0,0 1.2,-2.4 5.8,-3.9 4.6,-1.5 8,-2.6 8,-2.6 0,0 -2.3,4.6 -4.2,7.1 -1.9,2.5 -2.7,4.8 -11.3,4.8 z" />
	</g>
</svg>