<?xml version="1.0" encoding="UTF-8" standalone="no"?>
<!-- Generator: Adobe Illustrator 18.0.0, SVG Export Plug-In . SVG Version: 6.00 Build 0)  -->

<svg
   xmlns:dc="http://purl.org/dc/elements/1.1/"
   xmlns:cc="http://creativecommons.org/ns#"
   xmlns:rdf="http://www.w3.org/1999/02/22-rdf-syntax-ns#"
   xmlns:svg="http://www.w3.org/2000/svg"
   xmlns="http://www.w3.org/2000/svg"
   xmlns:sodipodi="http://sodipodi.sourceforge.net/DTD/sodipodi-0.dtd"
   xmlns:inkscape="http://www.inkscape.org/namespaces/inkscape"
   version="1.1"
   x="0px"
   y="0px"
   viewBox="0 0 3400.8 792"
   enable-background="new 0 0 3400.8 792"
   xml:space="preserve"
   id="svg387"
   sodipodi:docname="bg_second.svg"
   inkscape:version="0.92.3 (2405546, 2018-03-11)"><metadata
   id="metadata393"><rdf:RDF><cc:Work
       rdf:about=""><dc:format>image/svg+xml</dc:format><dc:type
         rdf:resource="http://purl.org/dc/dcmitype/StillImage" /><dc:title></dc:title></cc:Work></rdf:RDF></metadata><defs
   id="defs391">
	
		<linearGradient
   gradientTransform="matrix(-0.9993,0.03694283,0.03694283,0.9993,3130.0742,-23.2467)"
   y2="772.9244"
   x2="648.0152"
   y1="474.1624"
   x1="648.0152"
   gradientUnits="userSpaceOnUse"
   id="SVGID_2_">
		<stop
   id="stop14"
   style="stop-color:#FBF5B0"
   offset="0" />
		<stop
   id="stop16"
   style="stop-color:#FBAE60"
   offset="0.2688" />
		<stop
   id="stop18"
   style="stop-color:#F49156"
   offset="0.5538" />
		<stop
   id="stop20"
   style="stop-color:#BE6952"
   offset="0.7742" />
		<stop
   id="stop22"
   style="stop-color:#7B4539"
   offset="1" />
	</linearGradient>
	
	
	<linearGradient
   y2="520.7202"
   x2="1613.653"
   y1="584.7047"
   x1="1613.653"
   gradientUnits="userSpaceOnUse"
   id="SVGID_3_">
		<stop
   id="stop29"
   style="stop-color:#FBF5B0"
   offset="0" />
		<stop
   id="stop31"
   style="stop-color:#FBAE60"
   offset="0.4355" />
		<stop
   id="stop33"
   style="stop-color:#B32D38"
   offset="0.9946" />
	</linearGradient>
	
	<linearGradient
   y2="554.7617"
   x2="1898.2875"
   y1="492.7769"
   x1="1902.6382"
   gradientUnits="userSpaceOnUse"
   id="SVGID_4_">
		<stop
   id="stop38"
   style="stop-color:#FBF5B0"
   offset="0" />
		<stop
   id="stop40"
   style="stop-color:#FBAE60"
   offset="0.4355" />
		<stop
   id="stop42"
   style="stop-color:#B32D38"
   offset="0.9946" />
	</linearGradient>
	
	<linearGradient
   y2="591.0379"
   x2="1524.7883"
   y1="448.2362"
   x1="1524.7883"
   gradientUnits="userSpaceOnUse"
   id="SVGID_5_">
		<stop
   id="stop47"
   style="stop-color:#FBF5B0"
   offset="0" />
		<stop
   id="stop49"
   style="stop-color:#FBAE60"
   offset="0.4355" />
		<stop
   id="stop51"
   style="stop-color:#B32D38"
   offset="0.9946" />
	</linearGradient>
	
	<linearGradient
   y2="561.1859"
   x2="1324.1571"
   y1="379.1661"
   x1="1324.1571"
   gradientUnits="userSpaceOnUse"
   id="SVGID_6_">
		<stop
   id="stop56"
   style="stop-color:#FBF5B0"
   offset="0" />
		<stop
   id="stop58"
   style="stop-color:#FBAE60"
   offset="0.4355" />
		<stop
   id="stop60"
   style="stop-color:#B32D38"
   offset="0.9946" />
	</linearGradient>
	
	<linearGradient
   y2="599.8807"
   x2="1807.6005"
   y1="264.9615"
   x1="1805.6866"
   gradientUnits="userSpaceOnUse"
   id="SVGID_7_">
		<stop
   id="stop65"
   style="stop-color:#FBF5B0"
   offset="0" />
		<stop
   id="stop67"
   style="stop-color:#FBAE60"
   offset="0.4355" />
		<stop
   id="stop69"
   style="stop-color:#B32D38"
   offset="0.9946" />
	</linearGradient>
	
	<linearGradient
   y2="800.3479"
   x2="855.7874"
   y1="501.5859"
   x1="855.7874"
   gradientUnits="userSpaceOnUse"
   id="SVGID_8_">
		<stop
   id="stop74"
   style="stop-color:#FBF5B0"
   offset="0" />
		<stop
   id="stop76"
   style="stop-color:#FBAE60"
   offset="0.2688" />
		<stop
   id="stop78"
   style="stop-color:#F49156"
   offset="0.5538" />
		<stop
   id="stop80"
   style="stop-color:#BE6952"
   offset="0.7742" />
		<stop
   id="stop82"
   style="stop-color:#7B4539"
   offset="1" />
	</linearGradient>
	
	<linearGradient
   y2="757.591"
   x2="1701.0708"
   y1="413.9039"
   x1="1701.0708"
   gradientUnits="userSpaceOnUse"
   id="SVGID_9_">
		<stop
   id="stop87"
   style="stop-color:#FBF5B0"
   offset="0" />
		<stop
   id="stop89"
   style="stop-color:#FBAE60"
   offset="0.2688" />
		<stop
   id="stop91"
   style="stop-color:#F49156"
   offset="0.5538" />
		<stop
   id="stop93"
   style="stop-color:#BE6952"
   offset="0.7742" />
		<stop
   id="stop95"
   style="stop-color:#7B4539"
   offset="1" />
	</linearGradient>
	
	
	
	<linearGradient
   y2="635.2742"
   x2="1948.1719"
   y1="937.3486"
   x1="1866.943"
   gradientUnits="userSpaceOnUse"
   id="SVGID_10_">
		<stop
   id="stop104"
   style="stop-color:#FBF5B0"
   offset="0" />
		<stop
   id="stop106"
   style="stop-color:#FBAE60"
   offset="0.2688" />
		<stop
   id="stop108"
   style="stop-color:#F49156"
   offset="0.5538" />
		<stop
   id="stop110"
   style="stop-color:#BE6952"
   offset="0.7742" />
		<stop
   id="stop112"
   style="stop-color:#7B4539"
   offset="1" />
	</linearGradient>
	
	
		<linearGradient
   gradientTransform="matrix(0.9965,-0.0831,0.0831,0.9965,-44.9701,199.4443)"
   y2="539.8097"
   x2="1407.6703"
   y1="758.808"
   x1="1386.6703"
   gradientUnits="userSpaceOnUse"
   id="SVGID_11_">
		<stop
   id="stop117"
   style="stop-color:#FBF5B0"
   offset="0" />
		<stop
   id="stop119"
   style="stop-color:#FBAE60"
   offset="0.2688" />
		<stop
   id="stop121"
   style="stop-color:#F49156"
   offset="0.5538" />
		<stop
   id="stop123"
   style="stop-color:#BE6952"
   offset="0.7742" />
		<stop
   id="stop125"
   style="stop-color:#7B4539"
   offset="1" />
	</linearGradient>
	
	
	
	
	
	<linearGradient
   y2="575.0664"
   x2="272.6135"
   y1="981.9313"
   x1="163.2061"
   gradientUnits="userSpaceOnUse"
   id="SVGID_12_">
		<stop
   id="stop146"
   style="stop-color:#FBF5B0"
   offset="0" />
		<stop
   id="stop148"
   style="stop-color:#FBAE60"
   offset="0.2688" />
		<stop
   id="stop150"
   style="stop-color:#F49156"
   offset="0.5538" />
		<stop
   id="stop152"
   style="stop-color:#BE6952"
   offset="0.7742" />
		<stop
   id="stop154"
   style="stop-color:#7B4539"
   offset="1" />
	</linearGradient>
	
	
	
	<linearGradient
   y2="549.3464"
   x2="2519.3105"
   y1="7.1574"
   x1="2519.3105"
   gradientUnits="userSpaceOnUse"
   id="SVGID_13_">
		<stop
   id="stop223"
   style="stop-color:#FBF5B0"
   offset="0" />
		<stop
   id="stop225"
   style="stop-color:#FBAE60"
   offset="0.4355" />
		<stop
   id="stop227"
   style="stop-color:#B32D38"
   offset="0.9946" />
	</linearGradient>
	
	
	
	
	
		<linearGradient
   gradientTransform="matrix(-1,0,0,1,6025.6128,0)"
   y2="558.8449"
   x2="2967.75"
   y1="1301.2188"
   x1="2768.1233"
   gradientUnits="userSpaceOnUse"
   id="SVGID_14_">
		<stop
   id="stop238"
   style="stop-color:#FBF5B0"
   offset="0" />
		<stop
   id="stop240"
   style="stop-color:#FBAE60"
   offset="0.2688" />
		<stop
   id="stop242"
   style="stop-color:#F49156"
   offset="0.5538" />
		<stop
   id="stop244"
   style="stop-color:#BE6952"
   offset="0.7742" />
		<stop
   id="stop246"
   style="stop-color:#7B4539"
   offset="1" />
	</linearGradient>
	
	
	<linearGradient
   y2="544.7632"
   x2="1700.8162"
   y1="1806.3369"
   x1="1700.8162"
   gradientUnits="userSpaceOnUse"
   id="SVGID_15_">
		<stop
   id="stop281"
   style="stop-color:#FBF5B0"
   offset="0" />
		<stop
   id="stop283"
   style="stop-color:#FBAE60"
   offset="0.2688" />
		<stop
   id="stop285"
   style="stop-color:#F49156"
   offset="0.5538" />
		<stop
   id="stop287"
   style="stop-color:#BE6952"
   offset="0.7742" />
		<stop
   id="stop289"
   style="stop-color:#7B4539"
   offset="1" />
	</linearGradient>
	
	
	
	
	
	
	
	
</defs><sodipodi:namedview
   pagecolor="#ffffff"
   bordercolor="#666666"
   borderopacity="1"
   objecttolerance="10"
   gridtolerance="10"
   guidetolerance="10"
   inkscape:pageopacity="0"
   inkscape:pageshadow="2"
   inkscape:window-width="1920"
   inkscape:window-height="1080"
   id="namedview389"
   showgrid="false"
   inkscape:zoom="0.3999059"
   inkscape:cx="1585.3625"
   inkscape:cy="345.14064"
   inkscape:window-x="0"
   inkscape:window-y="0"
   inkscape:window-maximized="0"
   inkscape:current-layer="svg387" />

<path
   inkscape:connector-curvature="0"
   style="fill:url(#SVGID_2_)"
   id="path25"
   d="m 3400.5,517.7 c 0,0 -384.1,-30.1 -859.6,0.4 -475.5,30.5 -935.2,80.9 -935.2,80.9 l 173.4,30.9 334.4,27.6 511.8,-18.9 778.7,-28.8 z" /><path
   style="fill:#ffffff"
   inkscape:connector-curvature="0"
   id="path27"
   d="m 1772.6,578 c 0,33.6 -44,60.8 -98.3,60.8 -54.3,0 -98.3,-27.2 -98.3,-60.8 0,-33.6 44,-60.8 98.3,-60.8 54.3,0 98.3,27.2 98.3,60.8 z" /><path
   inkscape:connector-curvature="0"
   style="fill:url(#SVGID_3_)"
   id="path36"
   d="m 1621.5,555.5 c -1,-0.5 -2.1,0.9 -2.1,1.9 0,1 -0.4,4.9 -0.7,6.1 -0.2,0.7 -1.6,1.2 -2.6,1.4 0.1,-3.2 0.2,-6.5 0.4,-9 0.1,-1.2 0.2,-2.3 0.4,-3.3 2.3,-0.2 3.8,-0.6 5.1,-2 1.6,-1.6 2.5,-5.4 2,-7.5 -0.5,-2.1 -2,-1.5 -2.9,-1 -1,0.5 -0.4,1.6 -0.9,4.4 -0.3,1.6 -1.7,2.1 -2.8,2.3 0.5,-3.8 1,-6.4 0.5,-7.4 -0.7,-1.6 -1,-2.8 -2.9,-2.9 -1.9,-0.1 -3.3,5.7 -4.2,12.2 -0.2,1.8 -0.5,4.2 -0.7,7 -0.9,0 -2.2,-0.4 -2.6,-2 -0.6,-2.6 -0.1,-4.8 -0.6,-6.2 -0.5,-1.4 -1.6,-2 -2.8,-1.1 -1.2,1 -1.1,5.4 0,8.4 1,2.5 2.7,5 5.7,5.3 -0.4,6.4 -0.5,13.2 0,16.2 0.8,5.2 4,1.2 4,1.2 l 2.4,-0.8 c 0,0 -0.1,-4.4 -0.1,-9.8 1.9,-0.4 4.6,-1.2 5.5,-2.1 1.1,-1.2 0.9,-5.3 0.9,-7.4 0,-2.1 0,-3.5 -1,-3.9 z" /><path
   inkscape:connector-curvature="0"
   style="opacity:0.4;fill:url(#SVGID_4_)"
   id="path45"
   d="m 1919.3,561.7 v -18.2 h -4.2 V 532 h -6.1 v -4.2 c 0,0 -4,-0.4 -7.4,0 v 4.4 h -1.7 v -4.5 c 0,0 -5.2,-0.1 -9.5,1.9 v 4.7 c 0,0 -3.1,-0.1 -4.8,0.7 v 3.5 c 0,0 -1.9,0.5 -2.6,0.6 v 10.7 h -2 v -7.5 c 0,0 -2.5,0.6 -3.4,1.8 v 17.5 h 41.7 z" /><path
   inkscape:connector-curvature="0"
   style="fill:url(#SVGID_5_)"
   id="path54"
   d="m 1551.6,581.4 0.9,-34.9 -3,-2 v -6 c 0,0 -6.3,-2.1 -9.5,-2.3 v -2.3 c 0,0 -10.7,-5.2 -21.5,-4.6 v 9 l -2.3,-0.3 v -4.6 l -2.1,0.5 -0.5,4.8 -2.9,0.5 v -7.6 c 0,0 -3,2 -4.6,3.1 l -0.8,24 -2.1,1.2 v -19.8 c 0,0 -2.5,0.7 -3.5,2.6 0,0 -2.3,34.4 -2.6,35.3 -0.3,0.9 42.5,6.1 43.1,6.1 0.7,0.2 11.4,-2.7 11.4,-2.7 z" /><path
   inkscape:connector-curvature="0"
   style="fill:url(#SVGID_6_)"
   id="path63"
   d="m 1390.3,558.9 -0.9,-27.7 -5.4,-2.6 V 510 c 0,0 -4.5,-4.3 -6.9,-4.5 v -8.4 c 0,0 -7.7,-5.6 -24,-7.1 v 7.3 l -5.8,-1.7 v 6.4 l -6,-1.5 v -12.7 l -8.6,-1.5 v -5.8 l -12,-2.6 V 474 c 0,0 -6.9,-2.1 -19.7,0 v 5.8 c 0,0 -11.6,-0.4 -15,1.9 v 5.1 l -6.4,1.9 v 5.8 l -4.5,1.3 v 41.4 l -6.6,0.2 v -28.1 l -4.1,1.1 -0.9,21.9 -4.3,2.6 -1.3,35.2 h 118.2 z" /><path
   inkscape:connector-curvature="0"
   style="fill:url(#SVGID_7_)"
   id="path72"
   d="m 1874.1,567.1 c 0,0 -11,-5.3 -12.2,-21.5 -1.2,-16.3 -1.7,-66 -1.7,-66 0,0 -2.5,-2.2 -6.2,-2.4 v 10.4 c 0,0 -5.3,-1.3 -5.9,-1.3 l 0.7,-24.6 c 0,0 -6.7,-2.6 -9.1,-2.8 v -3.8 c 0,0 -8.5,-3.7 -30.4,-3.6 v 3.6 c 0,0 -6.5,-0.1 -13.8,1.1 v 5.1 c 0,0 -12.2,0.6 -24.4,4.3 v 8.1 c 0,0 -5,1 -8,2.9 v 22.7 c 0,0 -4.7,0.6 -6.8,1.6 0,0 0.5,47.1 -1.7,58.9 -2.2,11.7 -13.6,19.3 -14,19.3 -0.4,0 119.4,-8.4 119.4,-8.4 z" /><path
   inkscape:connector-curvature="0"
   style="fill:url(#SVGID_8_)"
   id="path85"
   d="m 0.8,578 c 0,0 364.3,-44.2 817.7,-31.4 453.4,12.9 892.4,46.3 892.4,46.3 L 1547,630.3 1229.9,670.2 H 742.4 0.8 Z" /><path
   inkscape:connector-curvature="0"
   style="fill:url(#SVGID_9_)"
   id="path98"
   d="M 3401.4,686.9 V 568.5 c 0,0 -450.5,-24.5 -1303.6,-2.6 -853.1,21.9 -1184,66.9 -2097,47.6 v 61.8 z" /><path
   inkscape:connector-curvature="0"
   style="fill:url(#SVGID_10_)"
   id="path115"
   d="m 2011.4,582.4 c -10.6,-1.4 -13.2,5.8 -12.4,13.7 0.8,7.9 -1.3,27.1 -8.1,36.5 -4.6,6.4 -12.2,6 -16.5,5.1 2.9,-11.6 5.5,-24.8 7.5,-39.3 1.8,-13 2.5,-25.3 2.3,-36.4 23.6,-1.2 30.9,-17.2 29.9,-39.4 -1.1,-23.2 -14.3,-33.9 -25.1,-31.3 -10.8,2.6 -4.8,18.9 -0.8,24.6 3.9,5.7 6.5,12 4.4,18.7 -1.4,4.4 -6.4,6.3 -9.6,7.2 -2.9,-24.1 -10.5,-40.5 -20.1,-44.9 -15.9,-7.3 -40.6,6.3 -28.6,51.1 2.9,10.8 4.8,22.6 5.8,34.7 -2.6,0.4 -7.1,0.5 -10.2,-2.2 -4.5,-4 -4.3,-9.9 -4.4,-14 -0.1,-4.2 1,-24.3 -12.6,-24.4 -13.6,-0.1 -14.5,28.1 -4.3,45.3 9.1,15.3 20.2,21.3 32.1,18.7 -0.7,30.9 -7.3,61.1 -19.4,80 -20,31.1 36.2,2.9 36.2,2.9 0,0 4.6,-9.9 10.1,-26.9 4,0.8 9.6,1.4 16.7,0.7 19.8,-1.9 31.6,-24.5 35,-39.9 3.3,-15.5 2.7,-39.1 -7.9,-40.5 z" /><path
   inkscape:connector-curvature="0"
   style="fill:url(#SVGID_11_)"
   id="path128"
   d="m 1423.9,582.6 c -6.4,-1 -6.6,5.5 -7.2,10.8 -0.7,5.4 -0.6,12.5 -2.1,15.8 -0.8,1.7 -3.2,2.5 -5.2,2.8 0,-0.5 0.1,-0.9 0.1,-1.4 2.1,-21.9 3.6,-23.7 3.3,-29.1 -0.3,-5.3 -3.3,-9.3 -8.2,-8 -4.9,1.2 -11.7,10.2 -10.7,27.6 0.4,7.3 1.1,15.7 1.9,23.4 -1.4,0.2 -3.4,0.1 -5.3,-1 -3.7,-2.2 -5.3,-9.2 -5.1,-17.4 0.2,-8.2 3.1,-10.5 0.6,-12.5 -2.4,-2 -7.3,-0.1 -8.1,11.1 -0.8,11.1 2.4,29 11.8,31.6 3.2,0.9 5.7,0.8 7.6,0.2 0.9,5.2 1.8,9.2 3,11.1 3.3,5.3 7.9,3.5 7.9,3.5 l 4.2,-4.6 c 0,0 -3.4,-9.2 -3.5,-24.6 2.8,-0.3 6.6,-1.1 11,-2.9 7.2,-2.8 6,-16.1 6.5,-21.3 0.7,-5.2 3.9,-14.1 -2.5,-15.1 z" /><path
   inkscape:connector-curvature="0"
   style="fill:url(#SVGID_12_)"
   id="path157"
   d="m 377.7,504.1 c -18.4,-1.9 -23,7.6 -21.5,17.9 1.5,10.3 -2.3,35.5 -14.1,47.8 -8.1,8.4 -21.2,7.9 -28.7,6.7 5,-15.2 9.6,-32.5 13,-51.4 3.1,-17.1 4.3,-33.1 4.1,-47.7 41.1,-1.6 53.8,-22.5 52,-51.5 -1.9,-30.3 -24.9,-44.4 -43.7,-40.9 -18.9,3.4 -8.3,24.7 -1.5,32.2 6.8,7.5 11.4,15.7 7.7,24.4 -2.4,5.7 -11.1,8.3 -16.8,9.4 -5.1,-31.5 -18.3,-52.9 -35,-58.7 -27.6,-9.5 -70.7,8.3 -49.7,66.8 5.1,14.1 8.4,29.5 10,45.4 -4.5,0.5 -12.4,0.6 -17.8,-2.9 -7.9,-5.3 -7.5,-12.9 -7.7,-18.4 -0.2,-5.4 1.7,-31.7 -22,-31.9 -23.6,-0.2 -25.3,36.7 -7.5,59.3 15.8,20.1 35.1,27.9 56,24.5 -1.2,40.4 -12.7,79.9 -33.8,104.6 -34.8,40.7 63,3.7 63,3.7 0,0 8.1,-12.9 17.6,-35.2 7,1.1 16.8,1.8 29.1,0.9 34.5,-2.4 55.1,-32.1 60.9,-52.1 5.9,-20.2 4.8,-51 -13.6,-52.9 z" /><g
   id="g205">
		<g
   style="opacity:0.2"
   id="g161">
			<path
   style="fill:#33a2b3"
   inkscape:connector-curvature="0"
   id="path159"
   d="m 502.1,250.9 c 22.2,-39.3 72,-51.2 113.1,-71.8 14.7,-7.4 27.5,-19.2 40.3,-28.8 12.8,-9.6 25.9,-19.1 31.3,-33.3 -10.6,39.7 -43.3,51 -81,72.2 -40.5,22.8 -75.6,61.6 -73.5,104.1 2.1,42.6 40.1,72 68.7,104 34.3,38.2 42.5,92.1 25.8,137.9 -4.5,12.4 -6,30.2 4.3,41 -9.1,-6.6 -14.3,-11.9 -16.6,-22.2 -5.4,-23.3 8.9,-44.9 -2.5,-68.2 -18,-36.9 -51.1,-57.2 -78.1,-88.2 -12.4,-14.3 -23,-30.3 -31.6,-46.4 -17.7,-33 -18.8,-67.3 -0.2,-100.3 z" />
		</g>
		<g
   style="opacity:0.2"
   id="g165">
			<path
   style="fill:#33a2b3"
   inkscape:connector-curvature="0"
   id="path163"
   d="m 691.4,121.8 c -4,2.7 -8.1,5.2 -12.3,7.2 -15.8,7.6 -33.1,12.5 -50.1,17.6 -43.2,13 -82.4,34.2 -104.6,68.8 -11,17.2 -20,36.7 -29.4,54.7 -10.1,19.4 -5.2,40.3 -1.3,60.5 6,31.2 35.8,72.3 79.1,74.8 -34.3,-23.7 -61.2,-62.3 -52.3,-99.7 3,-8.7 10.5,-15 13.4,-22.4 1.5,-3.7 6,-19.9 7.5,-21.2 5.3,-4.5 10,-7 17.7,-5.7 6.9,1.1 11.8,5.8 17.4,9.1 12.4,7.3 28.3,14.5 43.3,8.2 12.6,-5.3 19.2,-16.3 20.9,-27.7 2.5,-17.2 -8.6,-28.3 -19.2,-41.7 -7.7,-9.8 -11.6,-21.1 -6.9,-32.6 4,-9.7 19,-13.5 29.9,-15.6 26.9,-5 34.3,-6.2 55.3,-22.4 19.5,-15.1 54.2,-29.5 79,-13.6 8.9,5.7 15.2,15 23.5,21.4 10.8,8.4 17.9,15.1 22.7,26.9 -12.5,-31.1 -36.5,-56 -75.7,-64.3 -9.4,-2 -18.8,-1.9 -27.9,0.8 -11.1,3.4 -20.4,10.6 -30,16.9 z" />
		</g>
		<g
   id="g195">
			<g
   id="g187">
				<g
   style="opacity:0.2"
   id="g169">
					<path
   style="fill:#33a2b3"
   inkscape:connector-curvature="0"
   id="path167"
   d="m 821.2,238.4 c -0.1,0.1 1.1,1.7 1.2,1.8 0.7,0.7 1.6,1.2 2.5,1.7 1.8,1 3.3,1.9 5.9,2 2,0 3.6,-0.1 5.6,0.2 1.6,0.2 2.2,0 3.6,-0.3 1.7,-0.3 2.7,0 4.4,0.3 4.6,1 6,-0.9 7.1,-3.8 0.5,-1.3 0.7,-2.5 -0.2,-3.7 -0.7,-1.1 -2.3,-1.7 -2.4,-3 -0.3,-2.1 2,-4.5 2.4,-6.6 0.6,-2.8 -0.2,-5.7 -1.6,-8.3 -1.2,-2.3 -1.1,-5 -3,-7.1 1.9,2.1 4.3,4.9 4.5,7.5 0.2,2.4 1.6,4.8 1.7,7.3 0,1.9 -1.5,3.6 -2.1,5.4 -0.6,1.8 0.6,3.5 3,1.4 -0.2,0.2 1.1,2.7 1.2,3.1 0.1,1.1 -0.1,2.1 -0.8,3.1 0,0 0,0 0,0.1 -1.3,1.9 -4,3.3 -6.7,4.3 -6.7,2.4 -14.1,0.8 -21.3,0.8 -5.9,0.1 -9.7,-2.6 -14.4,-4.6 -2.5,-1 -4.3,-2.3 -6.1,-3.9 -5,-4.3 -10.2,-12 -7.5,-17.6 -0.3,0.6 1.9,2.9 2.3,3.4 0.8,1.1 2.4,2.2 2.9,3.4 0.5,1.2 0.3,1.8 1.5,2.9 1.9,1.8 4.4,3.4 6.9,4.8 3.9,2.2 3.2,-1 2.1,-2.8 -1.1,-1.7 -1.3,-3.1 -1.4,-5 -0.2,-3.2 -3.9,-5.9 -6.6,-8.3 -3.2,-2.9 -3.4,-5.3 -2.5,-8.7 0.9,-3.4 -1.5,-4.8 -4.7,-7.1 -3.8,-2.8 -4.9,-6.1 -7.3,-9.5 -1,-1.5 -2.1,-3 -2.6,-4.7 -0.5,-1.8 0.6,-3.3 0.4,-5 0.2,2.8 2.7,4.4 5,6.5 3.8,3.5 4.7,7.7 7.3,11.5 2.1,3.2 6,7.1 11.9,5.4 -0.2,4.5 -3.5,8.5 0.5,12.7 3,3.2 6.1,5.4 6.8,9.3 0.4,2.1 0.6,4.3 1.3,6.4 0.7,2.2 3.1,4.4 -0.8,4.7 z" />
				</g>
				<g
   style="opacity:0.3"
   id="g173">
					<path
   style="fill:#33a2b3"
   inkscape:connector-curvature="0"
   id="path171"
   d="m 843.6,146.4 c -4.7,-14.2 -11.8,-32.1 -27.7,-42.8 7.7,10.3 12.8,20.3 14.3,32.1 0.6,8.1 2.6,20.1 -5.3,26.8 -1,-2 -2,-4 -3,-5.6 -3,9.9 -8.9,-1.4 -13.7,-3.9 1.5,3.7 -0.4,8.2 -5.6,9.9 -7.9,-14.9 -12.5,-27 -29.7,-38.7 -23.9,-16.1 -55.8,-24.4 -87.1,-30 6.1,4.2 14.4,6.7 20.5,10.9 7.3,4.7 12.2,10.1 17.7,15.8 11.8,12.3 24.2,23.4 31.4,37.7 -6.3,-4.9 -21.9,-14.6 -30.9,-14.1 18.6,13.2 27.6,28.7 41.1,43.9 -4.2,-0.5 -8.3,-2.8 -10,-5.5 2.9,13.4 17.4,20.4 31.8,27.4 9.4,5.2 10.6,9.6 12.6,17.5 2.1,8.1 10.3,12.9 20.9,15.6 5,1.3 10.1,2.1 15.4,2.8 2.6,0.4 4.7,0.8 7.3,0.1 1.3,-0.4 10.8,-5.2 10.7,-5.9 -0.2,-2.8 -3.1,-4.2 -3.7,-6.6 -0.7,-2.7 1,-4 0.9,-6.5 0.4,-8.2 -5.9,-15.1 -7.9,-22.7 -1.8,-6.8 3.1,-5.7 5.8,-11 2.1,-3.8 -1.7,-10.7 -2.8,-14.8 -2.5,-10.6 0.3,-21.6 -3,-32.4 z m -38.4,57.3 c -4.8,-2.4 -4.2,-7.9 -8.8,-10.8 4.5,2.8 13.5,2.1 17,5.7 3.6,3.9 -2.9,7.7 -8.2,5.1 z" />
				</g>
				<g
   style="opacity:0.4"
   id="g177">
					<path
   style="fill:#33a2b3"
   inkscape:connector-curvature="0"
   id="path175"
   d="m 848,236.3 c 1.4,0.3 1.9,0.9 0.6,1.9 -1,0.8 -11,8.1 -13,5.3 -0.3,-0.4 0.4,-1.1 0.4,-1.7 -0.1,-1.6 -2.5,-2.8 -4.1,-3.8 -0.8,-0.5 -1.8,-1 -2.4,-1.7 2,-0.5 4,-0.5 6.1,-0.6 2.1,-0.1 4.1,-0.5 6.1,-0.3 1.8,0.1 3.6,0.4 5.4,0.7 0.4,0 0.7,0.1 0.9,0.2 z" />
				</g>
				<g
   style="opacity:0.4"
   id="g181">
					<path
   style="fill:#33a2b3"
   inkscape:connector-curvature="0"
   id="path179"
   d="m 787.9,174 c -1.6,-4.5 -4.6,-8.8 -8.6,-12.4 -3,-2.7 -6.4,-3.9 -8.3,-7.2 -4,-7 -4.6,-14.5 -9.5,-21.3 1.5,2.1 3.5,4.2 6,5.6 3.5,-12.9 -18.9,-27.5 -30.4,-35.4 23.9,8 41.8,26.1 50.8,42.7 -4,-3.1 -8.5,-5.9 -13.4,-8 6,4.9 6,12.2 9.5,17.7 5,8 7.5,13.9 7.5,22.9 -1,-5.9 -6.5,-11.8 -11.9,-16" />
				</g>
				<g
   style="opacity:0.4"
   id="g185">
					<path
   style="fill:#33a2b3"
   inkscape:connector-curvature="0"
   id="path183"
   d="m 828.9,141.8 c -0.1,-1.4 -0.3,-2.7 -0.3,-3.8 0,-3.8 0,-7.4 -1.1,-11.1 -1.8,-6.5 -5.7,-12.9 -9,-19.1 6.9,7.6 11.8,16 14.9,24.6 2.7,7.8 4.5,17.5 4.2,25.5 -0.2,4.5 -6.4,12.2 -4,16.4 -1.7,-2.9 -0.5,-5.9 -1.3,-8.8 -0.6,-2.3 -2.1,-4.6 -3.1,-6.9 -1.9,-4.9 -5.9,-10.7 -2.7,-15.8 0,1.1 0.5,2.2 1.6,3 0.8,-1 0.9,-2.5 0.8,-4 z" />
				</g>
			</g>
			<g
   id="g193">
				<g
   style="opacity:0.2"
   id="g191">
					<path
   style="fill:#33a2b3"
   inkscape:connector-curvature="0"
   id="path189"
   d="m 759,145.6 c 0.4,8.8 7.2,16.6 12.3,24.4 2.5,3.9 4.1,6.5 4.9,10.8 0.8,4.4 1.9,8.9 4.6,13 1.9,2.9 4.8,5.1 6.9,7.9 -13.8,0.2 -29.6,-8.1 -31.3,-18.2 3.4,1.7 4.7,5.3 7.9,7.3 3.2,2.1 6.8,2.9 10.3,4.5 -6.1,-2.4 -4.6,-7.9 -4.8,-12.1 -0.3,-5 -4,-8.5 -9,-11.9 -4.4,-3.1 -9.5,-7.8 -14.7,-10.1 3.9,1.7 7.9,4.1 12.6,5.1 1.3,-15.6 -18.9,-28.3 -31.2,-39 5.3,1.2 11.1,2.4 16,4.4 -0.2,-5.9 -9.3,-13.5 -16.1,-17 16,6.8 30.8,17.6 31.6,30.9 z" />
				</g>
			</g>
		</g>
		<g
   style="opacity:0.2"
   id="g199">
			<path
   style="fill:#33a2b3"
   inkscape:connector-curvature="0"
   id="path197"
   d="M 787.9,192.3 C 773.2,177 748,163.4 725.2,159 c -44.7,-8.6 -88.7,5.1 -125.4,25.5 -40.3,22.4 -72,38.5 -79.2,81 3.8,-22.5 51.8,-46.4 75.8,-32.5 7,4 12,11.8 20,14.7 66.3,23.7 105.9,-84.4 171.5,-55.4 z" />
		</g>
		<g
   style="opacity:0.3"
   id="g203">
			<path
   style="fill:#33a2b3"
   inkscape:connector-curvature="0"
   id="path201"
   d="m 730.5,271.1 c -4.6,0.4 -9.1,0.3 -13,-0.6 -13.8,-3 -10,-11.6 -4,-19.4 -0.1,0.1 -3.5,-6.3 -3.5,-7.4 -0.2,-2.6 0.8,-5.5 2,-7.8 2.6,-5.3 4,-8.7 -3.5,-11.8 -16,-6.7 -31.6,-0.5 -47.5,1.4 -19.6,2.4 -39.1,-2.4 -58.7,2.3 -0.5,-2.7 1.9,-6.5 3.9,-8.5 -7.5,-1.9 -14.9,1.1 -21.6,3.7 0.5,-0.2 1.3,-12.8 1.9,-14.4 9.3,-25.2 53.3,-52.3 85.5,-40.9 12.9,4.6 7.5,15.8 -2.6,21.3 -3.8,2.1 -18.6,10.6 -22.4,10.5 9.6,0.5 17.1,2.5 26.9,1.3 24.2,-2.9 44.6,1.1 65.2,12 26.8,14.3 27.3,54.8 -8.6,58.3 z" />
		</g>
	</g><g
   id="g221">
		<g
   id="g217">
			<path
   style="fill:#250f1f"
   inkscape:connector-curvature="0"
   id="path207"
   d="m 598,467.6 c -0.5,-0.1 -1,0 -1.6,0.2 -2.2,1 -1.3,3.2 0,4.5 -1.7,0.2 -3,-1.8 -3.4,-2.9 -0.6,-2 0.5,-4.7 3.1,-5.3 -1,-1.1 -2.7,-1.7 -4.2,-2 0.5,-0.4 1.2,-1 1.8,-1.3 1.3,-0.6 2.5,0.1 3.9,-0.1 -0.9,-0.8 -2.2,-1.9 -2.5,-3 -0.4,-1.6 0.7,-3.3 1.7,-4.6 0,1.4 1.1,5.1 3.5,4.5 0,-0.9 -0.3,-1.8 0,-2.7 0.5,-1.4 1.8,-2.6 3.3,-3.4 -2.6,2.2 -2.3,7.4 1.6,8.6 -0.7,-1.4 0.2,-3.2 0.1,-4.7 0.2,2.5 2.9,4.4 3.4,6.8 0.4,1.8 -0.6,3.2 -1.6,4.7 -0.5,0.7 -0.8,1.3 -1.1,2 -0.2,0.4 -1.1,1.3 -1.1,1.8 0,0.4 9.2,145.2 9.2,145.2 l -2.7,0.1 -9.2,-145 c -1.3,-0.9 -2.4,-3.1 -4.2,-3.4 z" />
			<path
   style="fill:#250f1f"
   inkscape:connector-curvature="0"
   id="path209"
   d="m 595.6,483 c -0.7,-2.3 1.3,-4.9 4,-5.3 2.4,-0.4 4.1,0.7 5,2.6 1.5,2.8 -0.7,3.9 -2.6,5.7 2.3,2.1 4.8,4.9 2.8,7.8 -2.7,3.8 -9,1.4 -9.9,-2.3 -0.8,-2.4 1,-2.4 2.2,-4.1 1.8,-2.2 -0.7,-2.2 -1.5,-4.4 z" />
			<path
   style="fill:#250f1f"
   inkscape:connector-curvature="0"
   id="path211"
   d="m 602.5,503.7 c 0.8,3 3.9,5 6.9,4.5 3,-0.6 4.7,-3.5 3.9,-6.5 -0.8,-3 -3.9,-5 -6.9,-4.5 -3,0.5 -4.7,3.5 -3.9,6.5 z" />
			<g
   id="g215">
				<path
   style="fill:#250f1f"
   inkscape:connector-curvature="0"
   id="path213"
   d="m 603,474.7 c 4.3,3.4 0.3,13.5 0.9,18.3 0.6,4.9 0.8,9.1 -0.3,14 -0.6,2.7 -0.4,5.1 0.2,7.8 0.3,1.3 1.3,2.5 2.2,3.5 3,3.3 0.5,6.4 -1.6,9.3 -1.4,1.9 -0.7,5.2 1,6.7 4,3.7 3.5,6.1 1.8,10.8 -0.7,2 -0.8,2.5 -0.6,4.5 0.1,1.4 1.2,2.7 2,3.8 2.8,3.8 -0.5,9.5 -0.7,13.7 -0.1,1.9 0.6,3.6 1.2,5.3 1.6,4.6 2.5,7.8 0.6,12.5 -1.6,3.9 -1.1,7.7 1.1,11.3 1,1.5 1.6,-1.5 1.1,-2.3 -3.7,-6 3.6,-11.8 1.1,-17.8 -2,-4.8 -3.8,-8.5 -2.4,-13.8 0.6,-2.4 1.5,-4.7 0.9,-7.2 -0.7,-2.9 -4.1,-6 -2,-9.1 0.9,-1.3 1.8,-2.6 1.9,-4.2 0.2,-3.2 -6.5,-11.4 -4.3,-13.4 2,-1.9 4.1,-4 3.3,-6.7 -0.4,-1.4 -0.6,-2.5 -1.7,-3.7 -2.9,-3.4 -4.5,-4.5 -3.7,-9.6 0.2,-1.5 0.7,-3 0.9,-4.5 0.3,-3.1 0.1,-5.9 -0.3,-8.9 -0.7,-4.7 0.6,-8.8 1.5,-13.4 0.7,-3.9 -0.4,-6.5 -3.6,-9.4 -0.9,-0.8 -1.3,1.9 -0.5,2.5 z" />
			</g>
		</g>
		<path
   style="fill:#250f1f"
   inkscape:connector-curvature="0"
   id="path219"
   d="m 622.6,549.6 -5.3,-3 -11.7,0.4 -13.8,-2.3 -5.7,-2.1 h -1 l -4.6,-2.7 -1.5,0.1 -2.9,-0.7 -5.8,-1.7 -0.6,-3.8 1.8,0.4 -2.4,-6.5 -0.4,-4.3 v -10 l -5,-9.1 -8.4,-4 -11.3,-3.3 -6.9,0.6 2.8,3.2 -3.2,0.3 -12.1,7.7 6.4,0.5 -9,7.3 5.7,-2.2 5.6,-0.7 -7,3.2 -2.6,6.7 3.8,-0.9 -4.4,6.4 4.7,-0.6 -3.4,3.6 3.3,0.8 0.5,2.2 -6.4,1 -1.8,2.4 -2.1,0.2 -3.3,3 1.8,2 -2.2,3.2 1.4,1.5 -3.6,5 1,1.5 c 0,0 -2.5,9.1 -3,10.2 -0.5,1.2 -0.9,4.2 -0.9,4.2 l -8.3,6.6 1.2,3.1 0.1,4.7 2.5,-1 0.2,2.9 -2.7,1.1 2,6.8 2,3.5 -0.5,5.5 5.4,5.1 -0.3,4.9 -5.7,-2.5 -10,1 4.5,2.6 -2.9,0.2 3.4,3.7 2.2,-1.5 c 0,0 1,3.3 1.6,3.8 0.7,0.5 10.8,3.8 10.8,3.8 l 19.7,0.2 11.1,2.1 34.7,-3.2 9,-5.8 6,-0.6 8.9,0.5 10.5,0.1 2.1,-2.7 -3.4,-3.6 -6.6,-2.7 0.6,-13.4 4.9,-13.5 2.6,-13.6 4.5,0.4 4,-2.9 3.5,-4.2 z m -40.5,28.4 -3.1,-1.8 0.4,-4.6 0.2,-2.3 0.9,-3.4 10.7,-5.3 z m 11,31.9 -2.2,-2.3 v -0.7 l 2.5,-1.3 0.9,0.9 -0.3,1.3 0.3,1.4 z" />
	</g><path
   inkscape:connector-curvature="0"
   style="fill:url(#SVGID_13_)"
   id="path230"
   d="m 2675.6,542.6 -2,-82.4 -12.7,-7.7 v -55.6 c 0,0 -10.6,-12.8 -16.2,-13.4 v -24.9 c 0,0 -18.2,-16.6 -56.7,-21.1 v 21.7 l -13.7,-5.1 v 19.2 l -14.2,-4.5 v -37.7 l -20.3,-4.5 v -17.2 l -28.4,-7.7 v -12.1 c 0,0 -16.2,-6.4 -46.6,0 v 17.2 c 0,0 -27.4,-1.3 -35.5,5.7 v 15.3 l -15.2,5.8 v 17.2 l -10.6,3.8 V 478 l -15.7,0.6 V 395 l -9.6,3.2 -2,65.2 -10.1,7.7 -3,104.8 h 279.1 z" /><path
   inkscape:connector-curvature="0"
   style="fill:url(#SVGID_14_)"
   id="path249"
   d="m 2880.3,429.2 c 30.7,-3.4 38.3,14.1 35.8,33 -2.4,19 3.8,65.5 23.4,88.2 13.5,15.6 35.4,14.5 47.8,12.3 -8.3,-28 -16,-59.9 -21.7,-95 -5.1,-31.5 -7.2,-61 -6.8,-88 -68.4,-2.9 -89.5,-41.5 -86.5,-95.1 3.1,-56 41.4,-81.9 72.7,-75.6 31.4,6.3 13.8,45.7 2.4,59.5 -11.4,13.8 -19,29 -12.8,45.1 4.1,10.5 18.4,15.3 27.9,17.3 8.5,-58.2 30.5,-97.7 58.2,-108.3 46,-17.6 117.7,15.3 82.7,123.3 -8.4,26 -13.9,54.5 -16.7,83.8 7.6,0.9 20.7,1.2 29.5,-5.4 13.1,-9.8 12.4,-23.8 12.8,-33.9 0.3,-10.1 -2.8,-58.6 36.5,-58.9 39.3,-0.3 42.1,67.8 12.4,109.5 -26.4,37 -58.4,51.5 -93.1,45.2 1.9,74.5 21.1,147.6 56.2,193 57.9,75.1 -104.8,6.9 -104.8,6.9 0,0 -13.4,-23.8 -29.3,-65 -11.7,2 -27.9,3.3 -48.4,1.7 -57.5,-4.5 -91.6,-59.2 -101.2,-96.2 -9.4,-37 -7.7,-93.9 23,-97.4 z" /><g
   id="g279">
		<g
   id="g253">
			<path
   style="fill:#44122b"
   inkscape:connector-curvature="0"
   id="path251"
   d="m 1779.3,559 c 0,0 -9.5,-10.2 -16.9,-5.3 0,0 -2.4,-3.9 -4.6,-1.3 0,0 -9.7,5.5 -20.6,-0.8 0,0 -1.7,-0.8 -2.3,-2.1 -0.5,-1.4 -1.2,-2 -2,-2.1 -0.8,-0.1 -0.5,0.8 -0.5,0.8 0,0 1.6,0.6 1.5,2 -0.1,1.4 -1,1.9 -1.2,2.2 -0.2,0.3 -1.7,1 -1.9,2 0,0 -3,0.2 -3.5,-0.5 -0.5,-0.7 -3,-1.2 -3.7,-0.2 0,0 -1.9,-2.4 -4.8,-3.6 -2.9,-1.2 -10.7,-5 -11.6,-5.4 -1,-0.4 -2.9,-0.7 -3,-0.9 -0.1,-0.1 -1.8,-2.9 -2.6,-4.2 -0.8,-1.3 -1.6,-1.2 -1.6,0.3 0,1.4 -0.4,3.3 -1.1,3.1 -0.7,-0.2 -3.1,-3.8 -3.4,-4.4 -0.3,-0.7 -0.9,0.1 -0.6,1.6 0.3,1.5 2.2,5.2 1.7,5.7 -0.5,0.4 -2,1 -2,2.2 0,1.2 0.5,2.4 0.2,2.4 -0.3,0 -1.9,2.3 -1.9,2.5 0,0.2 1.4,2 1.3,3 -0.1,1 -1.3,8.7 -2.1,9.7 -0.8,1 -1.7,2.5 -1.7,2.5 0,0 0,1.7 0.5,2.5 0.5,0.8 1.2,0.8 1.2,1.7 0,0.9 2.4,1.4 3.5,1.2 1,-0.1 2.3,-0.2 2.6,-1 0.2,0.4 0.4,0.7 0.5,0.8 0.1,1.1 0.3,3.5 1.7,5.3 1.2,1.5 2.8,2.3 4.9,2.3 0.2,0 0.3,0 0.5,0 4.9,-0.3 7.2,-1.8 8.2,-2.8 0.4,2.5 0.9,5.4 1.4,7 0.8,3.3 3.6,5.3 3.5,5.3 -0.1,0 -1,2.3 0,5.5 1,3.2 1.8,9.8 1.7,11.4 -0.1,1.6 -0.2,5.9 0,6.8 0.2,0.9 -0.2,5.2 -0.4,6.7 -0.2,1.5 -1.4,4 -1.4,4 l -1.6,1 h 6.1 l -0.1,-4.1 c 0,0 0.5,-9.2 0.8,-10.2 0.3,-1 0.8,-7 0.8,-7.8 0,-0.8 2.4,-9.2 2.4,-9.2 0,0 1.3,-2.4 3.2,8.6 2,10.9 2.2,11.6 4.5,13.3 2.3,1.7 4.2,4.8 4.7,5.4 0.5,0.6 1.2,3.2 1.2,3.2 l 4.3,-3.2 c 0,0 -1.2,-2.2 -2,-2.6 -0.8,-0.5 -6.6,-2.4 -6.8,-7.9 -0.1,-5.5 0.4,-15 -0.5,-17.5 0,0 -0.2,-1.3 2.2,-0.8 2.4,0.5 11.2,-1.6 14.3,-3.4 3.1,-1.8 8.3,-4.5 8.3,-4.5 0,0 1,-1.1 1.1,1.9 0.1,3 1.5,7.9 2.1,11.5 0.6,3.7 0.8,8.6 0.1,9.6 -0.7,1 -6.2,9.9 -6.8,10.7 -0.6,0.8 -1.8,4 -2.2,4.2 -0.5,0.2 -0.6,1.6 -0.6,1.6 h 5.6 c 0,0 5,-11.7 7.5,-14.2 2.5,-2.6 4.2,-5.2 3.7,-6.8 -0.5,-1.6 -1.3,-7.7 -1.1,-9.1 0.2,-1.4 0,-4.2 1,-2.7 1,1.5 2.8,4.9 2.9,6.1 0.2,1.2 2.2,3.3 3.1,4.5 0.9,1.3 1.7,3.1 1.9,3.8 0.2,0.8 1.4,2.7 2,3.7 0.6,1 1.3,3.3 1.6,5.4 0.3,2 1,5.1 0.8,5.6 -0.2,0.5 -0.5,1.6 -0.5,1.6 h 3.7 c 0,0 1,-3 0.5,-4.2 -0.5,-1.2 -2.4,-8.7 -2.7,-11.7 -0.3,-3 -0.3,-5 -0.8,-5.9 -0.5,-0.9 -4.4,-7.9 -4.6,-9.1 -0.2,-1.2 -0.3,-6.6 0.6,-9.6 1,-3 3.3,-7 2.1,-11.8 -1.1,-4.8 -1.9,-7.7 -1.9,-7.7 0,0 1,0.1 1.5,1 0.5,0.9 2.1,6.6 1.2,12.7 -0.9,6.1 0.3,10 0.3,10 0,0 0.3,-6 0.5,-7.2 0,0 -0.8,16.3 1.9,19.6 0,0 -0.4,-1.7 -0.4,-2.7 0,0 1.2,2.4 1.2,6.3 0,0 1.4,-10.6 3.6,-14 0,0 -0.3,2.3 -1.1,4.4 0,0 4.5,-6.1 5.2,-13.4 0.8,-7.5 -5.2,-21.9 -14.3,-20.3 z m -73.8,3.4 c 0,0 0.8,-1.2 1.5,0.1 0.1,0.3 0.5,0.9 1,1.7 -2.2,1.2 -4.5,1.4 -6.1,1.2 1.7,-1.4 3.6,-3 3.6,-3 z m 0.3,17.9 c -2.2,0.1 -3.9,-0.6 -5,-2.1 -1.4,-1.9 -1.6,-4.6 -1.6,-5.2 0,-0.3 0.1,-0.8 0.2,-1.5 0.2,-1.4 -0.4,-2.4 -0.6,-2.8 0.2,-0.4 0.4,-0.8 0.6,-1.1 0.3,-0.3 0.9,-0.9 1.7,-1.5 0.5,0.1 1,0.1 1.6,0.1 1.6,0 3.6,-0.3 5.5,-1.4 1.9,3.3 5,8.9 5,8.9 0,0 0.2,1.6 0.6,3.7 -0.6,0.8 -2.7,2.6 -8,2.9 z" />
		</g>
		<g
   id="g257">
			<path
   style="fill:#44122b"
   inkscape:connector-curvature="0"
   id="path255"
   d="m 1741.6,511.9 c 0,0 -0.6,1 -0.3,1.2 0.4,0.2 0.4,0.3 0.4,0.3 0,0 -0.4,1.2 -0.4,1.4 0,0.2 0.2,0.7 0.2,0.7 0,0 -0.1,0.8 0,1 0.1,0.2 0.5,0.4 0.5,1 0,0.6 0.5,1.8 1.5,1.1 l -0.1,1.1 c 0,0 -1.7,3.3 -1.7,3.4 0,0.1 -0.2,4.4 -0.4,5 -0.1,0.7 -0.2,5.1 0.3,7.8 0,0 0.1,0.4 -0.7,0.7 -0.8,0.2 -3,0.9 -3,0.9 l -0.5,1.1 c 0,0 -2.2,-0.5 -2.7,-0.7 -0.5,-0.2 -1.5,1.2 -1.4,2 0,0.8 0.8,2.6 1.6,2.7 0.8,0.1 3.3,-0.3 3.3,-0.3 0,0 0.8,0.6 1.4,0.8 0.5,0.2 0.9,0.5 0.9,0.5 l -1.3,2 2.2,0.5 -3.5,10.2 16.9,3.3 c 0,0 0.7,-7 0,-9.7 -0.7,-2.7 -1.4,-4.3 -1.4,-4.3 0,0 3.6,-2.4 3.2,-5.1 -0.3,-2.7 -0.3,-5.8 -0.3,-7.3 0,-1.5 -0.1,-3.1 -0.2,-4.6 -0.2,-1.7 -0.3,-3.5 -1.1,-4.9 -0.7,-1.2 -1.5,-2.3 -2.5,-3.2 -1,-0.9 -2.1,-1.5 -3.2,-2.2 0,0 -0.8,-0.5 -0.8,-0.5 0,0 -0.3,-1.4 -0.3,-2.3 0,0 1.5,-1.4 1.5,-2.1 0,0 2.7,1.7 2.5,0.4 -0.1,-1.3 -2,-3.1 -2,-3.1 l -0.1,-4.1 c 0,0 -1,-2.8 -5.1,-3 0,0 -2.4,1.3 -3.4,4.8 0,0 -4.8,0.1 -1.8,1.2 l 2,0.5 c 0,0 -0.1,0.5 -0.2,1.8 z" />
		</g>
		<g
   id="g261">
			<path
   style="fill:#44122b"
   inkscape:connector-curvature="0"
   id="path259"
   d="m 1739.3,537.3 c 0,0 -1.1,-1.3 -1.8,1.1" />
		</g>
		<g
   id="g265">
			<path
   style="fill:#44122b"
   inkscape:connector-curvature="0"
   id="path263"
   d="m 1735.4,560 c -2.7,-8.5 -0.7,-19.5 -0.7,-19.6 l 0.4,0.1 c 0,0.1 -1.9,11 0.7,19.3 z" />
		</g>
		<g
   id="g269">
			<path
   style="fill:#44122b"
   inkscape:connector-curvature="0"
   id="path267"
   d="m 1723.7,560.2 -0.1,-0.5 c 6.5,-3 16.1,-18.3 16.2,-18.4 l 0.3,0.4 c 0,0 -2.5,3.9 -5.7,8.1 -4.3,5.6 -7.9,9.1 -10.7,10.4 z" />
		</g>
		<g
   id="g273">
			<path
   style="fill:#44122b"
   inkscape:connector-curvature="0"
   id="path271"
   d="m 1720.7,555.9 -0.1,-0.6 c 5.5,-1.9 17.4,-15 17.5,-15.1 l 0.3,0.4 c -0.5,0.7 -12.1,13.4 -17.7,15.3 z" />
		</g>
		<g
   id="g277">
			<path
   style="fill:#44122b"
   inkscape:connector-curvature="0"
   id="path275"
   d="m 1731.3,561.1 -0.3,-0.3 c 4.4,-7.6 5.2,-20.1 5.2,-20.2 h 0.4 c 0,0.1 -0.8,12.7 -5.3,20.5 z" />
		</g>
	</g><polygon
   style="fill:#f7d19b"
   id="polygon294"
   points="2933.1,345.9 2936.6,345.9 2939,353.4 2939,345.1 2950.4,343.9 2952.4,347.5 2952.4,343.5 2976.8,343.5 2981.5,350.6 2983.9,341.6 2992.2,341.6 2996.5,349.1 2996.5,341.6 3013.4,341.6 3017.7,347.5 3020.1,343.9 3033.9,343.9 3039,349.1 3041.4,341.6 3058.3,341.6 3061.8,347.5 3067,341.6 3072.5,341.6 3072.5,360.5 3067.8,365.2 3070.5,367.2 3070.5,396 3072.5,416.9 3067,418.8 3072.5,421.2 3072.5,441.3 3068.5,452.7 3072.5,452.7 3072.5,463 3066.2,461 3070.1,466.1 3070.1,473.6 3064.2,484.3 3072.5,484.3 3072.5,508.3 3074.1,521.3 3059.9,521.3 3055.5,515.4 3054.4,521.3 3043.3,521.3 3041.4,515.4 3039,518.9 3028.4,518.5 3024.8,506.7 3022.5,518.5 3019.7,515 3017,518.5 3000.4,518.5 2993.7,513.4 2994.9,517.4 2974.4,517.4 2966.2,519.3 2971.7,511.1 2959.1,519.3 2949.2,519.3 2945.7,514.6 2942.5,519.3 2934.7,519.3 2933.9,514.6 2925.6,521.3 2921.3,521.3 2921.3,503.2 2933.9,498.4 2921.3,495.3 2926.8,493.7 2921.3,489 2921.3,472 2927.2,470.5 2924,467.7 2924,445.6 2929.5,443.7 2921.3,441.3 2921.3,421.6 2926,419.2 2921.3,417.3 2925.2,411.3 2931.5,407.8 2921.3,405.4 2921.3,375.5 2927.2,371.9 2921.3,368.4 2924.8,351.8 2921.3,341.6 2926.8,341.6 " /><g
   id="g298">
		<path
   style="fill:#5b4b43"
   inkscape:connector-curvature="0"
   id="path296"
   d="m 3036.3,471.2 h -77.2 v -86.4 h 77.2 z m -73.1,-4.1 h 69 v -78.2 h -69 z" />
	</g><g
   id="g312">
		<path
   style="fill:#231f20"
   inkscape:connector-curvature="0"
   id="path300"
   d="m 2949.1,379.1 -3.9,-16 h 3.1 l 1.5,7.3 c 0.4,1.9 0.8,4 1,5.6 v 0 c 0.3,-1.7 0.7,-3.6 1.2,-5.6 l 1.7,-7.2 h 3.1 l 1.6,7.4 c 0.4,1.9 0.7,3.7 1,5.4 v 0 c 0.3,-1.8 0.7,-3.6 1.1,-5.5 l 1.7,-7.2 h 3 l -4.3,16 h -3.1 l -1.7,-7.5 c -0.4,-1.8 -0.7,-3.4 -0.9,-5.1 v 0 c -0.3,1.7 -0.6,3.3 -1.1,5.1 l -1.9,7.5 h -3.1 z" />
		<path
   style="fill:#231f20"
   inkscape:connector-curvature="0"
   id="path302"
   d="m 2971.4,374.6 -1.4,4.5 h -3 l 5.1,-16 h 3.7 l 5.2,16 h -3.1 l -1.4,-4.5 z m 4.6,-2.3 -1.3,-3.9 c -0.3,-1 -0.6,-2.1 -0.8,-3 v 0 c -0.2,0.9 -0.5,2 -0.8,3 l -1.2,3.9 z" />
		<path
   style="fill:#231f20"
   inkscape:connector-curvature="0"
   id="path304"
   d="m 2985.7,379.1 v -16 h 3.3 l 4.1,6.9 c 1.1,1.8 2,3.6 2.7,5.4 v 0 c -0.2,-2.1 -0.3,-4.2 -0.3,-6.7 v -5.6 h 2.7 v 16 h -3 l -4.2,-7 c -1,-1.8 -2.1,-3.7 -2.9,-5.5 h -0.1 c 0.1,2.1 0.1,4.2 0.1,6.8 v 5.7 z" />
		<path
   style="fill:#231f20"
   inkscape:connector-curvature="0"
   id="path306"
   d="m 3007.2,365.5 h -4.6 v -2.4 h 12.1 v 2.4 h -4.6 v 13.6 h -2.9 z" />
		<path
   style="fill:#231f20"
   inkscape:connector-curvature="0"
   id="path308"
   d="m 3027.9,372 h -6 v 4.7 h 6.7 v 2.4 h -9.7 v -16 h 9.3 v 2.4 h -6.4 v 4.1 h 6 v 2.4 z" />
		<path
   style="fill:#231f20"
   inkscape:connector-curvature="0"
   id="path310"
   d="m 3033.6,363.3 c 1.3,-0.2 2.9,-0.3 4.7,-0.3 3,0 5.1,0.6 6.5,1.9 1.5,1.3 2.5,3.2 2.5,5.9 0,2.9 -1,5 -2.5,6.4 -1.6,1.4 -4.1,2.2 -7.2,2.2 -1.7,0 -3,-0.1 -3.9,-0.2 v -15.9 z m 2.9,13.6 c 0.4,0.1 1,0.1 1.6,0.1 3.8,0 6.1,-2.1 6.1,-6.1 0,-3.5 -2,-5.6 -5.7,-5.6 -0.9,0 -1.6,0.1 -2,0.2 z" />
	</g><g
   id="g328">
		<path
   style="fill:#231f20"
   inkscape:connector-curvature="0"
   id="path314"
   d="M 2943.9,489.6 V 488 c -1,0 -2,-0.3 -2.6,-0.7 l 0.4,-1.5 c 0.6,0.4 1.5,0.7 2.5,0.7 1,0 1.7,-0.5 1.7,-1.3 0,-0.7 -0.6,-1.2 -1.8,-1.6 -1.7,-0.6 -2.8,-1.4 -2.8,-2.9 0,-1.4 1,-2.5 2.6,-2.8 v -1.6 h 1.3 v 1.5 c 1,0 1.7,0.3 2.2,0.5 l -0.4,1.5 c -0.4,-0.2 -1.1,-0.6 -2.2,-0.6 -1.1,0 -1.5,0.6 -1.5,1.1 0,0.7 0.6,1 2,1.6 1.8,0.7 2.6,1.6 2.6,3 0,1.4 -1,2.6 -2.7,2.9 v 1.7 h -1.3 z" />
		<path
   style="fill:#231f20"
   inkscape:connector-curvature="0"
   id="path316"
   d="m 2952.8,479.4 v 0 l -2,1 -0.3,-1.5 2.6,-1.3 h 1.7 v 10.6 h -1.9 v -8.8 z" />
		<path
   style="fill:#231f20"
   inkscape:connector-curvature="0"
   id="path318"
   d="m 2965.9,482.8 c 0,3.4 -1.3,5.5 -3.9,5.5 -2.4,0 -3.7,-2.2 -3.8,-5.4 0,-3.3 1.4,-5.5 3.9,-5.5 2.6,0 3.8,2.3 3.8,5.4 z m -5.6,0.1 c 0,2.6 0.7,3.9 1.8,3.9 1.2,0 1.8,-1.4 1.8,-4 0,-2.5 -0.6,-3.9 -1.8,-3.9 -1.1,0.1 -1.8,1.4 -1.8,4 z" />
		<path
   style="fill:#231f20"
   inkscape:connector-curvature="0"
   id="path320"
   d="m 2967.3,487.1 c 0,-0.7 0.5,-1.3 1.2,-1.3 0.7,0 1.2,0.5 1.2,1.3 0,0.7 -0.5,1.3 -1.2,1.3 -0.7,0 -1.2,-0.6 -1.2,-1.3 z" />
		<path
   style="fill:#231f20"
   inkscape:connector-curvature="0"
   id="path322"
   d="m 2978.4,482.8 c 0,3.4 -1.3,5.5 -3.9,5.5 -2.4,0 -3.7,-2.2 -3.8,-5.4 0,-3.3 1.4,-5.5 3.9,-5.5 2.6,0 3.8,2.3 3.8,5.4 z m -5.6,0.1 c 0,2.6 0.7,3.9 1.8,3.9 1.2,0 1.8,-1.4 1.8,-4 0,-2.5 -0.6,-3.9 -1.8,-3.9 -1,0.1 -1.8,1.4 -1.8,4 z" />
		<path
   style="fill:#231f20"
   inkscape:connector-curvature="0"
   id="path324"
   d="m 2987.2,482.8 c 0,3.4 -1.3,5.5 -3.9,5.5 -2.4,0 -3.7,-2.2 -3.8,-5.4 0,-3.3 1.4,-5.5 3.9,-5.5 2.6,0 3.8,2.3 3.8,5.4 z m -5.6,0.1 c 0,2.6 0.7,3.9 1.8,3.9 1.2,0 1.8,-1.4 1.8,-4 0,-2.5 -0.6,-3.9 -1.8,-3.9 -1.1,0.1 -1.9,1.4 -1.8,4 z" />
		<path
   style="fill:#231f20"
   inkscape:connector-curvature="0"
   id="path326"
   d="m 2995.9,482.8 c 0,3.4 -1.3,5.5 -3.9,5.5 -2.4,0 -3.7,-2.2 -3.8,-5.4 0,-3.3 1.4,-5.5 3.9,-5.5 2.6,0 3.8,2.3 3.8,5.4 z m -5.6,0.1 c 0,2.6 0.7,3.9 1.8,3.9 1.2,0 1.8,-1.4 1.8,-4 0,-2.5 -0.6,-3.9 -1.8,-3.9 -1.1,0.1 -1.8,1.4 -1.8,4 z" />
	</g><g
   id="g342">
		<path
   style="fill:#231f20"
   inkscape:connector-curvature="0"
   id="path330"
   d="m 2986.3,492.8 c 0.8,-0.1 2,-0.2 3.2,-0.2 1.7,0 2.8,0.3 3.6,0.9 0.6,0.5 1,1.4 1,2.4 0,1.5 -1,2.5 -2.1,2.9 v 0.1 c 0.8,0.3 1.3,1.1 1.6,2.3 0.4,1.5 0.7,2.8 0.9,3.3 h -2.2 c -0.2,-0.3 -0.5,-1.3 -0.8,-2.8 -0.3,-1.5 -0.9,-2 -2.1,-2.1 h -1.1 v 4.8 h -2.1 v -11.6 z m 2.2,5.1 h 1.3 c 1.4,0 2.3,-0.8 2.3,-1.9 0,-1.3 -0.9,-1.9 -2.3,-1.9 -0.7,0 -1.1,0.1 -1.3,0.1 z" />
		<path
   style="fill:#231f20"
   inkscape:connector-curvature="0"
   id="path332"
   d="m 3004.5,499.1 h -4.4 v 3.4 h 4.9 v 1.8 h -7.1 v -11.7 h 6.8 v 1.8 h -4.7 v 3 h 4.4 v 1.7 z" />
		<path
   style="fill:#231f20"
   inkscape:connector-curvature="0"
   id="path334"
   d="m 3010.7,504.3 -2.9,-11.7 h 2.3 l 1.1,5.3 c 0.3,1.4 0.6,2.9 0.8,4.1 v 0 c 0.2,-1.2 0.5,-2.6 0.9,-4.1 l 1.3,-5.3 h 2.2 l 1.2,5.4 c 0.3,1.4 0.5,2.7 0.7,4 v 0 c 0.2,-1.3 0.5,-2.6 0.8,-4.1 l 1.2,-5.3 h 2.2 l -3.1,11.7 h -2.3 l -1.2,-5.5 c -0.3,-1.3 -0.5,-2.5 -0.6,-3.7 v 0 c -0.2,1.3 -0.4,2.4 -0.8,3.7 l -1.4,5.5 z" />
		<path
   style="fill:#231f20"
   inkscape:connector-curvature="0"
   id="path336"
   d="m 3027.1,501 -1,3.3 h -2.2 l 3.8,-11.7 h 2.7 l 3.8,11.7 h -2.3 l -1.1,-3.3 z m 3.3,-1.6 -0.9,-2.9 c -0.2,-0.7 -0.4,-1.5 -0.6,-2.2 v 0 c -0.2,0.7 -0.3,1.5 -0.6,2.2 l -0.9,2.9 z" />
		<path
   style="fill:#231f20"
   inkscape:connector-curvature="0"
   id="path338"
   d="m 3037.5,492.8 c 0.8,-0.1 2,-0.2 3.2,-0.2 1.7,0 2.8,0.3 3.6,0.9 0.6,0.5 1,1.4 1,2.4 0,1.5 -1,2.5 -2.1,2.9 v 0.1 c 0.8,0.3 1.3,1.1 1.6,2.3 0.4,1.5 0.7,2.8 0.9,3.3 h -2.2 c -0.2,-0.3 -0.5,-1.3 -0.8,-2.8 -0.3,-1.5 -0.9,-2 -2.1,-2.1 h -1.1 v 4.8 h -2.1 v -11.6 z m 2.2,5.1 h 1.3 c 1.4,0 2.3,-0.8 2.3,-1.9 0,-1.3 -0.9,-1.9 -2.3,-1.9 -0.7,0 -1.1,0.1 -1.3,0.1 z" />
		<path
   style="fill:#231f20"
   inkscape:connector-curvature="0"
   id="path340"
   d="m 3049.2,492.8 c 0.9,-0.2 2.1,-0.2 3.4,-0.2 2.2,0 3.7,0.5 4.8,1.4 1.1,0.9 1.8,2.3 1.8,4.3 0,2.1 -0.7,3.7 -1.8,4.7 -1.2,1.1 -3,1.6 -5.3,1.6 -1.3,0 -2.2,-0.1 -2.9,-0.2 z m 2.1,9.9 c 0.3,0.1 0.7,0.1 1.2,0.1 2.8,0 4.4,-1.5 4.4,-4.5 0,-2.6 -1.5,-4.1 -4.2,-4.1 -0.7,0 -1.2,0.1 -1.5,0.1 v 8.4 z" />
	</g><g
   id="g372">
		<path
   style="fill:#eb2227"
   inkscape:connector-curvature="0"
   id="path344"
   d="m 3004.1,439.2 h -6.2 -6.2 c 0,0 -0.6,0.2 -1.4,0.6 -1.8,-3 -5.5,-2.2 -5.5,-2.2 -3.6,-3.2 -8,-2.9 -8,-2.9 l 1.3,2.7 -2.8,0.3 c 0,0 2.3,4.2 4.7,4.8 2.5,0.6 3.5,-0.9 3.5,-0.9 0.7,1.8 3.4,3 3.4,3 0.5,1.7 1.2,4.2 2.1,6.6 1.7,4.3 8.9,10.3 8.9,10.3 0,0 7.2,-6 8.9,-10.3 1.7,-4.3 2.7,-8.8 2.7,-8.8 -2.2,-2 -5.4,-3.2 -5.4,-3.2 z" />
		<path
   style="fill:#dd8f5d"
   inkscape:connector-curvature="0"
   id="path346"
   d="m 3004.1,442 v 0 c -3.7,2.7 -8.6,2.7 -12.3,0 v 0 -12.3 h 12.3 z" />
		<g
   id="g370">
			<path
   style="fill:#733918"
   inkscape:connector-curvature="0"
   id="path348"
   d="m 3026.2,408 c -0.1,-0.9 -0.9,-1.5 -1.8,-1.3 -1.1,0.3 -2.7,0.8 -5,2 -4.6,2.4 -13,4.5 -21.5,4.5 -8.5,0 -16.9,-2.2 -21.5,-4.5 -2.3,-1.2 -3.9,-1.7 -5,-2 -0.9,-0.2 -1.7,0.4 -1.8,1.3 -0.1,2 0.1,5.7 3.1,8.9 4.3,4.7 13,6.8 25.2,6.8 12.2,0 20.9,-2.1 25.2,-6.8 3,-3.2 3.3,-6.9 3.1,-8.9 z" />
			<path
   style="fill:#f6a266"
   inkscape:connector-curvature="0"
   id="path350"
   d="m 3002,438.2 h -8 c -3.7,0 -6.7,-3 -6.7,-6.8 v -24.1 h 21.5 v 24.1 c -0.1,3.8 -3.1,6.8 -6.8,6.8 z" />
			<path
   style="fill:#eb9861"
   inkscape:connector-curvature="0"
   id="path352"
   d="m 2986.1,427 h 1.1 v -7.6 h -1.1 c -1.1,0 -1.9,0.9 -1.9,1.9 v 3.8 c 0,1.1 0.8,1.9 1.9,1.9 z" />
			<path
   style="fill:#eb9861"
   inkscape:connector-curvature="0"
   id="path354"
   d="m 3009.9,427 h -1.1 v -7.6 h 1.1 c 1.1,0 1.9,0.9 1.9,1.9 v 3.8 c 0,1.1 -0.9,1.9 -1.9,1.9 z" />
			<path
   style="fill:#8a4920"
   inkscape:connector-curvature="0"
   id="path356"
   d="m 3008.2,397.1 c -0.6,-0.6 -1.2,-1.2 -2,-1.8 -1.5,-1 -3.5,-1.1 -4.9,0 0,0 0,0 0,0 -1.4,1.1 -2.3,1.4 -3.3,1.4 -0.9,0 -1.9,-0.3 -3.3,-1.4 0,0 0,0 0,0 -1.4,-1.1 -3.4,-1 -4.9,0 -0.8,0.5 -1.5,1.1 -2,1.8 -1.7,1.9 -2.6,4.5 -2.6,7.1 v 7.5 c 3.9,0.9 8.4,1.5 12.8,1.5 4.5,0 8.9,-0.6 12.8,-1.5 v -7.5 c 0,-2.6 -0.8,-5.1 -2.6,-7.1 z" />
			<path
   style="fill:#eb2227"
   inkscape:connector-curvature="0"
   id="path358"
   d="m 3010.8,411.7 v -4.1 c -3.9,0.9 -8.4,1.5 -12.8,1.5 -4.5,0 -8.9,-0.6 -12.8,-1.5 v 4.1 c 3.9,0.9 8.4,1.5 12.8,1.5 4.4,0.1 8.9,-0.6 12.8,-1.5 z" />
			<path
   style="fill:#733918"
   inkscape:connector-curvature="0"
   id="path360"
   d="m 2992.4,401.4 c 1.7,-2.1 1.8,-4.6 1.3,-6.5 -1.3,-0.5 -2.8,-0.3 -4,0.5 -0.8,0.5 -1.5,1.1 -2,1.8 -1.5,1.7 -2.3,3.8 -2.5,6 1.5,0.3 5.1,0.8 7.2,-1.8 z" />
			<path
   style="fill:#733918"
   inkscape:connector-curvature="0"
   id="path362"
   d="m 3003.5,401.4 c -1.7,-2.1 -1.8,-4.6 -1.3,-6.5 1.3,-0.5 2.8,-0.3 4,0.5 0.8,0.5 1.5,1.1 2,1.8 1.5,1.7 2.3,3.8 2.5,6 -1.5,0.3 -5,0.8 -7.2,-1.8 z" />
			<path
   style="fill:#8a4920"
   inkscape:connector-curvature="0"
   id="path364"
   d="m 2971.4,406.7 c -0.2,0 -0.3,0 -0.5,0 0.4,0.1 4.8,1.9 11.6,6.6 7.1,4.8 15.4,4.8 15.4,4.8 0,0 8.4,0 15.4,-4.8 6.7,-4.6 11.2,-6.4 11.6,-6.6 -0.2,0 -0.3,0 -0.5,0 -1.1,0.3 -2.7,0.8 -5,2 -4.6,2.4 -13,4.5 -21.5,4.5 -8.5,0 -16.9,-2.2 -21.5,-4.5 -2.2,-1.1 -3.9,-1.7 -5,-2 z" />
			<path
   style="fill:#231f20"
   inkscape:connector-curvature="0"
   id="path366"
   d="m 2984.5,414.4 0.2,1.6 c 0.3,2.8 1.1,5.6 2.6,8 v 0 -8.3 c -1,-0.3 -1.9,-0.8 -2.8,-1.3 z" />
			<path
   style="fill:#231f20"
   inkscape:connector-curvature="0"
   id="path368"
   d="m 3008.7,415.8 v 8.3 0 c 1.4,-2.5 2.3,-5.2 2.6,-8 l 0.2,-1.6 c -1,0.4 -1.9,0.9 -2.8,1.3 z" />
		</g>
	</g>
</svg>