<?xml version="1.0" encoding="utf-8"?>
<!-- Generator: Adobe Illustrator 18.0.0, SVG Export Plug-In . SVG Version: 6.00 Build 0)  -->
<!DOCTYPE svg PUBLIC "-//W3C//DTD SVG 1.1//EN" "http://www.w3.org/Graphics/SVG/1.1/DTD/svg11.dtd">
<svg version="1.1" xmlns="http://www.w3.org/2000/svg" xmlns:xlink="http://www.w3.org/1999/xlink" x="0px" y="0px"
	 viewBox="0 0 186.4 202.6" enable-background="new 0 0 186.4 202.6" xml:space="preserve">
<g id="Réteg_3">
</g>
<g id="Réteg_2">
	<g>
		<rect x="64.1" y="93.2" fill="#272727" width="62.9" height="17.9"/>
		<rect x="64.1" y="111.1" fill="#434943" width="62.9" height="9"/>
		<rect x="82" y="120.1" fill="#434943" width="9.1" height="8.8"/>
		<rect x="64.1" y="128.9" fill="#434943" width="63" height="18.4"/>
		<rect x="64.1" y="120.1" fill="#222522" width="5.1" height="5.2"/>
		<rect x="68.2" y="124.5" fill="#222522" width="13.8" height="4.4"/>
		<rect x="122.1" y="120.1" fill="#222522" width="5" height="5.2"/>
		<rect x="91" y="124.2" fill="#222522" width="32" height="4.7"/>
		<rect x="50.3" y="115.6" fill="#8E0000" width="13.8" height="9.6"/>
		<rect x="127" y="115.6" fill="#8E0000" width="13.5" height="9.1"/>
		<rect x="73.4" y="39.2" fill="#555555" width="45" height="9.1"/>
		<rect x="60.2" y="57.4" fill="#555555" width="21.6" height="4.7"/>
		<rect x="109.3" y="57.1" fill="#555555" width="22.9" height="5.9"/>
		<rect x="54.7" y="66.3" fill="#555555" width="9.4" height="9.1"/>
		<rect x="127.2" y="65.8" fill="#555555" width="8.7" height="9.7"/>
		<rect x="41.5" y="79.8" fill="#555555" width="22.6" height="5.4"/>
		<rect x="32.9" y="87.9" fill="#555555" width="31.2" height="5.3"/>
		<rect x="127.2" y="79.8" fill="#555555" width="23.4" height="5.2"/>
		<rect x="127.2" y="88.7" fill="#555555" width="32" height="4.1"/>
		<rect x="109.3" y="156.2" fill="#555555" width="9.1" height="17.7"/>
		<rect x="118.4" y="165.1" fill="#555555" width="8.8" height="8.8"/>
		<rect x="73.4" y="156.2" fill="#555555" width="8.3" height="17.7"/>
		<rect x="64.1" y="165.1" fill="#555555" width="9.4" height="8.8"/>
		<rect x="127.2" y="124.7" fill="#555555" width="17.7" height="4.2"/>
		<rect x="140.5" y="120.3" fill="#555555" width="4.4" height="4.4"/>
		<rect x="46.4" y="120.3" fill="#555555" width="3.9" height="8.6"/>
		<rect x="50.3" y="125.2" fill="#555555" width="13.8" height="3.7"/>
		<rect x="54.7" y="48.3" fill="#C4C400" width="27" height="9.1"/>
		<rect x="81.7" y="52.1" fill="#C4C400" width="5.5" height="10"/>
		<rect x="91.1" y="57.4" fill="#C4C400" width="9" height="8.8"/>
		<rect x="87.2" y="57.2" fill="#C4C400" width="3.9" height="5"/>
		<rect x="99.7" y="57.4" fill="#C4C400" width="9.6" height="5"/>
		<rect x="103.6" y="52.1" fill="#C4C400" width="5.7" height="5.3"/>
		<rect x="109" y="48.3" fill="#C4C400" width="26.8" height="8.8"/>
		<rect x="81.7" y="48.3" fill="#272727" width="27.6" height="3.8"/>
		<rect x="87.2" y="52.1" fill="#272727" width="16.7" height="5.3"/>
		<rect x="54.6" y="57.4" fill="#272727" width="5.5" height="9.4"/>
		<rect x="60.2" y="62.1" fill="#272727" width="30.1" height="4.2"/>
		<rect x="81.7" y="66.3" fill="#272727" width="4.7" height="5"/>
		<rect x="132.2" y="57.2" fill="#272727" width="3.8" height="8.8"/>
		<rect x="100.7" y="62.4" fill="#272727" width="31.5" height="3.6"/>
		<rect x="127.2" y="75.4" fill="#272727" width="25.7" height="4.4"/>
		<rect x="127.3" y="84.9" fill="#272727" width="26.4" height="3.8"/>
		<rect x="150.6" y="79.8" fill="#272727" width="2.2" height="5.3"/>
		<rect x="153.6" y="85" fill="#272727" width="8.5" height="3.7"/>
		<rect x="159.2" y="88" fill="#272727" width="2.9" height="4.8"/>
		<rect x="140.9" y="66" fill="#272727" width="3.3" height="9.3"/>
		<rect x="46.8" y="67.1" fill="#272727" width="4" height="8.8"/>
		<rect x="38" y="75.3" fill="#272727" width="25.9" height="4.5"/>
		<rect x="28.7" y="84.9" fill="#272727" width="35.4" height="3"/>
		<rect x="28.7" y="87.9" fill="#272727" width="4.2" height="5.4"/>
		<rect x="90.3" y="62.1" width="0.8" height="4.2"/>
		<rect x="100" y="62.4" width="0.8" height="3.9"/>
		<rect x="91.1" y="66.3" fill="#3D3D3D" width="8.9" height="1"/>
		<rect x="50.7" y="66.3" fill="#3D3D3D" width="4" height="9"/>
		<rect x="73.4" y="66.3" fill="#3D3D3D" width="8.3" height="9"/>
		<rect x="81.7" y="71.3" fill="#3D3D3D" width="5.5" height="4"/>
		<rect x="86.5" y="65.8" fill="#3D3D3D" width="31.9" height="9.5"/>
		<rect x="64.1" y="66.3" fill="#3D3D3D" width="9.4" height="9"/>
		<rect x="118.4" y="65.9" fill="#3D3D3D" width="8.8" height="9.4"/>
		<rect x="135.8" y="66" fill="#3D3D3D" width="5.1" height="9.5"/>
		<rect x="38" y="79.3" fill="#272727" width="3.4" height="5.9"/>
		<rect x="41" y="79.8" fill="#272727" width="0.5" height="1.1"/>
		<rect x="64.1" y="75.4" fill="#FFFF86" width="9.3" height="17.8"/>
		<rect x="91.1" y="75.3" fill="#FFFF86" width="9.2" height="17.9"/>
		<rect x="117.9" y="75.3" fill="#FFFF86" width="9.2" height="18.3"/>
		<rect x="63.9" y="93.2" width="9.4" height="1.2"/>
		<rect x="73.4" y="75.3" width="17.7" height="17.9"/>
		<rect x="91.1" y="93.2" width="9.2" height="1.2"/>
		<rect x="100.3" y="75.3" width="17.6" height="17.9"/>
		<rect x="117.9" y="93.2" width="9.1" height="1.2"/>
		<rect x="63.9" y="94.4" width="1" height="16.6"/>
		<rect x="126.1" y="93.2" width="0.9" height="17.9"/>
		<rect x="69.2" y="120.1" fill="#363936" width="12.8" height="4.4"/>
		<rect x="64.1" y="125.2" fill="#363936" width="4.1" height="3.7"/>
		<rect x="91" y="120.1" fill="#363936" width="31" height="4.1"/>
		<rect x="123.1" y="125.2" fill="#363936" width="4" height="3.7"/>
		<rect x="46.1" y="111.1" fill="#323232" width="18" height="4.5"/>
		<rect x="46.1" y="115.6" fill="#323232" width="4.2" height="4.7"/>
		<rect x="127" y="111.1" fill="#323232" width="17.9" height="4.5"/>
		<rect x="140.5" y="115.6" fill="#323232" width="4.4" height="4.7"/>
		<rect x="46.4" y="128.9" fill="#323232" width="17.7" height="5.2"/>
		<rect x="127.1" y="128.9" fill="#171817" width="17.8" height="5.2"/>
		<rect x="46.1" y="134.1" fill="#171817" width="18" height="6.2"/>
		<rect x="127.1" y="134.1" fill="#0E0F0E" width="17.8" height="5.7"/>
		<rect x="46" y="140.3" fill="#0E0F0E" width="18.1" height="7"/>
		<rect x="127.1" y="139.8" fill="#0E0F0E" width="17.8" height="7.5"/>
		<rect x="64.1" y="147.3" fill="#272727" width="9.4" height="17.7"/>
		<rect x="73.4" y="147.3" fill="#272727" width="17.6" height="8.9"/>
		<rect x="91" y="147.3" fill="#222522" width="36" height="8.9"/>
		<rect x="118.4" y="156.2" fill="#222522" width="8.8" height="8.8"/>
	</g>
</g>
</svg>
