<?xml version="1.0" encoding="UTF-8" standalone="no"?>
<!-- Generator: Adobe Illustrator 18.0.0, SVG Export Plug-In . SVG Version: 6.00 Build 0)  -->

<svg
   xmlns:dc="http://purl.org/dc/elements/1.1/"
   xmlns:cc="http://creativecommons.org/ns#"
   xmlns:rdf="http://www.w3.org/1999/02/22-rdf-syntax-ns#"
   xmlns:svg="http://www.w3.org/2000/svg"
   xmlns="http://www.w3.org/2000/svg"
   xmlns:sodipodi="http://sodipodi.sourceforge.net/DTD/sodipodi-0.dtd"
   xmlns:inkscape="http://www.inkscape.org/namespaces/inkscape"
   version="1.1"
   x="0px"
   y="0px"
   viewBox="0 0 186.4 202.6"
   enable-background="new 0 0 186.4 202.6"
   xml:space="preserve"
   id="svg188"
   sodipodi:docname="character_2.svg"
   inkscape:version="0.92.3 (2405546, 2018-03-11)"><metadata
   id="metadata194"><rdf:RDF><cc:Work
       rdf:about=""><dc:format>image/svg+xml</dc:format><dc:type
         rdf:resource="http://purl.org/dc/dcmitype/StillImage" /><dc:title></dc:title></cc:Work></rdf:RDF></metadata><defs
   id="defs192">
	

		
		
		
		
		
		
		
		
		
		
		
		
		
		
		
		
		
		
		
		
		
		
		
		
		
		
		
		
		
		
		
		
		
		
		
		
		
		
		
		
		
		
		
		
		
		
		
		
		
		
		
		
		
		
		
		
		
		
		
		
		
		
		
		
		
		
		
		
		
		
		
		
		
		
		
		
		
		
		
		
		
		
		
		
		
		
		
		
		
		
		
	</defs><sodipodi:namedview
   pagecolor="#ffffff"
   bordercolor="#666666"
   borderopacity="1"
   objecttolerance="10"
   gridtolerance="10"
   guidetolerance="10"
   inkscape:pageopacity="0"
   inkscape:pageshadow="2"
   inkscape:window-width="1196"
   inkscape:window-height="1053"
   id="namedview190"
   showgrid="false"
   inkscape:zoom="2.3297137"
   inkscape:cx="106.25024"
   inkscape:cy="128.20383"
   inkscape:window-x="720"
   inkscape:window-y="25"
   inkscape:window-maximized="0"
   inkscape:current-layer="svg188" />
<g
   id="Réteg_3">
</g>
<rect
   x="64.099998"
   y="93.199997"
   width="62.900002"
   height="17.9"
   id="rect3"
   style="fill:#272727" /><rect
   x="64.099998"
   y="111.1"
   width="62.900002"
   height="9"
   id="rect5"
   style="fill:#434943" /><rect
   x="82"
   y="120.1"
   width="9.1000004"
   height="8.8000002"
   id="rect7"
   style="fill:#434943" /><rect
   x="64.099998"
   y="128.89999"
   width="63"
   height="18.4"
   id="rect9"
   style="fill:#434943" /><rect
   x="64.099998"
   y="120.1"
   width="5.0999999"
   height="5.1999998"
   id="rect11"
   style="fill:#222522" /><rect
   x="68.199997"
   y="124.5"
   width="13.8"
   height="4.4000001"
   id="rect13"
   style="fill:#222522" /><rect
   x="122.1"
   y="120.1"
   width="5"
   height="5.1999998"
   id="rect15"
   style="fill:#222522" /><rect
   x="91"
   y="124.2"
   width="32"
   height="4.6999998"
   id="rect17"
   style="fill:#222522" /><rect
   x="50.299999"
   y="115.6"
   width="13.8"
   height="9.6000004"
   id="rect19"
   style="fill:#8e0000" /><rect
   x="127"
   y="115.6"
   width="13.5"
   height="9.1000004"
   id="rect21"
   style="fill:#8e0000" /><rect
   x="73.400002"
   y="39.200001"
   width="45"
   height="9.1000004"
   id="rect23"
   style="fill:#555555" /><rect
   x="60.200001"
   y="57.400002"
   width="21.6"
   height="4.6999998"
   id="rect25"
   style="fill:#555555" /><rect
   x="109.3"
   y="57.099998"
   width="22.9"
   height="5.9000001"
   id="rect27"
   style="fill:#555555" /><rect
   x="54.700001"
   y="66.300003"
   width="9.3999996"
   height="9.1000004"
   id="rect29"
   style="fill:#555555" /><rect
   x="127.2"
   y="65.800003"
   width="8.6999998"
   height="9.6999998"
   id="rect31"
   style="fill:#555555" /><rect
   x="41.5"
   y="79.800003"
   width="22.6"
   height="5.4000001"
   id="rect33"
   style="fill:#555555" /><rect
   x="32.900002"
   y="87.900002"
   width="31.200001"
   height="5.3000002"
   id="rect35"
   style="fill:#555555" /><rect
   x="127.2"
   y="79.800003"
   width="23.4"
   height="5.1999998"
   id="rect37"
   style="fill:#555555" /><rect
   x="127.2"
   y="88.699997"
   width="32"
   height="4.0999999"
   id="rect39"
   style="fill:#555555" /><rect
   x="109.3"
   y="156.2"
   width="9.1000004"
   height="17.700001"
   id="rect41"
   style="fill:#555555" /><rect
   x="118.4"
   y="165.10001"
   width="8.8000002"
   height="8.8000002"
   id="rect43"
   style="fill:#555555" /><rect
   x="73.400002"
   y="156.2"
   width="8.3000002"
   height="17.700001"
   id="rect45"
   style="fill:#555555" /><rect
   x="64.099998"
   y="165.10001"
   width="9.3999996"
   height="8.8000002"
   id="rect47"
   style="fill:#555555" /><rect
   x="127.2"
   y="124.7"
   width="17.700001"
   height="4.1999998"
   id="rect49"
   style="fill:#555555" /><rect
   x="140.5"
   y="120.3"
   width="4.4000001"
   height="4.4000001"
   id="rect51"
   style="fill:#555555" /><rect
   x="46.400002"
   y="120.3"
   width="3.9000001"
   height="8.6000004"
   id="rect53"
   style="fill:#555555" /><rect
   x="50.299999"
   y="125.2"
   width="13.8"
   height="3.7"
   id="rect55"
   style="fill:#555555" /><rect
   x="54.700001"
   y="48.299999"
   width="27"
   height="9.1000004"
   id="rect57"
   style="fill:#c4c400" /><rect
   x="81.699997"
   y="52.099998"
   width="5.5"
   height="10"
   id="rect59"
   style="fill:#c4c400" /><rect
   x="91.099998"
   y="57.400002"
   width="9"
   height="8.8000002"
   id="rect61"
   style="fill:#c4c400" /><rect
   x="87.199997"
   y="57.200001"
   width="3.9000001"
   height="5"
   id="rect63"
   style="fill:#c4c400" /><rect
   x="99.699997"
   y="57.400002"
   width="9.6000004"
   height="5"
   id="rect65"
   style="fill:#c4c400" /><rect
   x="103.6"
   y="52.099998"
   width="5.6999998"
   height="5.3000002"
   id="rect67"
   style="fill:#c4c400" /><rect
   x="109"
   y="48.299999"
   width="26.799999"
   height="8.8000002"
   id="rect69"
   style="fill:#c4c400" /><rect
   x="81.699997"
   y="48.299999"
   width="27.6"
   height="3.8"
   id="rect71"
   style="fill:#272727" /><rect
   x="87.199997"
   y="52.099998"
   width="16.700001"
   height="5.3000002"
   id="rect73"
   style="fill:#272727" /><rect
   x="54.599998"
   y="57.400002"
   width="5.5"
   height="9.3999996"
   id="rect75"
   style="fill:#272727" /><rect
   x="60.200001"
   y="62.099998"
   width="30.1"
   height="4.1999998"
   id="rect77"
   style="fill:#272727" /><rect
   x="81.699997"
   y="66.300003"
   width="4.6999998"
   height="5"
   id="rect79"
   style="fill:#272727" /><rect
   x="132.2"
   y="57.200001"
   width="3.8"
   height="8.8000002"
   id="rect81"
   style="fill:#272727" /><rect
   x="100.7"
   y="62.400002"
   width="31.5"
   height="3.5999999"
   id="rect83"
   style="fill:#272727" /><rect
   x="127.2"
   y="75.400002"
   width="25.700001"
   height="4.4000001"
   id="rect85"
   style="fill:#272727" /><rect
   x="127.3"
   y="84.900002"
   width="26.4"
   height="3.8"
   id="rect87"
   style="fill:#272727" /><rect
   x="150.60001"
   y="79.800003"
   width="2.2"
   height="5.3000002"
   id="rect89"
   style="fill:#272727" /><rect
   x="153.60001"
   y="85"
   width="8.5"
   height="3.7"
   id="rect91"
   style="fill:#272727" /><rect
   x="159.2"
   y="88"
   width="2.9000001"
   height="4.8000002"
   id="rect93"
   style="fill:#272727" /><rect
   x="140.89999"
   y="66"
   width="3.3"
   height="9.3000002"
   id="rect95"
   style="fill:#272727" /><rect
   x="46.799999"
   y="67.099998"
   width="4"
   height="8.8000002"
   id="rect97"
   style="fill:#272727" /><rect
   x="38"
   y="75.300003"
   width="25.9"
   height="4.5"
   id="rect99"
   style="fill:#272727" /><rect
   x="28.700001"
   y="84.900002"
   width="35.400002"
   height="3"
   id="rect101"
   style="fill:#272727" /><rect
   x="28.700001"
   y="87.900002"
   width="4.1999998"
   height="5.4000001"
   id="rect103"
   style="fill:#272727" /><rect
   x="90.300003"
   y="62.099998"
   width="0.80000001"
   height="4.1999998"
   id="rect105" /><rect
   x="100"
   y="62.400002"
   width="0.80000001"
   height="3.9000001"
   id="rect107" /><rect
   x="91.099998"
   y="66.300003"
   width="8.8999996"
   height="1"
   id="rect109"
   style="fill:#3d3d3d" /><rect
   x="50.700001"
   y="66.300003"
   width="4"
   height="9"
   id="rect111"
   style="fill:#3d3d3d" /><rect
   x="73.400002"
   y="66.300003"
   width="8.3000002"
   height="9"
   id="rect113"
   style="fill:#3d3d3d" /><rect
   x="81.699997"
   y="71.300003"
   width="5.5"
   height="4"
   id="rect115"
   style="fill:#3d3d3d" /><rect
   x="86.5"
   y="65.800003"
   width="31.9"
   height="9.5"
   id="rect117"
   style="fill:#3d3d3d" /><rect
   x="64.099998"
   y="66.300003"
   width="9.3999996"
   height="9"
   id="rect119"
   style="fill:#3d3d3d" /><rect
   x="118.4"
   y="65.900002"
   width="8.8000002"
   height="9.3999996"
   id="rect121"
   style="fill:#3d3d3d" /><rect
   x="135.8"
   y="66"
   width="5.0999999"
   height="9.5"
   id="rect123"
   style="fill:#3d3d3d" /><rect
   x="38"
   y="79.300003"
   width="3.4000001"
   height="5.9000001"
   id="rect125"
   style="fill:#272727" /><rect
   x="41"
   y="79.800003"
   width="0.5"
   height="1.1"
   id="rect127"
   style="fill:#272727" /><rect
   x="64.099998"
   y="75.400002"
   width="9.3000002"
   height="17.799999"
   id="rect129"
   style="fill:#ffff86" /><rect
   x="64.100006"
   y="75.300003"
   width="54.300003"
   height="17.9"
   id="rect131"
   style="fill:#ffff86;stroke-width:2.42943907" /><rect
   x="117.9"
   y="75.300003"
   width="9.1999998"
   height="18.299999"
   id="rect133"
   style="fill:#ffff86" /><rect
   x="63.900002"
   y="93.199997"
   width="9.3999996"
   height="1.2"
   id="rect135" /><rect
   x="73.400002"
   y="80.83918"
   width="17.700001"
   height="4.8487859"
   id="rect137"
   style="stroke-width:0.52046311" /><rect
   x="91.099998"
   y="93.199997"
   width="9.1999998"
   height="1.2"
   id="rect139" /><rect
   x="100.3"
   y="80.915062"
   width="17.6"
   height="4.924665"
   id="rect141"
   style="stroke-width:0.52451974" /><rect
   x="117.9"
   y="93.199997"
   width="9.1000004"
   height="1.2"
   id="rect143" /><rect
   x="63.900002"
   y="94.400002"
   width="1"
   height="16.6"
   id="rect145" /><rect
   x="126.1"
   y="93.199997"
   width="0.89999998"
   height="17.9"
   id="rect147" /><rect
   x="69.199997"
   y="120.1"
   width="12.8"
   height="4.4000001"
   id="rect149"
   style="fill:#363936" /><rect
   x="64.099998"
   y="125.2"
   width="4.0999999"
   height="3.7"
   id="rect151"
   style="fill:#363936" /><rect
   x="91"
   y="120.1"
   width="31"
   height="4.0999999"
   id="rect153"
   style="fill:#363936" /><rect
   x="123.1"
   y="125.2"
   width="4"
   height="3.7"
   id="rect155"
   style="fill:#363936" /><rect
   x="46.099998"
   y="111.1"
   width="18"
   height="4.5"
   id="rect157"
   style="fill:#323232" /><rect
   x="46.099998"
   y="115.6"
   width="4.1999998"
   height="4.6999998"
   id="rect159"
   style="fill:#323232" /><rect
   x="127"
   y="111.1"
   width="17.9"
   height="4.5"
   id="rect161"
   style="fill:#323232" /><rect
   x="140.5"
   y="115.6"
   width="4.4000001"
   height="4.6999998"
   id="rect163"
   style="fill:#323232" /><rect
   x="46.400002"
   y="128.89999"
   width="17.700001"
   height="5.1999998"
   id="rect165"
   style="fill:#323232" /><rect
   x="127.1"
   y="128.89999"
   width="17.799999"
   height="5.1999998"
   id="rect167"
   style="fill:#171817" /><rect
   x="46.099998"
   y="134.10001"
   width="18"
   height="6.1999998"
   id="rect169"
   style="fill:#171817" /><rect
   x="127.1"
   y="134.10001"
   width="17.799999"
   height="5.6999998"
   id="rect171"
   style="fill:#0e0f0e" /><rect
   x="46"
   y="140.3"
   width="18.1"
   height="7"
   id="rect173"
   style="fill:#0e0f0e" /><rect
   x="127.1"
   y="139.8"
   width="17.799999"
   height="7.5"
   id="rect175"
   style="fill:#0e0f0e" /><rect
   x="64.099998"
   y="147.3"
   width="9.3999996"
   height="17.700001"
   id="rect177"
   style="fill:#272727" /><rect
   x="73.400002"
   y="147.3"
   width="17.6"
   height="8.8999996"
   id="rect179"
   style="fill:#272727" /><rect
   x="91"
   y="147.3"
   width="36"
   height="8.8999996"
   id="rect181"
   style="fill:#222522" /><rect
   x="118.4"
   y="156.2"
   width="8.8000002"
   height="8.8000002"
   id="rect183"
   style="fill:#222522" />
</svg>