<?xml version="1.0" encoding="utf-8"?>
<!-- Generator: Adobe Illustrator 18.0.0, SVG Export Plug-In . SVG Version: 6.00 Build 0)  -->
<!DOCTYPE svg PUBLIC "-//W3C//DTD SVG 1.1//EN" "http://www.w3.org/Graphics/SVG/1.1/DTD/svg11.dtd">
<svg version="1.1" xmlns="http://www.w3.org/2000/svg" xmlns:xlink="http://www.w3.org/1999/xlink" x="0px" y="0px"
	 viewBox="0 0 440.7 479" enable-background="new 0 0 440.7 479" xml:space="preserve">
<g id="Réteg_2">
</g>
<g id="Réteg_3">
</g>
<g id="Réteg_4">
</g>
<g id="Réteg_5">
</g>
<g id="Réteg_7">
	<g>
		<rect x="142.5" y="90" fill="#773825" width="67.8" height="23.2"/>
		<rect x="121" y="113.1" fill="#773825" width="21.5" height="23.2"/>
		<rect x="98.7" y="136.3" fill="#773825" width="22.3" height="293.4"/>
		<rect x="121" y="403.3" fill="#773825" width="89.3" height="26.4"/>
		<rect x="165.6" y="314.9" fill="#773825" width="44.6" height="21.5"/>
		<rect x="230.5" y="314.9" fill="#773825" width="23.5" height="114.9"/>
		<rect x="254.1" y="403.3" fill="#773825" width="95" height="26.4"/>
		<rect x="254.1" y="314.9" fill="#773825" width="50.4" height="21.5"/>
		<rect x="277.8" y="269.4" fill="#773825" width="24.8" height="45.5"/>
		<rect x="254.1" y="248.8" fill="#773825" width="23.8" height="20.6"/>
		<rect x="230.5" y="90" fill="#773825" width="23.5" height="158.8"/>
		<rect x="254.1" y="90" fill="#773825" width="47.5" height="23.2"/>
		<rect x="301.6" y="113.1" fill="#773825" width="21.2" height="23.2"/>
		<rect x="322.7" y="136.3" fill="#773825" width="22.3" height="86.7"/>
		<rect x="76.5" y="314.9" fill="#B36839" width="22.2" height="114.3"/>
		<rect x="210.3" y="311.4" fill="#EC9002" width="20.2" height="71.2"/>
		<rect x="254.1" y="269.4" fill="#EC9002" width="23.8" height="45.5"/>
		<rect x="230.5" y="292.1" fill="#EC9002" width="23.5" height="22.7"/>
		<rect x="345.1" y="382.7" fill="#EC9002" width="22.2" height="46.6"/>
		<rect x="345.1" y="136.3" fill="#EC9002" width="20.6" height="43.4"/>
		<rect x="322.7" y="113.1" fill="#EC9002" width="22.3" height="23.2"/>
		<rect x="301.6" y="90" fill="#EC9002" width="21.2" height="23.2"/>
		<rect x="277.8" y="69.4" fill="#EC9002" width="23.8" height="20.6"/>
		<rect x="142.5" y="113.1" fill="#B36839" width="23.2" height="290.1"/>
		<rect x="188" y="113.1" fill="#B36839" width="22.3" height="135.6"/>
		<rect x="188" y="336.3" fill="#B36839" width="22.3" height="67"/>
		<rect x="277.8" y="336.3" fill="#B36839" width="24.6" height="67"/>
		<rect x="276" y="113.1" fill="#B36839" width="27" height="156.2"/>
		<rect x="322.7" y="223.1" fill="#B36839" width="22.3" height="180.2"/>
		<rect x="210.3" y="382.7" fill="#F5C302" width="20.2" height="47"/>
		<rect x="76.5" y="223.1" fill="#F5C302" width="22.2" height="91.8"/>
		<rect x="165.6" y="269.4" fill="#944529" width="22.3" height="47.4"/>
		<rect x="188" y="292.1" fill="#F5C302" width="42.6" height="24.4"/>
		<rect x="188" y="248.8" fill="#F5C302" width="66.1" height="20.6"/>
		<rect x="210.3" y="269.4" fill="#F5C302" width="21.7" height="22.9"/>
		<rect x="210.3" y="136.3" fill="#F5C302" width="20.2" height="112.5"/>
		<rect x="254.1" y="69.4" fill="#F5C302" width="23.8" height="20.6"/>
		<rect x="345.1" y="179.7" fill="#F5C302" width="20.6" height="48.5"/>
		<rect x="345.1" y="360.4" fill="#F5C302" width="20.6" height="22.3"/>
		<rect x="121" y="136.3" fill="#944529" width="21.5" height="267"/>
		<rect x="165.6" y="113.1" fill="#944529" width="22.3" height="203.4"/>
		<rect x="165.6" y="336.3" fill="#944529" width="22.3" height="67"/>
		<rect x="254.1" y="336.3" fill="#944529" width="23.8" height="67"/>
		<rect x="302" y="136.3" fill="#944529" width="20.7" height="267"/>
		<rect x="252.9" y="113.1" fill="#944529" width="24.9" height="135.6"/>
		<rect x="188" y="269.4" fill="#1E2123" width="22.3" height="22.9"/>
		<rect x="232" y="269.4" fill="#1E2123" width="22.1" height="22.7"/>
		<rect x="76.5" y="136.3" fill="#EFE04F" width="22.2" height="86.7"/>
		<rect x="98.7" y="113.1" fill="#EFE04F" width="22.3" height="23.2"/>
		<rect x="121" y="90" fill="#EFE04F" width="22.6" height="23.2"/>
		<rect x="345.1" y="228.2" fill="#EFE04F" width="20.6" height="132.2"/>
		<rect x="142.5" y="69.4" fill="#EFE04F" width="111.5" height="20.6"/>
		<rect x="210.3" y="90" fill="#EFE04F" width="20.2" height="46.4"/>
	</g>
</g>
</svg>
