<?xml version="1.0" encoding="utf-8"?>
<!-- Generator: Adobe Illustrator 18.0.0, SVG Export Plug-In . SVG Version: 6.00 Build 0)  -->
<!DOCTYPE svg PUBLIC "-//W3C//DTD SVG 1.1//EN" "http://www.w3.org/Graphics/SVG/1.1/DTD/svg11.dtd">
<svg version="1.1" xmlns="http://www.w3.org/2000/svg" xmlns:xlink="http://www.w3.org/1999/xlink" x="0px" y="0px"
	 viewBox="0 0 472.8 227.4" enable-background="new 0 0 472.8 227.4" xml:space="preserve">
<g id="Réteg_3">
	<rect x="69.1" y="53.9" fill="#E9D200" width="113.5" height="29.9"/>
	<rect x="88.8" y="34.2" fill="#E9D200" width="57.5" height="29.1"/>
	<rect x="69.1" y="129.2" fill="#E9D200" width="113.5" height="39.7"/>
	<rect x="88.8" y="148.9" fill="#E9D200" width="57.5" height="39.2"/>
	<rect x="314.3" y="144.7" fill="#E9D200" width="21.2" height="24.2"/>
	<rect x="394.5" y="139" fill="#E9D200" width="37.1" height="29.9"/>
	<rect x="49.4" y="72.8" fill="#E9D200" width="57.5" height="59.3"/>
	<rect x="69.1" y="53.9" fill="#E9D200" width="129.7" height="38.3"/>
	<rect x="164.4" y="86.6" fill="#E9D200" width="38.5" height="60.2"/>
	<rect x="221.8" y="94.8" fill="#E9D200" width="208.1" height="34.4"/>
	<rect x="394.5" y="120.1" fill="#E9D200" width="39.7" height="19.1"/>
	<rect x="174.3" y="139.2" fill="#E9D200" width="14.7" height="14.8"/>
</g>
<g id="Réteg_5">
	<rect x="127" y="34.2" fill="#EDB800" width="19.3" height="19.7"/>
	<rect x="146.3" y="53.9" fill="#EDB800" width="18.2" height="18.5"/>
	<rect x="69.1" y="73.4" fill="#EDB800" width="37.8" height="18.6"/>
	<rect x="49.4" y="129.2" fill="#EDB800" width="19.7" height="20.1"/>
	<rect x="69.1" y="149.3" fill="#EDB800" width="19.7" height="19.7"/>
	<rect x="184.1" y="111" fill="#EDB800" width="37.7" height="17.8"/>
	<rect x="200.8" y="94.8" fill="#EDB800" width="21" height="16.3"/>
	<rect x="240.4" y="92.2" fill="#EDB800" width="57.3" height="18.8"/>
	<rect x="297.6" y="111" fill="#EDB800" width="18.5" height="17.8"/>
	<rect x="335.5" y="94.8" fill="#EDB800" width="18.2" height="18.6"/>
	<rect x="390.7" y="111" fill="#EDB800" width="20.4" height="18.2"/>
	<rect x="127" y="73.2" fill="#EDB800" width="19.3" height="18.8"/>
	<rect x="88.8" y="168.9" fill="#F29B00" width="55.6" height="15.9"/>
	<rect x="164.4" y="149.3" fill="#F29B00" width="18.2" height="19.7"/>
	<rect x="184.1" y="128.8" fill="#F29B00" width="16.7" height="20.4"/>
	<rect x="221.8" y="111" fill="#F29B00" width="38.2" height="17.8"/>
	<rect x="146.3" y="72.4" fill="#F29B00" width="18.2" height="56.8"/>
	<rect x="411.1" y="111" fill="#F29B00" width="18.7" height="18.2"/>
	<rect x="316.2" y="128.8" fill="#CD870D" width="19.3" height="40.1"/>
	<rect x="411.1" y="129.2" fill="#CD870D" width="18.7" height="39.7"/>
	<rect x="394.5" y="149.3" fill="#CD870D" width="18.5" height="19.7"/>
</g>
<g id="Réteg_4">
	<rect x="88.8" y="34.2" fill="#FFFFFF" width="37.1" height="19.7"/>
	<rect x="69.1" y="53.9" fill="#FFFFFF" width="19.7" height="18.9"/>
	<rect x="49.4" y="72.3" fill="#FFFFFF" width="19.7" height="38.8"/>
	<rect x="184.1" y="72.4" fill="#FFFFFF" width="16.7" height="19.8"/>
	<rect x="164.4" y="53.9" fill="#FFFFFF" width="19.6" height="18.5"/>
	<rect x="390.7" y="94.8" fill="#FFFFFF" width="40.9" height="16.3"/>
</g>
<g id="Réteg_2">
	<rect x="88.8" y="15.3" width="57.5" height="18.9"/>
	<rect x="69.1" y="34.2" width="19.7" height="19.7"/>
	<rect x="49.4" y="53.9" width="19.7" height="18.9"/>
	<rect x="29.7" y="72.8" width="19.7" height="76.4"/>
	<rect x="49.4" y="149.3" width="19.7" height="19.7"/>
	<rect x="69.1" y="168.9" width="19.7" height="19.7"/>
	<rect x="88.8" y="184.8" width="57.5" height="21.2"/>
	<rect x="146.3" y="168.9" width="39.4" height="15.9"/>
	<rect x="182.6" y="149.3" width="21.9" height="19.7"/>
	<rect x="200.8" y="128.8" width="118" height="20.4"/>
	<rect x="297.6" y="149.3" width="21.2" height="19.7"/>
	<rect x="315" y="168.9" width="20.4" height="15.9"/>
	<rect x="335.5" y="128.8" width="18.2" height="40.1"/>
	<rect x="353.6" y="111" width="18.9" height="17.8"/>
	<rect x="372.6" y="128.8" width="21.9" height="40.1"/>
	<rect x="390.7" y="168.9" width="40.9" height="19.7"/>
	<rect x="428.7" y="89.5" width="22.6" height="79.5"/>
	<rect x="200.8" y="72.8" width="230.8" height="21.9"/>
	<rect x="146.3" y="34.2" width="36.3" height="19.7"/>
	<rect x="182.6" y="53.9" width="18.2" height="18.9"/>
	<rect x="106.9" y="74.3" width="20.1" height="17.6"/>
	<rect x="88.8" y="92" width="18.2" height="37.2"/>
	<rect x="106.9" y="129.2" width="20.1" height="20.1"/>
	<rect x="127" y="92" width="19.3" height="37.2"/>
</g>
</svg>
