<?xml version="1.0" encoding="utf-8"?>
<!-- Generator: Adobe Illustrator 18.0.0, SVG Export Plug-In . SVG Version: 6.00 Build 0)  -->
<!DOCTYPE svg PUBLIC "-//W3C//DTD SVG 1.1//EN" "http://www.w3.org/Graphics/SVG/1.1/DTD/svg11.dtd">
<svg version="1.1" xmlns="http://www.w3.org/2000/svg" xmlns:xlink="http://www.w3.org/1999/xlink" x="0px" y="0px"
	 viewBox="0 0 672 672" enable-background="new 0 0 672 672" xml:space="preserve">
<g id="Réteg_2">
</g>
<g id="Réteg_3">
	<g>
		<rect x="185.9" y="63" fill="#030707" width="309" height="37"/>
		<rect x="150.9" y="100" fill="#030707" width="35" height="33"/>
		<rect x="115.9" y="133" fill="#030707" width="35" height="70"/>
		<rect x="81.9" y="203" fill="#030707" width="34" height="274"/>
		<rect x="115.9" y="477" fill="#030707" width="70" height="35"/>
		<rect x="185.9" y="512" fill="#030707" width="33" height="104"/>
		<rect x="218.9" y="581" fill="#030707" width="276" height="35"/>
		<rect x="254.9" y="546" fill="#030707" width="34" height="35"/>
		<rect x="321.9" y="546" fill="#030707" width="35" height="35"/>
		<rect x="392" y="546" fill="#030707" width="35.9" height="35"/>
		<rect x="459.9" y="512" fill="#030707" width="35" height="69"/>
		<rect x="494.9" y="477" fill="#030707" width="69" height="35"/>
		<rect x="563.9" y="203" fill="#030707" width="35" height="274"/>
		<rect x="529.4" y="133" fill="#030707" width="34.5" height="70"/>
		<rect x="494.9" y="100" fill="#030707" width="34.5" height="33"/>
		<rect x="321.9" y="409" fill="#030707" width="35" height="34"/>
		<rect x="288.9" y="443" fill="#030707" width="103.1" height="34"/>
		<rect x="218.9" y="237" fill="#030707" width="70" height="172"/>
		<rect x="185.9" y="272" fill="#030707" width="33" height="101"/>
		<rect x="288.9" y="272" fill="#030707" width="33" height="101"/>
		<rect x="392" y="237" fill="#030707" width="67.9" height="172"/>
		<rect x="356.9" y="272" fill="#030707" width="70.2" height="101"/>
		<rect x="440.6" y="272" fill="#030707" width="54.3" height="101"/>
		<rect x="150.9" y="133" fill="#B7B7B7" width="35" height="70"/>
		<rect x="115.9" y="203" fill="#B7B7B7" width="35" height="274"/>
		<rect x="150.9" y="409" fill="#B7B7B7" width="35" height="68"/>
		<rect x="185.9" y="477" fill="#B7B7B7" width="33" height="43.9"/>
	</g>
</g>
</svg>
