<?xml version="1.0" encoding="utf-8"?>
<!-- Generator: Adobe Illustrator 18.0.0, SVG Export Plug-In . SVG Version: 6.00 Build 0)  -->
<!DOCTYPE svg PUBLIC "-//W3C//DTD SVG 1.1//EN" "http://www.w3.org/Graphics/SVG/1.1/DTD/svg11.dtd">
<svg version="1.1" xmlns="http://www.w3.org/2000/svg" xmlns:xlink="http://www.w3.org/1999/xlink" x="0px" y="0px"
	 viewBox="0 0 403.4 409.5" enable-background="new 0 0 403.4 409.5" xml:space="preserve">
<g id="Réteg_2">
</g>
<g id="Réteg_3">
</g>
<g id="Réteg_4">
	<g>
		<rect x="59.8" y="48" width="40" height="26"/>
		<rect x="43.8" y="61" width="16" height="41"/>
		<rect x="87.5" y="74" width="28.3" height="41.9"/>
		<rect x="59.8" y="102" width="30.1" height="13.9"/>
		<rect x="99.8" y="48" width="175.5" height="13"/>
		<rect x="262.6" y="61" width="26.3" height="13"/>
		<rect x="275.8" y="74" width="25.9" height="15.1"/>
		<rect x="101.7" y="115.9" width="14.1" height="228.2"/>
		<rect x="115.8" y="303.6" width="11.5" height="27.6"/>
		<rect x="115.8" y="344.2" width="215.1" height="13.5"/>
		<rect x="328.5" y="303.6" width="13.5" height="40.6"/>
		<rect x="141.5" y="331.2" width="12.9" height="16.5"/>
		<rect x="127.3" y="290.7" width="201.1" height="12.9"/>
		<rect x="154.4" y="303.6" width="14.1" height="27.6"/>
		<rect x="138.7" y="248.3" width="56.3" height="16.5"/>
		<rect x="139.1" y="210.7" width="95.9" height="12.9"/>
		<rect x="137.7" y="155.4" width="125" height="15.3"/>
		<rect x="141.5" y="102" width="121.2" height="13.9"/>
		<rect x="289" y="89.1" width="12.7" height="201.5"/>
		<rect x="74.9" y="74" fill="#7D4B22" width="12.6" height="28"/>
		<rect x="59.8" y="88" fill="#7D4B22" width="15.1" height="14"/>
		<rect x="115.8" y="74" fill="#7D4B22" width="11.5" height="229.6"/>
		<rect x="127.3" y="277.1" fill="#7D4B22" width="161.6" height="13.5"/>
		<rect x="138.1" y="223.6" fill="#7D4B22" width="89.8" height="14.1"/>
		<rect x="138.9" y="170.7" fill="#7D4B22" width="109.6" height="14.7"/>
		<rect x="141.5" y="115.9" fill="#7D4B22" width="107" height="13.6"/>
		<rect x="127.3" y="303.6" fill="#7D4B22" width="14.1" height="40.6"/>
		<rect x="115.8" y="331.2" fill="#7D4B22" width="11.5" height="12.9"/>
		<rect x="168.5" y="303.6" fill="#7D4B22" width="13.5" height="40.6"/>
		<rect x="154.4" y="331.2" fill="#925D35" width="174.1" height="16.5"/>
		<rect x="59.8" y="74" fill="#925D35" width="15.1" height="14"/>
		<rect x="182" y="317.4" fill="#925D35" width="132.9" height="13.8"/>
		<rect x="127.3" y="74" fill="#925D35" width="121.1" height="15.1"/>
		<rect x="235" y="88" fill="#925D35" width="27.7" height="14"/>
		<rect x="127.3" y="89.1" fill="#925D35" width="27.1" height="12.9"/>
		<rect x="127.3" y="102" fill="#925D35" width="14.1" height="27.5"/>
		<rect x="144.4" y="129.5" fill="#925D35" width="130.9" height="14.7"/>
		<rect x="262.6" y="96.5" fill="#925D35" width="12.7" height="180.7"/>
		<rect x="248.5" y="115.9" fill="#925D35" width="14.1" height="13.6"/>
		<rect x="235" y="144.2" fill="#925D35" width="27.7" height="11.2"/>
		<rect x="141.5" y="185.4" fill="#925D35" width="121.2" height="12.4"/>
		<rect x="248.5" y="170.7" fill="#925D35" width="14.1" height="14.7"/>
		<rect x="99.8" y="61" fill="#A7704E" width="162.8" height="13"/>
		<rect x="248.5" y="74" fill="#A7704E" width="27.3" height="15.1"/>
		<rect x="262.1" y="89.1" fill="#A7704E" width="26.8" height="12"/>
		<rect x="275.3" y="101.1" fill="#A7704E" width="13.7" height="176"/>
		<rect x="154.4" y="89.1" fill="#A7704E" width="80.6" height="12.9"/>
		<rect x="127.3" y="129.5" fill="#A7704E" width="13.2" height="147.6"/>
		<rect x="133.9" y="144.2" fill="#A7704E" width="101.1" height="11.2"/>
		<rect x="138.3" y="197.7" fill="#A7704E" width="124.3" height="12.9"/>
		<rect x="138.9" y="237.7" fill="#A7704E" width="123.7" height="14.1"/>
		<rect x="235" y="206.6" fill="#A7704E" width="27.7" height="37.9"/>
		<rect x="227.9" y="223.2" fill="#A7704E" width="7.1" height="21.3"/>
		<rect x="195" y="251.8" fill="#A7704E" width="67.7" height="25.3"/>
		<rect x="135.7" y="264.5" fill="#A7704E" width="62.8" height="12.6"/>
		<rect x="182" y="303.6" fill="#A7704E" width="146.4" height="13.8"/>
		<rect x="315" y="317.4" fill="#A7704E" width="13.5" height="13.8"/>
		<rect x="140.6" y="129.5" fill="#925D35" width="108.2" height="14.7"/>
		<rect x="140.6" y="185.4" fill="#925D35" width="134.7" height="12.4"/>
		<rect x="248.5" y="170.7" fill="#925D35" width="26.8" height="14.7"/>
		<rect x="262.6" y="197.7" fill="#925D35" width="12.7" height="79.4"/>
		<rect x="141.5" y="303.6" fill="#A7704E" width="12.9" height="27.6"/>
	</g>
</g>
</svg>
