<?xml version="1.0" encoding="utf-8"?>
<!-- Generator: Adobe Illustrator 18.0.0, SVG Export Plug-In . SVG Version: 6.00 Build 0)  -->
<!DOCTYPE svg PUBLIC "-//W3C//DTD SVG 1.1//EN" "http://www.w3.org/Graphics/SVG/1.1/DTD/svg11.dtd">
<svg version="1.1" xmlns="http://www.w3.org/2000/svg" xmlns:xlink="http://www.w3.org/1999/xlink" x="0px" y="0px"
	 viewBox="0 0 484.8 354.7" enable-background="new 0 0 484.8 354.7" xml:space="preserve">
<g id="Réteg_2">
</g>
<g id="Réteg_3">
</g>
<g id="Réteg_4">
</g>
<g id="Réteg_5">
	<g>
		<rect x="208.8" y="207.7" fill="#010101" width="6.6" height="6.4"/>
		<rect x="208.8" y="194.5" fill="#FFFDFD" width="6.6" height="13.2"/>
		<rect x="201.7" y="201.1" fill="#FFFDFD" width="7.1" height="6.6"/>
		<rect x="195.5" y="207.7" fill="#FFFDFD" width="6.9" height="6.4"/>
		<rect x="202.4" y="214.1" fill="#FFFDFD" width="19.1" height="6.4"/>
		<rect x="215.3" y="207.7" fill="#FFFDFD" width="13" height="6.4"/>
		<rect x="215.3" y="201.1" fill="#FFFDFD" width="6.1" height="6.6"/>
		<rect x="202.4" y="207.7" fill="#9D9D9C" width="6.4" height="6.4"/>
		<rect x="211.9" y="176.3" fill="#FE006A" width="26.5" height="18.3"/>
		<rect x="301.5" y="201.1" fill="#FE006A" width="23.9" height="6.6"/>
		<rect x="300.4" y="207.7" fill="#FE006A" width="19.2" height="6.4"/>
		<rect x="225.1" y="238.9" fill="#FE006A" width="3.2" height="14.4"/>
		<rect x="225.1" y="224.3" fill="#FE006A" width="6.2" height="10"/>
		<rect x="228.4" y="198.7" fill="#FE006A" width="11.6" height="22.7"/>
		<rect x="221.4" y="199.6" fill="#FE006A" width="8" height="8.1"/>
		<rect x="32.1" y="123.1" fill="#FE006A" width="14.2" height="6.4"/>
		<rect x="39.2" y="109.7" fill="#FE006A" width="20.2" height="13.4"/>
		<rect x="45.5" y="102.9" fill="#FE006A" width="26.8" height="13.5"/>
		<rect x="65.1" y="96.7" fill="#FE006A" width="58.4" height="13.7"/>
		<rect x="77.6" y="89.9" fill="#FE006A" width="26.6" height="7.8"/>
		<rect x="116.9" y="103.5" fill="#FE006A" width="13.5" height="12.9"/>
		<rect x="123.7" y="116.4" fill="#FE006A" width="12.9" height="9.8"/>
		<rect x="130.1" y="96.7" fill="#FE006A" width="7.5" height="6.9"/>
		<rect x="136.6" y="109.7" fill="#FE006A" width="33" height="6.7"/>
		<rect x="136.6" y="102.9" fill="#FE006A" width="7.6" height="6.7"/>
		<rect x="136.6" y="123.1" fill="#FE006A" width="7.6" height="5.8"/>
		<rect x="136.6" y="128.9" fill="#FE006A" width="14.4" height="7.3"/>
		<rect x="140.2" y="135.3" fill="#FE006A" width="16.7" height="7.8"/>
		<rect x="149.3" y="143.1" fill="#FE006A" width="7.6" height="5.9"/>
		<rect x="153.5" y="149" fill="#FE006A" width="9.3" height="13.5"/>
		<rect x="162.8" y="166.5" fill="#FE006A" width="13.5" height="14.9"/>
		<rect x="162.8" y="155.8" fill="#FE006A" width="6.8" height="10.7"/>
		<rect x="162.8" y="116.4" fill="#FE006A" width="19.6" height="6.7"/>
		<rect x="169.6" y="123.1" fill="#FE006A" width="12.9" height="13"/>
		<rect x="182.5" y="135.3" fill="#FE006A" width="12.5" height="6.9"/>
		<rect x="182.5" y="129.6" fill="#FE006A" width="6.3" height="5.7"/>
		<rect x="169.6" y="136.1" fill="#FE006A" width="12.9" height="12.9"/>
		<rect x="182.5" y="142.2" fill="#FE006A" width="7.4" height="6.8"/>
		<rect x="175.4" y="149" fill="#FE006A" width="26.3" height="40.6"/>
		<rect x="45.5" y="188.1" fill="#FE006A" width="13.9" height="6.5"/>
		<rect x="52.4" y="181.4" fill="#FE006A" width="38.5" height="6.7"/>
		<rect x="84.1" y="188.1" fill="#FE006A" width="14.3" height="6.5"/>
		<rect x="98.4" y="194.5" fill="#FE006A" width="12.4" height="13.2"/>
		<rect x="91.3" y="194.5" fill="#FE006A" width="7.2" height="6.6"/>
		<rect x="104.6" y="207.7" fill="#FE006A" width="13.7" height="6.4"/>
		<rect x="117.5" y="214.1" fill="#FE006A" width="6.3" height="6.4"/>
		<rect x="123.7" y="220.5" fill="#FE006A" width="8.5" height="7.6"/>
		<rect x="130.3" y="233.4" fill="#FE006A" width="7.7" height="7.5"/>
		<rect x="110.8" y="220.5" fill="#FE006A" width="6.7" height="14.8"/>
		<rect x="168.7" y="188.1" fill="#FE006A" width="7.7" height="6.5"/>
		<rect x="188.5" y="189.7" fill="#FE006A" width="13.2" height="18"/>
		<rect x="182.5" y="207.7" fill="#FE006A" width="13" height="6.4"/>
		<rect x="168.7" y="214.1" fill="#FE006A" width="33" height="10.2"/>
		<rect x="162.8" y="226.9" fill="#FE006A" width="20.6" height="22.1"/>
		<rect x="168.7" y="224.3" fill="#FE006A" width="58" height="29.3"/>
		<rect x="201.7" y="220.5" fill="#FE006A" width="27.7" height="3.8"/>
		<rect x="221.4" y="214.1" fill="#FE006A" width="13.2" height="8.3"/>
		<rect x="215.3" y="194.5" fill="#FE006A" width="79.3" height="6.6"/>
		<rect x="200.6" y="162.6" fill="#FE006A" width="8.2" height="38.5"/>
		<rect x="208.8" y="149" fill="#FE006A" width="8.2" height="45.5"/>
		<rect x="175.4" y="253.6" fill="#FE006A" width="29.3" height="25.5"/>
		<rect x="162.8" y="265.4" fill="#FE006A" width="12.5" height="20.2"/>
		<rect x="172.5" y="265.4" fill="#FE006A" width="16.9" height="20.2"/>
		<rect x="156.1" y="272.6" fill="#FE006A" width="13.8" height="20"/>
		<rect x="149.3" y="285.6" fill="#FE006A" width="13.7" height="14"/>
		<rect x="149.3" y="297.9" fill="#FE006A" width="6.8" height="6.8"/>
		<rect x="201.7" y="265.4" fill="#FE006A" width="13.7" height="27.2"/>
		<rect x="208.5" y="292.6" fill="#FE006A" width="6.8" height="5.8"/>
		<rect x="215.4" y="272.6" fill="#FE006A" width="6.4" height="32.1"/>
		<rect x="221.7" y="278.4" fill="#FE006A" width="6.6" height="26.3"/>
		<rect x="228.4" y="285.6" fill="#FE006A" width="13.7" height="26"/>
		<rect x="242.1" y="291.5" fill="#FE006A" width="6.4" height="25.7"/>
		<rect x="234.7" y="311.6" fill="#FE006A" width="7.4" height="5.7"/>
		<rect x="247.2" y="297.9" fill="#FE006A" width="6.5" height="27.1"/>
		<rect x="253.7" y="304.4" fill="#FE006A" width="13.5" height="20.6"/>
		<rect x="267.2" y="311.4" fill="#FE006A" width="52.4" height="19.9"/>
		<rect x="312.6" y="304.7" fill="#FE006A" width="19.5" height="20.3"/>
		<rect x="319.6" y="298.6" fill="#FE006A" width="18.8" height="19.8"/>
		<rect x="325.4" y="272.4" fill="#FE006A" width="19.6" height="32.9"/>
		<rect x="423.3" y="200.6" fill="#FE006A" width="6.9" height="26.1"/>
		<rect x="416.4" y="207.6" fill="#FE006A" width="6.9" height="13"/>
		<rect x="430.2" y="200.6" fill="#FE006A" width="6.8" height="20"/>
		<rect x="436.1" y="207.6" fill="#FE006A" width="13.7" height="19.1"/>
		<rect x="449" y="213.6" fill="#FE006A" width="6.5" height="46"/>
		<rect x="443" y="220.6" fill="#FE006A" width="18.7" height="32.8"/>
		<rect x="436.1" y="246.9" fill="#FE006A" width="19.4" height="12.7"/>
		<rect x="384.4" y="253.4" fill="#FE006A" width="65.4" height="13"/>
		<rect x="409.6" y="264" fill="#FE006A" width="33.4" height="8.4"/>
		<rect x="370.8" y="246.1" fill="#FE006A" width="45.6" height="7.3"/>
		<rect x="370.8" y="253.4" fill="#FE006A" width="13.7" height="6.2"/>
		<rect x="370.8" y="239.3" fill="#FE006A" width="19.5" height="6.8"/>
		<rect x="338.4" y="232.9" fill="#FE006A" width="46" height="8"/>
		<rect x="325.4" y="239.3" fill="#FE006A" width="13" height="7.7"/>
		<rect x="325.4" y="247" fill="#FE006A" width="7.6" height="6.4"/>
		<rect x="312.6" y="247" fill="#FE006A" width="7.7" height="19.4"/>
		<rect x="320.3" y="252.5" fill="#FE006A" width="5.7" height="13.8"/>
		<rect x="325.4" y="259.4" fill="#FE006A" width="13" height="45.9"/>
		<rect x="291.9" y="246.1" fill="#FE006A" width="28.4" height="6.5"/>
		<rect x="285.8" y="252.5" fill="#FE006A" width="7.6" height="7.3"/>
		<rect x="221.8" y="181" fill="#FE006A" width="110.1" height="20.1"/>
		<rect x="200.6" y="168.1" fill="#FE006A" width="124.8" height="12.9"/>
		<rect x="216.9" y="156" fill="#FE006A" width="102.8" height="12.1"/>
		<rect x="215.3" y="142.6" fill="#FE006A" width="6.5" height="6.4"/>
		<rect x="228" y="129.6" fill="#FE006A" width="6.6" height="6.5"/>
		<rect x="182.5" y="77.3" fill="#FE006A" width="6.1" height="19.2"/>
		<rect x="188.7" y="64.3" fill="#FE006A" width="7.3" height="26.3"/>
		<rect x="196.1" y="57.7" fill="#FE006A" width="6.5" height="26.3"/>
		<rect x="202.6" y="57.7" fill="#FE006A" width="6.2" height="19.7"/>
		<rect x="208.8" y="51.8" fill="#FE006A" width="6.6" height="19.8"/>
		<rect x="214.1" y="70.9" fill="#FE006A" width="39.8" height="6.4"/>
		<rect x="215.3" y="64.3" fill="#FE006A" width="32.2" height="6.6"/>
		<rect x="215.3" y="57.7" fill="#FE006A" width="26.2" height="6.5"/>
		<rect x="226.9" y="77.3" fill="#FE006A" width="20.6" height="6.7"/>
		<rect x="228" y="84" fill="#FE006A" width="26.8" height="8.1"/>
		<rect x="234" y="92.1" fill="#FE006A" width="20.9" height="11.3"/>
		<rect x="241.4" y="103.4" fill="#FE006A" width="19.1" height="20.6"/>
		<rect x="234.6" y="116.4" fill="#FE006A" width="12.9" height="13.2"/>
		<rect x="266.5" y="96.5" fill="#FE006A" width="14" height="19.9"/>
		<rect x="280.5" y="96.5" fill="#FE006A" width="13.3" height="6.9"/>
		<rect x="285.5" y="90.6" fill="#FE006A" width="14.4" height="5.9"/>
		<rect x="292.7" y="70.9" fill="#FE006A" width="13.5" height="13.2"/>
		<rect x="292.7" y="84" fill="#FE006A" width="7.2" height="6.5"/>
		<rect x="299.5" y="57.7" fill="#FE006A" width="12.9" height="19.7"/>
		<rect x="306" y="51.8" fill="#FE006A" width="12.8" height="19.1"/>
		<rect x="312.4" y="44.7" fill="#FE006A" width="19.2" height="19.6"/>
		<rect x="318.7" y="38.3" fill="#FE006A" width="32.8" height="19.4"/>
		<rect x="351.6" y="44.7" fill="#FE006A" width="12.7" height="13.1"/>
		<rect x="351.6" y="84" fill="#FE006A" width="19.8" height="6.5"/>
		<rect x="364.2" y="77.5" fill="#FE006A" width="13.3" height="6.6"/>
		<rect x="369.9" y="57.7" fill="#FE006A" width="7.6" height="19.7"/>
		<rect x="364.2" y="49.9" fill="#FE006A" width="6.6" height="21.6"/>
		<rect x="357.9" y="57.7" fill="#FE006A" width="7.1" height="6.5"/>
		<rect x="221.8" y="149" fill="#FE006A" width="84.2" height="7"/>
		<rect x="228" y="142.6" fill="#FE006A" width="71.9" height="6.4"/>
		<rect x="234.6" y="136.1" fill="#FE006A" width="45.9" height="6.9"/>
		<rect x="237.2" y="191.1" fill="#FE006A" width="65.3" height="31.3"/>
		<rect x="252.7" y="222.4" fill="#FE006A" width="33.1" height="11"/>
		<rect x="229.4" y="220.5" fill="#FE006A" width="23.3" height="12.9"/>
		<rect x="226.7" y="232.9" fill="#FE006A" width="14.7" height="6.4"/>
		<rect x="285.8" y="220.6" fill="#FE006A" width="8.8" height="7.3"/>
		<rect x="166" y="276.3" fill="#FE006A" width="42.5" height="15.5"/>
		<rect x="146.5" y="272.6" fill="#FE006A" width="12.4" height="13"/>
		<rect x="130.5" y="239.3" fill="#FE006A" width="7.5" height="11.3"/>
		<rect x="91.3" y="110.4" fill="#A80349" width="13.3" height="6"/>
		<rect x="97.9" y="116.4" fill="#A80349" width="13.5" height="6.6"/>
		<rect x="111.4" y="123" fill="#A80349" width="12.3" height="6.6"/>
		<rect x="117.5" y="129.6" fill="#A80349" width="7.5" height="5.7"/>
		<rect x="123.7" y="135.3" fill="#A80349" width="8.5" height="7.3"/>
		<rect x="130.5" y="142.2" fill="#A80349" width="7.1" height="13.5"/>
		<rect x="136.6" y="153.6" fill="#A80349" width="7.6" height="41"/>
		<rect x="143.8" y="189.7" fill="#A80349" width="5.5" height="24.4"/>
		<rect x="33" y="207.7" fill="#A80349" width="6.1" height="12.8"/>
		<rect x="39.1" y="194.5" fill="#A80349" width="7.4" height="19.6"/>
		<rect x="46.4" y="194.5" fill="#A80349" width="12.9" height="13.2"/>
		<rect x="59.4" y="193.4" fill="#A80349" width="12.3" height="7.7"/>
		<rect x="71.7" y="200.1" fill="#A80349" width="13.7" height="7.6"/>
		<rect x="85.4" y="207.7" fill="#A80349" width="5.9" height="6.4"/>
		<rect x="91.3" y="214.1" fill="#A80349" width="7.2" height="6.4"/>
		<rect x="98.4" y="220.5" fill="#A80349" width="6.2" height="12.9"/>
		<rect x="104.6" y="234.9" fill="#A80349" width="6.8" height="18.6"/>
		<rect x="110.8" y="252.3" fill="#A80349" width="14.2" height="7.4"/>
		<rect x="176.4" y="189.7" fill="#A80349" width="12.2" height="4.9"/>
		<rect x="182.5" y="194.5" fill="#A80349" width="6.1" height="13.2"/>
		<rect x="163" y="207.7" fill="#A80349" width="19.5" height="6.4"/>
		<rect x="163" y="214.1" fill="#A80349" width="6.1" height="12.9"/>
		<rect x="155.1" y="220.5" fill="#A80349" width="7.7" height="27"/>
		<rect x="155.1" y="247.5" fill="#A80349" width="13.6" height="6.1"/>
		<rect x="155.1" y="253.6" fill="#A80349" width="20.2" height="11.8"/>
		<rect x="150.3" y="265.4" fill="#A80349" width="12.7" height="7.2"/>
		<rect x="143.8" y="116.4" fill="#A80349" width="19.1" height="6.7"/>
		<rect x="156.9" y="123.1" fill="#A80349" width="12.7" height="6.5"/>
		<rect x="162.8" y="129.6" fill="#A80349" width="6.8" height="6.5"/>
		<rect x="200.7" y="155.2" fill="#A80349" width="8.1" height="7.7"/>
		<rect x="216.9" y="149" fill="#A80349" width="4.9" height="7"/>
		<rect x="221.8" y="136.1" fill="#A80349" width="6.2" height="12.9"/>
		<rect x="228" y="136.1" fill="#A80349" width="6.6" height="7.1"/>
		<rect x="208.8" y="71.6" fill="#A80349" width="5.3" height="5.7"/>
		<rect x="214.8" y="77.3" fill="#A80349" width="12.2" height="6.7"/>
		<rect x="306" y="77.5" fill="#A80349" width="6.5" height="6.6"/>
		<rect x="299.9" y="84" fill="#A80349" width="6.3" height="13"/>
		<rect x="292.7" y="95.5" fill="#A80349" width="7.9" height="14.1"/>
		<rect x="286.5" y="102.9" fill="#A80349" width="6.8" height="13.6"/>
		<rect x="280.5" y="109.6" fill="#A80349" width="6" height="13.4"/>
		<rect x="266.5" y="116.4" fill="#A80349" width="14.6" height="6.6"/>
		<rect x="280.5" y="136.1" fill="#A80349" width="6" height="6.4"/>
		<rect x="358.4" y="149" fill="#A80349" width="5.9" height="12.2"/>
		<rect x="345.4" y="136.1" fill="#A80349" width="13" height="12.9"/>
		<rect x="331.9" y="129.7" fill="#A80349" width="13.5" height="13.4"/>
		<rect x="319.7" y="124" fill="#A80349" width="12.2" height="12.4"/>
		<rect x="306.1" y="129.7" fill="#A80349" width="19.3" height="12.9"/>
		<rect x="299.4" y="136.1" fill="#A80349" width="19.8" height="12.9"/>
		<rect x="306.1" y="149" fill="#A80349" width="13.6" height="7"/>
		<rect x="364.7" y="240.3" fill="#A80349" width="6.1" height="13.1"/>
		<rect x="338.4" y="240.3" fill="#A80349" width="27.4" height="6.5"/>
		<rect x="333" y="246.1" fill="#A80349" width="25.5" height="6.5"/>
		<rect x="345" y="251.3" fill="#A80349" width="7.1" height="14.2"/>
		<rect x="364.1" y="156" fill="#CB0055" width="7.3" height="12.1"/>
		<rect x="104.6" y="110.4" fill="#CB0055" width="12.3" height="6"/>
		<rect x="111.4" y="116.4" fill="#CB0055" width="12.3" height="6.6"/>
		<rect x="123.5" y="124" fill="#CB0055" width="13" height="6.7"/>
		<rect x="124.4" y="130.7" fill="#CB0055" width="13.2" height="5.4"/>
		<rect x="131" y="135.3" fill="#CB0055" width="11.9" height="7.3"/>
		<rect x="137.6" y="142.6" fill="#CB0055" width="11.7" height="11"/>
		<rect x="143.8" y="162" fill="#CB0055" width="19.1" height="19.3"/>
		<rect x="144.2" y="148.1" fill="#CB0055" width="11.9" height="14.2"/>
		<rect x="143.8" y="181.4" fill="#CB0055" width="32.9" height="11.7"/>
		<rect x="149.3" y="194.5" fill="#CB0055" width="33.2" height="13.2"/>
		<rect x="149.3" y="189.5" fill="#CB0055" width="26.8" height="5"/>
		<rect x="149.3" y="206.7" fill="#CB0055" width="13.5" height="13.8"/>
		<rect x="59.4" y="188.1" fill="#CB0055" width="24.8" height="6.5"/>
		<rect x="71.7" y="193.4" fill="#CB0055" width="19.5" height="7.7"/>
		<rect x="85.4" y="201.1" fill="#CB0055" width="13" height="6.6"/>
		<rect x="91.2" y="206.7" fill="#CB0055" width="13.4" height="7.4"/>
		<rect x="98.4" y="213.6" fill="#CB0055" width="19" height="6.9"/>
		<rect x="104.6" y="220.5" fill="#CB0055" width="6.2" height="14.8"/>
		<rect x="117.5" y="220.5" fill="#CB0055" width="7.5" height="31.8"/>
		<rect x="110.8" y="235.3" fill="#CB0055" width="6.7" height="17"/>
		<rect x="125" y="227.9" fill="#CB0055" width="30.1" height="5.5"/>
		<rect x="130.5" y="213.6" fill="#CB0055" width="24.6" height="14.3"/>
		<rect x="125" y="233.4" fill="#CB0055" width="7.3" height="46.8"/>
		<rect x="138" y="233.4" fill="#CB0055" width="17.2" height="32"/>
		<rect x="130.3" y="249.4" fill="#CB0055" width="20" height="42.4"/>
		<rect x="123.7" y="273.4" fill="#CB0055" width="8.5" height="12.2"/>
		<rect x="138" y="291.8" fill="#CB0055" width="70.6" height="6.6"/>
		<rect x="143.8" y="298.4" fill="#CB0055" width="64.8" height="6.2"/>
		<rect x="156.6" y="301.5" fill="#CB0055" width="38.8" height="9.9"/>
		<rect x="299.6" y="266.4" fill="#CB0055" width="25.8" height="6.1"/>
		<rect x="306.1" y="259.9" fill="#CB0055" width="6.5" height="6.4"/>
		<rect x="293.4" y="272.6" fill="#CB0055" width="26.2" height="13"/>
		<rect x="285.8" y="279.1" fill="#CB0055" width="26.7" height="12.7"/>
		<rect x="280.3" y="285.6" fill="#CB0055" width="18.9" height="12.3"/>
		<rect x="253.5" y="291.8" fill="#FE006A" width="39.9" height="12.9"/>
		<rect x="293.4" y="252.5" fill="#CB0055" width="6.2" height="13"/>
		<rect x="285.8" y="259.9" fill="#CB0055" width="7.6" height="12.7"/>
		<rect x="325.4" y="201.1" fill="#CB0055" width="6.6" height="6.6"/>
		<rect x="319.6" y="207.7" fill="#CB0055" width="5.8" height="12.8"/>
		<rect x="302.5" y="214.1" fill="#CB0055" width="17.1" height="12.9"/>
		<rect x="294.7" y="222.4" fill="#CB0055" width="11.4" height="23.7"/>
		<rect x="285.8" y="227.9" fill="#CB0055" width="8.8" height="25.7"/>
		<rect x="241.4" y="232.9" fill="#CB0055" width="46" height="7.8"/>
		<rect x="228.3" y="239.2" fill="#CB0055" width="20.1" height="7.2"/>
		<rect x="203.9" y="253.4" fill="#CB0055" width="30.7" height="12.1"/>
		<rect x="215.4" y="259" fill="#CB0055" width="31.8" height="13.6"/>
		<rect x="221.8" y="272.6" fill="#CB0055" width="64" height="6.5"/>
		<rect x="280.3" y="240.3" fill="#CB0055" width="5.5" height="32.3"/>
		<rect x="274.1" y="253.4" fill="#CB0055" width="9" height="21.3"/>
		<rect x="267.2" y="259.4" fill="#CB0055" width="9.7" height="15.3"/>
		<rect x="247.2" y="266.4" fill="#CB0055" width="22" height="7.1"/>
		<rect x="228" y="279.1" fill="#CB0055" width="52.3" height="6.5"/>
		<rect x="241.4" y="285.6" fill="#CB0055" width="31.7" height="7"/>
		<rect x="248.4" y="292.6" fill="#CB0055" width="7.6" height="5.3"/>
		<rect x="234.6" y="129.6" fill="#CB0055" width="32.6" height="6.7"/>
		<rect x="247.2" y="124" fill="#CB0055" width="20" height="5.6"/>
		<rect x="254.8" y="84" fill="#CB0055" width="5.7" height="19.4"/>
		<rect x="260.6" y="96.5" fill="#CB0055" width="6.7" height="27.5"/>
		<rect x="280.5" y="103.4" fill="#CB0055" width="6" height="6.2"/>
		<rect x="292.7" y="130.2" fill="#CB0055" width="7.2" height="12.4"/>
		<rect x="299.5" y="123" fill="#CB0055" width="6.5" height="13.5"/>
		<rect x="306" y="116.3" fill="#CB0055" width="13.8" height="13.3"/>
		<rect x="319.7" y="116.3" fill="#CB0055" width="18.9" height="7.7"/>
		<rect x="331.9" y="123" fill="#CB0055" width="19.7" height="6.7"/>
		<rect x="345.4" y="129.7" fill="#CB0055" width="13" height="6.5"/>
		<rect x="358.4" y="136.1" fill="#CB0055" width="5.9" height="12.9"/>
		<rect x="358.4" y="161.2" fill="#CB0055" width="5.9" height="19.8"/>
		<rect x="351.6" y="174.5" fill="#CB0055" width="7.7" height="14.2"/>
		<rect x="344.3" y="181" fill="#CB0055" width="7.3" height="14.6"/>
		<rect x="326" y="252.5" fill="#FE006A" width="19.1" height="7"/>
	</g>
</g>
</svg>
