<?xml version="1.0" encoding="utf-8"?>
<!-- Generator: Adobe Illustrator 18.0.0, SVG Export Plug-In . SVG Version: 6.00 Build 0)  -->
<!DOCTYPE svg PUBLIC "-//W3C//DTD SVG 1.1//EN" "http://www.w3.org/Graphics/SVG/1.1/DTD/svg11.dtd">
<svg version="1.1" xmlns="http://www.w3.org/2000/svg" xmlns:xlink="http://www.w3.org/1999/xlink" x="0px" y="0px"
	 viewBox="0 0 220.5 250.7" enable-background="new 0 0 220.5 250.7" xml:space="preserve">
<g id="Réteg_3">
</g>
<g id="Réteg_2">
	<g>
		<rect x="55.5" y="38" fill="#8B6405" width="99.2" height="25.9"/>
		<rect x="154.2" y="57.4" fill="#8B6405" width="20.2" height="6.5"/>
		<rect x="35.5" y="57.4" fill="#8B6405" width="20" height="6.5"/>
		<rect x="75.1" y="163.3" fill="#8B6405" width="19.5" height="6.9"/>
		<rect x="114.6" y="163.3" fill="#8B6405" width="21.4" height="7.8"/>
		<rect x="55.5" y="70.4" fill="#F6D68B" width="99.2" height="33.7"/>
		<rect x="62.3" y="103.5" fill="#F6D68B" width="85.6" height="6.8"/>
		<rect x="69.1" y="110.3" fill="#F6D68B" width="72.7" height="8"/>
		<rect x="141.7" y="143.9" fill="#F6D68B" width="13" height="13.8"/>
		<rect x="55.3" y="143.9" fill="#F6D68B" width="14" height="13.3"/>
		<rect x="68.6" y="130.3" fill="#FBE504" width="7.2" height="13.6"/>
		<rect x="62.3" y="137.4" fill="#FBE504" width="6.3" height="6.5"/>
		<rect x="81.9" y="123.3" fill="#FBE504" width="6.3" height="6.9"/>
		<rect x="122.4" y="123.3" fill="#FBE504" width="6" height="7.6"/>
		<rect x="135" y="130.3" fill="#FBE504" width="6.8" height="13.6"/>
		<rect x="141.7" y="137.1" fill="#FBE504" width="6.2" height="7.3"/>
		<rect x="114.6" y="130.3" fill="#FBE504" width="7.1" height="13.6"/>
		<rect x="88.2" y="130.3" fill="#FBE504" width="6.3" height="13"/>
		<rect x="94.5" y="137.1" fill="#FBE504" width="20.1" height="26.3"/>
		<rect x="94.5" y="163.3" fill="#E5CF23" width="20.1" height="7.8"/>
		<rect x="88.2" y="123.3" fill="#FA0517" width="34.2" height="7.6"/>
		<rect x="94.5" y="130.3" fill="#FA0517" width="20.1" height="6.8"/>
		<rect x="75.1" y="123.3" fill="#F7F3F4" width="6.8" height="6.9"/>
		<rect x="81.9" y="130.3" fill="#F7F3F4" width="6.3" height="13"/>
		<rect x="74.9" y="143.9" fill="#F7F3F4" width="7" height="6.6"/>
		<rect x="74.9" y="156.2" fill="#F7F3F4" width="7.1" height="7.1"/>
		<rect x="81.9" y="150.5" fill="#F7F3F4" width="12.7" height="6.5"/>
		<rect x="88.2" y="143.2" fill="#F7F3F4" width="6.3" height="7.3"/>
		<rect x="128.4" y="123.3" fill="#F7F3F4" width="6.6" height="20.5"/>
		<rect x="121.7" y="143.9" fill="#F7F3F4" width="6.6" height="6.6"/>
		<rect x="128.2" y="149.7" fill="#F7F3F4" width="6.8" height="7.4"/>
		<rect x="121.7" y="156.2" fill="#F7F3F4" width="7.4" height="6.8"/>
		<rect x="75.1" y="170.2" fill="#91BBD4" width="13.1" height="26.3"/>
		<rect x="88.2" y="170.2" fill="#91BBD4" width="6.3" height="13.2"/>
		<rect x="94.5" y="171.1" fill="#91BBD4" width="20.1" height="4.9"/>
		<rect x="114.6" y="171.1" fill="#91BBD4" width="6.8" height="12.3"/>
		<rect x="121" y="170.2" fill="#91BBD4" width="14" height="26.5"/>
		<rect x="75.8" y="78" fill="#040404" width="12.1" height="12.4"/>
		<rect x="121.7" y="78" fill="#040404" width="13.2" height="12.4"/>
		<rect x="55.5" y="31.5" fill="#040404" width="99.2" height="6.5"/>
		<rect x="49.3" y="38" fill="#040404" width="6.2" height="19.4"/>
		<rect x="35.5" y="50.9" fill="#040404" width="15.5" height="6.5"/>
		<rect x="154.7" y="38" fill="#040404" width="6.2" height="19.4"/>
		<rect x="160.9" y="52.1" fill="#040404" width="13.5" height="5.4"/>
		<rect x="28.5" y="57.4" fill="#040404" width="7" height="13"/>
		<rect x="174.4" y="57.4" fill="#040404" width="7" height="13"/>
		<rect x="35.5" y="63.9" fill="#040404" width="144.5" height="6.5"/>
		<rect x="49.3" y="69.3" fill="#040404" width="6.6" height="34.9"/>
		<rect x="154.7" y="70.4" fill="#040404" width="6.2" height="33.7"/>
		<rect x="56" y="104.1" fill="#040404" width="6.3" height="6.3"/>
		<rect x="62.3" y="110.4" fill="#040404" width="7" height="7.6"/>
		<rect x="147.9" y="104.1" fill="#040404" width="6.8" height="6.3"/>
		<rect x="141.7" y="110.4" fill="#040404" width="6.2" height="7.6"/>
		<rect x="69.3" y="118" fill="#040404" width="72.4" height="5.4"/>
		<rect x="69.3" y="123.3" fill="#040404" width="5.7" height="7.6"/>
		<rect x="135" y="122" fill="#040404" width="6.8" height="8.2"/>
		<rect x="141.7" y="130.3" fill="#040404" width="6.2" height="7"/>
		<rect x="147.9" y="137.2" fill="#040404" width="6.8" height="6.6"/>
		<rect x="154.7" y="143.9" fill="#040404" width="7.1" height="13.3"/>
		<rect x="141" y="157.2" fill="#040404" width="13.7" height="6.2"/>
		<rect x="121.7" y="130.9" fill="#040404" width="6.6" height="13"/>
		<rect x="62.3" y="130.3" fill="#040404" width="6.3" height="7"/>
		<rect x="56" y="137.4" fill="#040404" width="6.3" height="6.5"/>
		<rect x="49.3" y="143.9" fill="#040404" width="6" height="13.3"/>
		<rect x="55.3" y="157.2" fill="#040404" width="14" height="6.2"/>
		<rect x="75.8" y="130.3" fill="#040404" width="6.1" height="13.6"/>
		<rect x="81.9" y="143.9" fill="#040404" width="7" height="6.6"/>
		<rect x="75.1" y="150.5" fill="#040404" width="6.8" height="5.7"/>
		<rect x="81.9" y="157.2" fill="#040404" width="12.7" height="6.2"/>
		<rect x="114.6" y="143.9" fill="#040404" width="7.1" height="19.5"/>
		<rect x="121.7" y="150.5" fill="#040404" width="6.6" height="6.6"/>
		<rect x="128.4" y="157.2" fill="#040404" width="7.6" height="6.2"/>
		<rect x="128.4" y="143.9" fill="#040404" width="6.6" height="5.9"/>
		<rect x="135" y="143.9" fill="#040404" width="6.8" height="52.7"/>
		<rect x="68.6" y="143.9" fill="#040404" width="6.5" height="52.7"/>
		<rect x="75.1" y="196.6" fill="#040404" width="13.8" height="7.6"/>
		<rect x="121.4" y="196.7" fill="#040404" width="13.6" height="7.4"/>
		<rect x="114.6" y="183.4" fill="#040404" width="6.8" height="13.3"/>
		<rect x="94.5" y="176" fill="#040404" width="20.1" height="7.4"/>
		<rect x="88.2" y="183.4" fill="#040404" width="6.3" height="13.1"/>
	</g>
</g>
</svg>
