<?xml version="1.0" encoding="UTF-8" standalone="no"?>
<!-- Generator: Adobe Illustrator 18.0.0, SVG Export Plug-In . SVG Version: 6.00 Build 0)  -->

<svg
   xmlns:dc="http://purl.org/dc/elements/1.1/"
   xmlns:cc="http://creativecommons.org/ns#"
   xmlns:rdf="http://www.w3.org/1999/02/22-rdf-syntax-ns#"
   xmlns:svg="http://www.w3.org/2000/svg"
   xmlns="http://www.w3.org/2000/svg"
   xmlns:xlink="http://www.w3.org/1999/xlink"
   xmlns:sodipodi="http://sodipodi.sourceforge.net/DTD/sodipodi-0.dtd"
   xmlns:inkscape="http://www.inkscape.org/namespaces/inkscape"
   version="1.1"
   x="0px"
   y="0px"
   viewBox="0 0 4114.8 802.3"
   enable-background="new 0 0 4114.8 802.3"
   xml:space="preserve"
   id="svg897"
   sodipodi:docname="bg_cloud.svg"
   inkscape:version="0.92.3 (2405546, 2018-03-11)"><metadata
   id="metadata903"><rdf:RDF><cc:Work
       rdf:about=""><dc:format>image/svg+xml</dc:format><dc:type
         rdf:resource="http://purl.org/dc/dcmitype/StillImage" /><dc:title /></cc:Work></rdf:RDF></metadata><defs
   id="defs901">
	
	
	
	
	
	
	
	
	
	
	
	
	
	
	
	
	
	
	
	
	
	
	
	
	

		
		
		
	
			
				
			
				
			
				
			
				
			
			
			
			
			
			
			
			
			
			
			
			
			
			
			
			
			
			
			
			
			
			
			
			
			
			
			
			
			
			
			
			
			
			
			
			
			
			
			
			
			
			
			
			
			
			
			
			
			
			
			
			
			
			
			
			
			
			
			
			
		</defs><sodipodi:namedview
   pagecolor="#ffffff"
   bordercolor="#666666"
   borderopacity="1"
   objecttolerance="10"
   gridtolerance="10"
   guidetolerance="10"
   inkscape:pageopacity="0"
   inkscape:pageshadow="2"
   inkscape:window-width="1920"
   inkscape:window-height="1080"
   id="namedview899"
   showgrid="false"
   inkscape:zoom="5.12"
   inkscape:cx="4098.5683"
   inkscape:cy="695.8335"
   inkscape:window-x="0"
   inkscape:window-y="0"
   inkscape:window-maximized="0"
   inkscape:current-layer="svg897"
   showguides="true"
   inkscape:guide-bbox="true"><sodipodi:guide
     position="1937.5001,731.25001"
     orientation="0,1"
     id="guide90"
     inkscape:locked="false" /><sodipodi:guide
     position="1381.2501,681.25001"
     orientation="0,1"
     id="guide92"
     inkscape:locked="false" /><sodipodi:guide
     position="2468.7501,509.37501"
     orientation="0,1"
     id="guide94"
     inkscape:locked="false" /><sodipodi:guide
     position="2246.8751,596.87501"
     orientation="0,1"
     id="guide96"
     inkscape:locked="false" /><sodipodi:guide
     position="1331.25,381.25001"
     orientation="0,1"
     id="guide98"
     inkscape:locked="false" /><sodipodi:guide
     position="1746.8751,306.25001"
     orientation="0,1"
     id="guide100"
     inkscape:locked="false" /></sodipodi:namedview>

<path
   style="opacity:0.2;fill:#f29320"
   inkscape:connector-curvature="0"
   id="path10"
   d="m 590.2,465.8 c 242.2,11.3 483.4,20.7 728.4,22.8 238.8,2 477.5,-0.1 716.3,-1.6 108,-0.7 210,-7 310.7,-19.4 96.8,-11.9 188.8,-27.2 282.3,-41.4 167.6,-25.5 351,-48.5 540.7,-38.2 190.8,10.4 355.7,44.4 529.8,68.9 89.3,12.6 185.2,24.1 284.1,25.3 17.2,0.2 117.2862,13.84999 132.7846,13.84999 -0.2296,-12.59063 4.159,-61.21406 -0.8582,-75 C 4047.0264,419.64999 3902,462.8 3837.5,455 c -78.2,-9.4 -145.7,-24.6 -210.7,-40.9 -71.7,-18 -142.9,-37.5 -227.1,-49.5 -102.7,-14.7 -221.2,-17.5 -332.7,-15.1 -109.2,2.4 -214.6,11.2 -315.8,24.3 -111.6,14.4 -217.6,32.2 -332.5,44 -120.3,12.4 -243.6,21.5 -367.8,29.1 -120.6,7.3 -238.7,11.7 -361.8,9.3 C 1569.5,453.9 1451.3,447.8 1333,442 1202.7,435.6 1073.8,432.7 942.8,429.2 832.6,426.3 728.1,416.2 623.3,405.6 510,394.2 400.1,385.8 280.6,385 187,384.4 93.4,420.44999 -0.1,421.04999 l -0.27621359,75 C 87.323786,497.24999 175.4,450.7 262.9,453.1 c 109.7,2.8 218.6,7.6 327.3,12.7 z"
   sodipodi:nodetypes="cccccccccccccccccccccccccc" /><path
   style="opacity:0.2;fill:#f29320"
   inkscape:connector-curvature="0"
   id="path14"
   d="m 1162.3,127 c -83.8,6.6 -168.9,7.5 -253.7,6.4 -181.5,-2.3 -364.7,-5 -545.3,-13.6 C 247.5,114.3 119.27621,64.550001 0.17621359,71.050001 V 121.05 C 84.976214,119.65 173.6,145.2 254.1,151.4 409.8,163.6 568,170.6 726,172.7 c 93.2,1.3 188.7,2.4 281.6,-1.7 92.4,-4 183.2,-12.7 273.3,-22.5 86.4,-9.4 172.6,-19.7 260.1,-26.8 86.9,-7.1 174.9,-11.5 263,-14.1 174.5,-5.1 354,-7.5 527.9,2.4 77.2,4.4 153.6,11.2 228.4,21.1 45.3,5.9 89.6,12.7 136.5,15.8 46.4,3.1 93.4,4.2 140.3,3.7 91.3,-0.9 181.7,-6.4 272.7,-9 85.6,-2.4 169.6,-0.2 254.4,5.5 168.9,11.4 348.5,32.1 514,2.7 66.9,-11.9 129.1,-32.7 201.9,-36.2 10.5,-0.5 22.6906,7.85 35.0906,7.45 l -0.1953,-49.999999 -115.214,2.177343 C 3967.1518,73.843983 3938,91.6 3904.2,100.3 c -133.2,34.5 -286.9,22 -432,15.2 -174.3,-8.2 -349.1,1.4 -523.7,-3.1 -84,-2.2 -170.7,-6.2 -250.5,-18.8 -45.2,-7.2 -89.2,-15.5 -133.6,-23.4 H 1559.6 c -47.5,7.2 -94.6,15.1 -141.8,22.9 -83.1,13.7 -167.9,27.1 -255.5,33.9 z"
   sodipodi:nodetypes="cccccccccccccccccccccscccccccc" /><path
   style="opacity:0.2;fill:#f29320"
   inkscape:connector-curvature="0"
   id="path16"
   d="m 412.1,256.4 c 77.6,-5.1 158.7,-9 236.4,-2.1 38.2,3.4 74.6,8.8 108.3,17.6 31.8,8.3 63.2,18.6 99.3,22.8 76.4,8.8 161.2,7.9 239.2,4 92.9,-4.6 186.2,-5.6 279.5,-7.4 91.4,-1.7 186.7,-2.6 275.7,-12.9 79.4,-9.2 154.4,-23.9 232,-35.7 158.6,-24 323.1,-31.4 489.5,-23.2 167.2,8.3 330.4,28.2 488.6,53.5 80.5,12.9 159.3,29.4 242.8,37.9 84.3,8.7 170.8,11 256.9,7.5 169.2,-6.9 331.8,-31.1 498,-45.7 37.9,-3.3 77.9,-1.8 116.2,-0.8 46.7,1.3 93.1094,20.82499 140.0094,21.02499 l 0.5859,-87.49999 c -14.4,1.2 -27.8953,-1.225 -39.1953,-0.125 -94.7,9.3 -186.4,24.2 -276.9,39.5 -91.9,15.6 -180.7,28.3 -279,34.5 -161.4,10.3 -337.2,8 -491.9,-16.8 -72.5,-11.6 -141.3,-27.1 -212.1,-40.6 -83,-15.8 -168.9,-28.7 -258.1,-35.3 -181.4,-13.3 -366,-5.7 -546,8.4 -174.7,13.7 -348.5,30.5 -522.4,46 -85.4,7.6 -171.7,15.1 -258.9,17 C 1144,259.8 1063.5,255 981,243 899,231 818.4,215.4 733.2,208.4 642.1,200.9 546,201.4 454.2,206.2 361.3,211 269.9,220.1 179.7,231 122.1,238 60.576214,208.325 0.27621359,205.425 l 0.27621359,87.49999 C 50.952427,292.12499 100.7,282 151.3,278.2 c 87.2,-6.5 173.2,-16.1 260.8,-21.8 z"
   sodipodi:nodetypes="ccccccccccccccccccccccccccccccccc" /><g
   id="g60">
		<g
   style="opacity:0.4"
   id="g46">
			<path
   style="fill:#ffffff"
   inkscape:connector-curvature="0"
   id="path44"
   d="m 2341.1,555.8 c 0,0 1.5,0.2 4.4,0.6 2.9,0.4 7.2,1.1 12.9,1.7 11.3,1.3 27.9,2.7 49.1,2.6 21.2,0 46.9,-1.8 76.2,-5.4 29.3,-3.5 62.2,-9 98.3,-13.6 18.1,-2.3 36.9,-4.3 56.5,-5.5 19.6,-1.1 39.9,-1.5 60.8,-0.3 2.6,0.2 5.2,0.3 7.8,0.5 l 2,0.1 2,0.2 c 1.3,0.1 2.6,0.3 3.9,0.4 5.2,0.5 10.5,1.3 15.9,1.9 10.6,1.5 21.3,3.4 32,5.5 21.5,4.1 43.3,9.1 65.7,12.6 11.2,1.8 22.5,3.3 34,4.2 2.9,0.3 5.7,0.4 8.6,0.6 l 4.3,0.2 1.1,0.1 c 0.3,0 0.7,0 1.1,0 h 2.2 c 2.9,0 5.8,0.1 8.7,0.1 l 4.4,0.1 h 4.4 c 23.3,-0.1 47,-1.5 70.6,-4 47.4,-4.9 95.2,-13.6 143.6,-17.7 6,-0.6 12.1,-0.8 18.2,-1.2 6.1,-0.1 12.2,-0.4 18.2,-0.3 6.1,-0.1 12.1,0.2 18.2,0.3 6.1,0.3 12.1,0.6 18.1,1 24.2,1.7 48.1,4.9 71.7,8.4 23.6,3.6 47,7.5 70.1,10.7 11.6,1.6 23.1,3 34.6,4.2 11.5,1.1 22.9,2 34.2,2.5 11.3,0.4 22.6,0.6 33.7,0.3 2.8,-0.1 5.6,-0.2 8.3,-0.4 1.4,-0.1 2.8,-0.1 4.1,-0.2 1.4,-0.1 2.8,-0.2 4.1,-0.3 2.7,-0.2 5.5,-0.4 8.2,-0.6 2.7,-0.3 5.4,-0.6 8.2,-0.9 1.4,-0.1 2.7,-0.3 4.1,-0.4 1.3,-0.2 2.7,-0.4 4,-0.6 2.7,-0.4 5.4,-0.7 8,-1.1 5.3,-0.9 10.7,-1.7 15.9,-2.6 10.5,-1.8 20.9,-3.8 31.1,-5.7 20.5,-3.9 40.4,-7.7 59.9,-10.3 19.5,-2.7 38.4,-4.3 56.6,-4.5 2.3,0 4.5,0 6.8,0 2.3,0 4.5,-0.1 6.7,0 4.5,0.1 8.9,0.2 13.2,0.3 4.3,0.2 8.6,0.4 12.9,0.6 4.2,0.3 8.4,0.5 12.6,0.8 16.5,1.2 32.2,2.7 46.9,4.2 29.4,3.1 55,6.2 76.1,8.3 21.1,2.1 37.7,3.4 49.1,4.1 5.7,0.4 10,0.5 13,0.7 2.9,0.1 4.4,0.2 4.4,0.2 0,0 -1.5,-0.1 -4.4,-0.2 -2.9,-0.1 -7.3,-0.2 -13,-0.6 -11.4,-0.6 -28,-1.7 -49.1,-3.7 -21.1,-1.9 -46.7,-4.9 -76.1,-7.7 -14.7,-1.4 -30.4,-2.8 -46.9,-3.9 -16.5,-1 -33.9,-1.9 -52.1,-1.5 -18.1,0.3 -37,2 -56.4,4.7 -19.4,2.7 -39.3,6.6 -59.7,10.6 -10.2,2 -20.6,4 -31.1,5.9 -5.3,1 -10.6,1.8 -15.9,2.7 -2.7,0.4 -5.4,0.8 -8.1,1.2 -1.4,0.2 -2.7,0.4 -4.1,0.6 -1.4,0.2 -2.7,0.3 -4.1,0.5 -2.7,0.3 -5.5,0.6 -8.2,0.9 -2.7,0.2 -5.5,0.4 -8.3,0.7 -1.4,0.1 -2.8,0.2 -4.2,0.3 -1.4,0.1 -2.8,0.1 -4.2,0.2 -2.8,0.1 -5.6,0.3 -8.4,0.4 -11.2,0.3 -22.5,0.2 -33.9,-0.2 -11.4,-0.5 -22.8,-1.3 -34.3,-2.5 -11.5,-1.2 -23.1,-2.6 -34.7,-4.2 -23.2,-3.2 -46.6,-7.1 -70.1,-10.6 -23.6,-3.5 -47.4,-6.7 -71.5,-8.3 -6,-0.5 -12,-0.7 -18.1,-1 -6,-0.1 -12.1,-0.4 -18.1,-0.3 -6,-0.1 -12.1,0.2 -18.1,0.3 -6,0.3 -12,0.6 -18.1,1.2 -24.1,2.1 -48.1,5.2 -72.1,8.4 -23.9,3.3 -47.8,6.6 -71.5,9.1 -23.8,2.5 -47.5,3.8 -70.9,3.9 h -4.4 l -4.4,-0.1 c -2.9,-0.1 -5.8,-0.1 -8.7,-0.2 h -2.2 c -0.4,0 -0.7,0 -1.1,0 l -1.1,-0.1 -4.4,-0.3 c -2.9,-0.2 -5.8,-0.3 -8.7,-0.6 -11.6,-0.9 -22.9,-2.5 -34.2,-4.2 -11.3,-1.8 -22.3,-3.9 -33.3,-6.2 -11,-2.2 -21.8,-4.5 -32.5,-6.6 -10.7,-2.1 -21.3,-4 -31.9,-5.6 -5.3,-0.7 -10.5,-1.5 -15.8,-2 -1.3,-0.1 -2.6,-0.3 -3.9,-0.4 l -1.9,-0.2 -2,-0.1 c -2.6,-0.2 -5.2,-0.4 -7.8,-0.5 -20.8,-1.3 -41,-1 -60.6,0.1 -19.5,1.1 -38.4,3.1 -56.4,5.3 -18,2.2 -35.3,4.7 -51.7,7 -16.4,2.3 -32,4.4 -46.7,6 -29.4,3.4 -55.1,4.9 -76.4,4.8 -21.2,-0.1 -37.9,-1.6 -49.1,-2.9 -5.7,-0.6 -9.9,-1.3 -12.9,-1.8 -2.4,-0.5 -3.9,-0.7 -3.9,-0.7 z" />
		</g>
		<g
   style="opacity:0.4"
   id="g50">
			<path
   style="fill:#ffffff"
   inkscape:connector-curvature="0"
   id="path48"
   d="m 2476.1,587 c 0,0 1.3,-0.1 3.8,-0.3 2.4,-0.2 6,-0.4 10.6,-1 2.3,-0.3 4.8,-0.5 7.5,-0.9 2.7,-0.4 5.7,-0.8 8.8,-1.3 3.1,-0.5 6.5,-1.1 10,-1.7 3.5,-0.7 7.2,-1.4 11.1,-2.1 7.7,-1.6 16,-3.3 24.8,-5.3 8.8,-1.9 18.1,-4 27.8,-5.8 9.7,-1.9 19.7,-3.5 30,-4.6 2.6,-0.3 5.2,-0.5 7.8,-0.8 2.6,-0.2 5.2,-0.3 7.8,-0.5 2.6,-0.2 5.2,-0.2 7.9,-0.3 l 4,-0.1 c 0.7,0 1.3,0 2,0 h 2 c 2.6,0.1 5.2,0.1 7.9,0.2 l 2,0.1 2,0.1 3.9,0.3 c 5.3,0.3 10.4,1 15.6,1.6 10.3,1.5 20.3,3.4 29.9,5.6 9.6,2.2 18.8,4.6 27.5,6.7 4.4,1.1 8.6,2.1 12.7,3 2.1,0.4 4.1,0.9 6.1,1.3 2,0.4 4,0.8 5.9,1.2 3.9,0.7 7.5,1.4 11.1,1.9 3.5,0.5 6.9,1.1 10.1,1.3 1.6,0.2 3.1,0.3 4.6,0.5 1.5,0.1 2.9,0.3 4.3,0.4 2.8,0.1 5.3,0.3 7.6,0.4 2.3,0.2 4.3,0.1 6.1,0.2 1.8,0 3.3,0 4.5,0 2.5,0 3.8,0 3.8,0 0,0 -1.3,0 -3.8,0.1 -1.2,0 -2.7,0.1 -4.5,0.2 -1.8,0.1 -3.8,0.2 -6.1,0.1 -2.3,0 -4.8,-0.1 -7.6,-0.2 -1.4,0 -2.8,-0.1 -4.3,-0.2 -1.5,-0.1 -3,-0.2 -4.6,-0.3 -3.2,-0.2 -6.6,-0.6 -10.1,-1 -3.6,-0.3 -7.3,-1 -11.2,-1.6 -2,-0.3 -3.9,-0.7 -5.9,-1.1 -2,-0.4 -4.1,-0.8 -6.2,-1.2 -4.1,-0.9 -8.5,-1.8 -12.8,-2.8 -8.8,-2 -18,-4.1 -27.6,-6.3 -9.6,-2.1 -19.5,-3.9 -29.7,-5.3 -5.1,-0.6 -10.2,-1.3 -15.4,-1.5 l -3.9,-0.3 -1.9,-0.1 h -2 c -2.6,-0.1 -5.2,-0.1 -7.9,-0.2 l -2,-0.1 c -0.6,0 -1.3,0 -1.9,0 l -3.9,0.1 c -2.6,0.1 -5.2,0.1 -7.8,0.3 -2.6,0.2 -5.2,0.3 -7.8,0.5 -2.6,0.3 -5.1,0.5 -7.7,0.8 -10.2,1.2 -20.2,2.6 -29.9,4.4 -9.6,1.7 -19,3.6 -27.8,5.3 -8.8,1.8 -17.2,3.4 -24.9,4.8 -3.9,0.7 -7.6,1.3 -11.1,1.9 -3.6,0.5 -6.9,1 -10.1,1.4 -3.2,0.4 -6.1,0.7 -8.9,1 -2.8,0.3 -5.3,0.5 -7.6,0.7 -1.1,0.1 -2.2,0.2 -3.2,0.3 -1,0.1 -2,0.1 -2.9,0.1 -1.8,0.1 -3.3,0.1 -4.5,0.2 -2.7,-0.2 -4,-0.1 -4,-0.1 z" />
		</g>
		<g
   style="opacity:0.4"
   id="g54">
			<path
   style="fill:#ffffff"
   inkscape:connector-curvature="0"
   id="path52"
   d="m 3052.7,581.8 c 0,0 1.1,0 3.3,-0.1 2.1,-0.1 5.3,-0.2 9.3,-0.4 4,-0.2 8.8,-0.5 14.4,-0.8 5.5,-0.4 11.8,-0.8 18.6,-1.3 6.8,-0.5 14.2,-1 22,-1.6 7.8,-0.5 16.1,-1.1 24.7,-1.3 8.6,-0.3 17.4,-0.4 26.5,0 1.1,0 2.3,0.1 3.4,0.1 1.1,0.1 2.3,0.1 3.4,0.2 2.3,0.2 4.5,0.2 6.8,0.5 2.3,0.2 4.6,0.4 6.8,0.7 l 6.8,0.7 3.4,0.4 3.4,0.5 c 2.3,0.3 4.5,0.6 6.8,0.9 4.5,0.7 9,1.4 13.4,2.1 8.9,1.5 17.6,3.2 26,4.7 8.4,1.6 16.5,3.1 24.2,4.4 3.9,0.6 7.6,1.3 11.3,1.8 3.6,0.5 7.2,1.1 10.6,1.5 3.4,0.4 6.6,0.8 9.7,1.1 3.1,0.3 6,0.7 8.8,0.8 2.8,0.2 5.4,0.4 7.8,0.5 2.4,0.1 4.6,0.1 6.6,0.2 1,0 1.9,0.1 2.8,0.1 0.9,0 1.7,0 2.5,0 1.5,0 2.9,0 3.9,0 2.1,0 3.3,0 3.3,0 0,0 -1.1,0.1 -3.3,0.2 -1.1,0.1 -2.4,0.1 -3.9,0.2 -0.8,0 -1.6,0.1 -2.5,0.1 -0.9,0 -1.8,0 -2.8,0 -2,0 -4.2,0 -6.6,0.1 -2.4,0 -5,-0.1 -7.8,-0.2 -5.6,-0.2 -11.8,-0.6 -18.7,-1.3 -3.4,-0.3 -7,-0.8 -10.6,-1.2 -3.7,-0.5 -7.4,-1 -11.3,-1.6 -7.8,-1.2 -15.9,-2.5 -24.4,-4 -8.4,-1.5 -17.1,-3 -26,-4.4 -4.4,-0.8 -8.9,-1.4 -13.4,-2.1 -2.2,-0.3 -4.5,-0.6 -6.7,-0.9 l -3.4,-0.4 -3.4,-0.4 -6.8,-0.8 c -2.3,-0.2 -4.5,-0.4 -6.8,-0.7 -2.2,-0.3 -4.5,-0.3 -6.7,-0.5 -1.1,-0.1 -2.2,-0.1 -3.4,-0.2 -1.1,0 -2.2,-0.1 -3.4,-0.1 -4.5,-0.2 -8.9,-0.3 -13.3,-0.3 -4.4,0 -8.7,0 -13,0.1 -17.1,0.3 -33,1.2 -46.7,1.9 -6.8,0.4 -13.1,0.6 -18.7,0.8 -5.6,0.2 -10.4,0.3 -14.4,0.3 -4,0.1 -7.1,0 -9.3,0 -2,-0.3 -3.2,-0.3 -3.2,-0.3 z" />
		</g>
		<g
   style="opacity:0.4"
   id="g58">
			<path
   style="fill:#ffffff"
   inkscape:connector-curvature="0"
   id="path56"
   d="m 3547.6,581.8 c 0,0 1.1,0.1 3.1,0.2 1,0.1 2.2,0.1 3.7,0.2 0.7,0 1.5,0.1 2.4,0.1 0.8,0 1.7,0 2.7,0 1.9,0 4,0.1 6.2,0.1 2.3,-0.1 4.7,-0.1 7.3,-0.2 2.6,0 5.4,-0.3 8.3,-0.4 2.9,-0.1 6,-0.4 9.2,-0.7 6.4,-0.5 13.4,-1.3 20.7,-2.2 7.3,-0.9 15.1,-1.9 23.1,-2.9 8,-1 16.3,-2 24.8,-2.7 8.5,-0.7 17.1,-1.1 25.8,-1.1 2.2,0 4.3,0.1 6.5,0.2 l 3.2,0.1 c 1.1,0.1 2.2,0.2 3.2,0.2 2.1,0.2 4.3,0.3 6.4,0.5 2.1,0.2 4.3,0.4 6.4,0.6 8.5,0.9 16.7,2.1 24.7,3.4 8,1.3 15.7,2.6 22.9,3.8 7.3,1.2 14.2,2.3 20.6,3.2 1.6,0.2 3.2,0.4 4.7,0.6 1.5,0.2 3,0.3 4.5,0.5 2.9,0.4 5.7,0.6 8.3,0.8 2.6,0.3 5.1,0.4 7.3,0.5 2.3,0.2 4.3,0.2 6.2,0.2 1.9,0 3.6,0.1 5,0.1 1.5,0 2.7,0 3.7,-0.1 2,0 3.1,0 3.1,0 0,0 -1.1,0.1 -3.1,0.2 -1,0.1 -2.2,0.2 -3.7,0.2 -1.5,0.1 -3.1,0.1 -5,0.1 -1.9,0 -4,0.1 -6.2,0 -2.3,-0.1 -4.7,0 -7.4,-0.2 -2.6,-0.1 -5.4,-0.3 -8.4,-0.5 -1.5,-0.1 -3,-0.3 -4.5,-0.4 -1.5,-0.2 -3.1,-0.3 -4.7,-0.5 -12.9,-1.4 -27.8,-3.7 -43.7,-6.1 -8,-1.2 -16.2,-2.2 -24.6,-3.1 -2.1,-0.2 -4.2,-0.4 -6.3,-0.6 -2.1,-0.2 -4.3,-0.3 -6.4,-0.5 -1.1,-0.1 -2.2,-0.2 -3.2,-0.2 l -3.2,-0.1 c -2.1,0 -4.3,-0.2 -6.4,-0.2 -8.6,0 -17.1,0.3 -25.5,1 -8.4,0.7 -16.7,1.5 -24.7,2.4 -8,0.9 -15.8,1.7 -23.1,2.5 -7.4,0.7 -14.3,1.3 -20.8,1.7 -6.5,0.4 -12.4,0.6 -17.6,0.5 -2.6,0 -5.1,0 -7.4,-0.1 -2.3,-0.1 -4.4,-0.2 -6.2,-0.3 -0.9,-0.1 -1.8,-0.1 -2.7,-0.1 -0.8,-0.1 -1.6,-0.2 -2.3,-0.2 -1.5,-0.2 -2.7,-0.3 -3.7,-0.4 -2.1,0 -3.2,-0.1 -3.2,-0.1 z" />
		</g>
	</g><g
   id="g670">
			<g
   id="g660">
				<defs
   id="defs655">
					<path
   id="SVGID_2_"
   d="m 3332.3,426.8 c -0.6,4.6 0,48.3 0,48.3 l 16.7,11.1 c 0,0 -9.9,32.2 8.7,47.9 18.6,15.7 52.7,23.6 134.6,28.2 81.9,4.6 263,-8.9 295.8,-22.9 32.9,-13.9 22.3,-47.5 13,-65.4 -17,-32.7 -4.7,-92.2 66.4,-91.7 24,0.2 49.1,12.7 49.1,12.7 0,-1.1 -5.7,-13.9 -25.2,-23.9 -19.5,-10 -49.6,-19.8 -116.6,-1.6 -67,18.2 -96.7,58.6 -158.2,77.9 -38.7,12.2 -106.5,17.4 -139.8,2.3 -12.6,-5.7 -18.3,-61.5 -20.2,-62.4 -33.6,-1.4 -93.4,-1.1 -138,4.1 l 3.1,30.7 c 1.9,0.9 10.6,4.7 10.6,4.7 z"
   inkscape:connector-curvature="0" />
				</defs>
				<clipPath
   id="SVGID_3_">
					<use
   xlink:href="#SVGID_2_"
   overflow="visible"
   id="use657"
   style="overflow:visible"
   x="0"
   y="0"
   width="100%"
   height="100%" />
				</clipPath>
			</g>
			<g
   id="g668">
				<defs
   id="defs663">
					<path
   id="SVGID_4_"
   d="m 3621.9,102 h -70.7 c -4.7,0 -8.9,2.2 -8.5,4.9 l 6.8,54.2 c 0.3,2.7 3.8,4.9 8.5,4.9 h 54.6 c 4.7,0 8.1,-2.2 8.5,-4.9 l 9.3,-54.2 c 0.5,-2.7 -3.8,-4.9 -8.5,-4.9 z"
   inkscape:connector-curvature="0" />
				</defs>
				<clipPath
   id="SVGID_5_">
					<use
   xlink:href="#SVGID_4_"
   overflow="visible"
   id="use665"
   style="overflow:visible"
   x="0"
   y="0"
   width="100%"
   height="100%" />
				</clipPath>
			</g>
		</g><g
   id="g892">
			<g
   id="g882">
				<defs
   id="defs877">
					<path
   id="SVGID_10_"
   d="m 3332.3,426.8 c -0.6,4.6 0,48.3 0,48.3 l 16.7,11.1 c 0,0 -9.9,32.2 8.7,47.9 18.6,15.7 52.7,23.6 134.6,28.2 81.9,4.6 263,-8.9 295.8,-22.9 32.9,-13.9 22.3,-47.5 13,-65.4 -17,-32.7 -4.7,-92.2 66.4,-91.7 24,0.2 49.1,12.7 49.1,12.7 0,-1.1 -5.7,-13.9 -25.2,-23.9 -19.5,-10 -49.6,-19.8 -116.6,-1.6 -67,18.2 -96.7,58.6 -158.2,77.9 -38.7,12.2 -106.5,17.4 -139.8,2.3 -12.6,-5.7 -18.3,-61.5 -20.2,-62.4 -33.6,-1.4 -93.4,-1.1 -138,4.1 l 3.1,30.7 c 1.9,0.9 10.6,4.7 10.6,4.7 z"
   inkscape:connector-curvature="0" />
				</defs>
				<clipPath
   id="SVGID_11_">
					<use
   xlink:href="#SVGID_10_"
   overflow="visible"
   id="use879"
   style="overflow:visible"
   x="0"
   y="0"
   width="100%"
   height="100%" />
				</clipPath>
			</g>
			<g
   id="g890">
				<defs
   id="defs885">
					<path
   id="SVGID_12_"
   d="m 3621.9,102 h -70.7 c -4.7,0 -8.9,2.2 -8.5,4.9 l 6.8,54.2 c 0.3,2.7 3.8,4.9 8.5,4.9 h 54.6 c 4.7,0 8.1,-2.2 8.5,-4.9 l 9.3,-54.2 c 0.5,-2.7 -3.8,-4.9 -8.5,-4.9 z"
   inkscape:connector-curvature="0" />
				</defs>
				<clipPath
   id="SVGID_13_">
					<use
   xlink:href="#SVGID_12_"
   overflow="visible"
   id="use887"
   style="overflow:visible"
   x="0"
   y="0"
   width="100%"
   height="100%" />
				</clipPath>
			</g>
		</g>
</svg>