<?xml version="1.0" encoding="UTF-8" standalone="no"?>
<!-- Generator: Adobe Illustrator 18.0.0, SVG Export Plug-In . SVG Version: 6.00 Build 0)  -->

<svg
   xmlns:dc="http://purl.org/dc/elements/1.1/"
   xmlns:cc="http://creativecommons.org/ns#"
   xmlns:rdf="http://www.w3.org/1999/02/22-rdf-syntax-ns#"
   xmlns:svg="http://www.w3.org/2000/svg"
   xmlns="http://www.w3.org/2000/svg"
   xmlns:xlink="http://www.w3.org/1999/xlink"
   xmlns:sodipodi="http://sodipodi.sourceforge.net/DTD/sodipodi-0.dtd"
   xmlns:inkscape="http://www.inkscape.org/namespaces/inkscape"
   version="1.1"
   x="0px"
   y="0px"
   viewBox="0 0 4114.8 802.3"
   enable-background="new 0 0 4114.8 802.3"
   xml:space="preserve"
   id="svg897"
   sodipodi:docname="bg_front.svg"
   inkscape:version="0.92.3 (2405546, 2018-03-11)"><metadata
   id="metadata903"><rdf:RDF><cc:Work
       rdf:about=""><dc:format>image/svg+xml</dc:format><dc:type
         rdf:resource="http://purl.org/dc/dcmitype/StillImage" /><dc:title></dc:title></cc:Work></rdf:RDF></metadata><defs
   id="defs901">
	
	
	
	
	
	
	
	
	
	
	
	
	
	
	
	
	
	
	
	
	
	
	
	
	

		
		
		
	
			
				
			
				
			
				
			
				
			
			
			
			
			
			
			
			
			
			
			
			
			
			
			
			
			
			
			
			
			
			
			
			
			
			
			
			
			
			
			
			
			
			
			
			
			
			
			
			
			
			
			
			
			
			
			
			
			
			
			
			
			
			
			
			
			
			
			
			
		</defs><sodipodi:namedview
   pagecolor="#ffffff"
   bordercolor="#666666"
   borderopacity="1"
   objecttolerance="10"
   gridtolerance="10"
   guidetolerance="10"
   inkscape:pageopacity="0"
   inkscape:pageshadow="2"
   inkscape:window-width="956"
   inkscape:window-height="1053"
   id="namedview899"
   showgrid="false"
   inkscape:zoom="0.16525713"
   inkscape:cx="2147.3631"
   inkscape:cy="1253.4957"
   inkscape:window-x="960"
   inkscape:window-y="25"
   inkscape:window-maximized="0"
   inkscape:current-layer="svg897" />

<g
   id="g60">
		<g
   style="opacity:0.4"
   id="g46">
			<path
   style="fill:#ffffff"
   inkscape:connector-curvature="0"
   id="path44"
   d="m 2341.1,555.8 c 0,0 1.5,0.2 4.4,0.6 2.9,0.4 7.2,1.1 12.9,1.7 11.3,1.3 27.9,2.7 49.1,2.6 21.2,0 46.9,-1.8 76.2,-5.4 29.3,-3.5 62.2,-9 98.3,-13.6 18.1,-2.3 36.9,-4.3 56.5,-5.5 19.6,-1.1 39.9,-1.5 60.8,-0.3 2.6,0.2 5.2,0.3 7.8,0.5 l 2,0.1 2,0.2 c 1.3,0.1 2.6,0.3 3.9,0.4 5.2,0.5 10.5,1.3 15.9,1.9 10.6,1.5 21.3,3.4 32,5.5 21.5,4.1 43.3,9.1 65.7,12.6 11.2,1.8 22.5,3.3 34,4.2 2.9,0.3 5.7,0.4 8.6,0.6 l 4.3,0.2 1.1,0.1 c 0.3,0 0.7,0 1.1,0 h 2.2 c 2.9,0 5.8,0.1 8.7,0.1 l 4.4,0.1 h 4.4 c 23.3,-0.1 47,-1.5 70.6,-4 47.4,-4.9 95.2,-13.6 143.6,-17.7 6,-0.6 12.1,-0.8 18.2,-1.2 6.1,-0.1 12.2,-0.4 18.2,-0.3 6.1,-0.1 12.1,0.2 18.2,0.3 6.1,0.3 12.1,0.6 18.1,1 24.2,1.7 48.1,4.9 71.7,8.4 23.6,3.6 47,7.5 70.1,10.7 11.6,1.6 23.1,3 34.6,4.2 11.5,1.1 22.9,2 34.2,2.5 11.3,0.4 22.6,0.6 33.7,0.3 2.8,-0.1 5.6,-0.2 8.3,-0.4 1.4,-0.1 2.8,-0.1 4.1,-0.2 1.4,-0.1 2.8,-0.2 4.1,-0.3 2.7,-0.2 5.5,-0.4 8.2,-0.6 2.7,-0.3 5.4,-0.6 8.2,-0.9 1.4,-0.1 2.7,-0.3 4.1,-0.4 1.3,-0.2 2.7,-0.4 4,-0.6 2.7,-0.4 5.4,-0.7 8,-1.1 5.3,-0.9 10.7,-1.7 15.9,-2.6 10.5,-1.8 20.9,-3.8 31.1,-5.7 20.5,-3.9 40.4,-7.7 59.9,-10.3 19.5,-2.7 38.4,-4.3 56.6,-4.5 2.3,0 4.5,0 6.8,0 2.3,0 4.5,-0.1 6.7,0 4.5,0.1 8.9,0.2 13.2,0.3 4.3,0.2 8.6,0.4 12.9,0.6 4.2,0.3 8.4,0.5 12.6,0.8 16.5,1.2 32.2,2.7 46.9,4.2 29.4,3.1 55,6.2 76.1,8.3 21.1,2.1 37.7,3.4 49.1,4.1 5.7,0.4 10,0.5 13,0.7 2.9,0.1 4.4,0.2 4.4,0.2 0,0 -1.5,-0.1 -4.4,-0.2 -2.9,-0.1 -7.3,-0.2 -13,-0.6 -11.4,-0.6 -28,-1.7 -49.1,-3.7 -21.1,-1.9 -46.7,-4.9 -76.1,-7.7 -14.7,-1.4 -30.4,-2.8 -46.9,-3.9 -16.5,-1 -33.9,-1.9 -52.1,-1.5 -18.1,0.3 -37,2 -56.4,4.7 -19.4,2.7 -39.3,6.6 -59.7,10.6 -10.2,2 -20.6,4 -31.1,5.9 -5.3,1 -10.6,1.8 -15.9,2.7 -2.7,0.4 -5.4,0.8 -8.1,1.2 -1.4,0.2 -2.7,0.4 -4.1,0.6 -1.4,0.2 -2.7,0.3 -4.1,0.5 -2.7,0.3 -5.5,0.6 -8.2,0.9 -2.7,0.2 -5.5,0.4 -8.3,0.7 -1.4,0.1 -2.8,0.2 -4.2,0.3 -1.4,0.1 -2.8,0.1 -4.2,0.2 -2.8,0.1 -5.6,0.3 -8.4,0.4 -11.2,0.3 -22.5,0.2 -33.9,-0.2 -11.4,-0.5 -22.8,-1.3 -34.3,-2.5 -11.5,-1.2 -23.1,-2.6 -34.7,-4.2 -23.2,-3.2 -46.6,-7.1 -70.1,-10.6 -23.6,-3.5 -47.4,-6.7 -71.5,-8.3 -6,-0.5 -12,-0.7 -18.1,-1 -6,-0.1 -12.1,-0.4 -18.1,-0.3 -6,-0.1 -12.1,0.2 -18.1,0.3 -6,0.3 -12,0.6 -18.1,1.2 -24.1,2.1 -48.1,5.2 -72.1,8.4 -23.9,3.3 -47.8,6.6 -71.5,9.1 -23.8,2.5 -47.5,3.8 -70.9,3.9 h -4.4 l -4.4,-0.1 c -2.9,-0.1 -5.8,-0.1 -8.7,-0.2 h -2.2 c -0.4,0 -0.7,0 -1.1,0 l -1.1,-0.1 -4.4,-0.3 c -2.9,-0.2 -5.8,-0.3 -8.7,-0.6 -11.6,-0.9 -22.9,-2.5 -34.2,-4.2 -11.3,-1.8 -22.3,-3.9 -33.3,-6.2 -11,-2.2 -21.8,-4.5 -32.5,-6.6 -10.7,-2.1 -21.3,-4 -31.9,-5.6 -5.3,-0.7 -10.5,-1.5 -15.8,-2 -1.3,-0.1 -2.6,-0.3 -3.9,-0.4 l -1.9,-0.2 -2,-0.1 c -2.6,-0.2 -5.2,-0.4 -7.8,-0.5 -20.8,-1.3 -41,-1 -60.6,0.1 -19.5,1.1 -38.4,3.1 -56.4,5.3 -18,2.2 -35.3,4.7 -51.7,7 -16.4,2.3 -32,4.4 -46.7,6 -29.4,3.4 -55.1,4.9 -76.4,4.8 -21.2,-0.1 -37.9,-1.6 -49.1,-2.9 -5.7,-0.6 -9.9,-1.3 -12.9,-1.8 -2.4,-0.5 -3.9,-0.7 -3.9,-0.7 z" />
		</g>
		<g
   style="opacity:0.4"
   id="g50">
			<path
   style="fill:#ffffff"
   inkscape:connector-curvature="0"
   id="path48"
   d="m 2476.1,587 c 0,0 1.3,-0.1 3.8,-0.3 2.4,-0.2 6,-0.4 10.6,-1 2.3,-0.3 4.8,-0.5 7.5,-0.9 2.7,-0.4 5.7,-0.8 8.8,-1.3 3.1,-0.5 6.5,-1.1 10,-1.7 3.5,-0.7 7.2,-1.4 11.1,-2.1 7.7,-1.6 16,-3.3 24.8,-5.3 8.8,-1.9 18.1,-4 27.8,-5.8 9.7,-1.9 19.7,-3.5 30,-4.6 2.6,-0.3 5.2,-0.5 7.8,-0.8 2.6,-0.2 5.2,-0.3 7.8,-0.5 2.6,-0.2 5.2,-0.2 7.9,-0.3 l 4,-0.1 c 0.7,0 1.3,0 2,0 h 2 c 2.6,0.1 5.2,0.1 7.9,0.2 l 2,0.1 2,0.1 3.9,0.3 c 5.3,0.3 10.4,1 15.6,1.6 10.3,1.5 20.3,3.4 29.9,5.6 9.6,2.2 18.8,4.6 27.5,6.7 4.4,1.1 8.6,2.1 12.7,3 2.1,0.4 4.1,0.9 6.1,1.3 2,0.4 4,0.8 5.9,1.2 3.9,0.7 7.5,1.4 11.1,1.9 3.5,0.5 6.9,1.1 10.1,1.3 1.6,0.2 3.1,0.3 4.6,0.5 1.5,0.1 2.9,0.3 4.3,0.4 2.8,0.1 5.3,0.3 7.6,0.4 2.3,0.2 4.3,0.1 6.1,0.2 1.8,0 3.3,0 4.5,0 2.5,0 3.8,0 3.8,0 0,0 -1.3,0 -3.8,0.1 -1.2,0 -2.7,0.1 -4.5,0.2 -1.8,0.1 -3.8,0.2 -6.1,0.1 -2.3,0 -4.8,-0.1 -7.6,-0.2 -1.4,0 -2.8,-0.1 -4.3,-0.2 -1.5,-0.1 -3,-0.2 -4.6,-0.3 -3.2,-0.2 -6.6,-0.6 -10.1,-1 -3.6,-0.3 -7.3,-1 -11.2,-1.6 -2,-0.3 -3.9,-0.7 -5.9,-1.1 -2,-0.4 -4.1,-0.8 -6.2,-1.2 -4.1,-0.9 -8.5,-1.8 -12.8,-2.8 -8.8,-2 -18,-4.1 -27.6,-6.3 -9.6,-2.1 -19.5,-3.9 -29.7,-5.3 -5.1,-0.6 -10.2,-1.3 -15.4,-1.5 l -3.9,-0.3 -1.9,-0.1 h -2 c -2.6,-0.1 -5.2,-0.1 -7.9,-0.2 l -2,-0.1 c -0.6,0 -1.3,0 -1.9,0 l -3.9,0.1 c -2.6,0.1 -5.2,0.1 -7.8,0.3 -2.6,0.2 -5.2,0.3 -7.8,0.5 -2.6,0.3 -5.1,0.5 -7.7,0.8 -10.2,1.2 -20.2,2.6 -29.9,4.4 -9.6,1.7 -19,3.6 -27.8,5.3 -8.8,1.8 -17.2,3.4 -24.9,4.8 -3.9,0.7 -7.6,1.3 -11.1,1.9 -3.6,0.5 -6.9,1 -10.1,1.4 -3.2,0.4 -6.1,0.7 -8.9,1 -2.8,0.3 -5.3,0.5 -7.6,0.7 -1.1,0.1 -2.2,0.2 -3.2,0.3 -1,0.1 -2,0.1 -2.9,0.1 -1.8,0.1 -3.3,0.1 -4.5,0.2 -2.7,-0.2 -4,-0.1 -4,-0.1 z" />
		</g>
		<g
   style="opacity:0.4"
   id="g54">
			<path
   style="fill:#ffffff"
   inkscape:connector-curvature="0"
   id="path52"
   d="m 3052.7,581.8 c 0,0 1.1,0 3.3,-0.1 2.1,-0.1 5.3,-0.2 9.3,-0.4 4,-0.2 8.8,-0.5 14.4,-0.8 5.5,-0.4 11.8,-0.8 18.6,-1.3 6.8,-0.5 14.2,-1 22,-1.6 7.8,-0.5 16.1,-1.1 24.7,-1.3 8.6,-0.3 17.4,-0.4 26.5,0 1.1,0 2.3,0.1 3.4,0.1 1.1,0.1 2.3,0.1 3.4,0.2 2.3,0.2 4.5,0.2 6.8,0.5 2.3,0.2 4.6,0.4 6.8,0.7 l 6.8,0.7 3.4,0.4 3.4,0.5 c 2.3,0.3 4.5,0.6 6.8,0.9 4.5,0.7 9,1.4 13.4,2.1 8.9,1.5 17.6,3.2 26,4.7 8.4,1.6 16.5,3.1 24.2,4.4 3.9,0.6 7.6,1.3 11.3,1.8 3.6,0.5 7.2,1.1 10.6,1.5 3.4,0.4 6.6,0.8 9.7,1.1 3.1,0.3 6,0.7 8.8,0.8 2.8,0.2 5.4,0.4 7.8,0.5 2.4,0.1 4.6,0.1 6.6,0.2 1,0 1.9,0.1 2.8,0.1 0.9,0 1.7,0 2.5,0 1.5,0 2.9,0 3.9,0 2.1,0 3.3,0 3.3,0 0,0 -1.1,0.1 -3.3,0.2 -1.1,0.1 -2.4,0.1 -3.9,0.2 -0.8,0 -1.6,0.1 -2.5,0.1 -0.9,0 -1.8,0 -2.8,0 -2,0 -4.2,0 -6.6,0.1 -2.4,0 -5,-0.1 -7.8,-0.2 -5.6,-0.2 -11.8,-0.6 -18.7,-1.3 -3.4,-0.3 -7,-0.8 -10.6,-1.2 -3.7,-0.5 -7.4,-1 -11.3,-1.6 -7.8,-1.2 -15.9,-2.5 -24.4,-4 -8.4,-1.5 -17.1,-3 -26,-4.4 -4.4,-0.8 -8.9,-1.4 -13.4,-2.1 -2.2,-0.3 -4.5,-0.6 -6.7,-0.9 l -3.4,-0.4 -3.4,-0.4 -6.8,-0.8 c -2.3,-0.2 -4.5,-0.4 -6.8,-0.7 -2.2,-0.3 -4.5,-0.3 -6.7,-0.5 -1.1,-0.1 -2.2,-0.1 -3.4,-0.2 -1.1,0 -2.2,-0.1 -3.4,-0.1 -4.5,-0.2 -8.9,-0.3 -13.3,-0.3 -4.4,0 -8.7,0 -13,0.1 -17.1,0.3 -33,1.2 -46.7,1.9 -6.8,0.4 -13.1,0.6 -18.7,0.8 -5.6,0.2 -10.4,0.3 -14.4,0.3 -4,0.1 -7.1,0 -9.3,0 -2,-0.3 -3.2,-0.3 -3.2,-0.3 z" />
		</g>
		<g
   style="opacity:0.4"
   id="g58">
			<path
   style="fill:#ffffff"
   inkscape:connector-curvature="0"
   id="path56"
   d="m 3547.6,581.8 c 0,0 1.1,0.1 3.1,0.2 1,0.1 2.2,0.1 3.7,0.2 0.7,0 1.5,0.1 2.4,0.1 0.8,0 1.7,0 2.7,0 1.9,0 4,0.1 6.2,0.1 2.3,-0.1 4.7,-0.1 7.3,-0.2 2.6,0 5.4,-0.3 8.3,-0.4 2.9,-0.1 6,-0.4 9.2,-0.7 6.4,-0.5 13.4,-1.3 20.7,-2.2 7.3,-0.9 15.1,-1.9 23.1,-2.9 8,-1 16.3,-2 24.8,-2.7 8.5,-0.7 17.1,-1.1 25.8,-1.1 2.2,0 4.3,0.1 6.5,0.2 l 3.2,0.1 c 1.1,0.1 2.2,0.2 3.2,0.2 2.1,0.2 4.3,0.3 6.4,0.5 2.1,0.2 4.3,0.4 6.4,0.6 8.5,0.9 16.7,2.1 24.7,3.4 8,1.3 15.7,2.6 22.9,3.8 7.3,1.2 14.2,2.3 20.6,3.2 1.6,0.2 3.2,0.4 4.7,0.6 1.5,0.2 3,0.3 4.5,0.5 2.9,0.4 5.7,0.6 8.3,0.8 2.6,0.3 5.1,0.4 7.3,0.5 2.3,0.2 4.3,0.2 6.2,0.2 1.9,0 3.6,0.1 5,0.1 1.5,0 2.7,0 3.7,-0.1 2,0 3.1,0 3.1,0 0,0 -1.1,0.1 -3.1,0.2 -1,0.1 -2.2,0.2 -3.7,0.2 -1.5,0.1 -3.1,0.1 -5,0.1 -1.9,0 -4,0.1 -6.2,0 -2.3,-0.1 -4.7,0 -7.4,-0.2 -2.6,-0.1 -5.4,-0.3 -8.4,-0.5 -1.5,-0.1 -3,-0.3 -4.5,-0.4 -1.5,-0.2 -3.1,-0.3 -4.7,-0.5 -12.9,-1.4 -27.8,-3.7 -43.7,-6.1 -8,-1.2 -16.2,-2.2 -24.6,-3.1 -2.1,-0.2 -4.2,-0.4 -6.3,-0.6 -2.1,-0.2 -4.3,-0.3 -6.4,-0.5 -1.1,-0.1 -2.2,-0.2 -3.2,-0.2 l -3.2,-0.1 c -2.1,0 -4.3,-0.2 -6.4,-0.2 -8.6,0 -17.1,0.3 -25.5,1 -8.4,0.7 -16.7,1.5 -24.7,2.4 -8,0.9 -15.8,1.7 -23.1,2.5 -7.4,0.7 -14.3,1.3 -20.8,1.7 -6.5,0.4 -12.4,0.6 -17.6,0.5 -2.6,0 -5.1,0 -7.4,-0.1 -2.3,-0.1 -4.4,-0.2 -6.2,-0.3 -0.9,-0.1 -1.8,-0.1 -2.7,-0.1 -0.8,-0.1 -1.6,-0.2 -2.3,-0.2 -1.5,-0.2 -2.7,-0.3 -3.7,-0.4 -2.1,0 -3.2,-0.1 -3.2,-0.1 z" />
		</g>
	</g><path
   style="fill:#ffd57e"
   inkscape:connector-curvature="0"
   id="path108"
   d="m 3633.2651,627.04397 c -175.4,4.9 -346.4,22.5 -517.1,40.2 -171.7,17.7 -342.1,31.4 -517.6,39.1 -181.4,7.9 -363.4,12.8 -545.5,15.7 -378.7,5.9 -758.3,5.1 -1137.19995,3.7 -305.6,-1.1 -610.9,-8.7 -916.40000347,-11.7 v 87.1 H 4114.2651 v -179.3 c -160.4,0.1 -320.9,0.8 -481,5.2 z" /><g
   style="opacity:0.8"
   id="g122">
		<path
   style="clip-rule:evenodd;fill:#c377a9;fill-rule:evenodd"
   inkscape:connector-curvature="0"
   id="path110"
   d="m 115.2,736.2 c 8,9.4 16,17.9 27.6,25.5 5.6,3.7 11.9,7.2 18.2,10.6 3.9,2.1 4.6,3.8 -0.1,5.3 -11.4,3.7 -25.5,5 -37.7,-0.6 -5.7,-2.6 -8.9,-5.7 -11.2,-9.1 -5.1,-7.1 -9.1,-14.3 -7.1,-21.9 1,-3.5 6.2,-6.1 10.3,-9.8 z" />
		<path
   style="clip-rule:evenodd;fill:#c377a9;fill-rule:evenodd"
   inkscape:connector-curvature="0"
   id="path112"
   d="m 125.2,732.3 c 3,1.3 5.8,2.6 8.7,3.9 13.2,5.9 26.1,11.8 39.8,17.5 5.4,2.2 12.3,3.8 18.8,5.4 9.2,2.2 10.5,3.5 6.2,7.7 -6.9,6.7 -21.8,8.5 -37,2.6 -4.6,-1.8 -8.3,-4 -11.6,-6.3 -9.5,-6.6 -18,-13.4 -24.3,-20.7 -1.5,-1.7 -2.8,-3.5 -3.6,-5.3 -0.6,-1.6 -0.8,-3.2 3,-4.8 z" />
		<path
   style="clip-rule:evenodd;fill:#c377a9;fill-rule:evenodd"
   inkscape:connector-curvature="0"
   id="path114"
   d="m 132.8,730.3 c 7.1,-3.1 14.8,-4.5 22.7,-5.6 11.5,-1.6 23.4,-2.4 35.4,-1.7 6,0.3 12.1,1 17.6,2.1 11.4,2.1 15.1,9 12.8,13.7 -0.8,1.6 -3.7,2.2 -6.8,2.3 -4.1,0.1 -8.5,0.2 -12.4,-0.2 -20.4,-2.3 -41,-4.4 -60.3,-8.4 -2.6,-0.6 -5.2,-1.3 -9,-2.2 z" />
		<path
   style="clip-rule:evenodd;fill:#c377a9;fill-rule:evenodd"
   inkscape:connector-curvature="0"
   id="path116"
   d="m 105,738.2 c -10.1,9.8 -4.7,19 0.8,28.1 1,1.7 2.4,3.3 3.6,5 2.1,3 -0.8,5.1 -7.8,5.5 -6.3,0.3 -12.5,-0.4 -17.1,-2.3 -9.8,-4 -13.8,-9.1 -12.9,-15.1 0.6,-4 4.8,-7.4 9.1,-10.7 4.6,-3.5 10.5,-6.7 18.3,-9 1.6,-0.4 3.2,-0.8 6,-1.5 z" />
		<path
   style="clip-rule:evenodd;fill:#c377a9;fill-rule:evenodd"
   inkscape:connector-curvature="0"
   id="path118"
   d="m 141.8,735.8 c 11.3,1.6 22.5,3.3 34,4.7 11.5,1.4 23.2,2.6 34.9,3.7 9.4,0.9 13.7,4.3 10.3,8.4 -4.6,5.3 -15.7,6.8 -26.3,4.5 -13.9,-3 -24.3,-7.8 -35.1,-12.4 -6.3,-2.7 -12.4,-5.6 -18.6,-8.3 0.2,-0.2 0.5,-0.4 0.8,-0.6 z" />
		<path
   style="clip-rule:evenodd;fill:#c377a9;fill-rule:evenodd"
   inkscape:connector-curvature="0"
   id="path120"
   d="m 125.2,716.5 c 1.3,3.4 2.9,6.7 3.5,9.9 0.1,0.8 -2.8,2 -4.9,2.6 -6.2,1.8 -12.5,3.6 -19,5.1 -2.2,0.5 -5.4,0.8 -7.7,0.5 -4.4,-0.6 -8.6,-1.6 -14.2,-2.7 3.6,-1.7 6.1,-3.1 9.1,-4.3 6.7,-2.8 13.7,-5.4 20.5,-8.1 3.3,-1.3 7,-2.6 12.7,-3 z" />
	</g><g
   id="g146">
		<path
   style="clip-rule:evenodd;opacity:0.6;fill:#cc9966;fill-rule:evenodd"
   inkscape:connector-curvature="0"
   id="path124"
   d="m 4008.5,766.4 c -27.8,0.3 -43.2,-6.3 -45.7,-12.8 -2.1,-5.5 1.6,-10.7 12.4,-15.2 18.5,-7.8 67.4,-11.8 92,-1.3 3.5,1.5 6,3.4 7.4,5.2 3.6,4.6 4.9,9.3 -1.8,13.8 -9.8,6.7 -26.9,10.1 -51,10.5 -2.2,0 -4.5,0 -6.7,0" />
		<path
   style="clip-rule:evenodd;opacity:0.7;fill:#cc9966;fill-rule:evenodd"
   inkscape:connector-curvature="0"
   id="path126"
   d="m 596.7,759 c -0.9,-8.9 20.8,-13 41.7,-13.2 24.1,-0.2 39.5,4.9 40.1,12.8 0.4,6.7 -17.7,12.5 -39.9,12.5 -25.9,0 -43.2,-4.6 -41.9,-12.1 z" />
		<path
   style="clip-rule:evenodd;opacity:0.7;fill:#cc9966;fill-rule:evenodd"
   inkscape:connector-curvature="0"
   id="path128"
   d="m 3219.3,696.3 c -24.3,-0.1 -45,-5.7 -44.3,-12 0.7,-6.6 18.3,-11.4 40.6,-11.6 26.7,-0.2 47.2,5.5 46,11.8 -1.3,6.8 -18.9,11.9 -42.3,11.8 z" />
		<path
   style="clip-rule:evenodd;opacity:0.8;fill:#cc9966;fill-rule:evenodd"
   inkscape:connector-curvature="0"
   id="path130"
   d="m 1811.1,766.8 c -1.3,0 -2.6,-0.1 -3.9,-0.2 -20,-1.4 -33.3,-5.3 -35.3,-11.5 -0.9,-2.6 0.9,-5 3.5,-7.5 2,-1.8 4,-3.7 8.7,-5.1 12.7,-3.9 27.4,-6.2 46,-5.1 11.9,0.7 21.9,2.3 28.3,5.5 8,3.9 9.9,8.2 8.1,12.7 -2.3,5.6 -13,9.1 -30.2,10.9 -4.5,0.5 -9.7,0.4 -14.5,0.6" />
		<path
   style="clip-rule:evenodd;opacity:0.6;fill:#cc9966;fill-rule:evenodd"
   inkscape:connector-curvature="0"
   id="path132"
   d="m 3337.7,708.9 c 16.6,1.9 23.7,5.9 24.4,11 1.1,7.5 -24.7,11.1 -42,9.8 -18.3,-1.4 -35,-6.7 -30.6,-13.3 2.1,-3.1 6.7,-5.7 16.8,-7 5.6,-0.7 10.1,-0.8 18.5,-0.8 4.9,0 8.7,-0.1 12.9,0.3 z" />
		<path
   style="clip-rule:evenodd;opacity:0.7;fill:#cc9966;fill-rule:evenodd"
   inkscape:connector-curvature="0"
   id="path134"
   d="m 1952.3,757.1 c 7.4,-3.9 22.5,-5.1 36.7,-3.8 22.7,2.1 28.2,9 22.6,14.1 -2.7,2.5 -9.3,4.4 -18.7,5 -6.9,0.4 -13.8,0.4 -20.4,-0.3 -16.5,-1.8 -24,-4.6 -24.6,-9.6 -0.1,-1.7 2,-4.2 4.4,-5.4 z" />
		<path
   style="clip-rule:evenodd;opacity:0.6;fill:#cc9966;fill-rule:evenodd"
   inkscape:connector-curvature="0"
   id="path136"
   d="m 778.3,754.1 c -1.3,0 -2.7,0 -4,0 -14.5,-0.2 -24.7,-2.3 -30.6,-6.3 -4,-2.7 -3.2,-5.5 -1.1,-8.3 0.9,-1.1 2.3,-2.2 4.4,-3.1 14.8,-6.3 44.1,-3.9 55.2,0.8 6.5,2.7 8.7,5.8 7.5,9.1 -1.5,3.9 -10.7,7.8 -27.4,7.7" />
		<path
   style="clip-rule:evenodd;opacity:0.8;fill:#cc9966;fill-rule:evenodd"
   inkscape:connector-curvature="0"
   id="path138"
   d="m 3102.4,735.5 c -13.3,0 -24.2,-3.5 -23.9,-7.5 0.3,-4.8 9.6,-7.8 24,-7.7 12.6,0.1 25.6,2.6 25,7.9 0.8,4.5 -9.6,7.3 -25.1,7.3 z" />
		<path
   style="clip-rule:evenodd;opacity:0.8;fill:#cc9966;fill-rule:evenodd"
   inkscape:connector-curvature="0"
   id="path140"
   d="m 784.2,771.1 c -0.7,-3.7 11.5,-7.2 27.6,-7.1 13.4,0.1 23.9,3 24.4,7 0.4,3.8 -11.9,7.1 -26.6,7.2 -14.1,0.1 -24.6,-3 -25.4,-7.1 z" />
		<path
   style="clip-rule:evenodd;opacity:0.6;fill:#cc9966;fill-rule:evenodd"
   inkscape:connector-curvature="0"
   id="path142"
   d="m 2760.1,762.7 c -0.7,-3.7 11.5,-7.2 27.6,-7.1 13.4,0.1 23.9,3 24.4,7 0.4,3.8 -11.9,7.1 -26.6,7.2 -14,0 -24.5,-3 -25.4,-7.1 z" />
		<path
   style="clip-rule:evenodd;opacity:0.7;fill:#cc9966;fill-rule:evenodd"
   inkscape:connector-curvature="0"
   id="path144"
   d="m 3962.3,645.8 c -0.7,-3.7 11.5,-7.2 27.6,-7.1 13.4,0.1 23.9,3 24.4,7 0.4,3.8 -11.9,7.1 -26.6,7.2 -14.1,0 -24.6,-3 -25.4,-7.1 z" />
	</g><g
   id="g212">
		<g
   id="g156">
			<g
   id="g150">
				<path
   style="fill:#ca9e68"
   inkscape:connector-curvature="0"
   id="path148"
   d="m 3580.1,621.6 c 0.1,0.9 0.2,1.9 0.4,2.8 l 0.3,1.3 c 0.1,0.4 0.2,0.9 0.4,1.3 0.3,0.9 0.5,1.8 0.9,2.6 0.4,0.9 0.7,1.7 1.1,2.5 0.8,1.7 1.7,3.3 2.6,4.9 0.5,0.8 0.9,1.6 1.4,2.4 0.5,0.8 1,1.6 1.5,2.3 l 3,4.7 c 1,1.6 2.1,3.1 3.1,4.7 l 1.5,2.4 1.4,2.4 1.4,2.5 1.2,2.6 -1.9,0.4 c 0,-3.1 0,-6.2 0.1,-9.3 0.1,-3.1 0.2,-6.2 0.3,-9.3 0.2,-3.1 0.4,-6.2 0.7,-9.3 0.2,-1.5 0.4,-3.1 0.6,-4.6 0.2,-1.5 0.5,-3.1 0.7,-4.6 -0.2,3.1 -0.4,6.2 -0.4,9.3 l -0.1,4.6 v 4.6 9.3 l 0.1,9.3 c 0,0.5 -0.4,1 -1,1 -0.4,0 -0.7,-0.2 -0.9,-0.5 v 0 l -1.2,-2.5 -1.3,-2.4 -1.4,-2.4 -1.4,-2.4 -2.9,-4.7 c -1,-1.6 -2,-3.2 -2.9,-4.8 -0.5,-0.8 -0.9,-1.6 -1.4,-2.4 -0.5,-0.8 -0.9,-1.6 -1.3,-2.5 -0.4,-0.8 -0.8,-1.7 -1.2,-2.5 -0.4,-0.8 -0.8,-1.7 -1.1,-2.6 -0.4,-0.9 -0.6,-1.8 -0.9,-2.7 -0.3,-0.9 -0.5,-1.8 -0.7,-2.7 -0.1,-0.5 -0.2,-0.9 -0.2,-1.4 l -0.2,-1.4 c -0.3,-1 -0.3,-2 -0.3,-2.9 z" />
			</g>
			<g
   id="g154">
				<path
   style="fill:#ca9e68"
   inkscape:connector-curvature="0"
   id="path152"
   d="m 3614.2,658.8 c 0,0 -0.1,-0.3 -0.2,-0.9 -0.1,-0.6 -0.2,-1.5 -0.3,-2.5 0,-0.5 0,-1.1 0,-1.7 0,-0.6 0,-1.2 0.1,-1.9 0.1,-1.3 0.4,-2.7 0.8,-4.1 0.2,-0.7 0.4,-1.3 0.7,-2 0.2,-0.6 0.5,-1.3 0.8,-1.9 0.3,-0.6 0.6,-1.2 0.9,-1.7 0.3,-0.5 0.6,-1 0.9,-1.4 0.3,-0.4 0.6,-0.8 0.9,-1.2 0.3,-0.3 0.5,-0.6 0.7,-0.8 0.4,-0.5 0.7,-0.7 0.7,-0.7 0,0 -0.1,0.3 -0.3,0.9 -0.2,0.6 -0.5,1.4 -0.9,2.3 -0.2,0.5 -0.4,1 -0.6,1.5 -0.2,0.5 -0.4,1.1 -0.6,1.7 -0.2,0.6 -0.4,1.2 -0.6,1.8 -0.2,0.6 -0.4,1.3 -0.6,1.9 -0.2,0.6 -0.3,1.3 -0.5,1.9 -0.2,0.6 -0.3,1.3 -0.5,1.9 -0.3,1.2 -0.5,2.4 -0.7,3.4 -0.2,1 -0.4,1.8 -0.5,2.4 -0.1,0.8 -0.2,1.1 -0.2,1.1 z" />
			</g>
		</g>
		<g
   id="g166">
			<g
   id="g160">
				<path
   style="fill:#ca9e68"
   inkscape:connector-curvature="0"
   id="path158"
   d="m 4037.8,677 c 0,0 0.3,1.4 0.6,3.4 0.1,1 0.2,2.2 0.3,3.5 0.1,1.3 0.1,2.6 0.1,4 0,1.4 0,2.7 -0.1,4 -0.1,1.3 -0.2,2.5 -0.3,3.5 -0.2,2 -0.6,3.4 -0.6,3.4 0,0 -0.3,-1.4 -0.6,-3.4 -0.1,-1 -0.2,-2.2 -0.3,-3.5 -0.1,-1.3 -0.1,-2.6 -0.1,-4 0,-1.4 0,-2.7 0.1,-4 0.1,-1.3 0.2,-2.5 0.3,-3.5 0.2,-2.1 0.6,-3.4 0.6,-3.4 z" />
			</g>
			<g
   id="g164">
				<path
   style="fill:#ca9e68"
   inkscape:connector-curvature="0"
   id="path162"
   d="m 4058.5,661.4 c 0,0 -0.2,2.3 -0.8,5.7 -0.3,1.7 -0.6,3.7 -1,5.8 -0.4,2.1 -0.8,4.4 -1.2,6.6 -0.2,1.1 -0.4,2.3 -0.6,3.4 -0.2,1.1 -0.4,2.2 -0.6,3.3 -0.2,1.1 -0.3,2.1 -0.5,3.1 -0.1,1 -0.3,1.9 -0.4,2.7 -0.5,3.4 -0.8,5.7 -0.8,5.7 0,0 -0.1,-0.6 -0.2,-1.6 -0.1,-0.5 -0.1,-1.1 -0.1,-1.8 0,-0.7 -0.1,-1.5 -0.1,-2.4 0,-1.7 0.1,-3.8 0.3,-6 0.1,-1.1 0.2,-2.2 0.4,-3.3 0.2,-1.1 0.4,-2.3 0.6,-3.4 0.2,-1.1 0.5,-2.3 0.7,-3.4 0.2,-1.1 0.5,-2.2 0.8,-3.3 0.5,-2.1 1.1,-4.1 1.6,-5.7 1,-3.2 1.9,-5.4 1.9,-5.4 z" />
			</g>
		</g>
		<g
   id="g180">
			<g
   id="g170">
				<path
   style="fill:#ca9e68"
   inkscape:connector-curvature="0"
   id="path168"
   d="m 3227.6,742.8 c 0,0 0.4,0.3 1.1,0.8 0.3,0.3 0.8,0.6 1.2,1 0.4,0.4 1,0.9 1.5,1.4 0.5,0.5 1.1,1.1 1.6,1.8 0.5,0.7 1.1,1.4 1.6,2.1 0.6,0.8 1.1,1.6 1.6,2.4 0.5,0.9 1,1.7 1.4,2.7 0.8,1.8 1.5,3.7 2,5.5 0.3,0.9 0.4,1.8 0.6,2.6 0.2,0.8 0.3,1.6 0.4,2.4 0.2,1.5 0.3,2.7 0.3,3.6 0,0.9 0,1.4 0,1.4 0,0 -0.2,-0.5 -0.4,-1.3 -0.3,-0.8 -0.6,-2 -1,-3.4 -0.2,-0.7 -0.5,-1.4 -0.7,-2.2 -0.3,-0.8 -0.5,-1.6 -0.9,-2.5 -0.3,-0.9 -0.7,-1.7 -1,-2.6 -0.4,-0.9 -0.7,-1.8 -1.2,-2.6 -0.4,-0.9 -0.8,-1.7 -1.2,-2.6 -0.5,-0.8 -0.9,-1.7 -1.4,-2.4 -0.5,-0.8 -0.9,-1.5 -1.4,-2.2 -0.4,-0.7 -0.9,-1.3 -1.3,-1.9 -0.4,-0.6 -0.8,-1.1 -1.2,-1.6 -0.3,-0.5 -0.7,-0.9 -0.9,-1.2 -0.4,-0.8 -0.7,-1.2 -0.7,-1.2 z" />
			</g>
			<g
   id="g174">
				<path
   style="fill:#ca9e68"
   inkscape:connector-curvature="0"
   id="path172"
   d="m 3248.3,750.6 c 0.4,0.8 0.8,1.5 1.1,2.4 0.3,0.8 0.7,1.6 0.9,2.5 0.6,1.7 1,3.3 1.5,5 0.5,1.7 0.9,3.4 1.4,5 0.3,0.8 0.5,1.6 0.8,2.4 0.3,0.8 0.7,1.5 1,2.3 l -1.7,-0.1 1,-1.9 0.9,-1.9 0.8,-2 0.7,-2 0.6,-2.1 0.6,-2.1 0.5,-2.1 0.5,-2.1 0.9,-4.3 c 0.3,-1.4 0.6,-2.9 0.9,-4.3 0.3,-1.4 0.7,-2.9 1.1,-4.3 l 0.6,-2.1 0.7,-2.1 c -0.2,1.4 -0.5,2.9 -0.7,4.3 l -0.6,4.3 c -0.4,2.9 -0.7,5.8 -1.2,8.7 -0.3,1.4 -0.5,2.9 -0.9,4.3 l -0.5,2.2 -0.6,2.1 c -0.2,0.7 -0.5,1.4 -0.7,2.1 l -0.8,2.1 -1,2 -1.1,2 v 0 c -0.2,0.4 -0.8,0.6 -1.3,0.4 -0.2,-0.1 -0.3,-0.3 -0.4,-0.4 -0.4,-0.8 -0.7,-1.7 -1,-2.5 -0.3,-0.8 -0.5,-1.7 -0.8,-2.6 -0.4,-1.7 -0.8,-3.4 -1.1,-5.1 -0.3,-1.7 -0.6,-3.4 -0.9,-5.1 -0.2,-0.8 -0.4,-1.7 -0.6,-2.5 -0.1,-0.9 -0.3,-1.7 -0.6,-2.5 z" />
			</g>
			<g
   id="g178">
				<path
   style="fill:#ca9e68"
   inkscape:connector-curvature="0"
   id="path176"
   d="m 3279.4,756.6 c 0,0 0.1,0.2 0.2,0.7 0.1,0.4 0.2,1 0.3,1.7 0.1,0.7 0.1,1.6 0,2.5 -0.1,0.9 -0.2,1.9 -0.4,2.8 -0.1,0.5 -0.2,0.9 -0.4,1.4 -0.1,0.5 -0.3,0.9 -0.4,1.3 -0.3,0.8 -0.6,1.6 -1,2.2 -0.6,1.3 -1.2,2.1 -1.2,2.1 0,0 -0.1,-1 0.1,-2.4 0.1,-0.7 0.2,-1.5 0.4,-2.4 0.2,-0.9 0.4,-1.8 0.6,-2.7 0.2,-0.9 0.4,-1.8 0.7,-2.6 0.2,-0.8 0.4,-1.6 0.6,-2.3 0.2,-0.7 0.3,-1.2 0.5,-1.7 0,-0.3 0,-0.6 0,-0.6 z" />
			</g>
		</g>
		<g
   id="g190">
			<g
   id="g184">
				<path
   style="fill:#ca9e68"
   inkscape:connector-curvature="0"
   id="path182"
   d="m 2775.9,741 c 1,3.4 1.9,6.8 2.8,10.3 0.5,1.7 0.9,3.4 1.3,5.2 0.4,1.7 0.8,3.4 1.2,5.2 l -1.6,-0.4 1.6,-2 1.5,-2 1.4,-2.1 1.4,-2.1 c 0.9,-1.4 1.8,-2.8 2.6,-4.3 0.8,-1.5 1.7,-2.9 2.5,-4.4 0.8,-1.5 1.6,-3 2.3,-4.5 0.8,-1.5 1.5,-3 2.2,-4.5 l 4.4,-9.1 c -1,3.2 -2.1,6.4 -3.3,9.6 -0.6,1.6 -1.3,3.2 -1.9,4.7 -0.7,1.6 -1.4,3.1 -2.1,4.6 -0.8,1.5 -1.5,3 -2.4,4.5 -0.8,1.5 -1.7,3 -2.6,4.4 -0.9,1.4 -1.9,2.8 -2.9,4.2 l -1.6,2 -1.7,2 v 0 c -0.3,0.4 -0.9,0.4 -1.3,0.1 -0.2,-0.1 -0.3,-0.3 -0.3,-0.5 -0.3,-1.7 -0.7,-3.5 -1,-5.2 -0.3,-1.7 -0.6,-3.5 -0.9,-5.2 -0.6,-3.4 -1.2,-6.9 -1.6,-10.5 z" />
			</g>
			<g
   id="g188">
				<path
   style="fill:#ca9e68"
   inkscape:connector-curvature="0"
   id="path186"
   d="m 2805.5,746.2 c 0,0 0.1,0.3 0.2,0.7 0.1,0.4 0.2,1.1 0.2,1.9 0,0.4 0,0.8 -0.1,1.3 -0.1,0.4 -0.1,0.9 -0.2,1.4 -0.2,1 -0.5,2 -0.9,2.9 -0.4,1 -0.8,1.9 -1.2,2.7 -0.4,0.9 -0.8,1.7 -1.1,2.3 -0.3,0.7 -0.7,1.2 -0.9,1.6 -0.2,0.4 -0.4,0.6 -0.4,0.6 0,0 0,-0.3 0,-0.7 0,-0.5 0,-1.1 0.2,-1.9 0.1,-0.8 0.3,-1.7 0.6,-2.6 0.3,-0.9 0.6,-1.9 1,-2.8 0.2,-0.5 0.4,-0.9 0.5,-1.4 0.2,-0.5 0.4,-0.9 0.5,-1.3 0.3,-0.9 0.6,-1.7 0.9,-2.4 0.2,-0.7 0.4,-1.3 0.6,-1.7 0,-0.3 0.1,-0.6 0.1,-0.6 z" />
			</g>
		</g>
		<g
   id="g200">
			<g
   id="g194">
				<path
   style="fill:#ca9e68"
   inkscape:connector-curvature="0"
   id="path192"
   d="m 1788,751.4 c 1.7,3.3 3.4,6.7 5.2,10 0.9,1.6 1.8,3.3 2.8,4.8 0.5,0.8 1,1.6 1.5,2.3 0.5,0.8 1.1,1.5 1.6,2.2 l -1.7,0.5 c 0,-0.9 0,-1.7 0,-2.6 l 0.2,-2.6 c 0.2,-1.7 0.4,-3.4 0.7,-5.1 0.3,-1.7 0.7,-3.4 1.1,-5 0.4,-1.7 0.9,-3.3 1.4,-5 0.5,-1.6 1,-3.3 1.5,-4.9 0.5,-1.6 1.1,-3.2 1.6,-4.9 l 1.6,-4.8 1.6,-4.9 c -0.3,1.7 -0.6,3.4 -0.9,5 -0.4,1.7 -0.7,3.3 -1.2,5 -0.8,3.3 -1.7,6.6 -2.6,9.9 -0.4,1.6 -0.8,3.3 -1.2,4.9 -0.4,1.6 -0.7,3.3 -1,5 l -0.4,2.5 c -0.1,0.8 -0.2,1.7 -0.3,2.5 l -0.2,2.5 -0.1,2.5 v 0.1 c 0,0.5 -0.5,0.9 -1,0.9 -0.3,0 -0.6,-0.2 -0.7,-0.4 -0.5,-0.8 -1.1,-1.6 -1.6,-2.4 -0.5,-0.8 -1,-1.6 -1.4,-2.5 -0.9,-1.7 -1.8,-3.4 -2.5,-5.1 -1.5,-3.3 -2.8,-6.8 -4,-10.4 z" />
			</g>
			<g
   id="g198">
				<path
   style="fill:#ca9e68"
   inkscape:connector-curvature="0"
   id="path196"
   d="m 1819.1,752.3 c 0,0 0,0.3 0,0.9 0,0.3 0,0.7 -0.1,1.1 -0.1,0.4 -0.1,0.9 -0.3,1.4 -0.2,1 -0.7,2.1 -1.1,3.3 -0.3,0.6 -0.5,1.2 -0.8,1.8 -0.3,0.6 -0.6,1.2 -0.9,1.8 -0.3,0.6 -0.6,1.2 -0.9,1.7 -0.3,0.6 -0.6,1.1 -0.9,1.7 -0.5,1.1 -1,2.1 -1.4,3 -0.2,0.5 -0.3,0.9 -0.4,1.3 -0.1,0.4 -0.2,0.7 -0.3,1 -0.1,0.6 -0.2,0.9 -0.2,0.9 0,0 -0.1,-0.3 -0.2,-0.9 -0.1,-0.3 -0.1,-0.7 -0.1,-1.1 0,-0.4 0,-0.9 0.1,-1.4 0,-0.5 0.2,-1.1 0.3,-1.7 0.1,-0.6 0.3,-1.2 0.5,-1.8 0.2,-0.6 0.4,-1.2 0.7,-1.8 0.3,-0.6 0.6,-1.2 0.9,-1.8 0.6,-1.2 1.3,-2.4 1.9,-3.4 0.3,-0.5 0.6,-1.1 0.9,-1.5 0.3,-0.5 0.5,-1 0.8,-1.4 0.5,-0.9 0.8,-1.6 1.1,-2.1 0.2,-0.7 0.4,-1 0.4,-1 z" />
			</g>
		</g>
		<g
   id="g210">
			<g
   id="g204">
				<path
   style="fill:#ca9e68"
   inkscape:connector-curvature="0"
   id="path202"
   d="m 1281.4,706.9 1.5,5.1 c 0.5,1.7 1.1,3.4 1.7,5 0.3,0.8 0.6,1.6 1,2.4 0.4,0.8 0.7,1.6 1.1,2.3 0.4,0.8 0.8,1.5 1.3,2.2 0.5,0.7 1,1.4 1.5,2.1 l -1.6,0.2 0.7,-2 0.6,-2.1 0.5,-2.1 0.5,-2.1 c 0.3,-1.4 0.6,-2.9 0.8,-4.3 l 0.9,-4.4 0.5,-2.2 0.6,-2.2 0.7,-2.2 0.8,-2.1 c 0.3,-0.7 0.6,-1.4 0.9,-2.1 l 1.1,-2 1.2,-1.9 1.4,-1.7 -1.1,1.9 -1,2 -0.8,2 -0.7,2.1 -0.6,2.1 -0.5,2.1 c -0.3,1.4 -0.5,2.9 -0.8,4.3 l -0.7,4.4 c -0.2,1.5 -0.5,2.9 -0.8,4.4 l -0.5,2.2 -0.6,2.2 -0.7,2.2 -0.8,2.1 v 0 c -0.2,0.5 -0.7,0.7 -1.2,0.5 -0.2,-0.1 -0.3,-0.2 -0.4,-0.3 -0.5,-0.8 -1,-1.5 -1.5,-2.3 -0.5,-0.8 -0.9,-1.6 -1.3,-2.4 -0.8,-1.7 -1.4,-3.4 -1.9,-5.1 -0.8,-3.2 -1.3,-6.7 -1.8,-10.3 z" />
			</g>
			<g
   id="g208">
				<path
   style="fill:#ca9e68"
   inkscape:connector-curvature="0"
   id="path206"
   d="m 1309.6,707.3 c 0,0 0.1,0.3 0.2,0.9 0.1,0.5 0.2,1.4 0.2,2.3 0,0.5 0,1 -0.1,1.6 -0.1,0.5 -0.1,1.1 -0.2,1.7 -0.2,1.2 -0.4,2.4 -0.7,3.7 -0.3,1.2 -0.6,2.4 -0.9,3.6 -0.3,1.1 -0.6,2.2 -0.8,3.1 -0.2,0.9 -0.4,1.7 -0.5,2.2 -0.1,0.5 -0.2,0.9 -0.2,0.9 0,0 -0.1,-0.3 -0.2,-0.9 -0.1,-0.3 -0.1,-0.6 -0.1,-1 0,-0.4 -0.1,-0.8 -0.1,-1.3 0,-1 0,-2.1 0.2,-3.3 0.1,-0.6 0.1,-1.2 0.3,-1.8 0.1,-0.6 0.2,-1.2 0.4,-1.9 0.3,-1.2 0.6,-2.4 0.9,-3.6 0.3,-1.1 0.6,-2.2 0.8,-3.1 0.2,-0.9 0.4,-1.7 0.6,-2.2 0.1,-0.6 0.2,-0.9 0.2,-0.9 z" />
			</g>
		</g>
	</g><g
   id="g670">
			<g
   id="g660">
				<defs
   id="defs655">
					<path
   id="SVGID_2_"
   d="m 3332.3,426.8 c -0.6,4.6 0,48.3 0,48.3 l 16.7,11.1 c 0,0 -9.9,32.2 8.7,47.9 18.6,15.7 52.7,23.6 134.6,28.2 81.9,4.6 263,-8.9 295.8,-22.9 32.9,-13.9 22.3,-47.5 13,-65.4 -17,-32.7 -4.7,-92.2 66.4,-91.7 24,0.2 49.1,12.7 49.1,12.7 0,-1.1 -5.7,-13.9 -25.2,-23.9 -19.5,-10 -49.6,-19.8 -116.6,-1.6 -67,18.2 -96.7,58.6 -158.2,77.9 -38.7,12.2 -106.5,17.4 -139.8,2.3 -12.6,-5.7 -18.3,-61.5 -20.2,-62.4 -33.6,-1.4 -93.4,-1.1 -138,4.1 l 3.1,30.7 c 1.9,0.9 10.6,4.7 10.6,4.7 z"
   inkscape:connector-curvature="0" />
				</defs>
				<clipPath
   id="SVGID_3_">
					<use
   xlink:href="#SVGID_2_"
   overflow="visible"
   id="use657"
   style="overflow:visible"
   x="0"
   y="0"
   width="100%"
   height="100%" />
				</clipPath>
			</g>
			<g
   id="g668">
				<defs
   id="defs663">
					<path
   id="SVGID_4_"
   d="m 3621.9,102 h -70.7 c -4.7,0 -8.9,2.2 -8.5,4.9 l 6.8,54.2 c 0.3,2.7 3.8,4.9 8.5,4.9 h 54.6 c 4.7,0 8.1,-2.2 8.5,-4.9 l 9.3,-54.2 c 0.5,-2.7 -3.8,-4.9 -8.5,-4.9 z"
   inkscape:connector-curvature="0" />
				</defs>
				<clipPath
   id="SVGID_5_">
					<use
   xlink:href="#SVGID_4_"
   overflow="visible"
   id="use665"
   style="overflow:visible"
   x="0"
   y="0"
   width="100%"
   height="100%" />
				</clipPath>
			</g>
		</g><g
   id="g892">
			<g
   id="g882">
				<defs
   id="defs877">
					<path
   id="SVGID_10_"
   d="m 3332.3,426.8 c -0.6,4.6 0,48.3 0,48.3 l 16.7,11.1 c 0,0 -9.9,32.2 8.7,47.9 18.6,15.7 52.7,23.6 134.6,28.2 81.9,4.6 263,-8.9 295.8,-22.9 32.9,-13.9 22.3,-47.5 13,-65.4 -17,-32.7 -4.7,-92.2 66.4,-91.7 24,0.2 49.1,12.7 49.1,12.7 0,-1.1 -5.7,-13.9 -25.2,-23.9 -19.5,-10 -49.6,-19.8 -116.6,-1.6 -67,18.2 -96.7,58.6 -158.2,77.9 -38.7,12.2 -106.5,17.4 -139.8,2.3 -12.6,-5.7 -18.3,-61.5 -20.2,-62.4 -33.6,-1.4 -93.4,-1.1 -138,4.1 l 3.1,30.7 c 1.9,0.9 10.6,4.7 10.6,4.7 z"
   inkscape:connector-curvature="0" />
				</defs>
				<clipPath
   id="SVGID_11_">
					<use
   xlink:href="#SVGID_10_"
   overflow="visible"
   id="use879"
   style="overflow:visible"
   x="0"
   y="0"
   width="100%"
   height="100%" />
				</clipPath>
			</g>
			<g
   id="g890">
				<defs
   id="defs885">
					<path
   id="SVGID_12_"
   d="m 3621.9,102 h -70.7 c -4.7,0 -8.9,2.2 -8.5,4.9 l 6.8,54.2 c 0.3,2.7 3.8,4.9 8.5,4.9 h 54.6 c 4.7,0 8.1,-2.2 8.5,-4.9 l 9.3,-54.2 c 0.5,-2.7 -3.8,-4.9 -8.5,-4.9 z"
   inkscape:connector-curvature="0" />
				</defs>
				<clipPath
   id="SVGID_13_">
					<use
   xlink:href="#SVGID_12_"
   overflow="visible"
   id="use887"
   style="overflow:visible"
   x="0"
   y="0"
   width="100%"
   height="100%" />
				</clipPath>
			</g>
		</g>
</svg>