<?xml version="1.0" encoding="UTF-8" standalone="no"?>
<!-- Generator: Adobe Illustrator 18.0.0, SVG Export Plug-In . SVG Version: 6.00 Build 0)  -->

<svg
   xmlns:dc="http://purl.org/dc/elements/1.1/"
   xmlns:cc="http://creativecommons.org/ns#"
   xmlns:rdf="http://www.w3.org/1999/02/22-rdf-syntax-ns#"
   xmlns:svg="http://www.w3.org/2000/svg"
   xmlns="http://www.w3.org/2000/svg"
   xmlns:sodipodi="http://sodipodi.sourceforge.net/DTD/sodipodi-0.dtd"
   xmlns:inkscape="http://www.inkscape.org/namespaces/inkscape"
   version="1.1"
   x="0px"
   y="0px"
   viewBox="0 0 170.4 262"
   enable-background="new 0 0 170.4 262"
   xml:space="preserve"
   id="svg2"
   inkscape:version="0.91 r13725"
   sodipodi:docname="character_left.svg"><metadata
     id="metadata401"><rdf:RDF><cc:Work
         rdf:about=""><dc:format>image/svg+xml</dc:format><dc:type
           rdf:resource="http://purl.org/dc/dcmitype/StillImage" /></cc:Work></rdf:RDF></metadata><defs
     id="defs399" /><sodipodi:namedview
     pagecolor="#ffffff"
     bordercolor="#666666"
     borderopacity="1"
     objecttolerance="10"
     gridtolerance="10"
     guidetolerance="10"
     inkscape:pageopacity="0"
     inkscape:pageshadow="2"
     inkscape:window-width="640"
     inkscape:window-height="480"
     id="namedview397"
     showgrid="false"
     inkscape:zoom="0.90076336"
     inkscape:cx="85.199997"
     inkscape:cy="131"
     inkscape:window-x="0"
     inkscape:window-y="27"
     inkscape:window-maximized="0"
     inkscape:current-layer="svg2" /><g
     id="Réteg_3"
     transform="matrix(-1,0,0,1,165.4,0)" /><g
     id="Réteg_6"
     transform="matrix(-1,0,0,1,165.4,0)" /><g
     id="Réteg_7"
     transform="matrix(-1,0,0,1,165.4,0)" /><g
     id="Réteg_5"
     transform="matrix(-1,0,0,1,165.4,0)" /><g
     id="Réteg_2"
     transform="matrix(-1,0,0,1,165.4,0)"><g
       id="g9"><rect
         x="29.9"
         y="84.900002"
         width="4.5"
         height="22.9"
         id="rect11"
         style="fill:#bfa7c1" /><rect
         x="34.400002"
         y="76.099998"
         width="4.6999998"
         height="8.8000002"
         id="rect13"
         style="fill:#bfa7c1" /><rect
         x="39.099998"
         y="61.700001"
         width="4.4000001"
         height="14.3"
         id="rect15"
         style="fill:#bfa7c1" /><rect
         x="43.5"
         y="47.799999"
         width="9.3999996"
         height="13.9"
         id="rect17"
         style="fill:#bfa7c1" /><rect
         x="84.900002"
         y="52.200001"
         width="5.1999998"
         height="10.5"
         id="rect19"
         style="fill:#bfa7c1" /><rect
         x="90.099998"
         y="61.700001"
         width="4"
         height="23.200001"
         id="rect21"
         style="fill:#bfa7c1" /><rect
         x="70.800003"
         y="75.199997"
         width="6.5999999"
         height="9.6999998"
         id="rect23"
         style="fill:#bfa7c1" /><rect
         x="61.599998"
         y="76.099998"
         width="10.2"
         height="4.4000001"
         id="rect25"
         style="fill:#bfa7c1" /><rect
         x="52.799999"
         y="78.900002"
         width="10.3"
         height="15.7"
         id="rect27"
         style="fill:#d7c1d8" /><rect
         x="52.599998"
         y="43.900002"
         width="18.200001"
         height="36.5"
         id="rect29"
         style="fill:#d7c1d8" /><rect
         x="67.900002"
         y="47.799999"
         width="17"
         height="27.9"
         id="rect31"
         style="fill:#d7c1d8" /><rect
         x="84.900002"
         y="62.799999"
         width="5.1999998"
         height="31.6"
         id="rect33"
         style="fill:#d7c1d8" /><rect
         x="76.400002"
         y="75.699997"
         width="8.5"
         height="13.4"
         id="rect35"
         style="fill:#d7c1d8" /><rect
         x="42.900002"
         y="61.700001"
         width="10"
         height="46"
         id="rect37"
         style="fill:#d7c1d8" /><rect
         x="38.400002"
         y="76.099998"
         width="10"
         height="36.700001"
         id="rect39"
         style="fill:#d7c1d8" /><rect
         x="34.400002"
         y="84.900002"
         width="4.6999998"
         height="27.799999"
         id="rect41"
         style="fill:#d7c1d8" /><rect
         x="103.3"
         y="98.5"
         width="27.799999"
         height="4.6999998"
         id="rect43"
         style="fill:#8f2549" /><rect
         x="89.300003"
         y="103.2"
         width="14.1"
         height="4.5"
         id="rect45"
         style="fill:#8f2549" /><rect
         x="84.900002"
         y="98.5"
         width="4.4000001"
         height="4.6999998"
         id="rect47"
         style="fill:#8f2549" /><rect
         x="74.800003"
         y="94.400002"
         width="10.1"
         height="4.0999999"
         id="rect49"
         style="fill:#8f2549" /><rect
         x="69.599998"
         y="87.900002"
         width="5.9000001"
         height="6.4000001"
         id="rect51"
         style="fill:#8f2549" /><rect
         x="66.800003"
         y="84.900002"
         width="4"
         height="4.6999998"
         id="rect53"
         style="fill:#8f2549" /><rect
         x="63"
         y="80.5"
         width="3.8"
         height="4.8000002"
         id="rect55"
         style="fill:#8f2549" /><rect
         x="131.2"
         y="102.2"
         width="5.5"
         height="24.6"
         id="rect57"
         style="fill:#8f2549" /><rect
         x="126.1"
         y="126"
         width="5.0999999"
         height="5"
         id="rect59"
         style="fill:#8f2549" /><rect
         x="112.4"
         y="131.10001"
         width="13.6"
         height="4.4000001"
         id="rect61"
         style="fill:#8f2549" /><rect
         x="42.799999"
         y="112.7"
         width="5.5999999"
         height="22.6"
         id="rect63"
         style="fill:#8f2549" /><rect
         x="48.799999"
         y="135.3"
         width="4.0999999"
         height="4.0999999"
         id="rect65"
         style="fill:#8f2549" /><rect
         x="52.799999"
         y="138.10001"
         width="10"
         height="6.6999998"
         id="rect67"
         style="fill:#8f2549" /><rect
         x="117.3"
         y="149.2"
         width="4.8000002"
         height="13.6"
         id="rect69"
         style="fill:#272727" /><rect
         x="108"
         y="130.7"
         width="4.4000001"
         height="9.3000002"
         id="rect71"
         style="fill:#272727" /><rect
         x="108"
         y="116.6"
         width="4.4000001"
         height="10.2"
         id="rect73"
         style="fill:#272727" /><rect
         x="103.9"
         y="111.6"
         width="4.0999999"
         height="5.1999998"
         id="rect75"
         style="fill:#272727" /><rect
         x="70.800003"
         y="112.7"
         width="14.1"
         height="4.5999999"
         id="rect77"
         style="fill:#272727" /><rect
         x="70.800003"
         y="117.3"
         width="9.8999996"
         height="3.7"
         id="rect79"
         style="fill:#272727" /><rect
         x="67.900002"
         y="121"
         width="7.0999999"
         height="14.3"
         id="rect81"
         style="fill:#272727" /><rect
         x="56.799999"
         y="149.2"
         width="4.8000002"
         height="13.2"
         id="rect83"
         style="fill:#272727" /><rect
         x="61.700001"
         y="162.89999"
         width="13.3"
         height="4.0999999"
         id="rect85"
         style="fill:#272727" /><rect
         x="75.800003"
         y="154.3"
         width="5"
         height="8.6000004"
         id="rect87"
         style="fill:#272727" /><rect
         x="70.800003"
         y="145.3"
         width="4.1999998"
         height="8.8999996"
         id="rect89"
         style="fill:#272727" /><rect
         x="62.799999"
         y="138.10001"
         width="5.0999999"
         height="7.1999998"
         id="rect91"
         style="fill:#272727" /><rect
         x="103.3"
         y="149.2"
         width="14.5"
         height="5"
         id="rect93"
         style="fill:#272727" /><rect
         x="103.3"
         y="154.3"
         width="5.4000001"
         height="3.7"
         id="rect95"
         style="fill:#272727" /><rect
         x="108.8"
         y="154.3"
         width="9.1000004"
         height="8.6000004"
         id="rect97"
         style="fill:#5d504d" /><rect
         x="112.4"
         y="139.5"
         width="5.4000001"
         height="4.8000002"
         id="rect99"
         style="fill:#5d504d" /><rect
         x="67.900002"
         y="135.3"
         width="2.9000001"
         height="27.6"
         id="rect101"
         style="fill:#5d504d" /><rect
         x="70.800003"
         y="154.3"
         width="5"
         height="8.6000004"
         id="rect103"
         style="fill:#5d504d" /><rect
         x="61.200001"
         y="144.8"
         width="6.5999999"
         height="18.1"
         id="rect105"
         style="fill:#5d504d" /><rect
         x="84.900002"
         y="144.8"
         width="14.2"
         height="4.3000002"
         id="rect107"
         style="fill:#5a3e32" /><rect
         x="80.699997"
         y="140"
         width="4.0999999"
         height="5.3000002"
         id="rect109"
         style="fill:#5a3e32" /><rect
         x="103.9"
         y="116.6"
         width="4.0999999"
         height="10.2"
         id="rect111"
         style="fill:#be805f" /><rect
         x="108"
         y="140"
         width="4.4000001"
         height="9.5"
         id="rect113"
         style="fill:#be805f" /><rect
         x="70.800003"
         y="134.5"
         width="5"
         height="11.8"
         id="rect115"
         style="fill:#be805f" /><rect
         x="84.900002"
         y="111.6"
         width="19"
         height="9.3000002"
         id="rect117"
         style="fill:#fdaa7e" /><rect
         x="89.300003"
         y="121"
         width="14.6"
         height="5.8000002"
         id="rect119"
         style="fill:#fdaa7e" /><rect
         x="80.699997"
         y="116.8"
         width="4.0999999"
         height="4.1999998"
         id="rect121"
         style="fill:#fdaa7e" /><rect
         x="94"
         y="126.8"
         width="5"
         height="4.3000002"
         id="rect123"
         style="fill:#fdaa7e" /><rect
         x="89.300003"
         y="131.10001"
         width="14.1"
         height="4.3000002"
         id="rect125"
         style="fill:#fdaa7e" /><rect
         x="74"
         y="120.3"
         width="6.9000001"
         height="26.1"
         id="rect127"
         style="fill:#fdaa7e" /><rect
         x="80.699997"
         y="131.10001"
         width="4.0999999"
         height="8.8999996"
         id="rect129"
         style="fill:#fdaa7e" /><rect
         x="84.900002"
         y="135.3"
         width="4.4000001"
         height="9.5"
         id="rect131"
         style="fill:#fdaa7e" /><rect
         x="103.3"
         y="135.3"
         width="4.6999998"
         height="14"
         id="rect133"
         style="fill:#fdaa7e" /><rect
         x="99.099998"
         y="131.10001"
         width="4.3000002"
         height="18"
         id="rect135"
         style="fill:#fdaa7e" /><rect
         x="89.199997"
         y="134.39999"
         width="9.8999996"
         height="10.4"
         id="rect137"
         style="fill:#fdaa7e" /><rect
         x="103.3"
         y="157.89999"
         width="5.4000001"
         height="9.8000002"
         id="rect139"
         style="fill:#b57959" /><rect
         x="85"
         y="162.5"
         width="18.299999"
         height="5.4000001"
         id="rect141"
         style="fill:#b57959" /><rect
         x="80.699997"
         y="154.3"
         width="4.3000002"
         height="8.6000004"
         id="rect143"
         style="fill:#b57959" /><rect
         x="84.400002"
         y="149"
         width="18.9"
         height="13.5"
         id="rect145"
         style="fill:#b98e76" /><rect
         x="75"
         y="145.3"
         width="9.8999996"
         height="8.8999996"
         id="rect147"
         style="fill:#b98e76" /><rect
         x="75"
         y="162.89999"
         width="10"
         height="5.1999998"
         id="rect149"
         style="fill:#ffffff" /><rect
         x="95.599998"
         y="167.7"
         width="8.1999998"
         height="14.2"
         id="rect151"
         style="fill:#ffffff" /><rect
         x="88.800003"
         y="181.60001"
         width="10"
         height="4.5"
         id="rect153"
         style="fill:#ffffff" /><rect
         x="84.599998"
         y="167.7"
         width="11.1"
         height="13.9"
         id="rect155"
         style="fill:#ffffff" /><rect
         x="61.599998"
         y="186.10001"
         width="5.3000002"
         height="4.8000002"
         id="rect157"
         style="fill:#ffffff" /><rect
         x="75.099998"
         y="207.89999"
         width="5.5"
         height="10.3"
         id="rect159"
         style="fill:#ffffff" /><rect
         x="98.800003"
         y="209"
         width="5.0999999"
         height="9.1999998"
         id="rect161"
         style="fill:#ffffff" /><rect
         x="111.5"
         y="186.10001"
         width="6.4000001"
         height="4.5"
         id="rect163"
         style="fill:#ffffff" /><rect
         x="111.2"
         y="190.2"
         width="6.8000002"
         height="5.8000002"
         id="rect165"
         style="fill:#fdaa7e" /><rect
         x="56.799999"
         y="195.10001"
         width="5"
         height="5"
         id="rect167"
         style="fill:#717171" /><rect
         x="75"
         y="218.2"
         width="5.5999999"
         height="4.9000001"
         id="rect169"
         style="fill:#717171" /><rect
         x="97.699997"
         y="218.2"
         width="6.0999999"
         height="4.9000001"
         id="rect171"
         style="fill:#717171" /><rect
         x="61.700001"
         y="190.89999"
         width="5.1999998"
         height="9.1999998"
         id="rect173"
         style="fill:#a1a1a1" /><rect
         x="103.9"
         y="171.89999"
         width="4.1999998"
         height="6.5999999"
         id="rect175"
         style="fill:#b5762d" /><rect
         x="111.5"
         y="181.3"
         width="6.4000001"
         height="4.9000001"
         id="rect177"
         style="fill:#701e22" /><rect
         x="103.9"
         y="167.5"
         width="4.1999998"
         height="4.3000002"
         id="rect179"
         style="fill:#701e22" /><rect
         x="80.599998"
         y="167.7"
         width="4"
         height="9.3000002"
         id="rect181"
         style="fill:#701e22" /><rect
         x="74.199997"
         y="167.7"
         width="6.4000001"
         height="4.5999999"
         id="rect183"
         style="fill:#701e22" /><rect
         x="61.599998"
         y="176.39999"
         width="5.3000002"
         height="9.6999998"
         id="rect185"
         style="fill:#701e22" /><rect
         x="66.199997"
         y="181.89999"
         width="4.5999999"
         height="3.5"
         id="rect187"
         style="fill:#701e22" /><rect
         x="107.5"
         y="177"
         width="4.9000001"
         height="9.3999996"
         id="rect189"
         style="fill:#c93735" /><rect
         x="103.9"
         y="199.3"
         width="8.6000004"
         height="9.6999998"
         id="rect191"
         style="fill:#c93735" /><rect
         x="98.800003"
         y="190.2"
         width="9.1999998"
         height="13.8"
         id="rect193"
         style="fill:#c93735" /><rect
         x="98.800003"
         y="181.89999"
         width="4.5"
         height="8.3000002"
         id="rect195"
         style="fill:#c93735" /><rect
         x="93.699997"
         y="186.10001"
         width="5.0999999"
         height="9.8000002"
         id="rect197"
         style="fill:#c93735" /><rect
         x="80.5"
         y="190.2"
         width="8.5"
         height="5.5"
         id="rect199"
         style="fill:#c93735" /><rect
         x="61.700001"
         y="204"
         width="18.9"
         height="5.4000001"
         id="rect201"
         style="fill:#c93735" /><rect
         x="67"
         y="199.8"
         width="17.6"
         height="4.8000002"
         id="rect203"
         style="fill:#c93735" /><rect
         x="70.800003"
         y="195.5"
         width="13.8"
         height="5.0999999"
         id="rect205"
         style="fill:#c93735" /><rect
         x="75.599998"
         y="193.60001"
         width="5"
         height="1.9"
         id="rect207"
         style="fill:#c93735" /><rect
         x="80.5"
         y="189.2"
         width="3.4000001"
         height="1"
         id="rect209"
         style="fill:#c93735" /><rect
         x="70.800003"
         y="167"
         width="4.1999998"
         height="5.3000002"
         id="rect211"
         style="fill:#c93735" /><rect
         x="66.099998"
         y="171.89999"
         width="4.6999998"
         height="10.1"
         id="rect213"
         style="fill:#c93735" /><rect
         x="70.5"
         y="172.3"
         width="10.1"
         height="4.5999999"
         id="rect215"
         style="fill:#c93735" /><rect
         x="75.599998"
         y="176.39999"
         width="5"
         height="6.1999998"
         id="rect217"
         style="fill:#c93735" /><rect
         x="112.4"
         y="103.2"
         width="18.700001"
         height="22.799999"
         id="rect219"
         style="fill:#791f3e" /><rect
         x="112.4"
         y="126"
         width="13.6"
         height="5"
         id="rect221"
         style="fill:#791f3e" /><rect
         x="108"
         y="103.2"
         width="4.4000001"
         height="14.1"
         id="rect223"
         style="fill:#791f3e" /><rect
         x="103.3"
         y="103.2"
         width="4.6999998"
         height="8.3999996"
         id="rect225"
         style="fill:#791f3e" /><rect
         x="89.300003"
         y="107.8"
         width="14.1"
         height="3.9000001"
         id="rect227"
         style="fill:#791f3e" /><rect
         x="84.900002"
         y="103.2"
         width="4.4000001"
         height="8.3999996"
         id="rect229"
         style="fill:#791f3e" /><rect
         x="52.900002"
         y="98.5"
         width="32"
         height="14.2"
         id="rect231"
         style="fill:#791f3e" /><rect
         x="52.900002"
         y="94.400002"
         width="21.9"
         height="4.0999999"
         id="rect233"
         style="fill:#791f3e" /><rect
         x="63"
         y="89.599998"
         width="6.5"
         height="4.8000002"
         id="rect235"
         style="fill:#791f3e" /><rect
         x="63"
         y="84.900002"
         width="3.8"
         height="4.6999998"
         id="rect237"
         style="fill:#791f3e" /><rect
         x="47.700001"
         y="112.7"
         width="23.1"
         height="9.1999998"
         id="rect239"
         style="fill:#791f3e" /><rect
         x="47.900002"
         y="107.8"
         width="5"
         height="5"
         id="rect241"
         style="fill:#791f3e" /><rect
         x="48.400002"
         y="122"
         width="19.5"
         height="13.4"
         id="rect243"
         style="fill:#791f3e" /><rect
         x="52.799999"
         y="134"
         width="15.1"
         height="4.0999999"
         id="rect245"
         style="fill:#791f3e" /><rect
         x="84.599998"
         y="204.7"
         width="14.2"
         height="4.5999999"
         id="rect247"
         style="fill:#671835" /><rect
         x="89.199997"
         y="200.2"
         width="4.4000001"
         height="4.5"
         id="rect249"
         style="fill:#671835" /><rect
         x="88.800003"
         y="185.7"
         width="4.9000001"
         height="14.5"
         id="rect251"
         style="fill:#d7930f" /><rect
         x="93.699997"
         y="196"
         width="5.0999999"
         height="8.8000002"
         id="rect253"
         style="fill:#d7930f" /><rect
         x="98.800003"
         y="204"
         width="5.4000001"
         height="5.3000002"
         id="rect255"
         style="fill:#d7930f" /><rect
         x="84.599998"
         y="194.7"
         width="4.6999998"
         height="10"
         id="rect257"
         style="fill:#d7930f" /><rect
         x="80.599998"
         y="204"
         width="4"
         height="5.4000001"
         id="rect259"
         style="fill:#d7930f" /><rect
         x="80.599998"
         y="177"
         width="4"
         height="12.3"
         id="rect261"
         style="fill:#b5762d" /><rect
         x="83.900002"
         y="181.89999"
         width="5.0999999"
         height="8.3000002"
         id="rect263"
         style="fill:#b5762d" /><rect
         x="75.599998"
         y="182.5"
         width="5"
         height="11.1"
         id="rect265"
         style="fill:#b5762d" /><rect
         x="70.800003"
         y="186.10001"
         width="4.8000002"
         height="9.8000002"
         id="rect267"
         style="fill:#b5762d" /><rect
         x="52.900002"
         y="39.099998"
         width="17.9"
         height="4.8000002"
         id="rect269"
         style="fill:#010000" /><rect
         x="70.800003"
         y="43.900002"
         width="14.1"
         height="3.9000001"
         id="rect271"
         style="fill:#010000" /><rect
         x="84.900002"
         y="47.799999"
         width="5.1999998"
         height="4.4000001"
         id="rect273"
         style="fill:#010000" /><rect
         x="90.099998"
         y="52.200001"
         width="4"
         height="9.5"
         id="rect275"
         style="fill:#010000" /><rect
         x="94"
         y="61.700001"
         width="5"
         height="23.200001"
         id="rect277"
         style="fill:#010000" /><rect
         x="89.300003"
         y="84.900002"
         width="4.8000002"
         height="9.5"
         id="rect279"
         style="fill:#010000" /><rect
         x="84.900002"
         y="94.400002"
         width="4.4000001"
         height="4.0999999"
         id="rect281"
         style="fill:#010000" /><rect
         x="75.5"
         y="89"
         width="9.3999996"
         height="5.4000001"
         id="rect283"
         style="fill:#010000" /><rect
         x="70.800003"
         y="84.900002"
         width="6.1999998"
         height="4.0999999"
         id="rect285"
         style="fill:#010000" /><rect
         x="66.800003"
         y="80.5"
         width="4"
         height="4.4000001"
         id="rect287"
         style="fill:#010000" /><rect
         x="49"
         y="43.900002"
         width="3.9000001"
         height="3.9000001"
         id="rect289"
         style="fill:#010000" /><rect
         x="43.5"
         y="47.799999"
         width="5.5"
         height="4.4000001"
         id="rect291"
         style="fill:#010000" /><rect
         x="38.400002"
         y="52.200001"
         width="5.0999999"
         height="9.5"
         id="rect293"
         style="fill:#010000" /><rect
         x="34.400002"
         y="61.700001"
         width="4.6999998"
         height="14.3"
         id="rect295"
         style="fill:#010000" /><rect
         x="29.9"
         y="76.099998"
         width="4.5"
         height="8.8000002"
         id="rect297"
         style="fill:#010000" /><rect
         x="24.9"
         y="84.900002"
         width="5"
         height="22.9"
         id="rect299"
         style="fill:#010000" /><rect
         x="29.9"
         y="107.8"
         width="4.5"
         height="5"
         id="rect301"
         style="fill:#010000" /><rect
         x="34.400002"
         y="112.7"
         width="8.3999996"
         height="3.9000001"
         id="rect303"
         style="fill:#010000" /><rect
         x="38.599998"
         y="116.6"
         width="4.1999998"
         height="18.700001"
         id="rect305"
         style="fill:#010000" /><rect
         x="43.700001"
         y="135.3"
         width="5.0999999"
         height="4.0999999"
         id="rect307"
         style="fill:#010000" /><rect
         x="48.799999"
         y="139.5"
         width="4"
         height="5.4000001"
         id="rect309"
         style="fill:#010000" /><rect
         x="52.799999"
         y="144.8"
         width="9"
         height="4.4000001"
         id="rect311"
         style="fill:#010000" /><rect
         x="52.799999"
         y="149.2"
         width="4.8000002"
         height="13.6"
         id="rect313"
         style="fill:#010000" /><rect
         x="57.200001"
         y="162.5"
         width="4.5"
         height="4.5"
         id="rect315"
         style="fill:#010000" /><rect
         x="61.599998"
         y="166.89999"
         width="9.1999998"
         height="5"
         id="rect317"
         style="fill:#010000" /><rect
         x="61.700001"
         y="171.89999"
         width="4.5"
         height="5.0999999"
         id="rect319"
         style="fill:#010000" /><rect
         x="56.299999"
         y="177"
         width="5.4000001"
         height="18.200001"
         id="rect321"
         style="fill:#010000" /><rect
         x="52.799999"
         y="190.2"
         width="4"
         height="13.8"
         id="rect323"
         style="fill:#010000" /><rect
         x="52.799999"
         y="199.8"
         width="14.2"
         height="4.0999999"
         id="rect325"
         style="fill:#010000" /><rect
         x="70.800003"
         y="177"
         width="4.8000002"
         height="9.1999998"
         id="rect327"
         style="fill:#010000" /><rect
         x="66.599998"
         y="185.3"
         width="4.1999998"
         height="14.6"
         id="rect329"
         style="fill:#010000" /><rect
         x="57.200001"
         y="204"
         width="4.5"
         height="9.5"
         id="rect331"
         style="fill:#010000" /><rect
         x="57.200001"
         y="208.7"
         width="17.799999"
         height="4.8000002"
         id="rect333"
         style="fill:#010000" /><rect
         x="70.800003"
         y="213.5"
         width="4.3000002"
         height="13.5"
         id="rect335"
         style="fill:#010000" /><rect
         x="70.800003"
         y="222.39999"
         width="14.2"
         height="4.5"
         id="rect337"
         style="fill:#010000" /><rect
         x="80.599998"
         y="209.3"
         width="4.4000001"
         height="17.6"
         id="rect339"
         style="fill:#010000" /><rect
         x="80.599998"
         y="209.3"
         width="18.200001"
         height="4.0999999"
         id="rect341"
         style="fill:#010000" /><rect
         x="93.699997"
         y="209.3"
         width="5.0999999"
         height="17.6"
         id="rect343"
         style="fill:#010000" /><rect
         x="93.699997"
         y="222.39999"
         width="14.3"
         height="4.5"
         id="rect345"
         style="fill:#010000" /><rect
         x="103.3"
         y="208.7"
         width="5.1999998"
         height="18.299999"
         id="rect347"
         style="fill:#010000" /><rect
         x="103.3"
         y="208.7"
         width="13.9"
         height="4.8000002"
         id="rect349"
         style="fill:#010000" /><rect
         x="112.4"
         y="196"
         width="4.8000002"
         height="17.5"
         id="rect351"
         style="fill:#010000" /><rect
         x="108"
         y="196"
         width="14.1"
         height="3.9000001"
         id="rect353"
         style="fill:#010000" /><rect
         x="103.3"
         y="176.89999"
         width="4.6999998"
         height="13.2"
         id="rect355"
         style="fill:#010000" /><rect
         x="108"
         y="186.3"
         width="3.4000001"
         height="13.5"
         id="rect357"
         style="fill:#010000" /><rect
         x="112.4"
         y="177"
         width="4.8000002"
         height="5"
         id="rect359"
         style="fill:#010000" /><rect
         x="117.8"
         y="181.3"
         width="4.3000002"
         height="15.7"
         id="rect361"
         style="fill:#010000" /><rect
         x="108"
         y="162.89999"
         width="4.4000001"
         height="14.1"
         id="rect363"
         style="fill:#010000" /><rect
         x="110.3"
         y="162.89999"
         width="11.8"
         height="5"
         id="rect365"
         style="fill:#010000" /><rect
         x="122.1"
         y="149.2"
         width="4"
         height="13.6"
         id="rect367"
         style="fill:#010000" /><rect
         x="112.4"
         y="144.3"
         width="9.6000004"
         height="5"
         id="rect369"
         style="fill:#010000" /><rect
         x="111.5"
         y="135.3"
         width="14.6"
         height="4.0999999"
         id="rect371"
         style="fill:#010000" /><rect
         x="117.8"
         y="139.5"
         width="4.3000002"
         height="4.8000002"
         id="rect373"
         style="fill:#010000" /><rect
         x="126.1"
         y="131.10001"
         width="5.0999999"
         height="4.4000001"
         id="rect375"
         style="fill:#010000" /><rect
         x="131.2"
         y="126.8"
         width="5"
         height="4.3000002"
         id="rect377"
         style="fill:#010000" /><rect
         x="135.5"
         y="103.2"
         width="5"
         height="23.6"
         id="rect379"
         style="fill:#010000" /><rect
         x="131.2"
         y="99.400002"
         width="5"
         height="3.3"
         id="rect381"
         style="fill:#010000" /><rect
         x="103.3"
         y="93.699997"
         width="27.799999"
         height="4.8000002"
         id="rect383"
         style="fill:#010000" /><rect
         x="89.300003"
         y="98.5"
         width="14.1"
         height="4.6999998"
         id="rect385"
         style="fill:#010000" /><rect
         x="80.699997"
         y="121"
         width="8.5"
         height="10.1"
         id="rect387"
         style="fill:#010000" /><rect
         x="88.5"
         y="126.8"
         width="5.5999999"
         height="4.3000002"
         id="rect389"
         style="fill:#010000" /><rect
         x="84.900002"
         y="131.10001"
         width="4.4000001"
         height="4.3000002"
         id="rect391"
         style="fill:#010000" /><rect
         x="99.099998"
         y="126.8"
         width="13.7"
         height="4.3000002"
         id="rect393"
         style="fill:#010000" /><rect
         x="103.3"
         y="131.10001"
         width="4.6999998"
         height="4.3000002"
         id="rect395"
         style="fill:#010000" /></g></g></svg>