<?xml version="1.0" encoding="utf-8"?>
<!-- Generator: Adobe Illustrator 18.0.0, SVG Export Plug-In . SVG Version: 6.00 Build 0)  -->
<!DOCTYPE svg PUBLIC "-//W3C//DTD SVG 1.1//EN" "http://www.w3.org/Graphics/SVG/1.1/DTD/svg11.dtd">
<svg version="1.1" xmlns="http://www.w3.org/2000/svg" xmlns:xlink="http://www.w3.org/1999/xlink" x="0px" y="0px"
	 viewBox="0 0 525.1 558.8" enable-background="new 0 0 525.1 558.8" xml:space="preserve">
<g id="Réteg_5">
</g>
<g id="Réteg_4">
</g>
<g id="Réteg_3">
	<g>
		<rect x="94.4" y="235.5" fill="#7B6945" width="36.8" height="18.6"/>
		<rect x="113.6" y="264.5" fill="#7B6945" width="20.7" height="28.5"/>
		<rect x="94.4" y="254.1" fill="#7B6945" width="19.2" height="28.7"/>
		<rect x="200.9" y="135.9" fill="#7B6945" width="38.3" height="17.8"/>
		<rect x="274.5" y="136.1" fill="#7B6945" width="34.5" height="21.5"/>
		<rect x="309" y="157.5" fill="#7B6945" width="37.1" height="19.9"/>
		<rect x="239.3" y="146" fill="#7B6945" width="35.3" height="29.9"/>
		<rect x="200.9" y="175.9" fill="#7B6945" width="34.5" height="19.2"/>
		<rect x="164.9" y="195.1" fill="#7B6945" width="41.2" height="19"/>
		<rect x="131.2" y="214.2" fill="#7B6945" width="33.7" height="20.7"/>
		<rect x="239.3" y="195.1" fill="#7B6945" width="35.3" height="19.2"/>
		<rect x="274.5" y="175.9" fill="#7B6945" width="34.5" height="19.2"/>
		<rect x="164.9" y="234.9" fill="#7B6945" width="70.5" height="19"/>
		<rect x="198.1" y="214.1" fill="#7B6945" width="41.1" height="16.9"/>
		<rect x="131.2" y="254.1" fill="#7B6945" width="33.7" height="18.2"/>
		<rect x="309" y="195.1" fill="#7B6945" width="19.2" height="22.1"/>
		<rect x="326.8" y="214.2" fill="#7B6945" width="34.3" height="31.5"/>
		<rect x="274.5" y="217.1" fill="#7B6945" width="17.2" height="55.2"/>
		<rect x="256.9" y="235.5" fill="#7B6945" width="52.1" height="18.4"/>
		<rect x="309" y="250.1" fill="#7B6945" width="51.4" height="22.2"/>
		<rect x="200.9" y="272.3" fill="#7B6945" width="21.1" height="20.7"/>
		<rect x="222" y="313" fill="#7B6945" width="104.8" height="17.5"/>
		<rect x="235.4" y="293" fill="#7B6945" width="19.9" height="25.7"/>
		<rect x="182.9" y="293" fill="#7B6945" width="21.8" height="19.3"/>
		<rect x="258.4" y="347.1" fill="#7B6945" width="65.1" height="107.6"/>
		<rect x="187.9" y="385" fill="#7B6945" width="86.6" height="59.1"/>
		<rect x="122.4" y="459.3" fill="#7B6945" width="15.7" height="16.1"/>
		<rect x="152.9" y="440.1" fill="#7B6945" width="35" height="19.2"/>
		<rect x="206.1" y="439.1" fill="#7B6945" width="33.1" height="15.7"/>
		<rect x="181" y="173.6" fill="#7B6945" width="58.2" height="98.7"/>
		<rect x="255.4" y="157.5" fill="#7B6945" width="58.2" height="98.7"/>
		<rect x="239.3" y="136.1" fill="#F7DCA2" width="35.3" height="17.6"/>
		<rect x="309" y="136.1" fill="#F7DCA2" width="19.2" height="21.5"/>
		<rect x="181" y="153.7" fill="#F7DCA2" width="58.2" height="19.9"/>
		<rect x="164.9" y="175.9" fill="#F7DCA2" width="36" height="19.2"/>
		<rect x="75.3" y="275.4" fill="#F7DCA2" width="38.3" height="16.7"/>
		<rect x="113.6" y="254.1" fill="#F7DCA2" width="17.6" height="18.4"/>
		<rect x="131.2" y="234.9" fill="#F7DCA2" width="33.7" height="19.2"/>
		<rect x="164.9" y="214.2" fill="#F7DCA2" width="36" height="20.7"/>
		<rect x="200.9" y="195.1" fill="#F7DCA2" width="38.3" height="19.2"/>
		<rect x="274.5" y="157.5" fill="#F7DCA2" width="34.5" height="18.4"/>
		<rect x="235.4" y="175.9" fill="#F7DCA2" width="39.1" height="19.2"/>
		<rect x="326.8" y="195.1" fill="#F7DCA2" width="34.3" height="19.2"/>
		<rect x="309" y="175.9" fill="#F7DCA2" width="52.1" height="19.2"/>
		<rect x="274.5" y="195.1" fill="#F7DCA2" width="34.5" height="22.1"/>
		<rect x="345.8" y="234.7" fill="#F7DCA2" width="15.3" height="19.2"/>
		<rect x="309" y="217.1" fill="#F7DCA2" width="19.2" height="36.8"/>
		<rect x="291.8" y="217.1" fill="#F7DCA2" width="17.2" height="18.4"/>
		<rect x="239.3" y="213.2" fill="#F7DCA2" width="35.3" height="21.6"/>
		<rect x="187.9" y="272.3" fill="#F7DCA2" width="13" height="26.1"/>
		<rect x="164.9" y="254.1" fill="#F7DCA2" width="57.1" height="18.2"/>
		<rect x="291.8" y="254.1" fill="#F7DCA2" width="17.2" height="18.2"/>
		<rect x="239.3" y="254.1" fill="#F7DCA2" width="35.3" height="18.2"/>
		<rect x="204.8" y="293" fill="#F7DCA2" width="17.2" height="37.1"/>
		<rect x="222" y="272.3" fill="#F7DCA2" width="17.2" height="40.7"/>
		<rect x="239.3" y="272.3" fill="#F7DCA2" width="16.1" height="20.7"/>
		<rect x="328.2" y="272.3" fill="#F7DCA2" width="13.8" height="47.2"/>
		<rect x="255.4" y="293" fill="#F7DCA2" width="72.8" height="30.1"/>
		<rect x="361.1" y="403.4" fill="#F7DCA2" width="13.8" height="14.6"/>
		<rect x="374.9" y="347.1" fill="#F7DCA2" width="16.9" height="56.3"/>
		<rect x="374.9" y="417.9" fill="#F7DCA2" width="16.9" height="16.9"/>
		<rect x="326.8" y="347.1" fill="#F7DCA2" width="48.1" height="18.9"/>
		<rect x="138.1" y="459.3" fill="#F7DCA2" width="52.9" height="16.1"/>
		<rect x="187.9" y="440.1" fill="#F7DCA2" width="22.2" height="19.2"/>
		<rect x="187.9" y="385" fill="#F7DCA2" width="16.9" height="36.8"/>
		<rect x="222" y="385" fill="#F7DCA2" width="17.2" height="18.4"/>
		<rect x="222" y="421.7" fill="#F7DCA2" width="17.2" height="17"/>
		<rect x="239.3" y="403.4" fill="#F7DCA2" width="35.3" height="18.4"/>
		<rect x="274.5" y="330.5" fill="#F7DCA2" width="52.3" height="16.6"/>
		<rect x="274.5" y="347.1" fill="#F7DCA2" width="34.5" height="18.9"/>
		<rect x="274.5" y="417.9" fill="#F7DCA2" width="49" height="19.6"/>
		<path fill="#F7DCA2" d="M301.7,417.9H299c-4,0-7.3-3.3-7.3-7.3v0c0-4,3.3-7.3,7.3-7.3h2.7c4,0,7.3,3.3,7.3,7.3v0
			C309,414.7,305.7,417.9,301.7,417.9z"/>
		<rect x="291.8" y="366.6" fill="#F7DCA2" width="35.1" height="15.3"/>
		<rect x="258.4" y="366.6" fill="#F7DCA2" width="16.1" height="18.4"/>
		<rect x="204.8" y="403.4" fill="#F7DCA2" width="17.2" height="18.4"/>
		<rect x="274.5" y="385" fill="#F7DCA2" width="17.2" height="18.4"/>
		<rect x="291.8" y="399.5" fill="#F7DCA2" width="17.2" height="18.4"/>
		<rect x="309" y="385" fill="#F7DCA2" width="14.6" height="18.4"/>
		<rect x="173" y="347.1" fill="#F7DCA2" width="66.3" height="19.5"/>
		<rect x="200.9" y="112.9" stroke="#000000" stroke-width="2" stroke-miterlimit="10" width="127.2" height="23"/>
		<rect x="181" y="135.9" stroke="#000000" stroke-width="2" stroke-miterlimit="10" width="19.9" height="17.6"/>
		<rect x="328.2" y="135.9" stroke="#000000" stroke-width="2" stroke-miterlimit="10" width="17.6" height="21.5"/>
		<rect x="345.8" y="157.3" stroke="#000000" stroke-width="2" stroke-miterlimit="10" width="18.4" height="18.4"/>
		<rect x="164.9" y="153.5" stroke="#000000" stroke-width="2" stroke-miterlimit="10" width="16.1" height="22.2"/>
		<rect x="148.1" y="175.7" stroke="#000000" stroke-width="2" stroke-miterlimit="10" width="16.9" height="38.3"/>
		<rect x="361.1" y="175.7" stroke="#000000" stroke-width="2" stroke-miterlimit="10" width="19.9" height="96.6"/>
		<rect x="328.2" y="234.7" stroke="#000000" stroke-width="2" stroke-miterlimit="10" width="17.6" height="19.2"/>
		<rect x="239.3" y="234.7" stroke="#000000" stroke-width="2" stroke-miterlimit="10" width="16.1" height="19.2"/>
		<rect x="255.4" y="272.3" stroke="#000000" stroke-width="2" stroke-miterlimit="10" width="72.8" height="20.7"/>
		<rect x="164.9" y="272.3" stroke="#000000" stroke-width="2" stroke-miterlimit="10" width="23" height="39.2"/>
		<rect x="152.9" y="347.1" stroke="#000000" stroke-width="2" stroke-miterlimit="10" width="20.1" height="19.5"/>
		<rect x="342" y="272.3" stroke="#000000" stroke-width="2" stroke-miterlimit="10" width="19.2" height="39.2"/>
		<rect x="187.9" y="313" stroke="#000000" stroke-width="2" stroke-miterlimit="10" width="16.9" height="17.5"/>
		<rect x="169.5" y="330.5" stroke="#000000" stroke-width="2" stroke-miterlimit="10" width="105" height="16.6"/>
		<rect x="239.3" y="347.1" stroke="#000000" stroke-width="2" stroke-miterlimit="10" width="19.2" height="37.9"/>
		<rect x="169.5" y="366.6" stroke="#000000" stroke-width="2" stroke-miterlimit="10" width="18.4" height="73.6"/>
		<rect x="187.9" y="366.6" stroke="#000000" stroke-width="2" stroke-miterlimit="10" width="51.3" height="18.4"/>
		<rect x="326.8" y="313" stroke="#000000" stroke-width="2" stroke-miterlimit="10" width="18.9" height="34.1"/>
		<rect x="309" y="347.1" stroke="#000000" stroke-width="2" stroke-miterlimit="10" width="17.8" height="18.9"/>
		<rect x="391.8" y="326.7" stroke="#000000" stroke-width="2" stroke-miterlimit="10" width="15.2" height="58.2"/>
		<rect x="407" y="326.7" stroke="#000000" stroke-width="2" stroke-miterlimit="10" width="18.5" height="20.4"/>
		<rect x="345.8" y="326.7" stroke="#000000" stroke-width="2" stroke-miterlimit="10" width="46" height="20.4"/>
		<rect x="326.8" y="366" stroke="#000000" stroke-width="2" stroke-miterlimit="10" width="48.1" height="18.9"/>
		<rect x="323.6" y="385" stroke="#000000" stroke-width="2" stroke-miterlimit="10" width="18.4" height="86.6"/>
		<rect x="274.5" y="454.7" stroke="#000000" stroke-width="2" stroke-miterlimit="10" width="49" height="16.9"/>
		<rect x="239.3" y="438.8" stroke="#000000" stroke-width="2" stroke-miterlimit="10" width="35.3" height="15.9"/>
		<rect x="204.8" y="454.7" fill="#7B6945" width="39.1" height="16.9"/>
	</g>
</g>
</svg>
