<?xml version="1.0" encoding="utf-8"?>
<!-- Generator: Adobe Illustrator 18.0.0, SVG Export Plug-In . SVG Version: 6.00 Build 0)  -->
<!DOCTYPE svg PUBLIC "-//W3C//DTD SVG 1.1//EN" "http://www.w3.org/Graphics/SVG/1.1/DTD/svg11.dtd">
<svg version="1.1" xmlns="http://www.w3.org/2000/svg" xmlns:xlink="http://www.w3.org/1999/xlink" x="0px" y="0px"
	 viewBox="0 0 462.1 422.1" enable-background="new 0 0 462.1 422.1" xml:space="preserve">
<g id="Réteg_2">
</g>
<g id="Réteg_3">
</g>
<g id="Réteg_4">
	<g>
		<rect x="118.2" y="93.5" fill="#944529" width="243" height="242"/>
		<rect x="96.2" y="113.5" fill="#944529" width="34" height="222"/>
		<rect x="71.2" y="133.5" fill="#944529" width="25" height="182"/>
		<rect x="354.2" y="113.5" fill="#944529" width="28" height="202"/>
		<rect x="118.2" y="67.5" fill="#B36839" width="86" height="26"/>
		<rect x="248.2" y="67.5" fill="#B36839" width="67" height="26"/>
		<rect x="96.2" y="90.5" fill="#B36839" width="23.7" height="23"/>
		<rect x="71.2" y="113.5" fill="#EC9002" width="20" height="20"/>
		<rect x="382.2" y="224.5" fill="#EC9002" width="23" height="86"/>
		<rect x="361.2" y="315.5" fill="#EC9002" width="21" height="20"/>
		<rect x="161.2" y="335.5" fill="#F6C202" width="200" height="22"/>
		<rect x="91.2" y="335.5" fill="#F6C202" width="70" height="22"/>
		<rect x="71.2" y="310.5" fill="#F6C202" width="25.8" height="25"/>
		<rect x="49.2" y="153.1" fill="#F6C202" width="22" height="157.5"/>
		<rect x="204.2" y="224.5" fill="#F6C202" width="44" height="133"/>
		<rect x="248.2" y="224.5" fill="#F6C202" width="24" height="24"/>
		<rect x="184.2" y="224.5" fill="#F6C202" width="20" height="24"/>
		<rect x="382.2" y="153.1" fill="#F6C202" width="23" height="71.5"/>
		<rect x="272.2" y="179.5" fill="#F6C202" width="22" height="45"/>
		<rect x="294.2" y="179.5" fill="#F6C202" width="88" height="22.5"/>
		<rect x="71.2" y="179.5" fill="#F6C202" width="201" height="22.8"/>
		<rect x="204.4" y="90.5" fill="#F6C202" width="43.8" height="111.5"/>
		<rect x="204.2" y="67.5" fill="#F4E34A" width="44" height="28.6"/>
		<rect x="49.2" y="133.5" fill="#EC9002" width="22" height="19.5"/>
		<rect x="71.2" y="113.5" fill="#EC9002" width="25" height="20"/>
		<rect x="382.2" y="224.5" fill="#EC9002" width="23" height="91"/>
		<rect x="361.2" y="315.5" fill="#F6C202" width="21" height="20"/>
		<rect x="157.3" y="202" fill="#F6C202" width="26.9" height="22.5"/>
		<rect x="382.2" y="133.5" fill="#F4E34A" width="23" height="19.5"/>
		<rect x="315.2" y="67.5" fill="#773825" width="23" height="27.6"/>
		<rect x="361.2" y="113.5" fill="#773825" width="21" height="66"/>
		<rect x="361.2" y="202.3" fill="#773825" width="21" height="112.6"/>
		<rect x="248.2" y="310.5" fill="#773825" width="113" height="25"/>
		<rect x="294.2" y="202" fill="#773825" width="67" height="22.5"/>
		<rect x="272.2" y="224.5" fill="#773825" width="43" height="24"/>
		<rect x="248.2" y="248.5" fill="#773825" width="45.5" height="21.5"/>
		<rect x="184.2" y="248.5" fill="#773825" width="20" height="21.5"/>
		<rect x="157.3" y="224.5" fill="#773825" width="26.9" height="24"/>
		<rect x="71.2" y="202.3" fill="#773825" width="86.1" height="22.2"/>
		<rect x="71.2" y="224.5" fill="#773825" width="20" height="87.6"/>
		<rect x="338.2" y="90.5" fill="#773825" width="30" height="23"/>
		<rect x="248.2" y="113.5" fill="#773825" width="24" height="66"/>
		<rect x="270.9" y="153.1" fill="#773825" width="90.2" height="26.5"/>
		<rect x="71.2" y="157.5" fill="#773825" width="133" height="22"/>
		<rect x="184.2" y="202" fill="#181A1C" width="88" height="22.5"/>
	</g>
</g>
<g id="Réteg_5">
</g>
</svg>
