<?xml version="1.0" encoding="utf-8"?>
<!-- Generator: Adobe Illustrator 18.0.0, SVG Export Plug-In . SVG Version: 6.00 Build 0)  -->
<!DOCTYPE svg PUBLIC "-//W3C//DTD SVG 1.1//EN" "http://www.w3.org/Graphics/SVG/1.1/DTD/svg11.dtd">
<svg version="1.1" xmlns="http://www.w3.org/2000/svg" xmlns:xlink="http://www.w3.org/1999/xlink" x="0px" y="0px"
	 viewBox="0 0 292.9 344.8" enable-background="new 0 0 292.9 344.8" xml:space="preserve">
<g id="Réteg_2">
</g>
<g id="Réteg_3">
</g>
<g id="Réteg_4">
	<g>
		<rect x="87.1" y="38.6" fill="#E9BE28" width="106.5" height="269.9"/>
		<rect x="193.6" y="51" fill="#E9BE28" width="11.1" height="245.1"/>
		<rect x="204.7" y="61.5" fill="#E9BE28" width="11.8" height="224.1"/>
		<rect x="216.5" y="72" fill="#E9BE28" width="9.9" height="204.3"/>
		<rect x="221.4" y="81.9" fill="#E9BE28" width="16.7" height="182.6"/>
		<rect x="238.1" y="116.6" fill="#E9BE28" width="10.5" height="136.2"/>
		<rect x="72.9" y="78.9" fill="#E9BE28" width="21" height="197.5"/>
		<rect x="59.2" y="93.1" fill="#E9BE28" width="20.4" height="172.9"/>
		<rect x="47.5" y="121.6" fill="#E9BE28" width="18.6" height="131.2"/>
		<rect x="173.8" y="38.6" fill="#BC8B19" width="9.9" height="22.9"/>
		<rect x="183.7" y="50.1" fill="#BC8B19" width="21" height="22"/>
		<rect x="226.4" y="116.6" fill="#BC8B19" width="22.3" height="136.2"/>
		<rect x="204.7" y="61.5" fill="#BC8B19" width="11.8" height="29.1"/>
		<rect x="226.4" y="81.9" fill="#BC8B19" width="11.1" height="34.7"/>
		<rect x="216.5" y="72" fill="#BC8B19" width="9.9" height="40.9"/>
		<rect x="216.5" y="244.1" fill="#BC8B19" width="21" height="20.4"/>
		<rect x="204.7" y="266.4" fill="#BC8B19" width="21.7" height="9.9"/>
		<rect x="194.2" y="276.3" fill="#BC8B19" width="22.3" height="9.3"/>
		<rect x="173.8" y="285.6" fill="#BC8B19" width="31" height="10.5"/>
		<rect x="173.8" y="296.1" fill="#BC8B19" width="19.8" height="12.4"/>
		<rect x="108.8" y="244.1" fill="#BC8B19" width="65" height="22.3"/>
		<rect x="173.8" y="116.4" fill="#BC8B19" width="20.4" height="125.3"/>
		<rect x="87.1" y="38.6" fill="#FBD660" width="75.5" height="22.4"/>
		<rect x="66" y="61.1" fill="#FBD660" width="31.6" height="11"/>
		<rect x="75.9" y="50.1" fill="#FBD660" width="11.1" height="11"/>
		<rect x="54.3" y="72" fill="#FBD660" width="32.8" height="12.4"/>
		<rect x="43.8" y="81.9" fill="#FBD660" width="32.2" height="11.1"/>
		<rect x="43.8" y="93.1" fill="#FBD660" width="22.3" height="32.8"/>
		<rect x="33.9" y="103.6" fill="#FBD660" width="20.4" height="138"/>
		<rect x="44.1" y="235.9" fill="#FBD660" width="22" height="30.5"/>
		<rect x="54.9" y="264.6" fill="#FBD660" width="21" height="11.8"/>
		<rect x="65.4" y="276.3" fill="#FBD660" width="21.7" height="9.3"/>
		<rect x="75.9" y="285.6" fill="#FBD660" width="11.1" height="10.5"/>
		<rect x="87.1" y="296.1" fill="#FBD660" width="10.5" height="12.4"/>
		<rect x="108.8" y="92.5" fill="#FBD660" width="65" height="20.4"/>
		<rect x="83.4" y="112.9" fill="#FBD660" width="25.4" height="131.2"/>
	</g>
</g>
</svg>
