<?xml version="1.0" encoding="utf-8"?>
<!-- Generator: Adobe Illustrator 18.0.0, SVG Export Plug-In . SVG Version: 6.00 Build 0)  -->
<!DOCTYPE svg PUBLIC "-//W3C//DTD SVG 1.1//EN" "http://www.w3.org/Graphics/SVG/1.1/DTD/svg11.dtd">
<svg version="1.1" xmlns="http://www.w3.org/2000/svg" xmlns:xlink="http://www.w3.org/1999/xlink" x="0px" y="0px"
	 viewBox="0 0 647.1 607.4" enable-background="new 0 0 647.1 607.4" xml:space="preserve">
<g id="Réteg_2">
</g>
<g id="Réteg_3">
</g>
<g id="Réteg_4">
</g>
<g id="Réteg_6">
</g>
<g id="Réteg_5">
	<g>
		<rect x="81.8" y="101.1" fill="#A07D56" width="488.2" height="396.8"/>
		<rect x="51.7" y="406.4" fill="#885919" width="59.2" height="91.4"/>
		<rect x="110.9" y="470.8" fill="#885919" width="32.2" height="27"/>
		<rect x="81.8" y="497.8" fill="#885919" width="488.2" height="67.5"/>
		<rect x="511.6" y="466.5" fill="#885919" width="28.3" height="31.4"/>
		<rect x="539.9" y="406.4" fill="#885919" width="63.4" height="91.4"/>
		<rect x="51.7" y="224.7" fill="#D07F24" width="29.6" height="181.8"/>
		<rect x="81.3" y="254.8" fill="#D07F24" width="29.6" height="151.6"/>
		<rect x="203.4" y="346.2" fill="#D07F24" width="62.2" height="30.1"/>
		<rect x="173.2" y="376.3" fill="#D07F24" width="61.3" height="30.1"/>
		<rect x="143.1" y="406.4" fill="#D07F24" width="60.8" height="31.2"/>
		<rect x="143.1" y="437.6" fill="#D07F24" width="31.7" height="33.1"/>
		<rect x="387.2" y="346.2" fill="#D07F24" width="61.3" height="35.3"/>
		<rect x="417.8" y="376.3" fill="#D07F24" width="60.8" height="32.9"/>
		<rect x="448.4" y="406.4" fill="#D07F24" width="63.1" height="31.2"/>
		<rect x="478.6" y="437.6" fill="#D07F24" width="33" height="35.6"/>
		<rect x="495.1" y="466.5" fill="#D07F24" width="0" height="4.2"/>
		<rect x="571.5" y="224.7" fill="#D07F24" width="31.7" height="181.8"/>
		<rect x="539.9" y="254.8" fill="#D07F24" width="31.7" height="151.6"/>
		<rect x="51.7" y="101.1" fill="#F7B24B" width="29.6" height="123.6"/>
		<rect x="81.8" y="68.9" fill="#F7B24B" width="29.1" height="185.9"/>
		<rect x="570" y="101.1" fill="#F7B24B" width="33.2" height="123.6"/>
		<rect x="539.9" y="68.9" fill="#F7B24B" width="31.7" height="185.9"/>
		<rect x="110.9" y="68.9" fill="#F7B24B" width="429" height="63.4"/>
		<rect x="143.1" y="161.3" fill="#F7B24B" width="60.8" height="34.1"/>
		<rect x="174.8" y="193" fill="#F7B24B" width="59.9" height="31.7"/>
		<rect x="204.8" y="224.7" fill="#F7B24B" width="60.9" height="30.1"/>
		<rect x="235.2" y="254.8" fill="#F7B24B" width="62.6" height="31.2"/>
		<rect x="297.8" y="314.5" fill="#F7B24B" width="61.3" height="31.7"/>
		<rect x="266.5" y="281.6" fill="#F7B24B" width="120.6" height="32.9"/>
		<rect x="359.1" y="247.1" fill="#F7B24B" width="58.7" height="35.7"/>
		<rect x="387.2" y="224.7" fill="#F7B24B" width="61.3" height="29.1"/>
		<rect x="417.8" y="191.4" fill="#F7B24B" width="62.2" height="33.2"/>
		<rect x="448.4" y="161.3" fill="#F7B24B" width="63.1" height="30.8"/>
		<rect x="110.9" y="132.2" fill="#603D16" width="32.2" height="92.4"/>
		<rect x="143.1" y="132.2" fill="#603D16" width="91.4" height="29.1"/>
		<rect x="203.9" y="161.3" fill="#603D16" width="61.8" height="34.3"/>
		<rect x="297.8" y="254.8" fill="#603D16" width="61.3" height="28"/>
		<rect x="265.6" y="224.7" fill="#603D16" width="121.5" height="30.1"/>
		<rect x="234.7" y="191.4" fill="#603D16" width="183.1" height="33.2"/>
		<rect x="387.2" y="161.3" fill="#603D16" width="61.3" height="30.1"/>
		<rect x="417.8" y="132.2" fill="#603D16" width="122" height="29.1"/>
		<rect x="511.6" y="161.3" fill="#603D16" width="28.3" height="63.4"/>
		<rect x="480" y="192.1" fill="#603D16" width="31.6" height="62.7"/>
		<rect x="448.4" y="224.7" fill="#603D16" width="31.6" height="58.2"/>
		<rect x="417.8" y="253.7" fill="#603D16" width="30.6" height="92.4"/>
		<rect x="387.2" y="282.8" fill="#603D16" width="30.6" height="63.4"/>
		<rect x="359.1" y="314.5" fill="#603D16" width="28" height="91.9"/>
		<rect x="448.4" y="315.5" fill="#603D16" width="30.1" height="66"/>
		<rect x="478.6" y="346.2" fill="#603D16" width="33" height="60.2"/>
		<rect x="511.6" y="376.3" fill="#603D16" width="28.3" height="90.2"/>
		<rect x="448.4" y="469.3" fill="#603D16" width="63.1" height="28.5"/>
		<rect x="448.4" y="437.6" fill="#603D16" width="30.1" height="33.2"/>
		<rect x="417.8" y="409.2" fill="#603D16" width="30.6" height="28.4"/>
		<rect x="387.2" y="381.5" fill="#603D16" width="30.6" height="56.1"/>
		<rect x="297.8" y="346.2" fill="#603D16" width="61.3" height="60.2"/>
		<rect x="265.6" y="314.5" fill="#603D16" width="32.2" height="91.9"/>
		<rect x="234.5" y="376.3" fill="#603D16" width="31.1" height="61.3"/>
		<rect x="203.9" y="406.4" fill="#603D16" width="30.7" height="31.2"/>
		<rect x="174.8" y="437.6" fill="#603D16" width="29" height="60.2"/>
		<rect x="143.1" y="470.8" fill="#603D16" width="31.7" height="27"/>
		<rect x="110.9" y="376.3" fill="#603D16" width="32.2" height="94.5"/>
		<rect x="143.1" y="346.2" fill="#603D16" width="30.1" height="60.2"/>
		<rect x="171.3" y="314.5" fill="#603D16" width="34.7" height="61.8"/>
		<rect x="203.9" y="253.7" fill="#603D16" width="30.7" height="91.7"/>
		<rect x="234.7" y="282.8" fill="#603D16" width="30.9" height="62.6"/>
		<rect x="174.8" y="220.9" fill="#603D16" width="29" height="61.9"/>
		<rect x="143.1" y="191.4" fill="#603D16" width="31.7" height="60.4"/>
	</g>
</g>
</svg>
