<?xml version="1.0" encoding="utf-8"?>
<!-- Generator: Adobe Illustrator 18.0.0, SVG Export Plug-In . SVG Version: 6.00 Build 0)  -->
<!DOCTYPE svg PUBLIC "-//W3C//DTD SVG 1.1//EN" "http://www.w3.org/Graphics/SVG/1.1/DTD/svg11.dtd">
<svg version="1.1" xmlns="http://www.w3.org/2000/svg" xmlns:xlink="http://www.w3.org/1999/xlink" x="0px" y="0px"
	 viewBox="0 0 589.7 575.1" enable-background="new 0 0 589.7 575.1" xml:space="preserve">
<g id="Réteg_3">
</g>
<g id="Réteg_4">
</g>
<g id="Réteg_5">
</g>
<g id="Réteg_7">
</g>
<g id="Réteg_8">
</g>
<g id="Réteg_6">
</g>
<g id="Réteg_2">
	<g>
		<g>
			<rect x="116" y="52.8" fill="#FFCC6D" width="17" height="26.6"/>
			<rect x="103.2" y="68.6" fill="#FFCC6D" width="12.5" height="34.3"/>
			<rect x="116" y="94.4" fill="#FFCC6D" width="8.3" height="17.1"/>
			<rect x="91.1" y="103" fill="#FFCC6D" width="8.4" height="25.7"/>
			<rect x="99.1" y="111.9" fill="#FFCC6D" width="8.6" height="16.8"/>
			<rect x="107.8" y="120.3" fill="#FFCC6D" width="8.2" height="16.5"/>
			<rect x="91.1" y="145.5" fill="#FFCC6D" width="8" height="17.3"/>
			<rect x="98.9" y="153" fill="#FFCC6D" width="8.9" height="17.5"/>
			<rect x="184.5" y="94.4" fill="#FFCC6D" width="23.5" height="8.5"/>
			<rect x="226" y="60.6" fill="#FFCC6D" width="8.2" height="25.6"/>
			<rect x="251.1" y="86.2" fill="#FFCC6D" width="7.7" height="16.8"/>
			<rect x="258.9" y="93.9" fill="#FFCC6D" width="34.8" height="9.1"/>
			<rect x="285.1" y="103.1" fill="#FFCC6D" width="24.9" height="8.7"/>
			<rect x="183.6" y="297.3" fill="#FFCC6D" width="17" height="9.7"/>
			<rect x="251.1" y="323.9" fill="#FFCC6D" width="9.3" height="8"/>
			<rect x="437.5" y="78" fill="#FFCC6D" width="8.2" height="16.5"/>
			<rect x="445.7" y="60.6" fill="#FFCC6D" width="42.4" height="26.1"/>
			<rect x="454.2" y="44.2" fill="#FFCC6D" width="8.5" height="16.4"/>
			<rect x="462.8" y="52.8" fill="#FFCC6D" width="17.1" height="7.9"/>
			<rect x="471.3" y="73.7" fill="#FFCC6D" width="30.3" height="37.8"/>
			<rect x="471.3" y="111.5" fill="#FFCC6D" width="16.7" height="8.6"/>
			<rect x="471.3" y="120.1" fill="#FFCC6D" width="8.5" height="16.7"/>
			<rect x="463.1" y="128.7" fill="#FFCC6D" width="11" height="26.8"/>
			<rect x="454.4" y="137.3" fill="#FFCC6D" width="8.4" height="25.5"/>
			<rect x="442.9" y="152.9" fill="#FFCC6D" width="11.3" height="18.3"/>
			<rect x="496.9" y="120.1" fill="#FFCC6D" width="17.1" height="34.8"/>
			<rect x="487.7" y="136.8" fill="#FFCC6D" width="9.3" height="8.7"/>
			<rect x="488.4" y="154.1" fill="#FFCC6D" width="17.1" height="8.6"/>
			<rect x="488.4" y="162.8" fill="#FFCC6D" width="8.5" height="16.7"/>
			<rect x="479.7" y="168.9" fill="#FFCC6D" width="12.8" height="19.1"/>
			<rect x="471" y="179.5" fill="#FFCC6D" width="8.9" height="17.1"/>
			<rect x="461.3" y="187" fill="#FFCC6D" width="14" height="17.8"/>
			<rect x="454.4" y="204.9" fill="#FFCC6D" width="8.4" height="8.4"/>
			<rect x="514" y="196.4" fill="#FFCC6D" width="8.2" height="24.8"/>
			<rect x="505.5" y="179.5" fill="#FFCC6D" width="8.5" height="33.8"/>
			<rect x="479.9" y="204.8" fill="#FFCC6D" width="25.6" height="17.1"/>
			<rect x="488.4" y="196.6" fill="#FFCC6D" width="17.1" height="8.2"/>
			<rect x="496.9" y="188.7" fill="#FFCC6D" width="8.5" height="7.9"/>
			<rect x="472" y="213.3" fill="#FFCC6D" width="7.7" height="18.1"/>
			<rect x="462.8" y="220.3" fill="#FFCC6D" width="9.2" height="18.5"/>
			<rect x="505.5" y="246.5" fill="#FFCC6D" width="16.7" height="20.9"/>
			<rect x="488.4" y="255.7" fill="#FFCC6D" width="25.6" height="17.1"/>
			<rect x="479.9" y="264.2" fill="#FFCC6D" width="25.6" height="17.1"/>
			<rect x="471.3" y="272.8" fill="#FFCC6D" width="25.6" height="16.7"/>
			<rect x="454.4" y="273" fill="#FFCC6D" width="21" height="9.1"/>
			<rect x="445.7" y="279" fill="#FFCC6D" width="17.4" height="10.8"/>
			<rect x="488.1" y="297.7" fill="#FFCC6D" width="17.4" height="17.4"/>
			<rect x="463.1" y="297.7" fill="#FFCC6D" width="16.7" height="26.1"/>
			<rect x="471.5" y="306.9" fill="#FFCC6D" width="26.6" height="26.4"/>
			<rect x="438.2" y="306.3" fill="#FFCC6D" width="26.7" height="8.5"/>
			<rect x="395.5" y="331.9" fill="#FFCC6D" width="18.6" height="9"/>
			<rect x="403.9" y="340.9" fill="#FFCC6D" width="26" height="8.7"/>
			<rect x="420.6" y="348.3" fill="#FFCC6D" width="59" height="8.7"/>
			<rect x="429.7" y="357.1" fill="#FFCC6D" width="42.2" height="8.7"/>
			<rect x="446.2" y="364.2" fill="#FFCC6D" width="16.9" height="9.9"/>
			<rect x="377.1" y="348" fill="#FFCC6D" width="10.6" height="27.8"/>
			<rect x="386.6" y="363.7" fill="#FFCC6D" width="8.9" height="18.9"/>
			<rect x="395.5" y="371.1" fill="#FFCC6D" width="17" height="11.5"/>
			<rect x="404" y="382.6" fill="#FFCC6D" width="16.6" height="8.5"/>
			<rect x="174.8" y="340.7" fill="#FFCC6D" width="8.7" height="16.8"/>
			<rect x="166.7" y="348.3" fill="#FFCC6D" width="8.1" height="9.2"/>
			<rect x="183.6" y="391.2" fill="#FFCC6D" width="9" height="16.6"/>
			<rect x="192.1" y="398.9" fill="#FFCC6D" width="8.5" height="26.2"/>
			<rect x="200.6" y="416.6" fill="#FFCC6D" width="16.7" height="25.8"/>
			<rect x="209.5" y="391.2" fill="#FFCC6D" width="16.6" height="25.5"/>
			<rect x="234.4" y="404.1" fill="#FFCC6D" width="8.1" height="54.5"/>
			<rect x="226" y="407.7" fill="#FFCC6D" width="25.1" height="51.2"/>
			<rect x="251.1" y="442.4" fill="#FFCC6D" width="16.6" height="24.6"/>
			<rect x="274.1" y="455.5" fill="#FFCC6D" width="28" height="23.6"/>
			<rect x="260.5" y="458.5" fill="#FFCC6D" width="19.8" height="8.5"/>
			<rect x="302.2" y="442" fill="#FFCC6D" width="8.3" height="25.3"/>
			<rect x="308" y="433.3" fill="#FFCC6D" width="10.6" height="16.9"/>
			<rect x="342.5" y="365.3" fill="#FFCC6D" width="18" height="11.6"/>
			<rect x="353" y="365.5" fill="#FFCC6D" width="16.8" height="42"/>
			<rect x="369.7" y="391.3" fill="#FFCC6D" width="8.5" height="16.2"/>
			<rect x="378.2" y="399.9" fill="#FFCC6D" width="8.4" height="7.6"/>
			<rect x="116" y="79.4" fill="#C5831E" width="16.6" height="15.2"/>
			<rect x="124.5" y="85.7" fill="#C5831E" width="17.1" height="34.4"/>
			<rect x="138.7" y="95.5" fill="#C5831E" width="10.7" height="16"/>
			<rect x="98.5" y="128.8" fill="#C5831E" width="10.3" height="8"/>
			<rect x="116.1" y="129.7" fill="#C5831E" width="8.3" height="24.4"/>
			<rect x="107.8" y="136.8" fill="#C5831E" width="8.2" height="7.4"/>
			<rect x="107.8" y="153.3" fill="#C5831E" width="9.4" height="18.1"/>
			<rect x="98.9" y="170.4" fill="#C5831E" width="8.9" height="9.3"/>
			<rect x="445.7" y="86.7" fill="#C5831E" width="25.6" height="42"/>
			<rect x="434" y="93.3" fill="#C5831E" width="28.8" height="44"/>
			<rect x="429" y="111.9" fill="#C5831E" width="25.3" height="41.5"/>
			<rect x="420.6" y="136.8" fill="#C5831E" width="25.6" height="18.1"/>
			<rect x="429.2" y="152" fill="#C5831E" width="16.5" height="19.1"/>
			<rect x="437.5" y="166.5" fill="#C5831E" width="8.7" height="38.4"/>
			<rect x="479.9" y="145.7" fill="#C5831E" width="17.1" height="8.3"/>
			<rect x="471.1" y="153.3" fill="#C5831E" width="19.4" height="17.3"/>
			<rect x="463.1" y="168.8" fill="#C5831E" width="16.7" height="10.7"/>
			<rect x="454.2" y="179.5" fill="#C5831E" width="17.1" height="8.5"/>
			<rect x="438.2" y="184.2" fill="#C5831E" width="24.6" height="20.7"/>
			<rect x="443.2" y="196.8" fill="#C5831E" width="11" height="34.5"/>
			<rect x="454.4" y="217.2" fill="#C5831E" width="8.4" height="49.8"/>
			<rect x="461.2" y="238.9" fill="#C5831E" width="18.7" height="25.3"/>
			<rect x="472" y="231.4" fill="#C5831E" width="24.9" height="15.9"/>
			<rect x="479.5" y="246.5" fill="#C5831E" width="8.9" height="9.2"/>
			<rect x="479.9" y="221.9" fill="#C5831E" width="25.6" height="17.1"/>
			<rect x="505.5" y="213.1" fill="#C5831E" width="8.4" height="19.4"/>
			<rect x="463.1" y="281.3" fill="#C5831E" width="8.2" height="8.2"/>
			<rect x="445.7" y="289.5" fill="#C5831E" width="42.4" height="8.2"/>
			<rect x="420.6" y="297.7" fill="#C5831E" width="25.6" height="8.5"/>
			<rect x="445.7" y="331.9" fill="#C5831E" width="34.2" height="8.5"/>
			<rect x="386.6" y="323.9" fill="#C5831E" width="84.9" height="9.6"/>
			<rect x="400.2" y="312.7" fill="#C5831E" width="65" height="13.2"/>
			<rect x="412.2" y="304.3" fill="#C5831E" width="28.6" height="10.5"/>
			<rect x="369.8" y="331.9" fill="#C5831E" width="25.7" height="9"/>
			<rect x="413" y="331.9" fill="#C5831E" width="7.6" height="8.9"/>
			<rect x="420.6" y="364.6" fill="#C5831E" width="25.6" height="9.5"/>
			<rect x="404.4" y="357.1" fill="#C5831E" width="25.5" height="11.1"/>
			<rect x="395.5" y="348.9" fill="#C5831E" width="25.1" height="8.3"/>
			<rect x="353" y="340.4" fill="#C5831E" width="51.7" height="8.5"/>
			<rect x="342.7" y="348.3" fill="#C5831E" width="35.3" height="17.4"/>
			<rect x="336.5" y="353" fill="#C5831E" width="6.1" height="38.3"/>
			<rect x="328.2" y="363.6" fill="#C5831E" width="8.4" height="11.7"/>
			<rect x="341.9" y="375.1" fill="#C5831E" width="11.1" height="24.8"/>
			<rect x="386.5" y="382.6" fill="#C5831E" width="17.6" height="8.5"/>
			<rect x="369.8" y="365.8" fill="#C5831E" width="8.2" height="16.9"/>
			<rect x="378" y="375.1" fill="#C5831E" width="8.5" height="7.6"/>
			<rect x="317.8" y="391.3" fill="#C5831E" width="10.3" height="33.1"/>
			<rect x="310.4" y="416.6" fill="#C5831E" width="8.2" height="16.6"/>
			<rect x="242.7" y="374.1" fill="#C5831E" width="11" height="50.3"/>
			<rect x="232.9" y="382.6" fill="#C5831E" width="11.1" height="25.1"/>
			<rect x="251.1" y="314.8" fill="#C5831E" width="9.3" height="9"/>
			<rect x="234.2" y="323.9" fill="#C5831E" width="16.9" height="24.4"/>
			<rect x="226" y="340.9" fill="#C5831E" width="18" height="16.4"/>
			<rect x="217.3" y="349.6" fill="#C5831E" width="17" height="24.8"/>
			<rect x="209" y="374.1" fill="#C5831E" width="17.1" height="17.1"/>
			<rect x="191.4" y="389.6" fill="#C5831E" width="18" height="9.6"/>
			<rect x="200.6" y="398.3" fill="#FFAC00" width="8.9" height="18.3"/>
			<rect x="200.6" y="297.3" fill="#FFAC00" width="10.7" height="17.5"/>
			<rect x="206.7" y="306.9" fill="#FFAC00" width="19.2" height="7.9"/>
			<rect x="212.7" y="314.8" fill="#FFAC00" width="13.3" height="17.1"/>
			<rect x="166.7" y="357.5" fill="#FFAC00" width="16.8" height="6.6"/>
			<rect x="183.6" y="349.6" fill="#FFAC00" width="17" height="27.2"/>
			<rect x="208.6" y="60.6" fill="#FFAC00" width="8.6" height="18.8"/>
			<rect x="226" y="52.8" fill="#FFAC00" width="8.2" height="7.9"/>
			<rect x="251.1" y="60.6" fill="#FFAC00" width="7.7" height="17"/>
			<rect x="234.2" y="60.6" fill="#FFAC00" width="8.2" height="42.3"/>
			<rect x="217.3" y="86" fill="#FFAC00" width="16.9" height="25.5"/>
			<rect x="171.5" y="103.5" fill="#FFAC00" width="13" height="16.5"/>
			<rect x="183" y="102.9" fill="#FFAC00" width="25.6" height="9"/>
			<rect x="174.8" y="126" fill="#FFAC00" width="13.3" height="12.7"/>
			<rect x="251.1" y="103" fill="#FFAC00" width="34" height="8.9"/>
			<rect x="310.1" y="111.9" fill="#FFAC00" width="8.5" height="24.9"/>
			<rect x="293.7" y="111.5" fill="#FFAC00" width="16.7" height="16.8"/>
			<rect x="268.1" y="111.5" fill="#FFAC00" width="27.5" height="8.4"/>
			<rect x="191.2" y="77.6" fill="#014E6E" width="10.7" height="9.4"/>
			<rect x="293.7" y="77.6" fill="#014E6E" width="50.7" height="9.4"/>
			<rect x="327.2" y="120.1" fill="#014E6E" width="42.5" height="8.6"/>
			<rect x="336.4" y="127.8" fill="#014E6E" width="42" height="9.7"/>
			<rect x="149.5" y="136.9" fill="#014E6E" width="10.7" height="27.2"/>
			<rect x="141.7" y="188.7" fill="#014E6E" width="9.4" height="24.6"/>
			<rect x="132.7" y="196.8" fill="#014E6E" width="11.4" height="16.6"/>
			<rect x="336.5" y="171.1" fill="#014E6E" width="41.7" height="17.6"/>
			<rect x="378.2" y="171.1" fill="#014E6E" width="8.4" height="8.6"/>
			<rect x="141.7" y="188.7" fill="#014E6E" width="7.8" height="8"/>
			<rect x="132.7" y="196.8" fill="#014E6E" width="17" height="16.6"/>
			<rect x="124.5" y="238.9" fill="#014E6E" width="33.6" height="16.6"/>
			<rect x="124.4" y="289.5" fill="#014E6E" width="51.5" height="17.4"/>
			<rect x="215.8" y="278.3" fill="#014E6E" width="18.4" height="19.5"/>
			<rect x="234.2" y="289" fill="#014E6E" width="9.8" height="8.7"/>
			<rect x="226" y="295.9" fill="#014E6E" width="8.2" height="11"/>
			<rect x="192.6" y="323.2" fill="#014E6E" width="16.1" height="17.5"/>
			<rect x="200.6" y="332" fill="#014E6E" width="16.7" height="17.6"/>
			<rect x="139.9" y="331.9" fill="#014E6E" width="20.2" height="17.7"/>
			<rect x="133.2" y="331.9" fill="#014E6E" width="10.8" height="10.9"/>
			<rect x="141" y="382.6" fill="#014E6E" width="25.8" height="8.5"/>
			<rect x="141" y="424.4" fill="#014E6E" width="11.9" height="25.8"/>
			<rect x="260.5" y="407.8" fill="#014E6E" width="7.6" height="16.6"/>
			<rect x="268.1" y="416.1" fill="#014E6E" width="17.4" height="9"/>
			<rect x="260.5" y="373.6" fill="#014E6E" width="25" height="9"/>
			<rect x="268.1" y="323.8" fill="#014E6E" width="34.1" height="16.6"/>
			<rect x="302.2" y="323.8" fill="#014E6E" width="8.4" height="7.7"/>
			<rect x="318.6" y="272.3" fill="#014E6E" width="59.6" height="17.2"/>
			<rect x="292.2" y="277.2" fill="#014E6E" width="29.6" height="15.2"/>
			<rect x="378.2" y="272.3" fill="#014E6E" width="17" height="8.4"/>
			<rect x="327.2" y="221.9" fill="#014E6E" width="59.6" height="17.5"/>
			<rect x="384.6" y="221.2" fill="#014E6E" width="19.7" height="9.2"/>
			<rect x="378.2" y="188.7" fill="#008BC8" width="0" height="0"/>
			<rect x="181.6" y="143.6" fill="#008BC8" width="14.2" height="11.3"/>
			<rect x="264.3" y="141.6" fill="#008BC8" width="16.6" height="16.7"/>
			<rect x="141.2" y="136.9" fill="#008BC8" width="8.2" height="25.5"/>
			<rect x="133" y="153.7" fill="#008BC8" width="8.2" height="8.7"/>
			<rect x="116" y="196.4" fill="#008BC8" width="8.5" height="8.4"/>
			<rect x="124.4" y="188.7" fill="#008BC8" width="17.3" height="8"/>
			<rect x="124.5" y="196.4" fill="#008BC8" width="8.1" height="16.9"/>
			<rect x="116.1" y="238.9" fill="#008BC8" width="8.5" height="16.6"/>
			<rect x="99.5" y="246.5" fill="#008BC8" width="16.6" height="9.1"/>
			<rect x="99.5" y="255.5" fill="#008BC8" width="8.4" height="8.7"/>
			<rect x="192.6" y="272.3" fill="#008BC8" width="23.7" height="16.8"/>
			<rect x="200.6" y="264.2" fill="#008BC8" width="8.4" height="8.1"/>
			<rect x="216.3" y="272.3" fill="#008BC8" width="9.8" height="8.7"/>
			<rect x="174.8" y="315.1" fill="#008BC8" width="17.7" height="16.4"/>
			<rect x="268.1" y="424.4" fill="#008BC8" width="24.3" height="8.9"/>
			<rect x="285.5" y="416.1" fill="#008BC8" width="10.7" height="9"/>
			<rect x="285.5" y="373.6" fill="#008BC8" width="25" height="9"/>
			<rect x="302.2" y="331.5" fill="#008BC8" width="26" height="8.9"/>
			<rect x="310.6" y="323.8" fill="#008BC8" width="42.4" height="8.1"/>
			<rect x="395.2" y="272.3" fill="#008BC8" width="42.9" height="17.2"/>
			<rect x="378.2" y="280.7" fill="#008BC8" width="17" height="8.9"/>
			<rect x="404.4" y="221.2" fill="#008BC8" width="28.4" height="17.7"/>
			<rect x="384.6" y="230.4" fill="#008BC8" width="23.4" height="8.5"/>
			<rect x="429.4" y="231.5" fill="#008BC8" width="8.8" height="7.4"/>
			<rect x="386.6" y="171.1" fill="#008BC8" width="25.6" height="17.6"/>
			<rect x="412.2" y="171.1" fill="#008BC8" width="8.4" height="8.4"/>
			<rect x="378.2" y="179.7" fill="#008BC8" width="8.4" height="9"/>
			<rect x="369.7" y="120.1" fill="#008BC8" width="25.8" height="8.2"/>
			<rect x="378.4" y="124.9" fill="#008BC8" width="27.9" height="12.3"/>
			<rect x="344.4" y="73.7" fill="#A6A9AC" width="21.3" height="13.3"/>
			<rect x="268.1" y="52.8" fill="#A6A9AC" width="17.1" height="16.4"/>
			<rect x="285.1" y="60.9" fill="#A6A9AC" width="8.5" height="7.7"/>
			<rect x="344.4" y="77.6" fill="#A6A9AC" width="17.9" height="8.6"/>
			<rect x="327.2" y="93.1" fill="#A6A9AC" width="26.2" height="18.6"/>
			<rect x="336.4" y="143.6" fill="#A6A9AC" width="33.6" height="19.2"/>
			<rect x="336.5" y="196.6" fill="#A6A9AC" width="41.2" height="16.7"/>
			<rect x="327.2" y="203.2" fill="#A6A9AC" width="11" height="10.8"/>
			<rect x="377.7" y="204.9" fill="#A6A9AC" width="9" height="8.4"/>
			<rect x="420.6" y="188" fill="#A6A9AC" width="8.8" height="8.5"/>
			<rect x="318.6" y="246.5" fill="#A6A9AC" width="68" height="19.3"/>
			<rect x="394.5" y="297.3" fill="#A6A9AC" width="11.8" height="10.9"/>
			<rect x="276.6" y="297.7" fill="#A6A9AC" width="42.5" height="19.4"/>
			<rect x="268.1" y="306" fill="#A6A9AC" width="8.5" height="9.1"/>
			<rect x="260.5" y="348.3" fill="#A6A9AC" width="24.6" height="17.8"/>
			<rect x="294.3" y="391.2" fill="#A6A9AC" width="8.2" height="16.6"/>
			<rect x="260.5" y="391.2" fill="#A6A9AC" width="7.6" height="16.7"/>
			<rect x="268.1" y="441.5" fill="#A6A9AC" width="25.8" height="8.7"/>
			<rect x="141" y="398.9" fill="#A6A9AC" width="19.2" height="8.8"/>
			<rect x="141" y="407.8" fill="#A6A9AC" width="10" height="17"/>
			<rect x="141" y="357.3" fill="#A6A9AC" width="10" height="10.2"/>
			<rect x="149.4" y="313.3" fill="#A6A9AC" width="17.4" height="12.8"/>
			<rect x="141" y="263.6" fill="#A6A9AC" width="25.8" height="17.9"/>
			<rect x="166.7" y="272.3" fill="#A6A9AC" width="8.4" height="9.2"/>
			<rect x="124.4" y="272.5" fill="#A6A9AC" width="19.7" height="9"/>
			<rect x="133.2" y="221.9" fill="#A6A9AC" width="17.7" height="10.9"/>
			<rect x="124.4" y="170.4" fill="#A6A9AC" width="25.7" height="9.5"/>
			<rect x="209.4" y="119.9" fill="#925E18" width="45.6" height="17.4"/>
			<rect x="215.8" y="134.2" fill="#925E18" width="10.2" height="11.3"/>
			<rect x="226" y="145.5" fill="#925E18" width="9" height="9.4"/>
			<rect x="200.4" y="145.5" fill="#925E18" width="18.9" height="51.1"/>
			<rect x="217.7" y="171" fill="#925E18" width="11.6" height="25.3"/>
			<rect x="226" y="162.8" fill="#925E18" width="8.3" height="9.7"/>
			<rect x="226" y="188" fill="#925E18" width="25.1" height="42.4"/>
			<rect x="244" y="171.1" fill="#925E18" width="16.5" height="17"/>
			<rect x="234.2" y="221.9" fill="#925E18" width="33.9" height="45.1"/>
			<rect x="183.6" y="238.9" fill="#925E18" width="54.8" height="20.5"/>
			<rect x="264.3" y="194.6" fill="#925E18" width="16.6" height="64.9"/>
			<rect x="302" y="162.8" fill="#925E18" width="8.8" height="8.8"/>
			<rect x="272.8" y="179.9" fill="#925E18" width="23.8" height="18.7"/>
			<rect x="121.7" y="451" fill="#925E18" width="43.3" height="62.2"/>
			<rect x="154.7" y="431.5" fill="#925E18" width="22" height="35.5"/>
			<rect x="95.8" y="475" fill="#925E18" width="39.8" height="47.3"/>
			<rect x="79.6" y="493" fill="#925E18" width="23.6" height="29.3"/>
			<rect x="290.8" y="496.1" fill="#925E18" width="106.4" height="33.3"/>
			<rect x="298.4" y="488.6" fill="#925E18" width="92.6" height="15"/>
			<rect x="315.2" y="476.7" fill="#925E18" width="63.7" height="19.4"/>
			<rect x="336" y="450.2" fill="#925E18" width="17" height="27.4"/>
			<rect x="361.7" y="458.8" fill="#925E18" width="12.2" height="20.3"/>
			<rect x="369.8" y="442.4" fill="#925E18" width="30.6" height="20.9"/>
			<rect x="378.2" y="418.3" fill="#925E18" width="22.2" height="29.3"/>
			<rect x="361.4" y="415.6" fill="#925E18" width="27.4" height="17.8"/>
			<rect x="352.8" y="424.4" fill="#925E18" width="8.9" height="26.6"/>
			<rect x="429.7" y="404.1" fill="#925E18" width="28.4" height="48.8"/>
			<rect x="411.8" y="451.1" fill="#925E18" width="38.3" height="12.3"/>
			<rect x="420.6" y="458.5" fill="#925E18" width="12.1" height="16.8"/>
			<rect x="496.9" y="483.4" fill="#925E18" width="46.8" height="22"/>
			<rect x="505.4" y="442" fill="#925E18" width="29.7" height="29.8"/>
			<rect x="479.6" y="378.9" fill="#925E18" width="17.2" height="54.7"/>
			<rect x="496.8" y="370.2" fill="#925E18" width="8.6" height="38.6"/>
			<rect x="505.3" y="370.8" fill="#925E18" width="18.4" height="20.5"/>
			<rect x="513.2" y="430.8" fill="#925E18" width="17.6" height="11.6"/>
			<rect x="505.4" y="416.6" fill="#925E18" width="17.5" height="7.8"/>
			<rect x="513.2" y="424.4" fill="#925E18" width="9.7" height="6.4"/>
			<rect x="513.8" y="385.9" fill="#925E18" width="9" height="30.8"/>
			<rect x="166.7" y="188.7" fill="#925E18" width="47.2" height="38.3"/>
			<rect x="158.1" y="201" fill="#925E18" width="12.7" height="30.2"/>
			<rect x="174.8" y="223.6" fill="#925E18" width="17.7" height="18.5"/>
			<rect x="260.5" y="175.7" fill="#925E18" width="7.7" height="46.1"/>
			<rect x="266.6" y="177.8" fill="#925E18" width="6.2" height="18.6"/>
			<rect x="272.3" y="178.6" fill="#925E18" width="21.4" height="4.5"/>
			<rect x="242.4" y="169.4" fill="#925E18" width="19.3" height="4.2"/>
			<rect x="225" y="136.9" fill="#BE7714" width="11.4" height="8.6"/>
			<rect x="219.4" y="145.5" fill="#BE7714" width="6.7" height="25.6"/>
			<rect x="251.1" y="188" fill="#BE7714" width="9.3" height="33.9"/>
			<rect x="276.6" y="169.4" fill="#BE7714" width="26.7" height="10.1"/>
			<rect x="293.9" y="161.1" fill="#BE7714" width="9.4" height="10.4"/>
			<rect x="352.8" y="451" fill="#BE7714" width="9.4" height="25.7"/>
			<rect x="361.4" y="433.4" fill="#BE7714" width="8.4" height="25.5"/>
			<rect x="369.8" y="433.4" fill="#BE7714" width="9.1" height="9"/>
			<rect x="505.3" y="391.3" fill="#BE7714" width="8.6" height="25.4"/>
			<rect x="496.8" y="408.9" fill="#BE7714" width="8.7" height="24"/>
			<rect x="505.1" y="424.3" fill="#925E18" width="8" height="18.1"/>
			<rect x="310.4" y="153" fill="#633B0F" width="17.4" height="26.7"/>
			<rect x="302.6" y="145.5" fill="#633B0F" width="8.2" height="16.5"/>
			<rect x="285.1" y="154.9" fill="#633B0F" width="29.4" height="9.1"/>
			<rect x="276.6" y="162.8" fill="#633B0F" width="17.3" height="8.4"/>
			<rect x="260.5" y="170.4" fill="#633B0F" width="16.9" height="9.1"/>
			<rect x="242.4" y="162.8" fill="#633B0F" width="29.9" height="7.7"/>
			<rect x="226" y="171.1" fill="#633B0F" width="18" height="16.8"/>
			<rect x="166.7" y="162.4" fill="#633B0F" width="25.8" height="26.3"/>
			<rect x="184.5" y="188" fill="#633B0F" width="7.6" height="16.8"/>
			<rect x="192.6" y="194.6" fill="#633B0F" width="8" height="17.9"/>
			<rect x="210.3" y="201" fill="#633B0F" width="15.7" height="22.6"/>
			<rect x="200.4" y="204.2" fill="#633B0F" width="33.8" height="8.3"/>
			<rect x="174.8" y="238.8" fill="#633B0F" width="9.7" height="26.9"/>
			<rect x="183.7" y="255.3" fill="#633B0F" width="51.3" height="10.4"/>
			<rect x="201.9" y="247.3" fill="#633B0F" width="24.2" height="9.1"/>
			<rect x="226" y="263.6" fill="#633B0F" width="51.3" height="17.9"/>
			<rect x="251.1" y="276.5" fill="#633B0F" width="21.6" height="21.8"/>
			<rect x="266.5" y="255.3" fill="#633B0F" width="20.4" height="8.2"/>
			<rect x="268.9" y="188.7" fill="#633B0F" width="9.2" height="40.9"/>
			<rect x="276.6" y="198.6" fill="#633B0F" width="10.3" height="56.7"/>
			<rect x="299.8" y="201" fill="#633B0F" width="19.8" height="37.8"/>
			<rect x="292.2" y="238.8" fill="#633B0F" width="22.1" height="28.2"/>
			<rect x="292.8" y="267" fill="#633B0F" width="13.6" height="9.5"/>
			<rect x="302" y="171.6" fill="#633B0F" width="17.6" height="17.1"/>
			<rect x="292.8" y="179.5" fill="#633B0F" width="21.6" height="19.1"/>
			<rect x="285.7" y="187" fill="#633B0F" width="9.8" height="9.6"/>
			<rect x="116" y="424.4" fill="#633B0F" width="17.2" height="26.7"/>
			<rect x="105.1" y="447.5" fill="#633B0F" width="19.2" height="19.8"/>
			<rect x="133.2" y="450.2" fill="#633B0F" width="7.8" height="8.7"/>
			<rect x="91.9" y="491.8" fill="#633B0F" width="7.8" height="34.8"/>
			<rect x="79.6" y="518" fill="#633B0F" width="16.2" height="8.5"/>
			<rect x="107.8" y="518.3" fill="#633B0F" width="27.8" height="8.2"/>
			<rect x="116" y="509.2" fill="#633B0F" width="19.5" height="9.2"/>
			<rect x="124.5" y="501.4" fill="#633B0F" width="8.7" height="7.8"/>
			<rect x="141" y="508.8" fill="#633B0F" width="27.4" height="17.7"/>
			<rect x="158.3" y="467" fill="#633B0F" width="18.3" height="41.8"/>
			<rect x="174.8" y="424.4" fill="#633B0F" width="17.2" height="50.9"/>
			<rect x="158.3" y="416.6" fill="#633B0F" width="18.3" height="16.9"/>
			<rect x="292.5" y="509.7" fill="#633B0F" width="10.1" height="19.7"/>
			<rect x="300.4" y="518.3" fill="#633B0F" width="18.3" height="16.9"/>
			<rect x="310.6" y="509.7" fill="#633B0F" width="8" height="8.6"/>
			<rect x="327.2" y="501.4" fill="#633B0F" width="10.8" height="35.6"/>
			<rect x="353" y="501.4" fill="#633B0F" width="10.3" height="35.6"/>
			<rect x="336.5" y="509.7" fill="#633B0F" width="18.4" height="27.3"/>
			<rect x="369.7" y="501.1" fill="#633B0F" width="8.5" height="35.9"/>
			<rect x="378" y="509.7" fill="#633B0F" width="17.5" height="25.5"/>
			<rect x="317.8" y="467" fill="#633B0F" width="10.3" height="8.3"/>
			<rect x="328.2" y="450.2" fill="#633B0F" width="16.1" height="18.8"/>
			<rect x="336.5" y="431.5" fill="#633B0F" width="16.5" height="18.6"/>
			<rect x="344.3" y="424.4" fill="#633B0F" width="8.5" height="8.8"/>
			<rect x="351.5" y="415.6" fill="#633B0F" width="9.9" height="8.8"/>
			<rect x="369.8" y="458.9" fill="#633B0F" width="28.8" height="25.8"/>
			<rect x="387.7" y="451.1" fill="#633B0F" width="24.8" height="16.2"/>
			<rect x="387.7" y="415.6" fill="#633B0F" width="7.9" height="8.8"/>
			<rect x="395.5" y="399.4" fill="#633B0F" width="22.6" height="59.2"/>
			<rect x="417.1" y="398.3" fill="#633B0F" width="20.7" height="36.1"/>
			<rect x="427.4" y="390.3" fill="#633B0F" width="27.1" height="17.5"/>
			<rect x="436.6" y="382.6" fill="#633B0F" width="42.9" height="25.2"/>
			<rect x="471.9" y="374.4" fill="#633B0F" width="16.2" height="24.6"/>
			<rect x="454.7" y="396.8" fill="#633B0F" width="24.9" height="36.4"/>
			<rect x="471.9" y="425.1" fill="#633B0F" width="16.5" height="16.9"/>
			<rect x="478.3" y="432.1" fill="#633B0F" width="30.6" height="27.5"/>
			<rect x="486.5" y="468.2" fill="#633B0F" width="44.3" height="15.6"/>
			<rect x="488.4" y="458.5" fill="#633B0F" width="33.7" height="9.7"/>
			<rect x="479.9" y="483.4" fill="#633B0F" width="17.1" height="25.4"/>
			<rect x="505.5" y="492.5" fill="#633B0F" width="25.3" height="16.3"/>
			<rect x="488.1" y="348.3" fill="#633B0F" width="34.2" height="24.8"/>
			<rect x="481.2" y="365.3" fill="#633B0F" width="15.6" height="17.3"/>
			<rect x="496.8" y="330.8" fill="#633B0F" width="17.3" height="28.4"/>
		</g>
		<rect x="217.2" y="44.2" width="110.7" height="8.5"/>
		<rect x="234.2" y="52.8" width="33.8" height="7.9"/>
		<rect x="208.6" y="52.8" width="17.4" height="7.9"/>
		<rect x="310.1" y="52.8" width="34.2" height="7.9"/>
		<rect x="327.8" y="60.6" width="33.1" height="16.1"/>
		<rect x="258.9" y="60.6" width="9.2" height="33.8"/>
		<rect x="268.1" y="68.6" width="59.8" height="9"/>
		<rect x="268.1" y="77.6" width="25.6" height="16.8"/>
		<rect x="242.4" y="60.6" width="8.7" height="59.4"/>
		<rect x="251.1" y="77.6" width="7.7" height="8.4"/>
		<rect x="217.3" y="60.6" width="8.7" height="25.4"/>
		<rect x="192.6" y="60.6" width="16.1" height="9.9"/>
		<rect x="183" y="68.6" width="25.6" height="9"/>
		<rect x="208" y="79.4" width="9.2" height="40.7"/>
		<rect x="201.9" y="77.5" width="6.8" height="16.9"/>
		<rect x="183" y="77.6" width="8.2" height="16.8"/>
		<rect x="191.2" y="86" width="10.7" height="8.4"/>
		<rect x="327.8" y="68.6" width="41.7" height="8.9"/>
		<rect x="362.3" y="77.5" width="15.4" height="8.5"/>
		<rect x="258.9" y="86" width="127.7" height="8.4"/>
		<rect x="293.7" y="94.4" width="33.5" height="8.5"/>
		<rect x="310.1" y="103" width="17.1" height="8.9"/>
		<rect x="377.7" y="94.4" width="17.8" height="17.4"/>
		<rect x="319.6" y="111.9" width="84.7" height="8.2"/>
		<rect x="395.5" y="120.1" width="33.5" height="8.2"/>
		<rect x="412.2" y="111.9" width="16.7" height="8.2"/>
		<rect x="420.6" y="94.4" width="16.9" height="17.4"/>
		<rect x="429" y="78" width="8.5" height="16.5"/>
		<rect x="437.5" y="35.7" width="8.2" height="42"/>
		<rect x="445.7" y="35.7" width="8.5" height="24.9"/>
		<rect x="454.2" y="35.7" width="25.6" height="8.5"/>
		<rect x="462.8" y="44.2" width="25.3" height="8.5"/>
		<rect x="479.9" y="52.8" width="17.1" height="7.9"/>
		<rect x="488.4" y="60.6" width="8.5" height="17"/>
		<rect x="496.9" y="95.8" width="25.3" height="24.3"/>
		<rect x="496.9" y="77.6" width="17.1" height="18.2"/>
		<rect x="496.9" y="68.6" width="8.5" height="9"/>
		<rect x="487.7" y="111.9" width="9.3" height="24.9"/>
		<rect x="479.9" y="120.1" width="8.2" height="26.6"/>
		<rect x="472" y="136.8" width="7.9" height="18.1"/>
		<rect x="462.8" y="154.9" width="9.2" height="15.7"/>
		<rect x="454.2" y="162.8" width="9" height="16.7"/>
		<rect x="445.7" y="171.1" width="8.5" height="17.6"/>
		<rect x="514" y="120.1" width="8.2" height="42.7"/>
		<rect x="505.5" y="154.9" width="8.5" height="24.6"/>
		<rect x="496.9" y="162.8" width="8.5" height="26"/>
		<rect x="488.4" y="179.5" width="8.5" height="17.1"/>
		<rect x="479.9" y="188" width="8.7" height="16.7"/>
		<rect x="472" y="196.6" width="7.9" height="16.7"/>
		<rect x="462.8" y="204.9" width="9.2" height="8.4"/>
		<rect x="454.2" y="213.3" width="17.8" height="7.9"/>
		<rect x="514" y="171.1" width="8.2" height="25.3"/>
		<rect x="522.2" y="188.7" width="8.5" height="32.5"/>
		<rect x="514" y="221.2" width="8.2" height="25.3"/>
		<rect x="505.5" y="231.4" width="8.5" height="15"/>
		<rect x="496.9" y="238.9" width="8.5" height="16.7"/>
		<rect x="488.4" y="247.3" width="8.5" height="8.4"/>
		<rect x="479.9" y="255.7" width="8.5" height="8.5"/>
		<rect x="522.2" y="238.9" width="8.5" height="32.8"/>
		<rect x="514" y="264.2" width="8.2" height="17.1"/>
		<rect x="505.5" y="272.8" width="8.5" height="60.1"/>
		<rect x="496.9" y="281.3" width="8.5" height="16.4"/>
		<rect x="488.1" y="289.5" width="8.9" height="8.2"/>
		<rect x="479.9" y="297.7" width="8.5" height="9.2"/>
		<rect x="505.5" y="332.9" width="16.7" height="7.9"/>
		<rect x="496.9" y="315.1" width="8.5" height="16.1"/>
		<rect x="488.4" y="323.1" width="8.5" height="25.8"/>
		<rect x="445.7" y="297.7" width="17.4" height="9.2"/>
		<rect x="302.6" y="264.2" width="177.3" height="8.5"/>
		<rect x="438.2" y="231.4" width="16.1" height="49.9"/>
		<rect x="310.4" y="238.9" width="127.8" height="7.5"/>
		<rect x="429.2" y="204.8" width="16.5" height="26.6"/>
		<rect x="429" y="171.1" width="9.2" height="33.6"/>
		<rect x="420.6" y="154.9" width="8.7" height="33.1"/>
		<rect x="412.2" y="179.5" width="8.4" height="16.9"/>
		<rect x="310.4" y="188.7" width="101.8" height="7.7"/>
		<rect x="327.8" y="162.8" width="101.1" height="8.4"/>
		<rect x="327.8" y="128.3" width="8.5" height="76.5"/>
		<rect x="412.2" y="128.3" width="8.4" height="34.5"/>
		<rect x="404.4" y="128.3" width="8.2" height="26.6"/>
		<rect x="336.4" y="136.8" width="68" height="8.7"/>
		<rect x="420.6" y="128.3" width="8.7" height="8.5"/>
		<rect x="310.4" y="136.8" width="17.4" height="18.1"/>
		<rect x="318.6" y="86.2" width="9.2" height="50.6"/>
		<rect x="234.2" y="128.3" width="76.5" height="17.3"/>
		<rect x="278" y="145.5" width="24.6" height="9.2"/>
		<rect x="226" y="154.9" width="59.1" height="7.9"/>
		<rect x="234.2" y="162.8" width="8.2" height="8.4"/>
		<rect x="268.1" y="162.8" width="8.5" height="8.7"/>
		<rect x="234.2" y="145.5" width="33.8" height="9.4"/>
		<rect x="251.1" y="120.1" width="42.5" height="8.2"/>
		<rect x="210.3" y="111.9" width="57.7" height="8.2"/>
		<rect x="234.2" y="103.1" width="16.9" height="8.4"/>
		<rect x="81.5" y="86.2" width="9.6" height="76.6"/>
		<rect x="91.1" y="68.6" width="16.7" height="34.3"/>
		<rect x="107.8" y="44.2" width="8.2" height="24.4"/>
		<rect x="99.5" y="60.6" width="8.4" height="8"/>
		<rect x="116" y="35.7" width="24.9" height="17.1"/>
		<rect x="133" y="52.8" width="16.5" height="33.4"/>
		<rect x="166.7" y="77.6" width="17.8" height="25.5"/>
		<rect x="141" y="85.8" width="25.8" height="9.7"/>
		<rect x="149.5" y="95.5" width="25.4" height="41.4"/>
		<rect x="174.8" y="120.1" width="35.5" height="8.2"/>
		<rect x="183.6" y="111.9" width="25" height="33.6"/>
		<rect x="208.6" y="128.7" width="8.7" height="17.2"/>
		<rect x="99.5" y="103" width="16.6" height="8.9"/>
		<rect x="107.8" y="111.5" width="16.6" height="8.6"/>
		<rect x="141.2" y="111.9" width="8.2" height="25"/>
		<rect x="116.1" y="120.1" width="25.2" height="9.7"/>
		<rect x="124.4" y="129.8" width="17.2" height="25.1"/>
		<rect x="116.1" y="153.7" width="16.9" height="17.5"/>
		<rect x="91.1" y="128.7" width="8.4" height="16.8"/>
		<rect x="99.5" y="144.2" width="16.6" height="9.5"/>
		<rect x="99.5" y="136.8" width="8.4" height="7.4"/>
		<rect x="158.9" y="136.8" width="24.7" height="27.5"/>
		<rect x="192.6" y="143.9" width="16.1" height="18.5"/>
		<rect x="183.6" y="154.1" width="9" height="8.3"/>
		<rect x="174.8" y="162.4" width="25.8" height="9"/>
		<rect x="132.7" y="162.4" width="34.1" height="9.2"/>
		<rect x="91.1" y="162.8" width="8" height="26"/>
		<rect x="99.5" y="179.7" width="8.4" height="9"/>
		<rect x="107.8" y="170.4" width="16.6" height="26"/>
		<rect x="124.4" y="179.7" width="42.4" height="9"/>
		<rect x="149.5" y="171.4" width="17.3" height="33.4"/>
		<rect x="192.6" y="171.1" width="8" height="25.3"/>
		<rect x="200.6" y="188.1" width="7.4" height="16.7"/>
		<rect x="205.2" y="196.4" width="29" height="8.4"/>
		<rect x="166.7" y="196.4" width="8.1" height="76.3"/>
		<rect x="149.5" y="204.8" width="8.6" height="34.2"/>
		<rect x="99.5" y="188.7" width="8.3" height="57.7"/>
		<rect x="107.8" y="238.9" width="8.3" height="7"/>
		<rect x="89.9" y="212.5" width="10.3" height="76.5"/>
		<rect x="107.8" y="196.4" width="8.3" height="25.5"/>
		<rect x="116.1" y="204.8" width="8.5" height="17.1"/>
		<rect x="124.5" y="213.3" width="24.9" height="8.5"/>
		<rect x="133" y="230.4" width="16.5" height="8.6"/>
		<rect x="158.1" y="230.4" width="8.6" height="33.8"/>
		<rect x="107.8" y="255.5" width="58.9" height="8.7"/>
		<rect x="99.5" y="264.2" width="16.6" height="8.5"/>
		<rect x="81.5" y="255.5" width="18.6" height="33.5"/>
		<rect x="89.9" y="289" width="9.6" height="16.5"/>
		<rect x="98.9" y="280.7" width="8.9" height="34.1"/>
		<rect x="107.8" y="297.3" width="8.3" height="25.9"/>
		<rect x="116" y="280.7" width="76.5" height="8.4"/>
		<rect x="174.8" y="264.2" width="17.7" height="33.5"/>
		<rect x="192.6" y="264.2" width="8" height="8.1"/>
		<rect x="192.6" y="221.9" width="41.7" height="17.1"/>
		<rect x="183.6" y="238.9" width="9" height="8.4"/>
		<rect x="234.2" y="230.4" width="16.9" height="16.9"/>
		<rect x="251.1" y="238.8" width="9.3" height="16.7"/>
		<rect x="285.1" y="196.4" width="17.4" height="50.9"/>
		<rect x="302.6" y="196.4" width="25.3" height="8.3"/>
		<rect x="319.6" y="179.7" width="8.2" height="9"/>
		<rect x="318.6" y="204.8" width="9.2" height="41.7"/>
		<rect x="327.2" y="213.3" width="102.1" height="8.5"/>
		<rect x="310.4" y="246.5" width="8.2" height="34.2"/>
		<rect x="285.1" y="247.3" width="8.5" height="50.4"/>
		<rect x="277.4" y="272.8" width="33.1" height="8.7"/>
		<rect x="276.6" y="263.6" width="10.3" height="9.2"/>
		<rect x="268.1" y="281.3" width="17.1" height="16.4"/>
		<rect x="268.1" y="297.7" width="8.5" height="9.2"/>
		<rect x="293.7" y="289.5" width="152" height="8.2"/>
		<rect x="438.2" y="281.3" width="7.5" height="8.2"/>
		<rect x="404.4" y="297.7" width="16.2" height="9.2"/>
		<rect x="386.6" y="306.9" width="25.6" height="7.9"/>
		<rect x="260.5" y="314.8" width="142.5" height="9"/>
		<rect x="260.5" y="289.5" width="7.6" height="25.3"/>
		<rect x="208.6" y="264.2" width="17.4" height="8.1"/>
		<rect x="226" y="272.3" width="16.7" height="8.7"/>
		<rect x="234.2" y="280.7" width="16.9" height="8.9"/>
		<rect x="244" y="289" width="7.1" height="8.7"/>
		<rect x="192.6" y="289" width="24.8" height="8.7"/>
		<rect x="208.6" y="297.7" width="17.4" height="9.2"/>
		<rect x="234.2" y="297.7" width="26.2" height="17.1"/>
		<rect x="226" y="306.9" width="8.2" height="34"/>
		<rect x="234.2" y="314.8" width="16.9" height="9.1"/>
		<rect x="175.9" y="297.3" width="7.7" height="9.7"/>
		<rect x="116" y="306.9" width="84.5" height="7.9"/>
		<rect x="192.6" y="314.8" width="24.8" height="8.4"/>
		<rect x="208.6" y="323.2" width="8.7" height="8.7"/>
		<rect x="217.3" y="331.9" width="8.7" height="17.7"/>
		<rect x="200.6" y="349.6" width="16.7" height="24.5"/>
		<rect x="166.7" y="374.1" width="42.2" height="17.1"/>
		<rect x="116" y="314.8" width="8.5" height="25.9"/>
		<rect x="166.7" y="313.3" width="8.1" height="35.1"/>
		<rect x="174.8" y="330.8" width="17.7" height="9.9"/>
		<rect x="183.6" y="340.7" width="17" height="8.8"/>
		<rect x="124.4" y="323.2" width="42.4" height="8.7"/>
		<rect x="166.7" y="364.2" width="16.8" height="9.9"/>
		<rect x="158.3" y="331.9" width="8.4" height="50.8"/>
		<rect x="124.4" y="331.9" width="8.8" height="101.5"/>
		<rect x="133.2" y="340.7" width="7.8" height="109.4"/>
		<rect x="149.6" y="349.6" width="8.7" height="33.1"/>
		<rect x="141" y="348.3" width="8.7" height="8.9"/>
		<rect x="141" y="366.1" width="8.7" height="16.5"/>
		<rect x="116" y="398.9" width="11.3" height="25.5"/>
		<rect x="141" y="391.2" width="42.6" height="7.8"/>
		<rect x="158.3" y="398.9" width="25.3" height="17.7"/>
		<rect x="149.6" y="407.8" width="8.7" height="51.1"/>
		<rect x="141" y="450.2" width="8.7" height="8.7"/>
		<rect x="174.8" y="416.6" width="8.9" height="7.8"/>
		<rect x="183.6" y="407.8" width="8.5" height="34.6"/>
		<rect x="107.8" y="425.1" width="8.3" height="33.8"/>
		<rect x="260.5" y="323.8" width="7.6" height="24.5"/>
		<rect x="251.1" y="331.9" width="9.3" height="110.5"/>
		<rect x="242.7" y="348.3" width="8.5" height="25.8"/>
		<rect x="234.2" y="357.3" width="9.8" height="25.4"/>
		<rect x="226" y="374.4" width="8.3" height="50.7"/>
		<rect x="217.3" y="416.6" width="8.7" height="25.8"/>
		<rect x="192.1" y="425.1" width="8.5" height="16.9"/>
		<rect x="192.1" y="441.5" width="34.6" height="25.8"/>
		<rect x="353" y="323.2" width="33.6" height="8.7"/>
		<rect x="327.2" y="330.8" width="42.6" height="9.9"/>
		<rect x="268.1" y="340.4" width="84.9" height="7.9"/>
		<rect x="310.5" y="347.4" width="35.3" height="9.9"/>
		<rect x="318.6" y="357.3" width="17.9" height="9.3"/>
		<rect x="260.5" y="366.1" width="67.7" height="8.3"/>
		<rect x="310.5" y="374.1" width="26" height="17.1"/>
		<rect x="260.5" y="382.6" width="50" height="8.5"/>
		<rect x="302.6" y="391.2" width="16.1" height="25.5"/>
		<rect x="268.1" y="407.8" width="34.5" height="8.8"/>
		<rect x="293.9" y="416.6" width="16.5" height="25.3"/>
		<rect x="285.5" y="425.1" width="10.7" height="16.4"/>
		<rect x="259.5" y="424.4" width="8.6" height="34.5"/>
		<rect x="268.1" y="433.3" width="20.1" height="8.2"/>
		<rect x="268.1" y="450.2" width="34.1" height="8.7"/>
		<rect x="293.9" y="442" width="8.3" height="8.2"/>
		<rect x="420.6" y="331.9" width="25.6" height="8.9"/>
		<rect x="429.7" y="340.4" width="58.7" height="8.5"/>
		<rect x="479.9" y="331.9" width="10.4" height="8.5"/>
		<rect x="479.9" y="348.3" width="8.2" height="17.4"/>
		<rect x="471.9" y="357.1" width="9.3" height="17.3"/>
		<rect x="463.1" y="365.7" width="8.8" height="16.9"/>
		<rect x="386.6" y="348.9" width="8.9" height="17.2"/>
		<rect x="395.5" y="357.1" width="8.8" height="17.3"/>
		<rect x="403" y="366.1" width="17.6" height="8.3"/>
		<rect x="412.5" y="374.1" width="50.6" height="8.5"/>
		<rect x="420.6" y="382.6" width="17.2" height="8.5"/>
		<rect x="360.4" y="365.7" width="9.4" height="8.7"/>
		<rect x="369.8" y="382.6" width="16.8" height="8.5"/>
		<rect x="378.2" y="391.2" width="51.5" height="8.7"/>
		<rect x="386.6" y="398.3" width="8.9" height="18.3"/>
		<rect x="327.2" y="391.2" width="17.1" height="42.1"/>
		<rect x="344.3" y="399.9" width="8.7" height="24.5"/>
		<rect x="353" y="407.5" width="33.6" height="9.2"/>
		<rect x="318.6" y="424.4" width="9.6" height="42.8"/>
		<rect x="328.2" y="431.5" width="8.4" height="18.6"/>
		<rect x="310.6" y="450.2" width="8" height="42.8"/>
		<rect x="328.2" y="467.2" width="16.1" height="8.1"/>
		<rect x="318.6" y="475.3" width="17.9" height="9.3"/>
		<rect x="302.2" y="467.2" width="9.9" height="25.8"/>
		<rect x="292.5" y="475.3" width="9.7" height="24.5"/>
		<rect x="226" y="450.2" width="8.3" height="17.1"/>
		<rect x="234.4" y="458.7" width="16.8" height="16.6"/>
		<rect x="251.1" y="467" width="25.5" height="17.6"/>
		<rect x="268.1" y="475.8" width="24.4" height="15.9"/>
		<rect x="285.3" y="491.8" width="9" height="42.8"/>
		<rect x="294.3" y="526.5" width="8.2" height="8.7"/>
		<rect x="133.2" y="467" width="7.8" height="17.6"/>
		<rect x="99.7" y="441.6" width="8.1" height="42.2"/>
		<rect x="90.4" y="458.9" width="9.3" height="34.1"/>
		<rect x="90.4" y="467" width="25.7" height="16.8"/>
		<rect x="116" y="467" width="17.2" height="8.3"/>
		<rect x="73.6" y="483.8" width="18.3" height="9.2"/>
		<rect x="64.6" y="501.4" width="17.1" height="25.1"/>
		<rect x="73.6" y="493" width="8.1" height="42.2"/>
		<rect x="73.6" y="526.5" width="101.6" height="8.7"/>
		<rect x="99.7" y="499.8" width="8.1" height="26.7"/>
		<rect x="133.2" y="501.4" width="7.8" height="25.1"/>
		<rect x="141" y="501.4" width="8.7" height="7.5"/>
		<rect x="166.7" y="467" width="8.1" height="16.8"/>
		<rect x="166.7" y="501.4" width="8.4" height="25.1"/>
		<rect x="174.8" y="475.3" width="8.9" height="33.5"/>
		<rect x="183.7" y="467.2" width="8.9" height="16.6"/>
		<rect x="192.1" y="467.2" width="10" height="8.1"/>
		<rect x="318.6" y="501.4" width="8.6" height="33.8"/>
		<rect x="361.7" y="501.4" width="8.1" height="33.2"/>
		<rect x="302.6" y="535.2" width="93" height="8.7"/>
		<rect x="386.6" y="526.5" width="17.8" height="8.7"/>
		<rect x="369.8" y="475.3" width="16.8" height="9.3"/>
		<rect x="395.5" y="467" width="25.1" height="32.8"/>
		<rect x="378.2" y="484.6" width="17.3" height="7.9"/>
		<rect x="386.9" y="491.8" width="8.6" height="9.6"/>
		<rect x="395.5" y="498.3" width="17" height="10.6"/>
		<rect x="395.5" y="505.4" width="8.8" height="21.1"/>
		<rect x="420.6" y="467" width="8.6" height="25.5"/>
		<rect x="403" y="458.7" width="17.6" height="8.3"/>
		<rect x="411.8" y="416.6" width="8.8" height="42.1"/>
		<rect x="420.6" y="425.1" width="9.1" height="33.8"/>
		<rect x="514" y="338.7" width="16.2" height="18.5"/>
		<rect x="522.2" y="357.1" width="17" height="76.2"/>
		<rect x="530.7" y="433.3" width="8.8" height="50.5"/>
		<rect x="539.5" y="467.2" width="8.4" height="41.6"/>
		<rect x="530.7" y="501.4" width="8.5" height="16.6"/>
		<rect x="454.5" y="391.2" width="8.6" height="16.6"/>
		<rect x="446.2" y="399.5" width="8.3" height="33.8"/>
		<rect x="454.5" y="416.4" width="8.6" height="42.2"/>
		<rect x="446.2" y="450.2" width="8.3" height="17.1"/>
		<rect x="429.7" y="458.9" width="18.6" height="8.1"/>
		<rect x="429.2" y="467" width="8.6" height="8.8"/>
		<rect x="463.1" y="433.3" width="8.8" height="16.9"/>
		<rect x="471.9" y="441.5" width="8" height="25.5"/>
		<rect x="479.9" y="458.5" width="8.5" height="34.5"/>
		<rect x="471.9" y="483.8" width="8" height="34.2"/>
		<rect x="479.9" y="508.8" width="50.9" height="9.2"/>
		<rect x="496.9" y="492.5" width="8.5" height="17.2"/>
		<rect x="513.8" y="491.8" width="8.3" height="19.6"/>
	</g>
</g>
</svg>
