<?xml version="1.0" encoding="utf-8"?>
<!-- Generator: Adobe Illustrator 18.0.0, SVG Export Plug-In . SVG Version: 6.00 Build 0)  -->
<!DOCTYPE svg PUBLIC "-//W3C//DTD SVG 1.1//EN" "http://www.w3.org/Graphics/SVG/1.1/DTD/svg11.dtd">
<svg version="1.1" xmlns="http://www.w3.org/2000/svg" xmlns:xlink="http://www.w3.org/1999/xlink" x="0px" y="0px"
	 viewBox="0 0 370 338.1" enable-background="new 0 0 370 338.1" xml:space="preserve">
<g id="Réteg_3">
</g>
<g id="Réteg_4">
</g>
<g id="Réteg_5">
</g>
<g id="Réteg_2">
	<g>
		<rect x="109.1" y="82.2" fill="#C20314" width="47.3" height="117.2"/>
		<rect x="85.7" y="93.5" fill="#C20314" width="27.7" height="94.4"/>
		<rect x="67.7" y="114.9" fill="#C20314" width="18" height="42.1"/>
		<rect x="161.9" y="105.9" fill="#C20314" width="30.5" height="162.4"/>
		<rect x="120.8" y="198.4" fill="#C20314" width="21.1" height="20.8"/>
		<rect x="133.2" y="204" fill="#C20314" width="28.7" height="23.4"/>
		<rect x="142" y="227.4" fill="#C20314" width="27.3" height="18.7"/>
		<rect x="188.4" y="231.2" fill="#C20314" width="21.7" height="29"/>
		<rect x="197.1" y="222.1" fill="#C20314" width="34.5" height="14.6"/>
		<rect x="205.4" y="236.7" fill="#C20314" width="21.1" height="9.8"/>
		<rect x="155.4" y="110.2" fill="#C20314" width="29.4" height="81.4"/>
		<rect x="212.2" y="99.2" fill="#C20314" width="72.6" height="82.6"/>
		<rect x="191.3" y="102.2" fill="#C20314" width="52" height="125.2"/>
		<rect x="231.7" y="175.9" fill="#C20314" width="31.7" height="28.1"/>
		<rect x="263.4" y="180.1" fill="#C20314" width="15.4" height="7.8"/>
		<rect x="280.8" y="102.2" fill="#C20314" width="11.9" height="64.3"/>
		<rect x="286.8" y="105.9" fill="#C20314" width="14.7" height="54.2"/>
		<rect x="215.3" y="82.2" fill="#C20314" width="46.1" height="31.1"/>
		<rect x="257.8" y="93.5" fill="#C20314" width="29" height="8.6"/>
		<rect x="185.3" y="213.3" fill="#C20314" width="20.1" height="23.4"/>
		<rect x="131.4" y="187.1" fill="#C20314" width="21.6" height="28.6"/>
		<rect x="195.4" y="91.9" fill="#C20314" width="23.3" height="26.3"/>
		<rect x="158.2" y="97.7" fill="#C20314" width="45.1" height="17.2"/>
		<rect x="142" y="184" fill="#C20314" width="38.7" height="35.2"/>
		<rect x="150.2" y="240.2" fill="#C20314" width="16.5" height="11.1"/>
		<rect x="177.1" y="262.3" fill="#C20314" width="14.1" height="16.2"/>
		<rect x="284.8" y="157" fill="#C20314" width="10.7" height="7.3"/>
		<rect x="286.8" y="102.2" fill="#C20314" width="8.7" height="11.1"/>
		<rect x="150.2" y="91.9" fill="#C20314" width="19.8" height="23"/>
		<rect x="188.4" y="267" fill="#C20314" width="8.7" height="6.4"/>
		<rect x="248.7" y="93.5" fill="#FFFFFF" width="12.7" height="12.8"/>
		<rect x="261.4" y="106.3" fill="#FFFFFF" width="11.3" height="46"/>
		<rect x="272.3" y="118.2" fill="#FFFFFF" width="12.5" height="24.7"/>
		<rect x="248.7" y="152.3" fill="#FFFFFF" width="12.7" height="14.2"/>
		<rect x="238.4" y="175.9" fill="#FFFFFF" width="13.5" height="14.1"/>
		<rect x="214.2" y="106.3" fill="#E86B71" width="12.4" height="11.9"/>
		<rect x="226.5" y="93.5" fill="#E86B71" width="22.2" height="12.8"/>
		<rect x="238.4" y="166.5" fill="#E86B71" width="10.3" height="9.5"/>
		<rect x="261.4" y="152.3" fill="#E86B71" width="11.3" height="12"/>
		<rect x="248.7" y="106.3" fill="#E86B71" width="12.7" height="46"/>
		<rect x="238.4" y="105.9" fill="#DC2F39" width="10.1" height="12.4"/>
		<rect x="85.7" y="93.5" fill="#DC2F39" width="23.4" height="12.4"/>
		<rect x="73.7" y="118.2" fill="#DC2F39" width="12" height="22.3"/>
		<rect x="85.7" y="152.3" fill="#DC2F39" width="23.4" height="12.5"/>
		<rect x="85.7" y="93.5" fill="#DC2F39" width="11.4" height="58.8"/>
		<rect x="96.4" y="70.8" fill="#9E0018" width="70.8" height="11.4"/>
		<rect x="155.9" y="82.2" fill="#9E0018" width="23.4" height="11.4"/>
		<rect x="202" y="70.8" fill="#9E0018" width="59.5" height="11.4"/>
		<rect x="167.5" y="93.5" fill="#9E0018" width="34.4" height="11.4"/>
		<rect x="191.3" y="82.2" fill="#9E0018" width="24" height="11.4"/>
		<rect x="73.7" y="82.2" fill="#9E0018" width="35.4" height="11.4"/>
		<rect x="73.7" y="93.5" fill="#9E0018" width="12" height="24.7"/>
		<rect x="61.7" y="105.9" fill="#9E0018" width="12" height="58.5"/>
		<rect x="73.7" y="152.3" fill="#9E0018" width="12" height="35.4"/>
		<rect x="261.4" y="82.2" fill="#9E0018" width="34.1" height="11.4"/>
		<rect x="284.8" y="93.5" fill="#9E0018" width="10.7" height="11.4"/>
		<rect x="295.5" y="104.9" fill="#9E0018" width="12" height="59.5"/>
		<rect x="284.8" y="164.3" fill="#9E0018" width="10.7" height="23.2"/>
		<rect x="272.7" y="175.9" fill="#9E0018" width="12.1" height="24"/>
		<rect x="260.3" y="187.9" fill="#9E0018" width="12.4" height="23.1"/>
		<rect x="248.7" y="199.5" fill="#9E0018" width="11.6" height="22.6"/>
		<rect x="237.9" y="204" fill="#9E0018" width="10.8" height="30.4"/>
		<rect x="226.5" y="222.1" fill="#9E0018" width="11.3" height="24.5"/>
		<rect x="214.2" y="234.4" fill="#9E0018" width="12.4" height="23.2"/>
		<rect x="202.6" y="246" fill="#9E0018" width="11.6" height="24"/>
		<rect x="191.7" y="258" fill="#9E0018" width="10.8" height="22.8"/>
		<rect x="178.3" y="270" fill="#9E0018" width="14.1" height="23.2"/>
		<rect x="166.9" y="258" fill="#9E0018" width="11.7" height="23.6"/>
		<rect x="155.4" y="246.6" fill="#9E0018" width="11.5" height="23.5"/>
		<rect x="144" y="234.4" fill="#9E0018" width="12.4" height="23.2"/>
		<rect x="85.7" y="175.9" fill="#9E0018" width="11.4" height="23.5"/>
		<rect x="97.1" y="187.9" fill="#9E0018" width="12.4" height="22.8"/>
		<rect x="109.5" y="199.3" fill="#9E0018" width="11.3" height="22.7"/>
		<rect x="120.8" y="210.7" fill="#9E0018" width="12.4" height="23.7"/>
		<rect x="132.2" y="222.6" fill="#9E0018" width="11.9" height="24"/>
	</g>
</g>
</svg>
