<?xml version="1.0" encoding="utf-8"?>
<!-- Generator: Adobe Illustrator 18.0.0, SVG Export Plug-In . SVG Version: 6.00 Build 0)  -->
<!DOCTYPE svg PUBLIC "-//W3C//DTD SVG 1.1//EN" "http://www.w3.org/Graphics/SVG/1.1/DTD/svg11.dtd">
<svg version="1.1" xmlns="http://www.w3.org/2000/svg" xmlns:xlink="http://www.w3.org/1999/xlink" x="0px" y="0px"
	 viewBox="0 0 218.4 395" enable-background="new 0 0 218.4 395" xml:space="preserve">
<g id="Réteg_2">
	
		<rect x="75.9" y="89.4" transform="matrix(0.9994 -3.324885e-02 3.324885e-02 0.9994 -5.4174 2.8915)" fill="#7E8A8C" width="16.7" height="149.8"/>
	<rect x="89.6" y="62.1" fill="#7E8A8C" width="14.7" height="27.1"/>
	
		<rect x="91.3" y="89.2" transform="matrix(0.9999 -1.654636e-02 1.654636e-02 0.9999 -2.6979 1.6696)" fill="#BBCBCD" width="16.5" height="149.4"/>
	
		<rect x="104.1" y="49" transform="matrix(0.9997 -2.289822e-02 2.289822e-02 0.9997 -3.2647 2.6066)" fill="#ACBCBD" width="16.1" height="189.7"/>
	
		<rect x="119.3" y="102" transform="matrix(0.9998 -1.888336e-02 1.888336e-02 0.9998 -3.1938 2.4174)" fill="#BBCBCD" width="14.2" height="136.6"/>
	<rect x="118" y="62.1" fill="#DAEAED" width="12.1" height="39.8"/>
	
		<rect x="130.2" y="89.2" transform="matrix(-0.9996 2.947848e-02 -2.947848e-02 -0.9996 280.6826 323.9892)" fill="#DAEAED" width="15.5" height="149.8"/>
</g>
<g id="Réteg_3">
	
		<rect x="53.4" y="236.8" transform="matrix(0.9997 -2.467815e-02 2.467815e-02 0.9997 -6.0981 2.9054)" fill="#875957" width="122.6" height="23.4"/>
	
		<rect x="69.6" y="255.7" transform="matrix(-0.9997 2.467826e-02 -2.467826e-02 -0.9997 239.642 528.4172)" fill="#875957" width="93.9" height="19.9"/>
	
		<rect x="82.8" y="270.5" transform="matrix(-0.9997 2.467826e-02 -2.467826e-02 -0.9997 241.0318 555.9946)" fill="#875957" width="68.5" height="18"/>
	
		<rect x="98.4" y="281.1" transform="matrix(-0.9997 2.467826e-02 -2.467826e-02 -0.9997 245.6286 619.9232)" fill="#875957" width="41.3" height="60.7"/>
	
		<rect x="111.6" y="336.3" transform="matrix(-1 2.538591e-03 -2.538591e-03 -1 239.2545 691.5078)" fill="#875957" width="15.3" height="19.1"/>
	
		<rect x="53.1" y="236" transform="matrix(1 -3.486192e-03 3.486192e-03 1 -0.8426 0.3754)" fill="#6C4645" width="108.4" height="11.8"/>
	<rect x="54" y="245.2" fill="#6C4645" width="93.9" height="14.6"/>
	<rect x="69.4" y="253.5" fill="#6C4645" width="65.4" height="21.7"/>
	<rect x="109" y="272.5" fill="#6C4645" width="17.8" height="82.7"/>
	<rect x="53.1" y="236.8" fill="#4D2E2E" width="14.2" height="27.5"/>
	<rect x="67.2" y="249.3" fill="#4D2E2E" width="15.6" height="27.5"/>
	<rect x="82.6" y="263" fill="#4D2E2E" width="14.2" height="26.3"/>
	<rect x="95" y="273.2" fill="#4D2E2E" width="14" height="69.2"/>
	<rect x="111.3" y="249.3" fill="#FFAF26" width="15.1" height="15"/>
</g>
</svg>
